%TF.GenerationSoftware,KiCad,Pcbnew,8.0.7*%
%TF.CreationDate,2024-12-19T12:35:45+01:00*%
%TF.ProjectId,motion-play-sensor-strip,6d6f7469-6f6e-42d7-906c-61792d73656e,rev?*%
%TF.SameCoordinates,Original*%
%TF.FileFunction,Legend,Top*%
%TF.FilePolarity,Positive*%
%FSLAX46Y46*%
G04 Gerber Fmt 4.6, Leading zero omitted, Abs format (unit mm)*
G04 Created by KiCad (PCBNEW 8.0.7) date 2024-12-19 12:35:45*
%MOMM*%
%LPD*%
G01*
G04 APERTURE LIST*
%ADD10C,0.200000*%
%ADD11C,0.150000*%
%ADD12C,0.127000*%
%ADD13C,0.120000*%
G04 APERTURE END LIST*
D10*
X101072054Y-94141695D02*
X101072054Y-93341695D01*
X101072054Y-93341695D02*
X101376816Y-93341695D01*
X101376816Y-93341695D02*
X101453006Y-93379790D01*
X101453006Y-93379790D02*
X101491101Y-93417885D01*
X101491101Y-93417885D02*
X101529197Y-93494076D01*
X101529197Y-93494076D02*
X101529197Y-93608361D01*
X101529197Y-93608361D02*
X101491101Y-93684552D01*
X101491101Y-93684552D02*
X101453006Y-93722647D01*
X101453006Y-93722647D02*
X101376816Y-93760742D01*
X101376816Y-93760742D02*
X101072054Y-93760742D01*
X101795863Y-93608361D02*
X101948244Y-94141695D01*
X101948244Y-94141695D02*
X102100625Y-93760742D01*
X102100625Y-93760742D02*
X102253006Y-94141695D01*
X102253006Y-94141695D02*
X102405387Y-93608361D01*
X102710149Y-94141695D02*
X102710149Y-93608361D01*
X102710149Y-93760742D02*
X102748244Y-93684552D01*
X102748244Y-93684552D02*
X102786339Y-93646457D01*
X102786339Y-93646457D02*
X102862530Y-93608361D01*
X102862530Y-93608361D02*
X102938720Y-93608361D01*
X103967292Y-93341695D02*
X104119673Y-93341695D01*
X104119673Y-93341695D02*
X104195863Y-93379790D01*
X104195863Y-93379790D02*
X104272054Y-93455980D01*
X104272054Y-93455980D02*
X104310149Y-93608361D01*
X104310149Y-93608361D02*
X104310149Y-93875028D01*
X104310149Y-93875028D02*
X104272054Y-94027409D01*
X104272054Y-94027409D02*
X104195863Y-94103600D01*
X104195863Y-94103600D02*
X104119673Y-94141695D01*
X104119673Y-94141695D02*
X103967292Y-94141695D01*
X103967292Y-94141695D02*
X103891101Y-94103600D01*
X103891101Y-94103600D02*
X103814911Y-94027409D01*
X103814911Y-94027409D02*
X103776815Y-93875028D01*
X103776815Y-93875028D02*
X103776815Y-93608361D01*
X103776815Y-93608361D02*
X103814911Y-93455980D01*
X103814911Y-93455980D02*
X103891101Y-93379790D01*
X103891101Y-93379790D02*
X103967292Y-93341695D01*
X104995863Y-93608361D02*
X104995863Y-94141695D01*
X104653006Y-93608361D02*
X104653006Y-94027409D01*
X104653006Y-94027409D02*
X104691101Y-94103600D01*
X104691101Y-94103600D02*
X104767291Y-94141695D01*
X104767291Y-94141695D02*
X104881577Y-94141695D01*
X104881577Y-94141695D02*
X104957768Y-94103600D01*
X104957768Y-94103600D02*
X104995863Y-94065504D01*
X105262530Y-93608361D02*
X105567292Y-93608361D01*
X105376816Y-93341695D02*
X105376816Y-94027409D01*
X105376816Y-94027409D02*
X105414911Y-94103600D01*
X105414911Y-94103600D02*
X105491101Y-94141695D01*
X105491101Y-94141695D02*
X105567292Y-94141695D01*
X159279197Y-102315504D02*
X159241101Y-102353600D01*
X159241101Y-102353600D02*
X159126816Y-102391695D01*
X159126816Y-102391695D02*
X159050625Y-102391695D01*
X159050625Y-102391695D02*
X158936339Y-102353600D01*
X158936339Y-102353600D02*
X158860149Y-102277409D01*
X158860149Y-102277409D02*
X158822054Y-102201219D01*
X158822054Y-102201219D02*
X158783958Y-102048838D01*
X158783958Y-102048838D02*
X158783958Y-101934552D01*
X158783958Y-101934552D02*
X158822054Y-101782171D01*
X158822054Y-101782171D02*
X158860149Y-101705980D01*
X158860149Y-101705980D02*
X158936339Y-101629790D01*
X158936339Y-101629790D02*
X159050625Y-101591695D01*
X159050625Y-101591695D02*
X159126816Y-101591695D01*
X159126816Y-101591695D02*
X159241101Y-101629790D01*
X159241101Y-101629790D02*
X159279197Y-101667885D01*
X159736339Y-102391695D02*
X159660149Y-102353600D01*
X159660149Y-102353600D02*
X159622054Y-102315504D01*
X159622054Y-102315504D02*
X159583958Y-102239314D01*
X159583958Y-102239314D02*
X159583958Y-102010742D01*
X159583958Y-102010742D02*
X159622054Y-101934552D01*
X159622054Y-101934552D02*
X159660149Y-101896457D01*
X159660149Y-101896457D02*
X159736339Y-101858361D01*
X159736339Y-101858361D02*
X159850625Y-101858361D01*
X159850625Y-101858361D02*
X159926816Y-101896457D01*
X159926816Y-101896457D02*
X159964911Y-101934552D01*
X159964911Y-101934552D02*
X160003006Y-102010742D01*
X160003006Y-102010742D02*
X160003006Y-102239314D01*
X160003006Y-102239314D02*
X159964911Y-102315504D01*
X159964911Y-102315504D02*
X159926816Y-102353600D01*
X159926816Y-102353600D02*
X159850625Y-102391695D01*
X159850625Y-102391695D02*
X159736339Y-102391695D01*
X160345864Y-102391695D02*
X160345864Y-101858361D01*
X160345864Y-101934552D02*
X160383959Y-101896457D01*
X160383959Y-101896457D02*
X160460149Y-101858361D01*
X160460149Y-101858361D02*
X160574435Y-101858361D01*
X160574435Y-101858361D02*
X160650626Y-101896457D01*
X160650626Y-101896457D02*
X160688721Y-101972647D01*
X160688721Y-101972647D02*
X160688721Y-102391695D01*
X160688721Y-101972647D02*
X160726816Y-101896457D01*
X160726816Y-101896457D02*
X160803007Y-101858361D01*
X160803007Y-101858361D02*
X160917292Y-101858361D01*
X160917292Y-101858361D02*
X160993483Y-101896457D01*
X160993483Y-101896457D02*
X161031578Y-101972647D01*
X161031578Y-101972647D02*
X161031578Y-102391695D01*
X161412531Y-102391695D02*
X161412531Y-101858361D01*
X161412531Y-101934552D02*
X161450626Y-101896457D01*
X161450626Y-101896457D02*
X161526816Y-101858361D01*
X161526816Y-101858361D02*
X161641102Y-101858361D01*
X161641102Y-101858361D02*
X161717293Y-101896457D01*
X161717293Y-101896457D02*
X161755388Y-101972647D01*
X161755388Y-101972647D02*
X161755388Y-102391695D01*
X161755388Y-101972647D02*
X161793483Y-101896457D01*
X161793483Y-101896457D02*
X161869674Y-101858361D01*
X161869674Y-101858361D02*
X161983959Y-101858361D01*
X161983959Y-101858361D02*
X162060150Y-101896457D01*
X162060150Y-101896457D02*
X162098245Y-101972647D01*
X162098245Y-101972647D02*
X162098245Y-102391695D01*
X165072054Y-102391695D02*
X165072054Y-101591695D01*
X165072054Y-101591695D02*
X165376816Y-101591695D01*
X165376816Y-101591695D02*
X165453006Y-101629790D01*
X165453006Y-101629790D02*
X165491101Y-101667885D01*
X165491101Y-101667885D02*
X165529197Y-101744076D01*
X165529197Y-101744076D02*
X165529197Y-101858361D01*
X165529197Y-101858361D02*
X165491101Y-101934552D01*
X165491101Y-101934552D02*
X165453006Y-101972647D01*
X165453006Y-101972647D02*
X165376816Y-102010742D01*
X165376816Y-102010742D02*
X165072054Y-102010742D01*
X165795863Y-101858361D02*
X165948244Y-102391695D01*
X165948244Y-102391695D02*
X166100625Y-102010742D01*
X166100625Y-102010742D02*
X166253006Y-102391695D01*
X166253006Y-102391695D02*
X166405387Y-101858361D01*
X166710149Y-102391695D02*
X166710149Y-101858361D01*
X166710149Y-102010742D02*
X166748244Y-101934552D01*
X166748244Y-101934552D02*
X166786339Y-101896457D01*
X166786339Y-101896457D02*
X166862530Y-101858361D01*
X166862530Y-101858361D02*
X166938720Y-101858361D01*
X167814911Y-102391695D02*
X167814911Y-101591695D01*
X168195863Y-101858361D02*
X168195863Y-102391695D01*
X168195863Y-101934552D02*
X168233958Y-101896457D01*
X168233958Y-101896457D02*
X168310148Y-101858361D01*
X168310148Y-101858361D02*
X168424434Y-101858361D01*
X168424434Y-101858361D02*
X168500625Y-101896457D01*
X168500625Y-101896457D02*
X168538720Y-101972647D01*
X168538720Y-101972647D02*
X168538720Y-102391695D01*
D11*
X134958569Y-94006540D02*
X134958569Y-94492994D01*
X134958569Y-94492994D02*
X134987184Y-94550224D01*
X134987184Y-94550224D02*
X135015799Y-94578839D01*
X135015799Y-94578839D02*
X135073029Y-94607453D01*
X135073029Y-94607453D02*
X135187488Y-94607453D01*
X135187488Y-94607453D02*
X135244718Y-94578839D01*
X135244718Y-94578839D02*
X135273333Y-94550224D01*
X135273333Y-94550224D02*
X135301948Y-94492994D01*
X135301948Y-94492994D02*
X135301948Y-94006540D01*
X135902861Y-94607453D02*
X135559482Y-94607453D01*
X135731172Y-94607453D02*
X135731172Y-94006540D01*
X135731172Y-94006540D02*
X135673942Y-94092385D01*
X135673942Y-94092385D02*
X135616712Y-94149615D01*
X135616712Y-94149615D02*
X135559482Y-94178230D01*
X139733333Y-102922319D02*
X139400000Y-102446128D01*
X139161905Y-102922319D02*
X139161905Y-101922319D01*
X139161905Y-101922319D02*
X139542857Y-101922319D01*
X139542857Y-101922319D02*
X139638095Y-101969938D01*
X139638095Y-101969938D02*
X139685714Y-102017557D01*
X139685714Y-102017557D02*
X139733333Y-102112795D01*
X139733333Y-102112795D02*
X139733333Y-102255652D01*
X139733333Y-102255652D02*
X139685714Y-102350890D01*
X139685714Y-102350890D02*
X139638095Y-102398509D01*
X139638095Y-102398509D02*
X139542857Y-102446128D01*
X139542857Y-102446128D02*
X139161905Y-102446128D01*
X140066667Y-101922319D02*
X140685714Y-101922319D01*
X140685714Y-101922319D02*
X140352381Y-102303271D01*
X140352381Y-102303271D02*
X140495238Y-102303271D01*
X140495238Y-102303271D02*
X140590476Y-102350890D01*
X140590476Y-102350890D02*
X140638095Y-102398509D01*
X140638095Y-102398509D02*
X140685714Y-102493747D01*
X140685714Y-102493747D02*
X140685714Y-102731842D01*
X140685714Y-102731842D02*
X140638095Y-102827080D01*
X140638095Y-102827080D02*
X140590476Y-102874700D01*
X140590476Y-102874700D02*
X140495238Y-102922319D01*
X140495238Y-102922319D02*
X140209524Y-102922319D01*
X140209524Y-102922319D02*
X140114286Y-102874700D01*
X140114286Y-102874700D02*
X140066667Y-102827080D01*
X139733333Y-97422319D02*
X139400000Y-96946128D01*
X139161905Y-97422319D02*
X139161905Y-96422319D01*
X139161905Y-96422319D02*
X139542857Y-96422319D01*
X139542857Y-96422319D02*
X139638095Y-96469938D01*
X139638095Y-96469938D02*
X139685714Y-96517557D01*
X139685714Y-96517557D02*
X139733333Y-96612795D01*
X139733333Y-96612795D02*
X139733333Y-96755652D01*
X139733333Y-96755652D02*
X139685714Y-96850890D01*
X139685714Y-96850890D02*
X139638095Y-96898509D01*
X139638095Y-96898509D02*
X139542857Y-96946128D01*
X139542857Y-96946128D02*
X139161905Y-96946128D01*
X140114286Y-96517557D02*
X140161905Y-96469938D01*
X140161905Y-96469938D02*
X140257143Y-96422319D01*
X140257143Y-96422319D02*
X140495238Y-96422319D01*
X140495238Y-96422319D02*
X140590476Y-96469938D01*
X140590476Y-96469938D02*
X140638095Y-96517557D01*
X140638095Y-96517557D02*
X140685714Y-96612795D01*
X140685714Y-96612795D02*
X140685714Y-96708033D01*
X140685714Y-96708033D02*
X140638095Y-96850890D01*
X140638095Y-96850890D02*
X140066667Y-97422319D01*
X140066667Y-97422319D02*
X140685714Y-97422319D01*
X139733333Y-100172319D02*
X139400000Y-99696128D01*
X139161905Y-100172319D02*
X139161905Y-99172319D01*
X139161905Y-99172319D02*
X139542857Y-99172319D01*
X139542857Y-99172319D02*
X139638095Y-99219938D01*
X139638095Y-99219938D02*
X139685714Y-99267557D01*
X139685714Y-99267557D02*
X139733333Y-99362795D01*
X139733333Y-99362795D02*
X139733333Y-99505652D01*
X139733333Y-99505652D02*
X139685714Y-99600890D01*
X139685714Y-99600890D02*
X139638095Y-99648509D01*
X139638095Y-99648509D02*
X139542857Y-99696128D01*
X139542857Y-99696128D02*
X139161905Y-99696128D01*
X140685714Y-100172319D02*
X140114286Y-100172319D01*
X140400000Y-100172319D02*
X140400000Y-99172319D01*
X140400000Y-99172319D02*
X140304762Y-99315176D01*
X140304762Y-99315176D02*
X140209524Y-99410414D01*
X140209524Y-99410414D02*
X140114286Y-99458033D01*
X160166666Y-93724819D02*
X160166666Y-94439104D01*
X160166666Y-94439104D02*
X160119047Y-94581961D01*
X160119047Y-94581961D02*
X160023809Y-94677200D01*
X160023809Y-94677200D02*
X159880952Y-94724819D01*
X159880952Y-94724819D02*
X159785714Y-94724819D01*
X160547619Y-93724819D02*
X161166666Y-93724819D01*
X161166666Y-93724819D02*
X160833333Y-94105771D01*
X160833333Y-94105771D02*
X160976190Y-94105771D01*
X160976190Y-94105771D02*
X161071428Y-94153390D01*
X161071428Y-94153390D02*
X161119047Y-94201009D01*
X161119047Y-94201009D02*
X161166666Y-94296247D01*
X161166666Y-94296247D02*
X161166666Y-94534342D01*
X161166666Y-94534342D02*
X161119047Y-94629580D01*
X161119047Y-94629580D02*
X161071428Y-94677200D01*
X161071428Y-94677200D02*
X160976190Y-94724819D01*
X160976190Y-94724819D02*
X160690476Y-94724819D01*
X160690476Y-94724819D02*
X160595238Y-94677200D01*
X160595238Y-94677200D02*
X160547619Y-94629580D01*
X102666666Y-101059819D02*
X102666666Y-101774104D01*
X102666666Y-101774104D02*
X102619047Y-101916961D01*
X102619047Y-101916961D02*
X102523809Y-102012200D01*
X102523809Y-102012200D02*
X102380952Y-102059819D01*
X102380952Y-102059819D02*
X102285714Y-102059819D01*
X103095238Y-101155057D02*
X103142857Y-101107438D01*
X103142857Y-101107438D02*
X103238095Y-101059819D01*
X103238095Y-101059819D02*
X103476190Y-101059819D01*
X103476190Y-101059819D02*
X103571428Y-101107438D01*
X103571428Y-101107438D02*
X103619047Y-101155057D01*
X103619047Y-101155057D02*
X103666666Y-101250295D01*
X103666666Y-101250295D02*
X103666666Y-101345533D01*
X103666666Y-101345533D02*
X103619047Y-101488390D01*
X103619047Y-101488390D02*
X103047619Y-102059819D01*
X103047619Y-102059819D02*
X103666666Y-102059819D01*
X166466666Y-93724819D02*
X166466666Y-94439104D01*
X166466666Y-94439104D02*
X166419047Y-94581961D01*
X166419047Y-94581961D02*
X166323809Y-94677200D01*
X166323809Y-94677200D02*
X166180952Y-94724819D01*
X166180952Y-94724819D02*
X166085714Y-94724819D01*
X167466666Y-94724819D02*
X166895238Y-94724819D01*
X167180952Y-94724819D02*
X167180952Y-93724819D01*
X167180952Y-93724819D02*
X167085714Y-93867676D01*
X167085714Y-93867676D02*
X166990476Y-93962914D01*
X166990476Y-93962914D02*
X166895238Y-94010533D01*
X130708333Y-99967080D02*
X130660714Y-100014700D01*
X130660714Y-100014700D02*
X130517857Y-100062319D01*
X130517857Y-100062319D02*
X130422619Y-100062319D01*
X130422619Y-100062319D02*
X130279762Y-100014700D01*
X130279762Y-100014700D02*
X130184524Y-99919461D01*
X130184524Y-99919461D02*
X130136905Y-99824223D01*
X130136905Y-99824223D02*
X130089286Y-99633747D01*
X130089286Y-99633747D02*
X130089286Y-99490890D01*
X130089286Y-99490890D02*
X130136905Y-99300414D01*
X130136905Y-99300414D02*
X130184524Y-99205176D01*
X130184524Y-99205176D02*
X130279762Y-99109938D01*
X130279762Y-99109938D02*
X130422619Y-99062319D01*
X130422619Y-99062319D02*
X130517857Y-99062319D01*
X130517857Y-99062319D02*
X130660714Y-99109938D01*
X130660714Y-99109938D02*
X130708333Y-99157557D01*
X131089286Y-99157557D02*
X131136905Y-99109938D01*
X131136905Y-99109938D02*
X131232143Y-99062319D01*
X131232143Y-99062319D02*
X131470238Y-99062319D01*
X131470238Y-99062319D02*
X131565476Y-99109938D01*
X131565476Y-99109938D02*
X131613095Y-99157557D01*
X131613095Y-99157557D02*
X131660714Y-99252795D01*
X131660714Y-99252795D02*
X131660714Y-99348033D01*
X131660714Y-99348033D02*
X131613095Y-99490890D01*
X131613095Y-99490890D02*
X131041667Y-100062319D01*
X131041667Y-100062319D02*
X131660714Y-100062319D01*
X130708333Y-94967080D02*
X130660714Y-95014700D01*
X130660714Y-95014700D02*
X130517857Y-95062319D01*
X130517857Y-95062319D02*
X130422619Y-95062319D01*
X130422619Y-95062319D02*
X130279762Y-95014700D01*
X130279762Y-95014700D02*
X130184524Y-94919461D01*
X130184524Y-94919461D02*
X130136905Y-94824223D01*
X130136905Y-94824223D02*
X130089286Y-94633747D01*
X130089286Y-94633747D02*
X130089286Y-94490890D01*
X130089286Y-94490890D02*
X130136905Y-94300414D01*
X130136905Y-94300414D02*
X130184524Y-94205176D01*
X130184524Y-94205176D02*
X130279762Y-94109938D01*
X130279762Y-94109938D02*
X130422619Y-94062319D01*
X130422619Y-94062319D02*
X130517857Y-94062319D01*
X130517857Y-94062319D02*
X130660714Y-94109938D01*
X130660714Y-94109938D02*
X130708333Y-94157557D01*
X131660714Y-95062319D02*
X131089286Y-95062319D01*
X131375000Y-95062319D02*
X131375000Y-94062319D01*
X131375000Y-94062319D02*
X131279762Y-94205176D01*
X131279762Y-94205176D02*
X131184524Y-94300414D01*
X131184524Y-94300414D02*
X131089286Y-94348033D01*
D12*
%TO.C,U1*%
X133093000Y-96137500D02*
G75*
G02*
X132993000Y-96137500I-50000J0D01*
G01*
X132993000Y-96137500D02*
G75*
G02*
X133093000Y-96137500I50000J0D01*
G01*
D13*
%TO.C,R3*%
X140137258Y-101560000D02*
X139662742Y-101560000D01*
X140137258Y-100515000D02*
X139662742Y-100515000D01*
%TO.C,R2*%
X140137258Y-96060000D02*
X139662742Y-96060000D01*
X140137258Y-95015000D02*
X139662742Y-95015000D01*
%TO.C,R1*%
X140137258Y-98810000D02*
X139662742Y-98810000D01*
X140137258Y-97765000D02*
X139662742Y-97765000D01*
%TO.C,J3*%
X163110000Y-98965000D02*
X163110000Y-96465000D01*
X163110000Y-96465000D02*
X162060000Y-96465000D01*
X159060000Y-100935000D02*
X161940000Y-100935000D01*
X158940000Y-96465000D02*
X158940000Y-95475000D01*
X157890000Y-98965000D02*
X157890000Y-96465000D01*
X157890000Y-96465000D02*
X158940000Y-96465000D01*
%TO.C,J2*%
X105110000Y-99410000D02*
X104060000Y-99410000D01*
X105110000Y-96910000D02*
X105110000Y-99410000D01*
X104060000Y-99410000D02*
X104060000Y-100400000D01*
X103940000Y-94940000D02*
X102060000Y-94940000D01*
X100890000Y-99410000D02*
X101940000Y-99410000D01*
X100890000Y-96910000D02*
X100890000Y-99410000D01*
%TO.C,J1*%
X168910000Y-98965000D02*
X168910000Y-96465000D01*
X168910000Y-96465000D02*
X167860000Y-96465000D01*
X165860000Y-100935000D02*
X167740000Y-100935000D01*
X165740000Y-96465000D02*
X165740000Y-95475000D01*
X164690000Y-98965000D02*
X164690000Y-96465000D01*
X164690000Y-96465000D02*
X165740000Y-96465000D01*
%TO.C,C2*%
X130734420Y-100527500D02*
X131015580Y-100527500D01*
X130734420Y-101547500D02*
X131015580Y-101547500D01*
%TO.C,C1*%
X130734420Y-95527500D02*
X131015580Y-95527500D01*
X130734420Y-96547500D02*
X131015580Y-96547500D01*
%TD*%
M02*
