%TF.GenerationSoftware,KiCad,Pcbnew,8.0.7*%
%TF.CreationDate,2024-12-19T12:35:45+01:00*%
%TF.ProjectId,motion-play-sensor-strip,6d6f7469-6f6e-42d7-906c-61792d73656e,rev?*%
%TF.SameCoordinates,Original*%
%TF.FileFunction,Copper,L1,Top*%
%TF.FilePolarity,Positive*%
%FSLAX46Y46*%
G04 Gerber Fmt 4.6, Leading zero omitted, Abs format (unit mm)*
G04 Created by KiCad (PCBNEW 8.0.7) date 2024-12-19 12:35:45*
%MOMM*%
%LPD*%
G01*
G04 APERTURE LIST*
G04 Aperture macros list*
%AMRoundRect*
0 Rectangle with rounded corners*
0 $1 Rounding radius*
0 $2 $3 $4 $5 $6 $7 $8 $9 X,Y pos of 4 corners*
0 Add a 4 corners polygon primitive as box body*
4,1,4,$2,$3,$4,$5,$6,$7,$8,$9,$2,$3,0*
0 Add four circle primitives for the rounded corners*
1,1,$1+$1,$2,$3*
1,1,$1+$1,$4,$5*
1,1,$1+$1,$6,$7*
1,1,$1+$1,$8,$9*
0 Add four rect primitives between the rounded corners*
20,1,$1+$1,$2,$3,$4,$5,0*
20,1,$1+$1,$4,$5,$6,$7,0*
20,1,$1+$1,$6,$7,$8,$9,0*
20,1,$1+$1,$8,$9,$2,$3,0*%
G04 Aperture macros list end*
%TA.AperFunction,SMDPad,CuDef*%
%ADD10R,0.900000X0.725000*%
%TD*%
%TA.AperFunction,SMDPad,CuDef*%
%ADD11RoundRect,0.200000X0.200000X0.275000X-0.200000X0.275000X-0.200000X-0.275000X0.200000X-0.275000X0*%
%TD*%
%TA.AperFunction,SMDPad,CuDef*%
%ADD12RoundRect,0.250000X-0.350000X-0.650000X0.350000X-0.650000X0.350000X0.650000X-0.350000X0.650000X0*%
%TD*%
%TA.AperFunction,SMDPad,CuDef*%
%ADD13RoundRect,0.150000X-0.150000X-0.625000X0.150000X-0.625000X0.150000X0.625000X-0.150000X0.625000X0*%
%TD*%
%TA.AperFunction,SMDPad,CuDef*%
%ADD14RoundRect,0.150000X0.150000X0.625000X-0.150000X0.625000X-0.150000X-0.625000X0.150000X-0.625000X0*%
%TD*%
%TA.AperFunction,SMDPad,CuDef*%
%ADD15RoundRect,0.250000X0.350000X0.650000X-0.350000X0.650000X-0.350000X-0.650000X0.350000X-0.650000X0*%
%TD*%
%TA.AperFunction,SMDPad,CuDef*%
%ADD16RoundRect,0.225000X-0.225000X-0.250000X0.225000X-0.250000X0.225000X0.250000X-0.225000X0.250000X0*%
%TD*%
%TA.AperFunction,ViaPad*%
%ADD17C,0.600000*%
%TD*%
%TA.AperFunction,Conductor*%
%ADD18C,0.300000*%
%TD*%
G04 APERTURE END LIST*
D10*
%TO.P,U1,4*%
%TO.N,+3.3V*%
X134250000Y-99400000D03*
%TO.P,U1,1*%
%TO.N,GND*%
X134250000Y-96175000D03*
%TO.P,U1,2*%
X134250000Y-97250000D03*
%TO.P,U1,3*%
%TO.N,+3.3V*%
X134250000Y-98325000D03*
%TO.P,U1,5*%
%TO.N,/SCL*%
X136050000Y-99400000D03*
%TO.P,U1,8*%
%TO.N,GND*%
X136050000Y-96175250D03*
%TO.P,U1,6*%
%TO.N,/SDA*%
X136050000Y-98325000D03*
%TO.P,U1,7*%
%TO.N,Net-(J3-Pin_3)*%
X136050000Y-97250000D03*
%TD*%
D11*
%TO.P,R3,1*%
%TO.N,+3.3V*%
X140725000Y-101037500D03*
%TO.P,R3,2*%
%TO.N,Net-(J3-Pin_3)*%
X139075000Y-101037500D03*
%TD*%
%TO.P,R2,1*%
%TO.N,+3.3V*%
X140725000Y-95537500D03*
%TO.P,R2,2*%
%TO.N,/SDA*%
X139075000Y-95537500D03*
%TD*%
%TO.P,R1,1*%
%TO.N,+3.3V*%
X140725000Y-98287500D03*
%TO.P,R1,2*%
%TO.N,/SCL*%
X139075000Y-98287500D03*
%TD*%
D12*
%TO.P,J3,MP*%
%TO.N,N/C*%
X162800000Y-100125000D03*
X158200000Y-100125000D03*
D13*
%TO.P,J3,3,Pin_3*%
%TO.N,Net-(J3-Pin_3)*%
X161500000Y-96250000D03*
%TO.P,J3,2,Pin_2*%
%TO.N,/SCL*%
X160500000Y-96250000D03*
%TO.P,J3,1,Pin_1*%
%TO.N,/SDA*%
X159500000Y-96250000D03*
%TD*%
D14*
%TO.P,J2,1,Pin_1*%
%TO.N,+3.3V*%
X103500000Y-99625000D03*
%TO.P,J2,2,Pin_2*%
%TO.N,GND*%
X102500000Y-99625000D03*
D15*
%TO.P,J2,MP*%
%TO.N,N/C*%
X104800000Y-95750000D03*
X101200000Y-95750000D03*
%TD*%
D12*
%TO.P,J1,MP*%
%TO.N,N/C*%
X168600000Y-100125000D03*
X165000000Y-100125000D03*
D13*
%TO.P,J1,2,Pin_2*%
%TO.N,GND*%
X167300000Y-96250000D03*
%TO.P,J1,1,Pin_1*%
%TO.N,+3.3V*%
X166300000Y-96250000D03*
%TD*%
D16*
%TO.P,C2,1*%
%TO.N,+3.3V*%
X130100000Y-101037500D03*
%TO.P,C2,2*%
%TO.N,GND*%
X131650000Y-101037500D03*
%TD*%
%TO.P,C1,1*%
%TO.N,+3.3V*%
X130100000Y-96037500D03*
%TO.P,C1,2*%
%TO.N,GND*%
X131650000Y-96037500D03*
%TD*%
D17*
%TO.N,Net-(J3-Pin_3)*%
X136977880Y-97227880D03*
X138375081Y-99902273D03*
%TO.N,+3.3V*%
X148000000Y-95850000D03*
X142750000Y-101000000D03*
X143000000Y-98025000D03*
X145250000Y-95850000D03*
%TO.N,GND*%
X102500000Y-98000000D03*
X132000000Y-100250000D03*
X132500000Y-96250000D03*
X133500000Y-96250000D03*
X136250000Y-95250000D03*
X166750000Y-94250000D03*
%TD*%
D18*
%TO.N,+3.3V*%
X103500000Y-99625000D02*
X105737500Y-101862500D01*
X105737500Y-101862500D02*
X130925000Y-101862500D01*
X134250000Y-99400000D02*
X134250000Y-100062500D01*
X130925000Y-101862500D02*
X130100000Y-101037500D01*
X134250000Y-100062500D02*
X132450000Y-101862500D01*
X132450000Y-101862500D02*
X130925000Y-101862500D01*
X134250000Y-99400000D02*
X134250000Y-98325000D01*
X140725000Y-101037500D02*
X139900000Y-101862500D01*
X139900000Y-101862500D02*
X136712500Y-101862500D01*
X136712500Y-101862500D02*
X134250000Y-99400000D01*
X130100000Y-101037500D02*
X130100000Y-96037500D01*
%TO.N,Net-(J3-Pin_3)*%
X139075000Y-101037500D02*
X139466642Y-101037500D01*
X160875000Y-97875000D02*
X161500000Y-97250000D01*
X139466642Y-101037500D02*
X141504142Y-99000000D01*
X141504142Y-99000000D02*
X157000000Y-99000000D01*
X157000000Y-99000000D02*
X158125000Y-97875000D01*
X158125000Y-97875000D02*
X160875000Y-97875000D01*
X161500000Y-97250000D02*
X161500000Y-96250000D01*
X139075000Y-101037500D02*
X139075000Y-100602192D01*
X139075000Y-100602192D02*
X138375081Y-99902273D01*
X136072120Y-97227880D02*
X136050000Y-97250000D01*
X136977880Y-97227880D02*
X136072120Y-97227880D01*
%TO.N,+3.3V*%
X142712500Y-101037500D02*
X142750000Y-101000000D01*
X140725000Y-101037500D02*
X142712500Y-101037500D01*
X149000000Y-94712500D02*
X148250000Y-94712500D01*
X164762500Y-94712500D02*
X149000000Y-94712500D01*
X148000000Y-95850000D02*
X148000000Y-95712500D01*
X148000000Y-95712500D02*
X149000000Y-94712500D01*
X140725000Y-98287500D02*
X142737500Y-98287500D01*
X142737500Y-98287500D02*
X143000000Y-98025000D01*
X148250000Y-94712500D02*
X141550000Y-94712500D01*
X145250000Y-95850000D02*
X147112500Y-95850000D01*
X147112500Y-95850000D02*
X148250000Y-94712500D01*
%TO.N,/SCL*%
X139075000Y-98287500D02*
X139987500Y-97375000D01*
X139987500Y-97375000D02*
X160149999Y-97375000D01*
X160149999Y-97375000D02*
X160500000Y-97024999D01*
X160500000Y-97024999D02*
X160500000Y-96250000D01*
X136050000Y-99400000D02*
X137962500Y-99400000D01*
X137962500Y-99400000D02*
X139075000Y-98287500D01*
%TO.N,/SDA*%
X139075000Y-95537500D02*
X140037500Y-96500000D01*
X159250000Y-96500000D02*
X159500000Y-96250000D01*
X140037500Y-96500000D02*
X159250000Y-96500000D01*
X139075000Y-95537500D02*
X139075000Y-96050000D01*
X139075000Y-96050000D02*
X136800000Y-98325000D01*
X136800000Y-98325000D02*
X136050000Y-98325000D01*
%TO.N,+3.3V*%
X141550000Y-94712500D02*
X140725000Y-95537500D01*
X166300000Y-96250000D02*
X164762500Y-94712500D01*
%TO.N,GND*%
X102500000Y-98000000D02*
X102500000Y-99625000D01*
X132000000Y-100250000D02*
X132000000Y-100687500D01*
X132000000Y-100687500D02*
X131650000Y-101037500D01*
X134250000Y-96175000D02*
X133575000Y-96175000D01*
X133575000Y-96175000D02*
X133500000Y-96250000D01*
X132500000Y-96250000D02*
X131862500Y-96250000D01*
X131862500Y-96250000D02*
X131650000Y-96037500D01*
X134250000Y-96175000D02*
X134250000Y-97250000D01*
X136050000Y-96175250D02*
X134250250Y-96175250D01*
X134250250Y-96175250D02*
X134250000Y-96175000D01*
X136250000Y-95250000D02*
X136250000Y-95975250D01*
X136250000Y-95975250D02*
X136050000Y-96175250D01*
X167300000Y-96250000D02*
X167300000Y-94800000D01*
X167300000Y-94800000D02*
X166750000Y-94250000D01*
%TD*%
M02*
