%TF.GenerationSoftware,KiCad,Pcbnew,9.0.4*%
%TF.CreationDate,2025-08-31T21:44:59-07:00*%
%TF.ProjectId,motion-play-v4,6d6f7469-6f6e-42d7-906c-61792d76342e,rev?*%
%TF.SameCoordinates,Original*%
%TF.FileFunction,Legend,Top*%
%TF.FilePolarity,Positive*%
%FSLAX46Y46*%
G04 Gerber Fmt 4.6, Leading zero omitted, Abs format (unit mm)*
G04 Created by KiCad (PCBNEW 9.0.4) date 2025-08-31 21:44:59*
%MOMM*%
%LPD*%
G01*
G04 APERTURE LIST*
%ADD10C,0.100000*%
%ADD11C,0.150000*%
%ADD12C,0.120000*%
%ADD13C,0.127000*%
%ADD14C,0.200000*%
G04 APERTURE END LIST*
D10*
X140401503Y-98071371D02*
X140772931Y-98071371D01*
X140772931Y-98071371D02*
X140572931Y-98299942D01*
X140572931Y-98299942D02*
X140658646Y-98299942D01*
X140658646Y-98299942D02*
X140715789Y-98328514D01*
X140715789Y-98328514D02*
X140744360Y-98357085D01*
X140744360Y-98357085D02*
X140772931Y-98414228D01*
X140772931Y-98414228D02*
X140772931Y-98557085D01*
X140772931Y-98557085D02*
X140744360Y-98614228D01*
X140744360Y-98614228D02*
X140715789Y-98642800D01*
X140715789Y-98642800D02*
X140658646Y-98671371D01*
X140658646Y-98671371D02*
X140487217Y-98671371D01*
X140487217Y-98671371D02*
X140430074Y-98642800D01*
X140430074Y-98642800D02*
X140401503Y-98614228D01*
X140944360Y-98071371D02*
X141144360Y-98671371D01*
X141144360Y-98671371D02*
X141344360Y-98071371D01*
X140680074Y-73892800D02*
X140765789Y-73921371D01*
X140765789Y-73921371D02*
X140908646Y-73921371D01*
X140908646Y-73921371D02*
X140965789Y-73892800D01*
X140965789Y-73892800D02*
X140994360Y-73864228D01*
X140994360Y-73864228D02*
X141022931Y-73807085D01*
X141022931Y-73807085D02*
X141022931Y-73749942D01*
X141022931Y-73749942D02*
X140994360Y-73692800D01*
X140994360Y-73692800D02*
X140965789Y-73664228D01*
X140965789Y-73664228D02*
X140908646Y-73635657D01*
X140908646Y-73635657D02*
X140794360Y-73607085D01*
X140794360Y-73607085D02*
X140737217Y-73578514D01*
X140737217Y-73578514D02*
X140708646Y-73549942D01*
X140708646Y-73549942D02*
X140680074Y-73492800D01*
X140680074Y-73492800D02*
X140680074Y-73435657D01*
X140680074Y-73435657D02*
X140708646Y-73378514D01*
X140708646Y-73378514D02*
X140737217Y-73349942D01*
X140737217Y-73349942D02*
X140794360Y-73321371D01*
X140794360Y-73321371D02*
X140937217Y-73321371D01*
X140937217Y-73321371D02*
X141022931Y-73349942D01*
X141251503Y-73378514D02*
X141280075Y-73349942D01*
X141280075Y-73349942D02*
X141337218Y-73321371D01*
X141337218Y-73321371D02*
X141480075Y-73321371D01*
X141480075Y-73321371D02*
X141537218Y-73349942D01*
X141537218Y-73349942D02*
X141565789Y-73378514D01*
X141565789Y-73378514D02*
X141594360Y-73435657D01*
X141594360Y-73435657D02*
X141594360Y-73492800D01*
X141594360Y-73492800D02*
X141565789Y-73578514D01*
X141565789Y-73578514D02*
X141222932Y-73921371D01*
X141222932Y-73921371D02*
X141594360Y-73921371D01*
X145651503Y-95321371D02*
X146022931Y-95321371D01*
X146022931Y-95321371D02*
X145822931Y-95549942D01*
X145822931Y-95549942D02*
X145908646Y-95549942D01*
X145908646Y-95549942D02*
X145965789Y-95578514D01*
X145965789Y-95578514D02*
X145994360Y-95607085D01*
X145994360Y-95607085D02*
X146022931Y-95664228D01*
X146022931Y-95664228D02*
X146022931Y-95807085D01*
X146022931Y-95807085D02*
X145994360Y-95864228D01*
X145994360Y-95864228D02*
X145965789Y-95892800D01*
X145965789Y-95892800D02*
X145908646Y-95921371D01*
X145908646Y-95921371D02*
X145737217Y-95921371D01*
X145737217Y-95921371D02*
X145680074Y-95892800D01*
X145680074Y-95892800D02*
X145651503Y-95864228D01*
X146194360Y-95321371D02*
X146394360Y-95921371D01*
X146394360Y-95921371D02*
X146594360Y-95321371D01*
X140430074Y-61892800D02*
X140515789Y-61921371D01*
X140515789Y-61921371D02*
X140658646Y-61921371D01*
X140658646Y-61921371D02*
X140715789Y-61892800D01*
X140715789Y-61892800D02*
X140744360Y-61864228D01*
X140744360Y-61864228D02*
X140772931Y-61807085D01*
X140772931Y-61807085D02*
X140772931Y-61749942D01*
X140772931Y-61749942D02*
X140744360Y-61692800D01*
X140744360Y-61692800D02*
X140715789Y-61664228D01*
X140715789Y-61664228D02*
X140658646Y-61635657D01*
X140658646Y-61635657D02*
X140544360Y-61607085D01*
X140544360Y-61607085D02*
X140487217Y-61578514D01*
X140487217Y-61578514D02*
X140458646Y-61549942D01*
X140458646Y-61549942D02*
X140430074Y-61492800D01*
X140430074Y-61492800D02*
X140430074Y-61435657D01*
X140430074Y-61435657D02*
X140458646Y-61378514D01*
X140458646Y-61378514D02*
X140487217Y-61349942D01*
X140487217Y-61349942D02*
X140544360Y-61321371D01*
X140544360Y-61321371D02*
X140687217Y-61321371D01*
X140687217Y-61321371D02*
X140772931Y-61349942D01*
X141144360Y-61321371D02*
X141201503Y-61321371D01*
X141201503Y-61321371D02*
X141258646Y-61349942D01*
X141258646Y-61349942D02*
X141287218Y-61378514D01*
X141287218Y-61378514D02*
X141315789Y-61435657D01*
X141315789Y-61435657D02*
X141344360Y-61549942D01*
X141344360Y-61549942D02*
X141344360Y-61692800D01*
X141344360Y-61692800D02*
X141315789Y-61807085D01*
X141315789Y-61807085D02*
X141287218Y-61864228D01*
X141287218Y-61864228D02*
X141258646Y-61892800D01*
X141258646Y-61892800D02*
X141201503Y-61921371D01*
X141201503Y-61921371D02*
X141144360Y-61921371D01*
X141144360Y-61921371D02*
X141087218Y-61892800D01*
X141087218Y-61892800D02*
X141058646Y-61864228D01*
X141058646Y-61864228D02*
X141030075Y-61807085D01*
X141030075Y-61807085D02*
X141001503Y-61692800D01*
X141001503Y-61692800D02*
X141001503Y-61549942D01*
X141001503Y-61549942D02*
X141030075Y-61435657D01*
X141030075Y-61435657D02*
X141058646Y-61378514D01*
X141058646Y-61378514D02*
X141087218Y-61349942D01*
X141087218Y-61349942D02*
X141144360Y-61321371D01*
X140430074Y-67892800D02*
X140515789Y-67921371D01*
X140515789Y-67921371D02*
X140658646Y-67921371D01*
X140658646Y-67921371D02*
X140715789Y-67892800D01*
X140715789Y-67892800D02*
X140744360Y-67864228D01*
X140744360Y-67864228D02*
X140772931Y-67807085D01*
X140772931Y-67807085D02*
X140772931Y-67749942D01*
X140772931Y-67749942D02*
X140744360Y-67692800D01*
X140744360Y-67692800D02*
X140715789Y-67664228D01*
X140715789Y-67664228D02*
X140658646Y-67635657D01*
X140658646Y-67635657D02*
X140544360Y-67607085D01*
X140544360Y-67607085D02*
X140487217Y-67578514D01*
X140487217Y-67578514D02*
X140458646Y-67549942D01*
X140458646Y-67549942D02*
X140430074Y-67492800D01*
X140430074Y-67492800D02*
X140430074Y-67435657D01*
X140430074Y-67435657D02*
X140458646Y-67378514D01*
X140458646Y-67378514D02*
X140487217Y-67349942D01*
X140487217Y-67349942D02*
X140544360Y-67321371D01*
X140544360Y-67321371D02*
X140687217Y-67321371D01*
X140687217Y-67321371D02*
X140772931Y-67349942D01*
X141344360Y-67921371D02*
X141001503Y-67921371D01*
X141172932Y-67921371D02*
X141172932Y-67321371D01*
X141172932Y-67321371D02*
X141115789Y-67407085D01*
X141115789Y-67407085D02*
X141058646Y-67464228D01*
X141058646Y-67464228D02*
X141001503Y-67492800D01*
X140680074Y-85892800D02*
X140765789Y-85921371D01*
X140765789Y-85921371D02*
X140908646Y-85921371D01*
X140908646Y-85921371D02*
X140965789Y-85892800D01*
X140965789Y-85892800D02*
X140994360Y-85864228D01*
X140994360Y-85864228D02*
X141022931Y-85807085D01*
X141022931Y-85807085D02*
X141022931Y-85749942D01*
X141022931Y-85749942D02*
X140994360Y-85692800D01*
X140994360Y-85692800D02*
X140965789Y-85664228D01*
X140965789Y-85664228D02*
X140908646Y-85635657D01*
X140908646Y-85635657D02*
X140794360Y-85607085D01*
X140794360Y-85607085D02*
X140737217Y-85578514D01*
X140737217Y-85578514D02*
X140708646Y-85549942D01*
X140708646Y-85549942D02*
X140680074Y-85492800D01*
X140680074Y-85492800D02*
X140680074Y-85435657D01*
X140680074Y-85435657D02*
X140708646Y-85378514D01*
X140708646Y-85378514D02*
X140737217Y-85349942D01*
X140737217Y-85349942D02*
X140794360Y-85321371D01*
X140794360Y-85321371D02*
X140937217Y-85321371D01*
X140937217Y-85321371D02*
X141022931Y-85349942D01*
X141537218Y-85521371D02*
X141537218Y-85921371D01*
X141394360Y-85292800D02*
X141251503Y-85721371D01*
X141251503Y-85721371D02*
X141622932Y-85721371D01*
X140680074Y-79892800D02*
X140765789Y-79921371D01*
X140765789Y-79921371D02*
X140908646Y-79921371D01*
X140908646Y-79921371D02*
X140965789Y-79892800D01*
X140965789Y-79892800D02*
X140994360Y-79864228D01*
X140994360Y-79864228D02*
X141022931Y-79807085D01*
X141022931Y-79807085D02*
X141022931Y-79749942D01*
X141022931Y-79749942D02*
X140994360Y-79692800D01*
X140994360Y-79692800D02*
X140965789Y-79664228D01*
X140965789Y-79664228D02*
X140908646Y-79635657D01*
X140908646Y-79635657D02*
X140794360Y-79607085D01*
X140794360Y-79607085D02*
X140737217Y-79578514D01*
X140737217Y-79578514D02*
X140708646Y-79549942D01*
X140708646Y-79549942D02*
X140680074Y-79492800D01*
X140680074Y-79492800D02*
X140680074Y-79435657D01*
X140680074Y-79435657D02*
X140708646Y-79378514D01*
X140708646Y-79378514D02*
X140737217Y-79349942D01*
X140737217Y-79349942D02*
X140794360Y-79321371D01*
X140794360Y-79321371D02*
X140937217Y-79321371D01*
X140937217Y-79321371D02*
X141022931Y-79349942D01*
X141222932Y-79321371D02*
X141594360Y-79321371D01*
X141594360Y-79321371D02*
X141394360Y-79549942D01*
X141394360Y-79549942D02*
X141480075Y-79549942D01*
X141480075Y-79549942D02*
X141537218Y-79578514D01*
X141537218Y-79578514D02*
X141565789Y-79607085D01*
X141565789Y-79607085D02*
X141594360Y-79664228D01*
X141594360Y-79664228D02*
X141594360Y-79807085D01*
X141594360Y-79807085D02*
X141565789Y-79864228D01*
X141565789Y-79864228D02*
X141537218Y-79892800D01*
X141537218Y-79892800D02*
X141480075Y-79921371D01*
X141480075Y-79921371D02*
X141308646Y-79921371D01*
X141308646Y-79921371D02*
X141251503Y-79892800D01*
X141251503Y-79892800D02*
X141222932Y-79864228D01*
X145430074Y-93892800D02*
X145515789Y-93921371D01*
X145515789Y-93921371D02*
X145658646Y-93921371D01*
X145658646Y-93921371D02*
X145715789Y-93892800D01*
X145715789Y-93892800D02*
X145744360Y-93864228D01*
X145744360Y-93864228D02*
X145772931Y-93807085D01*
X145772931Y-93807085D02*
X145772931Y-93749942D01*
X145772931Y-93749942D02*
X145744360Y-93692800D01*
X145744360Y-93692800D02*
X145715789Y-93664228D01*
X145715789Y-93664228D02*
X145658646Y-93635657D01*
X145658646Y-93635657D02*
X145544360Y-93607085D01*
X145544360Y-93607085D02*
X145487217Y-93578514D01*
X145487217Y-93578514D02*
X145458646Y-93549942D01*
X145458646Y-93549942D02*
X145430074Y-93492800D01*
X145430074Y-93492800D02*
X145430074Y-93435657D01*
X145430074Y-93435657D02*
X145458646Y-93378514D01*
X145458646Y-93378514D02*
X145487217Y-93349942D01*
X145487217Y-93349942D02*
X145544360Y-93321371D01*
X145544360Y-93321371D02*
X145687217Y-93321371D01*
X145687217Y-93321371D02*
X145772931Y-93349942D01*
X146372932Y-93864228D02*
X146344360Y-93892800D01*
X146344360Y-93892800D02*
X146258646Y-93921371D01*
X146258646Y-93921371D02*
X146201503Y-93921371D01*
X146201503Y-93921371D02*
X146115789Y-93892800D01*
X146115789Y-93892800D02*
X146058646Y-93835657D01*
X146058646Y-93835657D02*
X146030075Y-93778514D01*
X146030075Y-93778514D02*
X146001503Y-93664228D01*
X146001503Y-93664228D02*
X146001503Y-93578514D01*
X146001503Y-93578514D02*
X146030075Y-93464228D01*
X146030075Y-93464228D02*
X146058646Y-93407085D01*
X146058646Y-93407085D02*
X146115789Y-93349942D01*
X146115789Y-93349942D02*
X146201503Y-93321371D01*
X146201503Y-93321371D02*
X146258646Y-93321371D01*
X146258646Y-93321371D02*
X146344360Y-93349942D01*
X146344360Y-93349942D02*
X146372932Y-93378514D01*
X146915789Y-93921371D02*
X146630075Y-93921371D01*
X146630075Y-93921371D02*
X146630075Y-93321371D01*
X140772931Y-101599942D02*
X140715789Y-101571371D01*
X140715789Y-101571371D02*
X140630074Y-101571371D01*
X140630074Y-101571371D02*
X140544360Y-101599942D01*
X140544360Y-101599942D02*
X140487217Y-101657085D01*
X140487217Y-101657085D02*
X140458646Y-101714228D01*
X140458646Y-101714228D02*
X140430074Y-101828514D01*
X140430074Y-101828514D02*
X140430074Y-101914228D01*
X140430074Y-101914228D02*
X140458646Y-102028514D01*
X140458646Y-102028514D02*
X140487217Y-102085657D01*
X140487217Y-102085657D02*
X140544360Y-102142800D01*
X140544360Y-102142800D02*
X140630074Y-102171371D01*
X140630074Y-102171371D02*
X140687217Y-102171371D01*
X140687217Y-102171371D02*
X140772931Y-102142800D01*
X140772931Y-102142800D02*
X140801503Y-102114228D01*
X140801503Y-102114228D02*
X140801503Y-101914228D01*
X140801503Y-101914228D02*
X140687217Y-101914228D01*
X145430074Y-92392800D02*
X145515789Y-92421371D01*
X145515789Y-92421371D02*
X145658646Y-92421371D01*
X145658646Y-92421371D02*
X145715789Y-92392800D01*
X145715789Y-92392800D02*
X145744360Y-92364228D01*
X145744360Y-92364228D02*
X145772931Y-92307085D01*
X145772931Y-92307085D02*
X145772931Y-92249942D01*
X145772931Y-92249942D02*
X145744360Y-92192800D01*
X145744360Y-92192800D02*
X145715789Y-92164228D01*
X145715789Y-92164228D02*
X145658646Y-92135657D01*
X145658646Y-92135657D02*
X145544360Y-92107085D01*
X145544360Y-92107085D02*
X145487217Y-92078514D01*
X145487217Y-92078514D02*
X145458646Y-92049942D01*
X145458646Y-92049942D02*
X145430074Y-91992800D01*
X145430074Y-91992800D02*
X145430074Y-91935657D01*
X145430074Y-91935657D02*
X145458646Y-91878514D01*
X145458646Y-91878514D02*
X145487217Y-91849942D01*
X145487217Y-91849942D02*
X145544360Y-91821371D01*
X145544360Y-91821371D02*
X145687217Y-91821371D01*
X145687217Y-91821371D02*
X145772931Y-91849942D01*
X146030075Y-92421371D02*
X146030075Y-91821371D01*
X146030075Y-91821371D02*
X146172932Y-91821371D01*
X146172932Y-91821371D02*
X146258646Y-91849942D01*
X146258646Y-91849942D02*
X146315789Y-91907085D01*
X146315789Y-91907085D02*
X146344360Y-91964228D01*
X146344360Y-91964228D02*
X146372932Y-92078514D01*
X146372932Y-92078514D02*
X146372932Y-92164228D01*
X146372932Y-92164228D02*
X146344360Y-92278514D01*
X146344360Y-92278514D02*
X146315789Y-92335657D01*
X146315789Y-92335657D02*
X146258646Y-92392800D01*
X146258646Y-92392800D02*
X146172932Y-92421371D01*
X146172932Y-92421371D02*
X146030075Y-92421371D01*
X146601503Y-92249942D02*
X146887218Y-92249942D01*
X146544360Y-92421371D02*
X146744360Y-91821371D01*
X146744360Y-91821371D02*
X146944360Y-92421371D01*
X140680074Y-91892800D02*
X140765789Y-91921371D01*
X140765789Y-91921371D02*
X140908646Y-91921371D01*
X140908646Y-91921371D02*
X140965789Y-91892800D01*
X140965789Y-91892800D02*
X140994360Y-91864228D01*
X140994360Y-91864228D02*
X141022931Y-91807085D01*
X141022931Y-91807085D02*
X141022931Y-91749942D01*
X141022931Y-91749942D02*
X140994360Y-91692800D01*
X140994360Y-91692800D02*
X140965789Y-91664228D01*
X140965789Y-91664228D02*
X140908646Y-91635657D01*
X140908646Y-91635657D02*
X140794360Y-91607085D01*
X140794360Y-91607085D02*
X140737217Y-91578514D01*
X140737217Y-91578514D02*
X140708646Y-91549942D01*
X140708646Y-91549942D02*
X140680074Y-91492800D01*
X140680074Y-91492800D02*
X140680074Y-91435657D01*
X140680074Y-91435657D02*
X140708646Y-91378514D01*
X140708646Y-91378514D02*
X140737217Y-91349942D01*
X140737217Y-91349942D02*
X140794360Y-91321371D01*
X140794360Y-91321371D02*
X140937217Y-91321371D01*
X140937217Y-91321371D02*
X141022931Y-91349942D01*
X141565789Y-91321371D02*
X141280075Y-91321371D01*
X141280075Y-91321371D02*
X141251503Y-91607085D01*
X141251503Y-91607085D02*
X141280075Y-91578514D01*
X141280075Y-91578514D02*
X141337218Y-91549942D01*
X141337218Y-91549942D02*
X141480075Y-91549942D01*
X141480075Y-91549942D02*
X141537218Y-91578514D01*
X141537218Y-91578514D02*
X141565789Y-91607085D01*
X141565789Y-91607085D02*
X141594360Y-91664228D01*
X141594360Y-91664228D02*
X141594360Y-91807085D01*
X141594360Y-91807085D02*
X141565789Y-91864228D01*
X141565789Y-91864228D02*
X141537218Y-91892800D01*
X141537218Y-91892800D02*
X141480075Y-91921371D01*
X141480075Y-91921371D02*
X141337218Y-91921371D01*
X141337218Y-91921371D02*
X141280075Y-91892800D01*
X141280075Y-91892800D02*
X141251503Y-91864228D01*
D11*
X142741200Y-102478571D02*
X142769771Y-102392857D01*
X142769771Y-102392857D02*
X142769771Y-102249999D01*
X142769771Y-102249999D02*
X142741200Y-102192857D01*
X142741200Y-102192857D02*
X142712628Y-102164285D01*
X142712628Y-102164285D02*
X142655485Y-102135714D01*
X142655485Y-102135714D02*
X142598342Y-102135714D01*
X142598342Y-102135714D02*
X142541200Y-102164285D01*
X142541200Y-102164285D02*
X142512628Y-102192857D01*
X142512628Y-102192857D02*
X142484057Y-102249999D01*
X142484057Y-102249999D02*
X142455485Y-102364285D01*
X142455485Y-102364285D02*
X142426914Y-102421428D01*
X142426914Y-102421428D02*
X142398342Y-102449999D01*
X142398342Y-102449999D02*
X142341200Y-102478571D01*
X142341200Y-102478571D02*
X142284057Y-102478571D01*
X142284057Y-102478571D02*
X142226914Y-102449999D01*
X142226914Y-102449999D02*
X142198342Y-102421428D01*
X142198342Y-102421428D02*
X142169771Y-102364285D01*
X142169771Y-102364285D02*
X142169771Y-102221428D01*
X142169771Y-102221428D02*
X142198342Y-102135714D01*
X142769771Y-101878570D02*
X142169771Y-101878570D01*
X142169771Y-101878570D02*
X142169771Y-101735713D01*
X142169771Y-101735713D02*
X142198342Y-101649999D01*
X142198342Y-101649999D02*
X142255485Y-101592856D01*
X142255485Y-101592856D02*
X142312628Y-101564285D01*
X142312628Y-101564285D02*
X142426914Y-101535713D01*
X142426914Y-101535713D02*
X142512628Y-101535713D01*
X142512628Y-101535713D02*
X142626914Y-101564285D01*
X142626914Y-101564285D02*
X142684057Y-101592856D01*
X142684057Y-101592856D02*
X142741200Y-101649999D01*
X142741200Y-101649999D02*
X142769771Y-101735713D01*
X142769771Y-101735713D02*
X142769771Y-101878570D01*
X142598342Y-101307142D02*
X142598342Y-101021428D01*
X142769771Y-101364285D02*
X142169771Y-101164285D01*
X142169771Y-101164285D02*
X142769771Y-100964285D01*
X140019771Y-126864286D02*
X140019771Y-127207143D01*
X140019771Y-127035714D02*
X139419771Y-127035714D01*
X139419771Y-127035714D02*
X139505485Y-127092857D01*
X139505485Y-127092857D02*
X139562628Y-127150000D01*
X139562628Y-127150000D02*
X139591200Y-127207143D01*
X139419771Y-126664285D02*
X139419771Y-126264285D01*
X139419771Y-126264285D02*
X140019771Y-126521428D01*
X167362295Y-129902381D02*
X167362295Y-130359524D01*
X167362295Y-130130952D02*
X166562295Y-130130952D01*
X166562295Y-130130952D02*
X166676580Y-130207143D01*
X166676580Y-130207143D02*
X166752771Y-130283333D01*
X166752771Y-130283333D02*
X166790866Y-130359524D01*
X166638485Y-129597619D02*
X166600390Y-129559523D01*
X166600390Y-129559523D02*
X166562295Y-129483333D01*
X166562295Y-129483333D02*
X166562295Y-129292857D01*
X166562295Y-129292857D02*
X166600390Y-129216666D01*
X166600390Y-129216666D02*
X166638485Y-129178571D01*
X166638485Y-129178571D02*
X166714676Y-129140476D01*
X166714676Y-129140476D02*
X166790866Y-129140476D01*
X166790866Y-129140476D02*
X166905152Y-129178571D01*
X166905152Y-129178571D02*
X167362295Y-129635714D01*
X167362295Y-129635714D02*
X167362295Y-129140476D01*
X152007163Y-122689819D02*
X152007163Y-123499342D01*
X152007163Y-123499342D02*
X152054782Y-123594580D01*
X152054782Y-123594580D02*
X152102401Y-123642200D01*
X152102401Y-123642200D02*
X152197639Y-123689819D01*
X152197639Y-123689819D02*
X152388115Y-123689819D01*
X152388115Y-123689819D02*
X152483353Y-123642200D01*
X152483353Y-123642200D02*
X152530972Y-123594580D01*
X152530972Y-123594580D02*
X152578591Y-123499342D01*
X152578591Y-123499342D02*
X152578591Y-122689819D01*
X153007163Y-122785057D02*
X153054782Y-122737438D01*
X153054782Y-122737438D02*
X153150020Y-122689819D01*
X153150020Y-122689819D02*
X153388115Y-122689819D01*
X153388115Y-122689819D02*
X153483353Y-122737438D01*
X153483353Y-122737438D02*
X153530972Y-122785057D01*
X153530972Y-122785057D02*
X153578591Y-122880295D01*
X153578591Y-122880295D02*
X153578591Y-122975533D01*
X153578591Y-122975533D02*
X153530972Y-123118390D01*
X153530972Y-123118390D02*
X152959544Y-123689819D01*
X152959544Y-123689819D02*
X153578591Y-123689819D01*
D10*
X159436666Y-125118633D02*
X159436666Y-124418633D01*
X159436666Y-124418633D02*
X159603333Y-124418633D01*
X159603333Y-124418633D02*
X159703333Y-124451966D01*
X159703333Y-124451966D02*
X159770000Y-124518633D01*
X159770000Y-124518633D02*
X159803333Y-124585300D01*
X159803333Y-124585300D02*
X159836666Y-124718633D01*
X159836666Y-124718633D02*
X159836666Y-124818633D01*
X159836666Y-124818633D02*
X159803333Y-124951966D01*
X159803333Y-124951966D02*
X159770000Y-125018633D01*
X159770000Y-125018633D02*
X159703333Y-125085300D01*
X159703333Y-125085300D02*
X159603333Y-125118633D01*
X159603333Y-125118633D02*
X159436666Y-125118633D01*
X162360000Y-114958633D02*
X161960000Y-114958633D01*
X162160000Y-114958633D02*
X162160000Y-114258633D01*
X162160000Y-114258633D02*
X162093333Y-114358633D01*
X162093333Y-114358633D02*
X162026667Y-114425300D01*
X162026667Y-114425300D02*
X161960000Y-114458633D01*
X144165617Y-119571966D02*
X144165617Y-120038633D01*
X143998951Y-119305300D02*
X143832284Y-119805300D01*
X143832284Y-119805300D02*
X144265617Y-119805300D01*
X144832284Y-119571966D02*
X144832284Y-120038633D01*
X144665618Y-119305300D02*
X144498951Y-119805300D01*
X144498951Y-119805300D02*
X144932284Y-119805300D01*
X144232284Y-130198633D02*
X143832284Y-130198633D01*
X144032284Y-130198633D02*
X144032284Y-129498633D01*
X144032284Y-129498633D02*
X143965617Y-129598633D01*
X143965617Y-129598633D02*
X143898951Y-129665300D01*
X143898951Y-129665300D02*
X143832284Y-129698633D01*
X144832284Y-129498633D02*
X144698951Y-129498633D01*
X144698951Y-129498633D02*
X144632284Y-129531966D01*
X144632284Y-129531966D02*
X144598951Y-129565300D01*
X144598951Y-129565300D02*
X144532284Y-129665300D01*
X144532284Y-129665300D02*
X144498951Y-129798633D01*
X144498951Y-129798633D02*
X144498951Y-130065300D01*
X144498951Y-130065300D02*
X144532284Y-130131966D01*
X144532284Y-130131966D02*
X144565618Y-130165300D01*
X144565618Y-130165300D02*
X144632284Y-130198633D01*
X144632284Y-130198633D02*
X144765618Y-130198633D01*
X144765618Y-130198633D02*
X144832284Y-130165300D01*
X144832284Y-130165300D02*
X144865618Y-130131966D01*
X144865618Y-130131966D02*
X144898951Y-130065300D01*
X144898951Y-130065300D02*
X144898951Y-129898633D01*
X144898951Y-129898633D02*
X144865618Y-129831966D01*
X144865618Y-129831966D02*
X144832284Y-129798633D01*
X144832284Y-129798633D02*
X144765618Y-129765300D01*
X144765618Y-129765300D02*
X144632284Y-129765300D01*
X144632284Y-129765300D02*
X144565618Y-129798633D01*
X144565618Y-129798633D02*
X144532284Y-129831966D01*
X144532284Y-129831966D02*
X144498951Y-129898633D01*
X144165617Y-117031966D02*
X144165617Y-117498633D01*
X143998951Y-116765300D02*
X143832284Y-117265300D01*
X143832284Y-117265300D02*
X144265617Y-117265300D01*
X144465618Y-116798633D02*
X144898951Y-116798633D01*
X144898951Y-116798633D02*
X144665618Y-117065300D01*
X144665618Y-117065300D02*
X144765618Y-117065300D01*
X144765618Y-117065300D02*
X144832284Y-117098633D01*
X144832284Y-117098633D02*
X144865618Y-117131966D01*
X144865618Y-117131966D02*
X144898951Y-117198633D01*
X144898951Y-117198633D02*
X144898951Y-117365300D01*
X144898951Y-117365300D02*
X144865618Y-117431966D01*
X144865618Y-117431966D02*
X144832284Y-117465300D01*
X144832284Y-117465300D02*
X144765618Y-117498633D01*
X144765618Y-117498633D02*
X144565618Y-117498633D01*
X144565618Y-117498633D02*
X144498951Y-117465300D01*
X144498951Y-117465300D02*
X144465618Y-117431966D01*
X161660000Y-111718633D02*
X162093333Y-111718633D01*
X162093333Y-111718633D02*
X161860000Y-111985300D01*
X161860000Y-111985300D02*
X161960000Y-111985300D01*
X161960000Y-111985300D02*
X162026666Y-112018633D01*
X162026666Y-112018633D02*
X162060000Y-112051966D01*
X162060000Y-112051966D02*
X162093333Y-112118633D01*
X162093333Y-112118633D02*
X162093333Y-112285300D01*
X162093333Y-112285300D02*
X162060000Y-112351966D01*
X162060000Y-112351966D02*
X162026666Y-112385300D01*
X162026666Y-112385300D02*
X161960000Y-112418633D01*
X161960000Y-112418633D02*
X161760000Y-112418633D01*
X161760000Y-112418633D02*
X161693333Y-112385300D01*
X161693333Y-112385300D02*
X161660000Y-112351966D01*
X162326667Y-111951966D02*
X162493333Y-112418633D01*
X162493333Y-112418633D02*
X162660000Y-111951966D01*
X143846667Y-111751966D02*
X143780000Y-111718633D01*
X143780000Y-111718633D02*
X143680000Y-111718633D01*
X143680000Y-111718633D02*
X143580000Y-111751966D01*
X143580000Y-111751966D02*
X143513334Y-111818633D01*
X143513334Y-111818633D02*
X143480000Y-111885300D01*
X143480000Y-111885300D02*
X143446667Y-112018633D01*
X143446667Y-112018633D02*
X143446667Y-112118633D01*
X143446667Y-112118633D02*
X143480000Y-112251966D01*
X143480000Y-112251966D02*
X143513334Y-112318633D01*
X143513334Y-112318633D02*
X143580000Y-112385300D01*
X143580000Y-112385300D02*
X143680000Y-112418633D01*
X143680000Y-112418633D02*
X143746667Y-112418633D01*
X143746667Y-112418633D02*
X143846667Y-112385300D01*
X143846667Y-112385300D02*
X143880000Y-112351966D01*
X143880000Y-112351966D02*
X143880000Y-112118633D01*
X143880000Y-112118633D02*
X143746667Y-112118633D01*
X144180000Y-112418633D02*
X144180000Y-111718633D01*
X144180000Y-111718633D02*
X144580000Y-112418633D01*
X144580000Y-112418633D02*
X144580000Y-111718633D01*
X144913333Y-112418633D02*
X144913333Y-111718633D01*
X144913333Y-111718633D02*
X145080000Y-111718633D01*
X145080000Y-111718633D02*
X145180000Y-111751966D01*
X145180000Y-111751966D02*
X145246667Y-111818633D01*
X145246667Y-111818633D02*
X145280000Y-111885300D01*
X145280000Y-111885300D02*
X145313333Y-112018633D01*
X145313333Y-112018633D02*
X145313333Y-112118633D01*
X145313333Y-112118633D02*
X145280000Y-112251966D01*
X145280000Y-112251966D02*
X145246667Y-112318633D01*
X145246667Y-112318633D02*
X145180000Y-112385300D01*
X145180000Y-112385300D02*
X145080000Y-112418633D01*
X145080000Y-112418633D02*
X144913333Y-112418633D01*
X143846667Y-137151966D02*
X143780000Y-137118633D01*
X143780000Y-137118633D02*
X143680000Y-137118633D01*
X143680000Y-137118633D02*
X143580000Y-137151966D01*
X143580000Y-137151966D02*
X143513334Y-137218633D01*
X143513334Y-137218633D02*
X143480000Y-137285300D01*
X143480000Y-137285300D02*
X143446667Y-137418633D01*
X143446667Y-137418633D02*
X143446667Y-137518633D01*
X143446667Y-137518633D02*
X143480000Y-137651966D01*
X143480000Y-137651966D02*
X143513334Y-137718633D01*
X143513334Y-137718633D02*
X143580000Y-137785300D01*
X143580000Y-137785300D02*
X143680000Y-137818633D01*
X143680000Y-137818633D02*
X143746667Y-137818633D01*
X143746667Y-137818633D02*
X143846667Y-137785300D01*
X143846667Y-137785300D02*
X143880000Y-137751966D01*
X143880000Y-137751966D02*
X143880000Y-137518633D01*
X143880000Y-137518633D02*
X143746667Y-137518633D01*
X144180000Y-137818633D02*
X144180000Y-137118633D01*
X144180000Y-137118633D02*
X144580000Y-137818633D01*
X144580000Y-137818633D02*
X144580000Y-137118633D01*
X144913333Y-137818633D02*
X144913333Y-137118633D01*
X144913333Y-137118633D02*
X145080000Y-137118633D01*
X145080000Y-137118633D02*
X145180000Y-137151966D01*
X145180000Y-137151966D02*
X145246667Y-137218633D01*
X145246667Y-137218633D02*
X145280000Y-137285300D01*
X145280000Y-137285300D02*
X145313333Y-137418633D01*
X145313333Y-137418633D02*
X145313333Y-137518633D01*
X145313333Y-137518633D02*
X145280000Y-137651966D01*
X145280000Y-137651966D02*
X145246667Y-137718633D01*
X145246667Y-137718633D02*
X145180000Y-137785300D01*
X145180000Y-137785300D02*
X145080000Y-137818633D01*
X145080000Y-137818633D02*
X144913333Y-137818633D01*
X162026666Y-125118633D02*
X161626666Y-125118633D01*
X161826666Y-125118633D02*
X161826666Y-124418633D01*
X161826666Y-124418633D02*
X161759999Y-124518633D01*
X161759999Y-124518633D02*
X161693333Y-124585300D01*
X161693333Y-124585300D02*
X161626666Y-124618633D01*
X162693333Y-125118633D02*
X162293333Y-125118633D01*
X162493333Y-125118633D02*
X162493333Y-124418633D01*
X162493333Y-124418633D02*
X162426666Y-124518633D01*
X162426666Y-124518633D02*
X162360000Y-124585300D01*
X162360000Y-124585300D02*
X162293333Y-124618633D01*
X161960000Y-116865300D02*
X161993333Y-116831966D01*
X161993333Y-116831966D02*
X162060000Y-116798633D01*
X162060000Y-116798633D02*
X162226667Y-116798633D01*
X162226667Y-116798633D02*
X162293333Y-116831966D01*
X162293333Y-116831966D02*
X162326667Y-116865300D01*
X162326667Y-116865300D02*
X162360000Y-116931966D01*
X162360000Y-116931966D02*
X162360000Y-116998633D01*
X162360000Y-116998633D02*
X162326667Y-117098633D01*
X162326667Y-117098633D02*
X161926667Y-117498633D01*
X161926667Y-117498633D02*
X162360000Y-117498633D01*
X161926667Y-119338633D02*
X162360000Y-119338633D01*
X162360000Y-119338633D02*
X162126667Y-119605300D01*
X162126667Y-119605300D02*
X162226667Y-119605300D01*
X162226667Y-119605300D02*
X162293333Y-119638633D01*
X162293333Y-119638633D02*
X162326667Y-119671966D01*
X162326667Y-119671966D02*
X162360000Y-119738633D01*
X162360000Y-119738633D02*
X162360000Y-119905300D01*
X162360000Y-119905300D02*
X162326667Y-119971966D01*
X162326667Y-119971966D02*
X162293333Y-120005300D01*
X162293333Y-120005300D02*
X162226667Y-120038633D01*
X162226667Y-120038633D02*
X162026667Y-120038633D01*
X162026667Y-120038633D02*
X161960000Y-120005300D01*
X161960000Y-120005300D02*
X161926667Y-119971966D01*
X143846667Y-114291966D02*
X143780000Y-114258633D01*
X143780000Y-114258633D02*
X143680000Y-114258633D01*
X143680000Y-114258633D02*
X143580000Y-114291966D01*
X143580000Y-114291966D02*
X143513334Y-114358633D01*
X143513334Y-114358633D02*
X143480000Y-114425300D01*
X143480000Y-114425300D02*
X143446667Y-114558633D01*
X143446667Y-114558633D02*
X143446667Y-114658633D01*
X143446667Y-114658633D02*
X143480000Y-114791966D01*
X143480000Y-114791966D02*
X143513334Y-114858633D01*
X143513334Y-114858633D02*
X143580000Y-114925300D01*
X143580000Y-114925300D02*
X143680000Y-114958633D01*
X143680000Y-114958633D02*
X143746667Y-114958633D01*
X143746667Y-114958633D02*
X143846667Y-114925300D01*
X143846667Y-114925300D02*
X143880000Y-114891966D01*
X143880000Y-114891966D02*
X143880000Y-114658633D01*
X143880000Y-114658633D02*
X143746667Y-114658633D01*
X144180000Y-114958633D02*
X144180000Y-114258633D01*
X144180000Y-114258633D02*
X144580000Y-114958633D01*
X144580000Y-114958633D02*
X144580000Y-114258633D01*
X144913333Y-114958633D02*
X144913333Y-114258633D01*
X144913333Y-114258633D02*
X145080000Y-114258633D01*
X145080000Y-114258633D02*
X145180000Y-114291966D01*
X145180000Y-114291966D02*
X145246667Y-114358633D01*
X145246667Y-114358633D02*
X145280000Y-114425300D01*
X145280000Y-114425300D02*
X145313333Y-114558633D01*
X145313333Y-114558633D02*
X145313333Y-114658633D01*
X145313333Y-114658633D02*
X145280000Y-114791966D01*
X145280000Y-114791966D02*
X145246667Y-114858633D01*
X145246667Y-114858633D02*
X145180000Y-114925300D01*
X145180000Y-114925300D02*
X145080000Y-114958633D01*
X145080000Y-114958633D02*
X144913333Y-114958633D01*
X162026666Y-122578633D02*
X161626666Y-122578633D01*
X161826666Y-122578633D02*
X161826666Y-121878633D01*
X161826666Y-121878633D02*
X161759999Y-121978633D01*
X161759999Y-121978633D02*
X161693333Y-122045300D01*
X161693333Y-122045300D02*
X161626666Y-122078633D01*
X162460000Y-121878633D02*
X162526666Y-121878633D01*
X162526666Y-121878633D02*
X162593333Y-121911966D01*
X162593333Y-121911966D02*
X162626666Y-121945300D01*
X162626666Y-121945300D02*
X162660000Y-122011966D01*
X162660000Y-122011966D02*
X162693333Y-122145300D01*
X162693333Y-122145300D02*
X162693333Y-122311966D01*
X162693333Y-122311966D02*
X162660000Y-122445300D01*
X162660000Y-122445300D02*
X162626666Y-122511966D01*
X162626666Y-122511966D02*
X162593333Y-122545300D01*
X162593333Y-122545300D02*
X162526666Y-122578633D01*
X162526666Y-122578633D02*
X162460000Y-122578633D01*
X162460000Y-122578633D02*
X162393333Y-122545300D01*
X162393333Y-122545300D02*
X162360000Y-122511966D01*
X162360000Y-122511966D02*
X162326666Y-122445300D01*
X162326666Y-122445300D02*
X162293333Y-122311966D01*
X162293333Y-122311966D02*
X162293333Y-122145300D01*
X162293333Y-122145300D02*
X162326666Y-122011966D01*
X162326666Y-122011966D02*
X162360000Y-121945300D01*
X162360000Y-121945300D02*
X162393333Y-121911966D01*
X162393333Y-121911966D02*
X162460000Y-121878633D01*
X144232284Y-125118633D02*
X143832284Y-125118633D01*
X144032284Y-125118633D02*
X144032284Y-124418633D01*
X144032284Y-124418633D02*
X143965617Y-124518633D01*
X143965617Y-124518633D02*
X143898951Y-124585300D01*
X143898951Y-124585300D02*
X143832284Y-124618633D01*
X144465618Y-124418633D02*
X144932284Y-124418633D01*
X144932284Y-124418633D02*
X144632284Y-125118633D01*
X162060000Y-139658633D02*
X161726666Y-139658633D01*
X161726666Y-139658633D02*
X161693333Y-139991966D01*
X161693333Y-139991966D02*
X161726666Y-139958633D01*
X161726666Y-139958633D02*
X161793333Y-139925300D01*
X161793333Y-139925300D02*
X161960000Y-139925300D01*
X161960000Y-139925300D02*
X162026666Y-139958633D01*
X162026666Y-139958633D02*
X162060000Y-139991966D01*
X162060000Y-139991966D02*
X162093333Y-140058633D01*
X162093333Y-140058633D02*
X162093333Y-140225300D01*
X162093333Y-140225300D02*
X162060000Y-140291966D01*
X162060000Y-140291966D02*
X162026666Y-140325300D01*
X162026666Y-140325300D02*
X161960000Y-140358633D01*
X161960000Y-140358633D02*
X161793333Y-140358633D01*
X161793333Y-140358633D02*
X161726666Y-140325300D01*
X161726666Y-140325300D02*
X161693333Y-140291966D01*
X162326667Y-139891966D02*
X162493333Y-140358633D01*
X162493333Y-140358633D02*
X162660000Y-139891966D01*
X162026666Y-127658633D02*
X161626666Y-127658633D01*
X161826666Y-127658633D02*
X161826666Y-126958633D01*
X161826666Y-126958633D02*
X161759999Y-127058633D01*
X161759999Y-127058633D02*
X161693333Y-127125300D01*
X161693333Y-127125300D02*
X161626666Y-127158633D01*
X162293333Y-127025300D02*
X162326666Y-126991966D01*
X162326666Y-126991966D02*
X162393333Y-126958633D01*
X162393333Y-126958633D02*
X162560000Y-126958633D01*
X162560000Y-126958633D02*
X162626666Y-126991966D01*
X162626666Y-126991966D02*
X162660000Y-127025300D01*
X162660000Y-127025300D02*
X162693333Y-127091966D01*
X162693333Y-127091966D02*
X162693333Y-127158633D01*
X162693333Y-127158633D02*
X162660000Y-127258633D01*
X162660000Y-127258633D02*
X162260000Y-127658633D01*
X162260000Y-127658633D02*
X162693333Y-127658633D01*
X143832284Y-127025300D02*
X143865617Y-126991966D01*
X143865617Y-126991966D02*
X143932284Y-126958633D01*
X143932284Y-126958633D02*
X144098951Y-126958633D01*
X144098951Y-126958633D02*
X144165617Y-126991966D01*
X144165617Y-126991966D02*
X144198951Y-127025300D01*
X144198951Y-127025300D02*
X144232284Y-127091966D01*
X144232284Y-127091966D02*
X144232284Y-127158633D01*
X144232284Y-127158633D02*
X144198951Y-127258633D01*
X144198951Y-127258633D02*
X143798951Y-127658633D01*
X143798951Y-127658633D02*
X144232284Y-127658633D01*
X144898951Y-127658633D02*
X144498951Y-127658633D01*
X144698951Y-127658633D02*
X144698951Y-126958633D01*
X144698951Y-126958633D02*
X144632284Y-127058633D01*
X144632284Y-127058633D02*
X144565618Y-127125300D01*
X144565618Y-127125300D02*
X144498951Y-127158633D01*
X161610000Y-132738633D02*
X161610000Y-132038633D01*
X161610000Y-132038633D02*
X162010000Y-132738633D01*
X162010000Y-132738633D02*
X162010000Y-132038633D01*
X162743333Y-132671966D02*
X162710000Y-132705300D01*
X162710000Y-132705300D02*
X162610000Y-132738633D01*
X162610000Y-132738633D02*
X162543333Y-132738633D01*
X162543333Y-132738633D02*
X162443333Y-132705300D01*
X162443333Y-132705300D02*
X162376667Y-132638633D01*
X162376667Y-132638633D02*
X162343333Y-132571966D01*
X162343333Y-132571966D02*
X162310000Y-132438633D01*
X162310000Y-132438633D02*
X162310000Y-132338633D01*
X162310000Y-132338633D02*
X162343333Y-132205300D01*
X162343333Y-132205300D02*
X162376667Y-132138633D01*
X162376667Y-132138633D02*
X162443333Y-132071966D01*
X162443333Y-132071966D02*
X162543333Y-132038633D01*
X162543333Y-132038633D02*
X162610000Y-132038633D01*
X162610000Y-132038633D02*
X162710000Y-132071966D01*
X162710000Y-132071966D02*
X162743333Y-132105300D01*
X161626667Y-137151966D02*
X161560000Y-137118633D01*
X161560000Y-137118633D02*
X161460000Y-137118633D01*
X161460000Y-137118633D02*
X161360000Y-137151966D01*
X161360000Y-137151966D02*
X161293334Y-137218633D01*
X161293334Y-137218633D02*
X161260000Y-137285300D01*
X161260000Y-137285300D02*
X161226667Y-137418633D01*
X161226667Y-137418633D02*
X161226667Y-137518633D01*
X161226667Y-137518633D02*
X161260000Y-137651966D01*
X161260000Y-137651966D02*
X161293334Y-137718633D01*
X161293334Y-137718633D02*
X161360000Y-137785300D01*
X161360000Y-137785300D02*
X161460000Y-137818633D01*
X161460000Y-137818633D02*
X161526667Y-137818633D01*
X161526667Y-137818633D02*
X161626667Y-137785300D01*
X161626667Y-137785300D02*
X161660000Y-137751966D01*
X161660000Y-137751966D02*
X161660000Y-137518633D01*
X161660000Y-137518633D02*
X161526667Y-137518633D01*
X161960000Y-137818633D02*
X161960000Y-137118633D01*
X161960000Y-137118633D02*
X162360000Y-137818633D01*
X162360000Y-137818633D02*
X162360000Y-137118633D01*
X162693333Y-137818633D02*
X162693333Y-137118633D01*
X162693333Y-137118633D02*
X162860000Y-137118633D01*
X162860000Y-137118633D02*
X162960000Y-137151966D01*
X162960000Y-137151966D02*
X163026667Y-137218633D01*
X163026667Y-137218633D02*
X163060000Y-137285300D01*
X163060000Y-137285300D02*
X163093333Y-137418633D01*
X163093333Y-137418633D02*
X163093333Y-137518633D01*
X163093333Y-137518633D02*
X163060000Y-137651966D01*
X163060000Y-137651966D02*
X163026667Y-137718633D01*
X163026667Y-137718633D02*
X162960000Y-137785300D01*
X162960000Y-137785300D02*
X162860000Y-137818633D01*
X162860000Y-137818633D02*
X162693333Y-137818633D01*
X162026666Y-130198633D02*
X161626666Y-130198633D01*
X161826666Y-130198633D02*
X161826666Y-129498633D01*
X161826666Y-129498633D02*
X161759999Y-129598633D01*
X161759999Y-129598633D02*
X161693333Y-129665300D01*
X161693333Y-129665300D02*
X161626666Y-129698633D01*
X162260000Y-129498633D02*
X162693333Y-129498633D01*
X162693333Y-129498633D02*
X162460000Y-129765300D01*
X162460000Y-129765300D02*
X162560000Y-129765300D01*
X162560000Y-129765300D02*
X162626666Y-129798633D01*
X162626666Y-129798633D02*
X162660000Y-129831966D01*
X162660000Y-129831966D02*
X162693333Y-129898633D01*
X162693333Y-129898633D02*
X162693333Y-130065300D01*
X162693333Y-130065300D02*
X162660000Y-130131966D01*
X162660000Y-130131966D02*
X162626666Y-130165300D01*
X162626666Y-130165300D02*
X162560000Y-130198633D01*
X162560000Y-130198633D02*
X162360000Y-130198633D01*
X162360000Y-130198633D02*
X162293333Y-130165300D01*
X162293333Y-130165300D02*
X162260000Y-130131966D01*
X159503333Y-122511966D02*
X159470000Y-122545300D01*
X159470000Y-122545300D02*
X159370000Y-122578633D01*
X159370000Y-122578633D02*
X159303333Y-122578633D01*
X159303333Y-122578633D02*
X159203333Y-122545300D01*
X159203333Y-122545300D02*
X159136667Y-122478633D01*
X159136667Y-122478633D02*
X159103333Y-122411966D01*
X159103333Y-122411966D02*
X159070000Y-122278633D01*
X159070000Y-122278633D02*
X159070000Y-122178633D01*
X159070000Y-122178633D02*
X159103333Y-122045300D01*
X159103333Y-122045300D02*
X159136667Y-121978633D01*
X159136667Y-121978633D02*
X159203333Y-121911966D01*
X159203333Y-121911966D02*
X159303333Y-121878633D01*
X159303333Y-121878633D02*
X159370000Y-121878633D01*
X159370000Y-121878633D02*
X159470000Y-121911966D01*
X159470000Y-121911966D02*
X159503333Y-121945300D01*
X159770000Y-122545300D02*
X159870000Y-122578633D01*
X159870000Y-122578633D02*
X160036667Y-122578633D01*
X160036667Y-122578633D02*
X160103333Y-122545300D01*
X160103333Y-122545300D02*
X160136667Y-122511966D01*
X160136667Y-122511966D02*
X160170000Y-122445300D01*
X160170000Y-122445300D02*
X160170000Y-122378633D01*
X160170000Y-122378633D02*
X160136667Y-122311966D01*
X160136667Y-122311966D02*
X160103333Y-122278633D01*
X160103333Y-122278633D02*
X160036667Y-122245300D01*
X160036667Y-122245300D02*
X159903333Y-122211966D01*
X159903333Y-122211966D02*
X159836667Y-122178633D01*
X159836667Y-122178633D02*
X159803333Y-122145300D01*
X159803333Y-122145300D02*
X159770000Y-122078633D01*
X159770000Y-122078633D02*
X159770000Y-122011966D01*
X159770000Y-122011966D02*
X159803333Y-121945300D01*
X159803333Y-121945300D02*
X159836667Y-121911966D01*
X159836667Y-121911966D02*
X159903333Y-121878633D01*
X159903333Y-121878633D02*
X160070000Y-121878633D01*
X160070000Y-121878633D02*
X160170000Y-121911966D01*
X159203333Y-127591966D02*
X159170000Y-127625300D01*
X159170000Y-127625300D02*
X159070000Y-127658633D01*
X159070000Y-127658633D02*
X159003333Y-127658633D01*
X159003333Y-127658633D02*
X158903333Y-127625300D01*
X158903333Y-127625300D02*
X158836667Y-127558633D01*
X158836667Y-127558633D02*
X158803333Y-127491966D01*
X158803333Y-127491966D02*
X158770000Y-127358633D01*
X158770000Y-127358633D02*
X158770000Y-127258633D01*
X158770000Y-127258633D02*
X158803333Y-127125300D01*
X158803333Y-127125300D02*
X158836667Y-127058633D01*
X158836667Y-127058633D02*
X158903333Y-126991966D01*
X158903333Y-126991966D02*
X159003333Y-126958633D01*
X159003333Y-126958633D02*
X159070000Y-126958633D01*
X159070000Y-126958633D02*
X159170000Y-126991966D01*
X159170000Y-126991966D02*
X159203333Y-127025300D01*
X159836667Y-127658633D02*
X159503333Y-127658633D01*
X159503333Y-127658633D02*
X159503333Y-126958633D01*
X160070000Y-127658633D02*
X160070000Y-126958633D01*
X160470000Y-127658633D02*
X160170000Y-127258633D01*
X160470000Y-126958633D02*
X160070000Y-127358633D01*
X161610000Y-135278633D02*
X161610000Y-134578633D01*
X161610000Y-134578633D02*
X162010000Y-135278633D01*
X162010000Y-135278633D02*
X162010000Y-134578633D01*
X162743333Y-135211966D02*
X162710000Y-135245300D01*
X162710000Y-135245300D02*
X162610000Y-135278633D01*
X162610000Y-135278633D02*
X162543333Y-135278633D01*
X162543333Y-135278633D02*
X162443333Y-135245300D01*
X162443333Y-135245300D02*
X162376667Y-135178633D01*
X162376667Y-135178633D02*
X162343333Y-135111966D01*
X162343333Y-135111966D02*
X162310000Y-134978633D01*
X162310000Y-134978633D02*
X162310000Y-134878633D01*
X162310000Y-134878633D02*
X162343333Y-134745300D01*
X162343333Y-134745300D02*
X162376667Y-134678633D01*
X162376667Y-134678633D02*
X162443333Y-134611966D01*
X162443333Y-134611966D02*
X162543333Y-134578633D01*
X162543333Y-134578633D02*
X162610000Y-134578633D01*
X162610000Y-134578633D02*
X162710000Y-134611966D01*
X162710000Y-134611966D02*
X162743333Y-134645300D01*
X146623333Y-121878633D02*
X146623333Y-122445300D01*
X146623333Y-122445300D02*
X146656667Y-122511966D01*
X146656667Y-122511966D02*
X146690000Y-122545300D01*
X146690000Y-122545300D02*
X146756667Y-122578633D01*
X146756667Y-122578633D02*
X146890000Y-122578633D01*
X146890000Y-122578633D02*
X146956667Y-122545300D01*
X146956667Y-122545300D02*
X146990000Y-122511966D01*
X146990000Y-122511966D02*
X147023333Y-122445300D01*
X147023333Y-122445300D02*
X147023333Y-121878633D01*
X147723333Y-122578633D02*
X147323333Y-122578633D01*
X147523333Y-122578633D02*
X147523333Y-121878633D01*
X147523333Y-121878633D02*
X147456666Y-121978633D01*
X147456666Y-121978633D02*
X147390000Y-122045300D01*
X147390000Y-122045300D02*
X147323333Y-122078633D01*
X148423333Y-122578633D02*
X148190000Y-122245300D01*
X148023333Y-122578633D02*
X148023333Y-121878633D01*
X148023333Y-121878633D02*
X148290000Y-121878633D01*
X148290000Y-121878633D02*
X148356667Y-121911966D01*
X148356667Y-121911966D02*
X148390000Y-121945300D01*
X148390000Y-121945300D02*
X148423333Y-122011966D01*
X148423333Y-122011966D02*
X148423333Y-122111966D01*
X148423333Y-122111966D02*
X148390000Y-122178633D01*
X148390000Y-122178633D02*
X148356667Y-122211966D01*
X148356667Y-122211966D02*
X148290000Y-122245300D01*
X148290000Y-122245300D02*
X148023333Y-122245300D01*
X148656667Y-121878633D02*
X149123333Y-122578633D01*
X149123333Y-121878633D02*
X148656667Y-122578633D01*
X149390000Y-122578633D02*
X149390000Y-121878633D01*
X149390000Y-121878633D02*
X149556667Y-121878633D01*
X149556667Y-121878633D02*
X149656667Y-121911966D01*
X149656667Y-121911966D02*
X149723334Y-121978633D01*
X149723334Y-121978633D02*
X149756667Y-122045300D01*
X149756667Y-122045300D02*
X149790000Y-122178633D01*
X149790000Y-122178633D02*
X149790000Y-122278633D01*
X149790000Y-122278633D02*
X149756667Y-122411966D01*
X149756667Y-122411966D02*
X149723334Y-122478633D01*
X149723334Y-122478633D02*
X149656667Y-122545300D01*
X149656667Y-122545300D02*
X149556667Y-122578633D01*
X149556667Y-122578633D02*
X149390000Y-122578633D01*
X143880000Y-139658633D02*
X144313333Y-139658633D01*
X144313333Y-139658633D02*
X144080000Y-139925300D01*
X144080000Y-139925300D02*
X144180000Y-139925300D01*
X144180000Y-139925300D02*
X144246666Y-139958633D01*
X144246666Y-139958633D02*
X144280000Y-139991966D01*
X144280000Y-139991966D02*
X144313333Y-140058633D01*
X144313333Y-140058633D02*
X144313333Y-140225300D01*
X144313333Y-140225300D02*
X144280000Y-140291966D01*
X144280000Y-140291966D02*
X144246666Y-140325300D01*
X144246666Y-140325300D02*
X144180000Y-140358633D01*
X144180000Y-140358633D02*
X143980000Y-140358633D01*
X143980000Y-140358633D02*
X143913333Y-140325300D01*
X143913333Y-140325300D02*
X143880000Y-140291966D01*
X144546667Y-139891966D02*
X144713333Y-140358633D01*
X144713333Y-140358633D02*
X144880000Y-139891966D01*
X143846667Y-134611966D02*
X143780000Y-134578633D01*
X143780000Y-134578633D02*
X143680000Y-134578633D01*
X143680000Y-134578633D02*
X143580000Y-134611966D01*
X143580000Y-134611966D02*
X143513334Y-134678633D01*
X143513334Y-134678633D02*
X143480000Y-134745300D01*
X143480000Y-134745300D02*
X143446667Y-134878633D01*
X143446667Y-134878633D02*
X143446667Y-134978633D01*
X143446667Y-134978633D02*
X143480000Y-135111966D01*
X143480000Y-135111966D02*
X143513334Y-135178633D01*
X143513334Y-135178633D02*
X143580000Y-135245300D01*
X143580000Y-135245300D02*
X143680000Y-135278633D01*
X143680000Y-135278633D02*
X143746667Y-135278633D01*
X143746667Y-135278633D02*
X143846667Y-135245300D01*
X143846667Y-135245300D02*
X143880000Y-135211966D01*
X143880000Y-135211966D02*
X143880000Y-134978633D01*
X143880000Y-134978633D02*
X143746667Y-134978633D01*
X144180000Y-135278633D02*
X144180000Y-134578633D01*
X144180000Y-134578633D02*
X144580000Y-135278633D01*
X144580000Y-135278633D02*
X144580000Y-134578633D01*
X144913333Y-135278633D02*
X144913333Y-134578633D01*
X144913333Y-134578633D02*
X145080000Y-134578633D01*
X145080000Y-134578633D02*
X145180000Y-134611966D01*
X145180000Y-134611966D02*
X145246667Y-134678633D01*
X145246667Y-134678633D02*
X145280000Y-134745300D01*
X145280000Y-134745300D02*
X145313333Y-134878633D01*
X145313333Y-134878633D02*
X145313333Y-134978633D01*
X145313333Y-134978633D02*
X145280000Y-135111966D01*
X145280000Y-135111966D02*
X145246667Y-135178633D01*
X145246667Y-135178633D02*
X145180000Y-135245300D01*
X145180000Y-135245300D02*
X145080000Y-135278633D01*
X145080000Y-135278633D02*
X144913333Y-135278633D01*
X143815618Y-132738633D02*
X143815618Y-132038633D01*
X143815618Y-132038633D02*
X144215618Y-132738633D01*
X144215618Y-132738633D02*
X144215618Y-132038633D01*
X144948951Y-132671966D02*
X144915618Y-132705300D01*
X144915618Y-132705300D02*
X144815618Y-132738633D01*
X144815618Y-132738633D02*
X144748951Y-132738633D01*
X144748951Y-132738633D02*
X144648951Y-132705300D01*
X144648951Y-132705300D02*
X144582285Y-132638633D01*
X144582285Y-132638633D02*
X144548951Y-132571966D01*
X144548951Y-132571966D02*
X144515618Y-132438633D01*
X144515618Y-132438633D02*
X144515618Y-132338633D01*
X144515618Y-132338633D02*
X144548951Y-132205300D01*
X144548951Y-132205300D02*
X144582285Y-132138633D01*
X144582285Y-132138633D02*
X144648951Y-132071966D01*
X144648951Y-132071966D02*
X144748951Y-132038633D01*
X144748951Y-132038633D02*
X144815618Y-132038633D01*
X144815618Y-132038633D02*
X144915618Y-132071966D01*
X144915618Y-132071966D02*
X144948951Y-132105300D01*
X146706666Y-124418633D02*
X146706666Y-124985300D01*
X146706666Y-124985300D02*
X146740000Y-125051966D01*
X146740000Y-125051966D02*
X146773333Y-125085300D01*
X146773333Y-125085300D02*
X146840000Y-125118633D01*
X146840000Y-125118633D02*
X146973333Y-125118633D01*
X146973333Y-125118633D02*
X147040000Y-125085300D01*
X147040000Y-125085300D02*
X147073333Y-125051966D01*
X147073333Y-125051966D02*
X147106666Y-124985300D01*
X147106666Y-124985300D02*
X147106666Y-124418633D01*
X147806666Y-125118633D02*
X147406666Y-125118633D01*
X147606666Y-125118633D02*
X147606666Y-124418633D01*
X147606666Y-124418633D02*
X147539999Y-124518633D01*
X147539999Y-124518633D02*
X147473333Y-124585300D01*
X147473333Y-124585300D02*
X147406666Y-124618633D01*
X148006666Y-124418633D02*
X148406666Y-124418633D01*
X148206666Y-125118633D02*
X148206666Y-124418633D01*
X148573333Y-124418633D02*
X149039999Y-125118633D01*
X149039999Y-124418633D02*
X148573333Y-125118633D01*
X149306666Y-125118633D02*
X149306666Y-124418633D01*
X149306666Y-124418633D02*
X149473333Y-124418633D01*
X149473333Y-124418633D02*
X149573333Y-124451966D01*
X149573333Y-124451966D02*
X149640000Y-124518633D01*
X149640000Y-124518633D02*
X149673333Y-124585300D01*
X149673333Y-124585300D02*
X149706666Y-124718633D01*
X149706666Y-124718633D02*
X149706666Y-124818633D01*
X149706666Y-124818633D02*
X149673333Y-124951966D01*
X149673333Y-124951966D02*
X149640000Y-125018633D01*
X149640000Y-125018633D02*
X149573333Y-125085300D01*
X149573333Y-125085300D02*
X149473333Y-125118633D01*
X149473333Y-125118633D02*
X149306666Y-125118633D01*
X144232284Y-122578633D02*
X143832284Y-122578633D01*
X144032284Y-122578633D02*
X144032284Y-121878633D01*
X144032284Y-121878633D02*
X143965617Y-121978633D01*
X143965617Y-121978633D02*
X143898951Y-122045300D01*
X143898951Y-122045300D02*
X143832284Y-122078633D01*
X144632284Y-122178633D02*
X144565618Y-122145300D01*
X144565618Y-122145300D02*
X144532284Y-122111966D01*
X144532284Y-122111966D02*
X144498951Y-122045300D01*
X144498951Y-122045300D02*
X144498951Y-122011966D01*
X144498951Y-122011966D02*
X144532284Y-121945300D01*
X144532284Y-121945300D02*
X144565618Y-121911966D01*
X144565618Y-121911966D02*
X144632284Y-121878633D01*
X144632284Y-121878633D02*
X144765618Y-121878633D01*
X144765618Y-121878633D02*
X144832284Y-121911966D01*
X144832284Y-121911966D02*
X144865618Y-121945300D01*
X144865618Y-121945300D02*
X144898951Y-122011966D01*
X144898951Y-122011966D02*
X144898951Y-122045300D01*
X144898951Y-122045300D02*
X144865618Y-122111966D01*
X144865618Y-122111966D02*
X144832284Y-122145300D01*
X144832284Y-122145300D02*
X144765618Y-122178633D01*
X144765618Y-122178633D02*
X144632284Y-122178633D01*
X144632284Y-122178633D02*
X144565618Y-122211966D01*
X144565618Y-122211966D02*
X144532284Y-122245300D01*
X144532284Y-122245300D02*
X144498951Y-122311966D01*
X144498951Y-122311966D02*
X144498951Y-122445300D01*
X144498951Y-122445300D02*
X144532284Y-122511966D01*
X144532284Y-122511966D02*
X144565618Y-122545300D01*
X144565618Y-122545300D02*
X144632284Y-122578633D01*
X144632284Y-122578633D02*
X144765618Y-122578633D01*
X144765618Y-122578633D02*
X144832284Y-122545300D01*
X144832284Y-122545300D02*
X144865618Y-122511966D01*
X144865618Y-122511966D02*
X144898951Y-122445300D01*
X144898951Y-122445300D02*
X144898951Y-122311966D01*
X144898951Y-122311966D02*
X144865618Y-122245300D01*
X144865618Y-122245300D02*
X144832284Y-122211966D01*
X144832284Y-122211966D02*
X144765618Y-122178633D01*
X159886667Y-130265300D02*
X159820000Y-130231966D01*
X159820000Y-130231966D02*
X159753334Y-130165300D01*
X159753334Y-130165300D02*
X159653334Y-130065300D01*
X159653334Y-130065300D02*
X159586667Y-130031966D01*
X159586667Y-130031966D02*
X159520000Y-130031966D01*
X159553334Y-130198633D02*
X159486667Y-130165300D01*
X159486667Y-130165300D02*
X159420000Y-130098633D01*
X159420000Y-130098633D02*
X159386667Y-129965300D01*
X159386667Y-129965300D02*
X159386667Y-129731966D01*
X159386667Y-129731966D02*
X159420000Y-129598633D01*
X159420000Y-129598633D02*
X159486667Y-129531966D01*
X159486667Y-129531966D02*
X159553334Y-129498633D01*
X159553334Y-129498633D02*
X159686667Y-129498633D01*
X159686667Y-129498633D02*
X159753334Y-129531966D01*
X159753334Y-129531966D02*
X159820000Y-129598633D01*
X159820000Y-129598633D02*
X159853334Y-129731966D01*
X159853334Y-129731966D02*
X159853334Y-129965300D01*
X159853334Y-129965300D02*
X159820000Y-130098633D01*
X159820000Y-130098633D02*
X159753334Y-130165300D01*
X159753334Y-130165300D02*
X159686667Y-130198633D01*
X159686667Y-130198633D02*
X159553334Y-130198633D01*
D11*
X167362295Y-114271428D02*
X167362295Y-114728571D01*
X167362295Y-114499999D02*
X166562295Y-114499999D01*
X166562295Y-114499999D02*
X166676580Y-114576190D01*
X166676580Y-114576190D02*
X166752771Y-114652380D01*
X166752771Y-114652380D02*
X166790866Y-114728571D01*
X166259405Y-97254819D02*
X166259405Y-96254819D01*
X166259405Y-96254819D02*
X166497500Y-96254819D01*
X166497500Y-96254819D02*
X166640357Y-96302438D01*
X166640357Y-96302438D02*
X166735595Y-96397676D01*
X166735595Y-96397676D02*
X166783214Y-96492914D01*
X166783214Y-96492914D02*
X166830833Y-96683390D01*
X166830833Y-96683390D02*
X166830833Y-96826247D01*
X166830833Y-96826247D02*
X166783214Y-97016723D01*
X166783214Y-97016723D02*
X166735595Y-97111961D01*
X166735595Y-97111961D02*
X166640357Y-97207200D01*
X166640357Y-97207200D02*
X166497500Y-97254819D01*
X166497500Y-97254819D02*
X166259405Y-97254819D01*
X167783214Y-97254819D02*
X167211786Y-97254819D01*
X167497500Y-97254819D02*
X167497500Y-96254819D01*
X167497500Y-96254819D02*
X167402262Y-96397676D01*
X167402262Y-96397676D02*
X167307024Y-96492914D01*
X167307024Y-96492914D02*
X167211786Y-96540533D01*
X167362295Y-132517381D02*
X167362295Y-132974524D01*
X167362295Y-132745952D02*
X166562295Y-132745952D01*
X166562295Y-132745952D02*
X166676580Y-132822143D01*
X166676580Y-132822143D02*
X166752771Y-132898333D01*
X166752771Y-132898333D02*
X166790866Y-132974524D01*
X166562295Y-132250714D02*
X166562295Y-131755476D01*
X166562295Y-131755476D02*
X166867057Y-132022142D01*
X166867057Y-132022142D02*
X166867057Y-131907857D01*
X166867057Y-131907857D02*
X166905152Y-131831666D01*
X166905152Y-131831666D02*
X166943247Y-131793571D01*
X166943247Y-131793571D02*
X167019438Y-131755476D01*
X167019438Y-131755476D02*
X167209914Y-131755476D01*
X167209914Y-131755476D02*
X167286104Y-131793571D01*
X167286104Y-131793571D02*
X167324200Y-131831666D01*
X167324200Y-131831666D02*
X167362295Y-131907857D01*
X167362295Y-131907857D02*
X167362295Y-132136428D01*
X167362295Y-132136428D02*
X167324200Y-132212619D01*
X167324200Y-132212619D02*
X167286104Y-132250714D01*
X166562295Y-120766666D02*
X166562295Y-120271428D01*
X166562295Y-120271428D02*
X166867057Y-120538094D01*
X166867057Y-120538094D02*
X166867057Y-120423809D01*
X166867057Y-120423809D02*
X166905152Y-120347618D01*
X166905152Y-120347618D02*
X166943247Y-120309523D01*
X166943247Y-120309523D02*
X167019438Y-120271428D01*
X167019438Y-120271428D02*
X167209914Y-120271428D01*
X167209914Y-120271428D02*
X167286104Y-120309523D01*
X167286104Y-120309523D02*
X167324200Y-120347618D01*
X167324200Y-120347618D02*
X167362295Y-120423809D01*
X167362295Y-120423809D02*
X167362295Y-120652380D01*
X167362295Y-120652380D02*
X167324200Y-120728571D01*
X167324200Y-120728571D02*
X167286104Y-120766666D01*
X140019771Y-133364286D02*
X140019771Y-133707143D01*
X140019771Y-133535714D02*
X139419771Y-133535714D01*
X139419771Y-133535714D02*
X139505485Y-133592857D01*
X139505485Y-133592857D02*
X139562628Y-133650000D01*
X139562628Y-133650000D02*
X139591200Y-133707143D01*
X139419771Y-132850000D02*
X139419771Y-132964285D01*
X139419771Y-132964285D02*
X139448342Y-133021428D01*
X139448342Y-133021428D02*
X139476914Y-133050000D01*
X139476914Y-133050000D02*
X139562628Y-133107142D01*
X139562628Y-133107142D02*
X139676914Y-133135714D01*
X139676914Y-133135714D02*
X139905485Y-133135714D01*
X139905485Y-133135714D02*
X139962628Y-133107142D01*
X139962628Y-133107142D02*
X139991200Y-133078571D01*
X139991200Y-133078571D02*
X140019771Y-133021428D01*
X140019771Y-133021428D02*
X140019771Y-132907142D01*
X140019771Y-132907142D02*
X139991200Y-132850000D01*
X139991200Y-132850000D02*
X139962628Y-132821428D01*
X139962628Y-132821428D02*
X139905485Y-132792857D01*
X139905485Y-132792857D02*
X139762628Y-132792857D01*
X139762628Y-132792857D02*
X139705485Y-132821428D01*
X139705485Y-132821428D02*
X139676914Y-132850000D01*
X139676914Y-132850000D02*
X139648342Y-132907142D01*
X139648342Y-132907142D02*
X139648342Y-133021428D01*
X139648342Y-133021428D02*
X139676914Y-133078571D01*
X139676914Y-133078571D02*
X139705485Y-133107142D01*
X139705485Y-133107142D02*
X139762628Y-133135714D01*
X139476914Y-130207143D02*
X139448342Y-130178571D01*
X139448342Y-130178571D02*
X139419771Y-130121429D01*
X139419771Y-130121429D02*
X139419771Y-129978571D01*
X139419771Y-129978571D02*
X139448342Y-129921429D01*
X139448342Y-129921429D02*
X139476914Y-129892857D01*
X139476914Y-129892857D02*
X139534057Y-129864286D01*
X139534057Y-129864286D02*
X139591200Y-129864286D01*
X139591200Y-129864286D02*
X139676914Y-129892857D01*
X139676914Y-129892857D02*
X140019771Y-130235714D01*
X140019771Y-130235714D02*
X140019771Y-129864286D01*
X140019771Y-129292857D02*
X140019771Y-129635714D01*
X140019771Y-129464285D02*
X139419771Y-129464285D01*
X139419771Y-129464285D02*
X139505485Y-129521428D01*
X139505485Y-129521428D02*
X139562628Y-129578571D01*
X139562628Y-129578571D02*
X139591200Y-129635714D01*
X167362295Y-123652381D02*
X167362295Y-124109524D01*
X167362295Y-123880952D02*
X166562295Y-123880952D01*
X166562295Y-123880952D02*
X166676580Y-123957143D01*
X166676580Y-123957143D02*
X166752771Y-124033333D01*
X166752771Y-124033333D02*
X166790866Y-124109524D01*
X166562295Y-123157142D02*
X166562295Y-123080952D01*
X166562295Y-123080952D02*
X166600390Y-123004761D01*
X166600390Y-123004761D02*
X166638485Y-122966666D01*
X166638485Y-122966666D02*
X166714676Y-122928571D01*
X166714676Y-122928571D02*
X166867057Y-122890476D01*
X166867057Y-122890476D02*
X167057533Y-122890476D01*
X167057533Y-122890476D02*
X167209914Y-122928571D01*
X167209914Y-122928571D02*
X167286104Y-122966666D01*
X167286104Y-122966666D02*
X167324200Y-123004761D01*
X167324200Y-123004761D02*
X167362295Y-123080952D01*
X167362295Y-123080952D02*
X167362295Y-123157142D01*
X167362295Y-123157142D02*
X167324200Y-123233333D01*
X167324200Y-123233333D02*
X167286104Y-123271428D01*
X167286104Y-123271428D02*
X167209914Y-123309523D01*
X167209914Y-123309523D02*
X167057533Y-123347619D01*
X167057533Y-123347619D02*
X166867057Y-123347619D01*
X166867057Y-123347619D02*
X166714676Y-123309523D01*
X166714676Y-123309523D02*
X166638485Y-123271428D01*
X166638485Y-123271428D02*
X166600390Y-123233333D01*
X166600390Y-123233333D02*
X166562295Y-123157142D01*
X154238095Y-98454819D02*
X154238095Y-99264342D01*
X154238095Y-99264342D02*
X154285714Y-99359580D01*
X154285714Y-99359580D02*
X154333333Y-99407200D01*
X154333333Y-99407200D02*
X154428571Y-99454819D01*
X154428571Y-99454819D02*
X154619047Y-99454819D01*
X154619047Y-99454819D02*
X154714285Y-99407200D01*
X154714285Y-99407200D02*
X154761904Y-99359580D01*
X154761904Y-99359580D02*
X154809523Y-99264342D01*
X154809523Y-99264342D02*
X154809523Y-98454819D01*
X155714285Y-98788152D02*
X155714285Y-99454819D01*
X155476190Y-98407200D02*
X155238095Y-99121485D01*
X155238095Y-99121485D02*
X155857142Y-99121485D01*
D10*
X164166666Y-73707419D02*
X164166666Y-74421704D01*
X164166666Y-74421704D02*
X164119047Y-74564561D01*
X164119047Y-74564561D02*
X164023809Y-74659800D01*
X164023809Y-74659800D02*
X163880952Y-74707419D01*
X163880952Y-74707419D02*
X163785714Y-74707419D01*
X164595238Y-73802657D02*
X164642857Y-73755038D01*
X164642857Y-73755038D02*
X164738095Y-73707419D01*
X164738095Y-73707419D02*
X164976190Y-73707419D01*
X164976190Y-73707419D02*
X165071428Y-73755038D01*
X165071428Y-73755038D02*
X165119047Y-73802657D01*
X165119047Y-73802657D02*
X165166666Y-73897895D01*
X165166666Y-73897895D02*
X165166666Y-73993133D01*
X165166666Y-73993133D02*
X165119047Y-74135990D01*
X165119047Y-74135990D02*
X164547619Y-74707419D01*
X164547619Y-74707419D02*
X165166666Y-74707419D01*
X150193615Y-74896033D02*
X149431711Y-74896033D01*
X149812663Y-74515080D02*
X149812663Y-75276985D01*
X166725193Y-77920038D02*
X166629955Y-77872419D01*
X166629955Y-77872419D02*
X166487098Y-77872419D01*
X166487098Y-77872419D02*
X166344241Y-77920038D01*
X166344241Y-77920038D02*
X166249003Y-78015276D01*
X166249003Y-78015276D02*
X166201384Y-78110514D01*
X166201384Y-78110514D02*
X166153765Y-78300990D01*
X166153765Y-78300990D02*
X166153765Y-78443847D01*
X166153765Y-78443847D02*
X166201384Y-78634323D01*
X166201384Y-78634323D02*
X166249003Y-78729561D01*
X166249003Y-78729561D02*
X166344241Y-78824800D01*
X166344241Y-78824800D02*
X166487098Y-78872419D01*
X166487098Y-78872419D02*
X166582336Y-78872419D01*
X166582336Y-78872419D02*
X166725193Y-78824800D01*
X166725193Y-78824800D02*
X166772812Y-78777180D01*
X166772812Y-78777180D02*
X166772812Y-78443847D01*
X166772812Y-78443847D02*
X166582336Y-78443847D01*
X167201384Y-78872419D02*
X167201384Y-77872419D01*
X167201384Y-77872419D02*
X167772812Y-78872419D01*
X167772812Y-78872419D02*
X167772812Y-77872419D01*
X168249003Y-78872419D02*
X168249003Y-77872419D01*
X168249003Y-77872419D02*
X168487098Y-77872419D01*
X168487098Y-77872419D02*
X168629955Y-77920038D01*
X168629955Y-77920038D02*
X168725193Y-78015276D01*
X168725193Y-78015276D02*
X168772812Y-78110514D01*
X168772812Y-78110514D02*
X168820431Y-78300990D01*
X168820431Y-78300990D02*
X168820431Y-78443847D01*
X168820431Y-78443847D02*
X168772812Y-78634323D01*
X168772812Y-78634323D02*
X168725193Y-78729561D01*
X168725193Y-78729561D02*
X168629955Y-78824800D01*
X168629955Y-78824800D02*
X168487098Y-78872419D01*
X168487098Y-78872419D02*
X168249003Y-78872419D01*
X148637217Y-72098609D02*
X148780074Y-72146228D01*
X148780074Y-72146228D02*
X148827693Y-72193847D01*
X148827693Y-72193847D02*
X148875312Y-72289085D01*
X148875312Y-72289085D02*
X148875312Y-72431942D01*
X148875312Y-72431942D02*
X148827693Y-72527180D01*
X148827693Y-72527180D02*
X148780074Y-72574800D01*
X148780074Y-72574800D02*
X148684836Y-72622419D01*
X148684836Y-72622419D02*
X148303884Y-72622419D01*
X148303884Y-72622419D02*
X148303884Y-71622419D01*
X148303884Y-71622419D02*
X148637217Y-71622419D01*
X148637217Y-71622419D02*
X148732455Y-71670038D01*
X148732455Y-71670038D02*
X148780074Y-71717657D01*
X148780074Y-71717657D02*
X148827693Y-71812895D01*
X148827693Y-71812895D02*
X148827693Y-71908133D01*
X148827693Y-71908133D02*
X148780074Y-72003371D01*
X148780074Y-72003371D02*
X148732455Y-72050990D01*
X148732455Y-72050990D02*
X148637217Y-72098609D01*
X148637217Y-72098609D02*
X148303884Y-72098609D01*
X149732455Y-72622419D02*
X149732455Y-72098609D01*
X149732455Y-72098609D02*
X149684836Y-72003371D01*
X149684836Y-72003371D02*
X149589598Y-71955752D01*
X149589598Y-71955752D02*
X149399122Y-71955752D01*
X149399122Y-71955752D02*
X149303884Y-72003371D01*
X149732455Y-72574800D02*
X149637217Y-72622419D01*
X149637217Y-72622419D02*
X149399122Y-72622419D01*
X149399122Y-72622419D02*
X149303884Y-72574800D01*
X149303884Y-72574800D02*
X149256265Y-72479561D01*
X149256265Y-72479561D02*
X149256265Y-72384323D01*
X149256265Y-72384323D02*
X149303884Y-72289085D01*
X149303884Y-72289085D02*
X149399122Y-72241466D01*
X149399122Y-72241466D02*
X149637217Y-72241466D01*
X149637217Y-72241466D02*
X149732455Y-72193847D01*
X150065789Y-71955752D02*
X150446741Y-71955752D01*
X150208646Y-71622419D02*
X150208646Y-72479561D01*
X150208646Y-72479561D02*
X150256265Y-72574800D01*
X150256265Y-72574800D02*
X150351503Y-72622419D01*
X150351503Y-72622419D02*
X150446741Y-72622419D01*
X150637218Y-71955752D02*
X151018170Y-71955752D01*
X150780075Y-71622419D02*
X150780075Y-72479561D01*
X150780075Y-72479561D02*
X150827694Y-72574800D01*
X150827694Y-72574800D02*
X150922932Y-72622419D01*
X150922932Y-72622419D02*
X151018170Y-72622419D01*
X151732456Y-72574800D02*
X151637218Y-72622419D01*
X151637218Y-72622419D02*
X151446742Y-72622419D01*
X151446742Y-72622419D02*
X151351504Y-72574800D01*
X151351504Y-72574800D02*
X151303885Y-72479561D01*
X151303885Y-72479561D02*
X151303885Y-72098609D01*
X151303885Y-72098609D02*
X151351504Y-72003371D01*
X151351504Y-72003371D02*
X151446742Y-71955752D01*
X151446742Y-71955752D02*
X151637218Y-71955752D01*
X151637218Y-71955752D02*
X151732456Y-72003371D01*
X151732456Y-72003371D02*
X151780075Y-72098609D01*
X151780075Y-72098609D02*
X151780075Y-72193847D01*
X151780075Y-72193847D02*
X151303885Y-72289085D01*
X152208647Y-72622419D02*
X152208647Y-71955752D01*
X152208647Y-72146228D02*
X152256266Y-72050990D01*
X152256266Y-72050990D02*
X152303885Y-72003371D01*
X152303885Y-72003371D02*
X152399123Y-71955752D01*
X152399123Y-71955752D02*
X152494361Y-71955752D01*
X152732457Y-71955752D02*
X152970552Y-72622419D01*
X153208647Y-71955752D02*
X152970552Y-72622419D01*
X152970552Y-72622419D02*
X152875314Y-72860514D01*
X152875314Y-72860514D02*
X152827695Y-72908133D01*
X152827695Y-72908133D02*
X152732457Y-72955752D01*
X161053884Y-75322419D02*
X161053884Y-76131942D01*
X161053884Y-76131942D02*
X161101503Y-76227180D01*
X161101503Y-76227180D02*
X161149122Y-76274800D01*
X161149122Y-76274800D02*
X161244360Y-76322419D01*
X161244360Y-76322419D02*
X161434836Y-76322419D01*
X161434836Y-76322419D02*
X161530074Y-76274800D01*
X161530074Y-76274800D02*
X161577693Y-76227180D01*
X161577693Y-76227180D02*
X161625312Y-76131942D01*
X161625312Y-76131942D02*
X161625312Y-75322419D01*
X162053884Y-76274800D02*
X162196741Y-76322419D01*
X162196741Y-76322419D02*
X162434836Y-76322419D01*
X162434836Y-76322419D02*
X162530074Y-76274800D01*
X162530074Y-76274800D02*
X162577693Y-76227180D01*
X162577693Y-76227180D02*
X162625312Y-76131942D01*
X162625312Y-76131942D02*
X162625312Y-76036704D01*
X162625312Y-76036704D02*
X162577693Y-75941466D01*
X162577693Y-75941466D02*
X162530074Y-75893847D01*
X162530074Y-75893847D02*
X162434836Y-75846228D01*
X162434836Y-75846228D02*
X162244360Y-75798609D01*
X162244360Y-75798609D02*
X162149122Y-75750990D01*
X162149122Y-75750990D02*
X162101503Y-75703371D01*
X162101503Y-75703371D02*
X162053884Y-75608133D01*
X162053884Y-75608133D02*
X162053884Y-75512895D01*
X162053884Y-75512895D02*
X162101503Y-75417657D01*
X162101503Y-75417657D02*
X162149122Y-75370038D01*
X162149122Y-75370038D02*
X162244360Y-75322419D01*
X162244360Y-75322419D02*
X162482455Y-75322419D01*
X162482455Y-75322419D02*
X162625312Y-75370038D01*
X163387217Y-75798609D02*
X163530074Y-75846228D01*
X163530074Y-75846228D02*
X163577693Y-75893847D01*
X163577693Y-75893847D02*
X163625312Y-75989085D01*
X163625312Y-75989085D02*
X163625312Y-76131942D01*
X163625312Y-76131942D02*
X163577693Y-76227180D01*
X163577693Y-76227180D02*
X163530074Y-76274800D01*
X163530074Y-76274800D02*
X163434836Y-76322419D01*
X163434836Y-76322419D02*
X163053884Y-76322419D01*
X163053884Y-76322419D02*
X163053884Y-75322419D01*
X163053884Y-75322419D02*
X163387217Y-75322419D01*
X163387217Y-75322419D02*
X163482455Y-75370038D01*
X163482455Y-75370038D02*
X163530074Y-75417657D01*
X163530074Y-75417657D02*
X163577693Y-75512895D01*
X163577693Y-75512895D02*
X163577693Y-75608133D01*
X163577693Y-75608133D02*
X163530074Y-75703371D01*
X163530074Y-75703371D02*
X163482455Y-75750990D01*
X163482455Y-75750990D02*
X163387217Y-75798609D01*
X163387217Y-75798609D02*
X163053884Y-75798609D01*
X164053884Y-75941466D02*
X164815789Y-75941466D01*
X165863407Y-76227180D02*
X165815788Y-76274800D01*
X165815788Y-76274800D02*
X165672931Y-76322419D01*
X165672931Y-76322419D02*
X165577693Y-76322419D01*
X165577693Y-76322419D02*
X165434836Y-76274800D01*
X165434836Y-76274800D02*
X165339598Y-76179561D01*
X165339598Y-76179561D02*
X165291979Y-76084323D01*
X165291979Y-76084323D02*
X165244360Y-75893847D01*
X165244360Y-75893847D02*
X165244360Y-75750990D01*
X165244360Y-75750990D02*
X165291979Y-75560514D01*
X165291979Y-75560514D02*
X165339598Y-75465276D01*
X165339598Y-75465276D02*
X165434836Y-75370038D01*
X165434836Y-75370038D02*
X165577693Y-75322419D01*
X165577693Y-75322419D02*
X165672931Y-75322419D01*
X165672931Y-75322419D02*
X165815788Y-75370038D01*
X165815788Y-75370038D02*
X165863407Y-75417657D01*
X167053884Y-76322419D02*
X167053884Y-75322419D01*
X167053884Y-75322419D02*
X167434836Y-75322419D01*
X167434836Y-75322419D02*
X167530074Y-75370038D01*
X167530074Y-75370038D02*
X167577693Y-75417657D01*
X167577693Y-75417657D02*
X167625312Y-75512895D01*
X167625312Y-75512895D02*
X167625312Y-75655752D01*
X167625312Y-75655752D02*
X167577693Y-75750990D01*
X167577693Y-75750990D02*
X167530074Y-75798609D01*
X167530074Y-75798609D02*
X167434836Y-75846228D01*
X167434836Y-75846228D02*
X167053884Y-75846228D01*
X168053884Y-76322419D02*
X168053884Y-75322419D01*
X168053884Y-75322419D02*
X168387217Y-76036704D01*
X168387217Y-76036704D02*
X168720550Y-75322419D01*
X168720550Y-75322419D02*
X168720550Y-76322419D01*
X150193615Y-68896033D02*
X149431711Y-68896033D01*
X162377574Y-77872419D02*
X161901384Y-77872419D01*
X161901384Y-77872419D02*
X161853765Y-78348609D01*
X161853765Y-78348609D02*
X161901384Y-78300990D01*
X161901384Y-78300990D02*
X161996622Y-78253371D01*
X161996622Y-78253371D02*
X162234717Y-78253371D01*
X162234717Y-78253371D02*
X162329955Y-78300990D01*
X162329955Y-78300990D02*
X162377574Y-78348609D01*
X162377574Y-78348609D02*
X162425193Y-78443847D01*
X162425193Y-78443847D02*
X162425193Y-78681942D01*
X162425193Y-78681942D02*
X162377574Y-78777180D01*
X162377574Y-78777180D02*
X162329955Y-78824800D01*
X162329955Y-78824800D02*
X162234717Y-78872419D01*
X162234717Y-78872419D02*
X161996622Y-78872419D01*
X161996622Y-78872419D02*
X161901384Y-78824800D01*
X161901384Y-78824800D02*
X161853765Y-78777180D01*
X162710908Y-77872419D02*
X163044241Y-78872419D01*
X163044241Y-78872419D02*
X163377574Y-77872419D01*
D11*
X139619771Y-117171429D02*
X140019771Y-117171429D01*
X139391200Y-117314286D02*
X139819771Y-117457143D01*
X139819771Y-117457143D02*
X139819771Y-117085714D01*
X139419771Y-116914285D02*
X139419771Y-116542857D01*
X139419771Y-116542857D02*
X139648342Y-116742857D01*
X139648342Y-116742857D02*
X139648342Y-116657142D01*
X139648342Y-116657142D02*
X139676914Y-116600000D01*
X139676914Y-116600000D02*
X139705485Y-116571428D01*
X139705485Y-116571428D02*
X139762628Y-116542857D01*
X139762628Y-116542857D02*
X139905485Y-116542857D01*
X139905485Y-116542857D02*
X139962628Y-116571428D01*
X139962628Y-116571428D02*
X139991200Y-116600000D01*
X139991200Y-116600000D02*
X140019771Y-116657142D01*
X140019771Y-116657142D02*
X140019771Y-116828571D01*
X140019771Y-116828571D02*
X139991200Y-116885714D01*
X139991200Y-116885714D02*
X139962628Y-116914285D01*
X139619771Y-120421429D02*
X140019771Y-120421429D01*
X139391200Y-120564286D02*
X139819771Y-120707143D01*
X139819771Y-120707143D02*
X139819771Y-120335714D01*
X139619771Y-119850000D02*
X140019771Y-119850000D01*
X139391200Y-119992857D02*
X139819771Y-120135714D01*
X139819771Y-120135714D02*
X139819771Y-119764285D01*
X151488095Y-86454819D02*
X151488095Y-87264342D01*
X151488095Y-87264342D02*
X151535714Y-87359580D01*
X151535714Y-87359580D02*
X151583333Y-87407200D01*
X151583333Y-87407200D02*
X151678571Y-87454819D01*
X151678571Y-87454819D02*
X151869047Y-87454819D01*
X151869047Y-87454819D02*
X151964285Y-87407200D01*
X151964285Y-87407200D02*
X152011904Y-87359580D01*
X152011904Y-87359580D02*
X152059523Y-87264342D01*
X152059523Y-87264342D02*
X152059523Y-86454819D01*
X152440476Y-86454819D02*
X153059523Y-86454819D01*
X153059523Y-86454819D02*
X152726190Y-86835771D01*
X152726190Y-86835771D02*
X152869047Y-86835771D01*
X152869047Y-86835771D02*
X152964285Y-86883390D01*
X152964285Y-86883390D02*
X153011904Y-86931009D01*
X153011904Y-86931009D02*
X153059523Y-87026247D01*
X153059523Y-87026247D02*
X153059523Y-87264342D01*
X153059523Y-87264342D02*
X153011904Y-87359580D01*
X153011904Y-87359580D02*
X152964285Y-87407200D01*
X152964285Y-87407200D02*
X152869047Y-87454819D01*
X152869047Y-87454819D02*
X152583333Y-87454819D01*
X152583333Y-87454819D02*
X152488095Y-87407200D01*
X152488095Y-87407200D02*
X152440476Y-87359580D01*
X167362295Y-126402381D02*
X167362295Y-126859524D01*
X167362295Y-126630952D02*
X166562295Y-126630952D01*
X166562295Y-126630952D02*
X166676580Y-126707143D01*
X166676580Y-126707143D02*
X166752771Y-126783333D01*
X166752771Y-126783333D02*
X166790866Y-126859524D01*
X167362295Y-125640476D02*
X167362295Y-126097619D01*
X167362295Y-125869047D02*
X166562295Y-125869047D01*
X166562295Y-125869047D02*
X166676580Y-125945238D01*
X166676580Y-125945238D02*
X166752771Y-126021428D01*
X166752771Y-126021428D02*
X166790866Y-126097619D01*
X168064166Y-87554819D02*
X168064166Y-88269104D01*
X168064166Y-88269104D02*
X168016547Y-88411961D01*
X168016547Y-88411961D02*
X167921309Y-88507200D01*
X167921309Y-88507200D02*
X167778452Y-88554819D01*
X167778452Y-88554819D02*
X167683214Y-88554819D01*
X168445119Y-87554819D02*
X169064166Y-87554819D01*
X169064166Y-87554819D02*
X168730833Y-87935771D01*
X168730833Y-87935771D02*
X168873690Y-87935771D01*
X168873690Y-87935771D02*
X168968928Y-87983390D01*
X168968928Y-87983390D02*
X169016547Y-88031009D01*
X169016547Y-88031009D02*
X169064166Y-88126247D01*
X169064166Y-88126247D02*
X169064166Y-88364342D01*
X169064166Y-88364342D02*
X169016547Y-88459580D01*
X169016547Y-88459580D02*
X168968928Y-88507200D01*
X168968928Y-88507200D02*
X168873690Y-88554819D01*
X168873690Y-88554819D02*
X168587976Y-88554819D01*
X168587976Y-88554819D02*
X168492738Y-88507200D01*
X168492738Y-88507200D02*
X168445119Y-88459580D01*
X140019771Y-123614286D02*
X140019771Y-123957143D01*
X140019771Y-123785714D02*
X139419771Y-123785714D01*
X139419771Y-123785714D02*
X139505485Y-123842857D01*
X139505485Y-123842857D02*
X139562628Y-123900000D01*
X139562628Y-123900000D02*
X139591200Y-123957143D01*
X139676914Y-123271428D02*
X139648342Y-123328571D01*
X139648342Y-123328571D02*
X139619771Y-123357142D01*
X139619771Y-123357142D02*
X139562628Y-123385714D01*
X139562628Y-123385714D02*
X139534057Y-123385714D01*
X139534057Y-123385714D02*
X139476914Y-123357142D01*
X139476914Y-123357142D02*
X139448342Y-123328571D01*
X139448342Y-123328571D02*
X139419771Y-123271428D01*
X139419771Y-123271428D02*
X139419771Y-123157142D01*
X139419771Y-123157142D02*
X139448342Y-123100000D01*
X139448342Y-123100000D02*
X139476914Y-123071428D01*
X139476914Y-123071428D02*
X139534057Y-123042857D01*
X139534057Y-123042857D02*
X139562628Y-123042857D01*
X139562628Y-123042857D02*
X139619771Y-123071428D01*
X139619771Y-123071428D02*
X139648342Y-123100000D01*
X139648342Y-123100000D02*
X139676914Y-123157142D01*
X139676914Y-123157142D02*
X139676914Y-123271428D01*
X139676914Y-123271428D02*
X139705485Y-123328571D01*
X139705485Y-123328571D02*
X139734057Y-123357142D01*
X139734057Y-123357142D02*
X139791200Y-123385714D01*
X139791200Y-123385714D02*
X139905485Y-123385714D01*
X139905485Y-123385714D02*
X139962628Y-123357142D01*
X139962628Y-123357142D02*
X139991200Y-123328571D01*
X139991200Y-123328571D02*
X140019771Y-123271428D01*
X140019771Y-123271428D02*
X140019771Y-123157142D01*
X140019771Y-123157142D02*
X139991200Y-123100000D01*
X139991200Y-123100000D02*
X139962628Y-123071428D01*
X139962628Y-123071428D02*
X139905485Y-123042857D01*
X139905485Y-123042857D02*
X139791200Y-123042857D01*
X139791200Y-123042857D02*
X139734057Y-123071428D01*
X139734057Y-123071428D02*
X139705485Y-123100000D01*
X139705485Y-123100000D02*
X139676914Y-123157142D01*
X142741200Y-99214285D02*
X142769771Y-99128571D01*
X142769771Y-99128571D02*
X142769771Y-98985713D01*
X142769771Y-98985713D02*
X142741200Y-98928571D01*
X142741200Y-98928571D02*
X142712628Y-98899999D01*
X142712628Y-98899999D02*
X142655485Y-98871428D01*
X142655485Y-98871428D02*
X142598342Y-98871428D01*
X142598342Y-98871428D02*
X142541200Y-98899999D01*
X142541200Y-98899999D02*
X142512628Y-98928571D01*
X142512628Y-98928571D02*
X142484057Y-98985713D01*
X142484057Y-98985713D02*
X142455485Y-99099999D01*
X142455485Y-99099999D02*
X142426914Y-99157142D01*
X142426914Y-99157142D02*
X142398342Y-99185713D01*
X142398342Y-99185713D02*
X142341200Y-99214285D01*
X142341200Y-99214285D02*
X142284057Y-99214285D01*
X142284057Y-99214285D02*
X142226914Y-99185713D01*
X142226914Y-99185713D02*
X142198342Y-99157142D01*
X142198342Y-99157142D02*
X142169771Y-99099999D01*
X142169771Y-99099999D02*
X142169771Y-98957142D01*
X142169771Y-98957142D02*
X142198342Y-98871428D01*
X142712628Y-98271427D02*
X142741200Y-98299999D01*
X142741200Y-98299999D02*
X142769771Y-98385713D01*
X142769771Y-98385713D02*
X142769771Y-98442856D01*
X142769771Y-98442856D02*
X142741200Y-98528570D01*
X142741200Y-98528570D02*
X142684057Y-98585713D01*
X142684057Y-98585713D02*
X142626914Y-98614284D01*
X142626914Y-98614284D02*
X142512628Y-98642856D01*
X142512628Y-98642856D02*
X142426914Y-98642856D01*
X142426914Y-98642856D02*
X142312628Y-98614284D01*
X142312628Y-98614284D02*
X142255485Y-98585713D01*
X142255485Y-98585713D02*
X142198342Y-98528570D01*
X142198342Y-98528570D02*
X142169771Y-98442856D01*
X142169771Y-98442856D02*
X142169771Y-98385713D01*
X142169771Y-98385713D02*
X142198342Y-98299999D01*
X142198342Y-98299999D02*
X142226914Y-98271427D01*
X142769771Y-97728570D02*
X142769771Y-98014284D01*
X142769771Y-98014284D02*
X142169771Y-98014284D01*
D12*
%TO.C,J10*%
X135627500Y-99260000D02*
X135627500Y-101140000D01*
X137597500Y-98090000D02*
X140097500Y-98090000D01*
X137597500Y-102310000D02*
X140097500Y-102310000D01*
X140097500Y-98090000D02*
X140097500Y-99140000D01*
X140097500Y-99140000D02*
X141087500Y-99140000D01*
X140097500Y-102310000D02*
X140097500Y-101260000D01*
%TO.C,R17*%
X142937742Y-81527500D02*
X143412258Y-81527500D01*
X142937742Y-82572500D02*
X143412258Y-82572500D01*
%TO.C,R11*%
X142912742Y-63627500D02*
X143387258Y-63627500D01*
X142912742Y-64672500D02*
X143387258Y-64672500D01*
%TO.C,R15*%
X142937742Y-75627500D02*
X143412258Y-75627500D01*
X142937742Y-76672500D02*
X143412258Y-76672500D01*
%TO.C,SDA*%
X145700000Y-101750000D02*
G75*
G02*
X143300000Y-101750000I-1200000J0D01*
G01*
X143300000Y-101750000D02*
G75*
G02*
X145700000Y-101750000I1200000J0D01*
G01*
%TO.C,C2*%
X147987500Y-101140580D02*
X147987500Y-100859420D01*
X149007500Y-101140580D02*
X149007500Y-100859420D01*
%TO.C,J4*%
X135602500Y-62710000D02*
X135602500Y-65590000D01*
X137572500Y-61540000D02*
X140072500Y-61540000D01*
X137572500Y-66760000D02*
X140072500Y-66760000D01*
X140072500Y-61540000D02*
X140072500Y-62590000D01*
X140072500Y-62590000D02*
X141062500Y-62590000D01*
X140072500Y-66760000D02*
X140072500Y-65710000D01*
%TO.C,R19*%
X142962742Y-87977500D02*
X143437258Y-87977500D01*
X142962742Y-89022500D02*
X143437258Y-89022500D01*
%TO.C,R3*%
X143387258Y-65127500D02*
X142912742Y-65127500D01*
X143387258Y-66172500D02*
X142912742Y-66172500D01*
%TO.C,R12*%
X142937742Y-68227500D02*
X143412258Y-68227500D01*
X142937742Y-69272500D02*
X143412258Y-69272500D01*
%TO.C,2*%
X170200000Y-117500000D02*
G75*
G02*
X167800000Y-117500000I-1200000J0D01*
G01*
X167800000Y-117500000D02*
G75*
G02*
X170200000Y-117500000I1200000J0D01*
G01*
%TO.C,17*%
X139200000Y-126750000D02*
G75*
G02*
X136800000Y-126750000I-1200000J0D01*
G01*
X136800000Y-126750000D02*
G75*
G02*
X139200000Y-126750000I1200000J0D01*
G01*
%TO.C,R16*%
X142937742Y-80027500D02*
X143412258Y-80027500D01*
X142937742Y-81072500D02*
X143412258Y-81072500D01*
%TO.C,C1*%
X158987500Y-101140580D02*
X158987500Y-100859420D01*
X160007500Y-101140580D02*
X160007500Y-100859420D01*
%TO.C,12*%
X170200000Y-129500000D02*
G75*
G02*
X167800000Y-129500000I-1200000J0D01*
G01*
X167800000Y-129500000D02*
G75*
G02*
X170200000Y-129500000I1200000J0D01*
G01*
%TO.C,R7*%
X143412258Y-83027500D02*
X142937742Y-83027500D01*
X143412258Y-84072500D02*
X142937742Y-84072500D01*
%TO.C,J6*%
X135602500Y-74710000D02*
X135602500Y-77590000D01*
X137572500Y-73540000D02*
X140072500Y-73540000D01*
X137572500Y-78760000D02*
X140072500Y-78760000D01*
X140072500Y-73540000D02*
X140072500Y-74590000D01*
X140072500Y-74590000D02*
X141062500Y-74590000D01*
X140072500Y-78760000D02*
X140072500Y-77710000D01*
%TO.C,R21*%
X142962742Y-93877500D02*
X143437258Y-93877500D01*
X142962742Y-94922500D02*
X143437258Y-94922500D01*
%TO.C,R4*%
X143412258Y-71227500D02*
X142937742Y-71227500D01*
X143412258Y-72272500D02*
X142937742Y-72272500D01*
%TO.C,R5*%
X143412258Y-77127500D02*
X142937742Y-77127500D01*
X143412258Y-78172500D02*
X142937742Y-78172500D01*
%TO.C,1*%
X170200000Y-114500000D02*
G75*
G02*
X167800000Y-114500000I-1200000J0D01*
G01*
X167800000Y-114500000D02*
G75*
G02*
X170200000Y-114500000I1200000J0D01*
G01*
%TO.C,D1*%
X166007500Y-94950000D02*
X160497500Y-94950000D01*
X166007500Y-98250000D02*
X160497500Y-98250000D01*
X166007500Y-98250000D02*
X166007500Y-94950000D01*
%TO.C,J5*%
X135627500Y-68710000D02*
X135627500Y-71590000D01*
X137597500Y-67540000D02*
X140097500Y-67540000D01*
X137597500Y-72760000D02*
X140097500Y-72760000D01*
X140097500Y-67540000D02*
X140097500Y-68590000D01*
X140097500Y-68590000D02*
X141087500Y-68590000D01*
X140097500Y-72760000D02*
X140097500Y-71710000D01*
%TO.C,13*%
X170200000Y-132500000D02*
G75*
G02*
X167800000Y-132500000I-1200000J0D01*
G01*
X167800000Y-132500000D02*
G75*
G02*
X170200000Y-132500000I1200000J0D01*
G01*
%TO.C,R14*%
X142937742Y-74127500D02*
X143412258Y-74127500D01*
X142937742Y-75172500D02*
X143412258Y-75172500D01*
%TO.C,R18*%
X142962742Y-86477500D02*
X143437258Y-86477500D01*
X142962742Y-87522500D02*
X143437258Y-87522500D01*
%TO.C,3*%
X170200000Y-120500000D02*
G75*
G02*
X167800000Y-120500000I-1200000J0D01*
G01*
X167800000Y-120500000D02*
G75*
G02*
X170200000Y-120500000I1200000J0D01*
G01*
%TO.C,16*%
X139200000Y-133250000D02*
G75*
G02*
X136800000Y-133250000I-1200000J0D01*
G01*
X136800000Y-133250000D02*
G75*
G02*
X139200000Y-133250000I1200000J0D01*
G01*
%TO.C,R13*%
X142937742Y-69727500D02*
X143412258Y-69727500D01*
X142937742Y-70772500D02*
X143412258Y-70772500D01*
%TO.C,21*%
X139200000Y-130000000D02*
G75*
G02*
X136800000Y-130000000I-1200000J0D01*
G01*
X136800000Y-130000000D02*
G75*
G02*
X139200000Y-130000000I1200000J0D01*
G01*
%TO.C,10*%
X170200000Y-123500000D02*
G75*
G02*
X167800000Y-123500000I-1200000J0D01*
G01*
X167800000Y-123500000D02*
G75*
G02*
X170200000Y-123500000I1200000J0D01*
G01*
D13*
%TO.C,U4*%
X151645000Y-96485000D02*
X158150000Y-96485000D01*
X151645000Y-99990000D02*
X151645000Y-96485000D01*
X158150000Y-96485000D02*
X158150000Y-99990000D01*
X158150000Y-99990000D02*
X151645000Y-99990000D01*
D14*
X152707500Y-103237500D02*
G75*
G02*
X152507500Y-103237500I-100000J0D01*
G01*
X152507500Y-103237500D02*
G75*
G02*
X152707500Y-103237500I100000J0D01*
G01*
D12*
%TO.C,R6*%
X154277500Y-82237258D02*
X154277500Y-81762742D01*
X155322500Y-82237258D02*
X155322500Y-81762742D01*
%TO.C,43*%
X139200000Y-117000000D02*
G75*
G02*
X136800000Y-117000000I-1200000J0D01*
G01*
X136800000Y-117000000D02*
G75*
G02*
X139200000Y-117000000I1200000J0D01*
G01*
%TO.C,44*%
X139200000Y-120250000D02*
G75*
G02*
X136800000Y-120250000I-1200000J0D01*
G01*
X136800000Y-120250000D02*
G75*
G02*
X139200000Y-120250000I1200000J0D01*
G01*
%TO.C,J8*%
X135627500Y-86810000D02*
X135627500Y-89690000D01*
X137597500Y-85640000D02*
X140097500Y-85640000D01*
X137597500Y-90860000D02*
X140097500Y-90860000D01*
X140097500Y-85640000D02*
X140097500Y-86690000D01*
X140097500Y-86690000D02*
X141087500Y-86690000D01*
X140097500Y-90860000D02*
X140097500Y-89810000D01*
%TO.C,J9*%
X135627500Y-92810000D02*
X135627500Y-95690000D01*
X137597500Y-91640000D02*
X140097500Y-91640000D01*
X137597500Y-96860000D02*
X140097500Y-96860000D01*
X140097500Y-91640000D02*
X140097500Y-92690000D01*
X140097500Y-92690000D02*
X141087500Y-92690000D01*
X140097500Y-96860000D02*
X140097500Y-95810000D01*
D13*
%TO.C,U3*%
X148400000Y-85955000D02*
X148400000Y-90355000D01*
X156600000Y-85955000D02*
X156600000Y-90355000D01*
D14*
X156585000Y-83715000D02*
G75*
G02*
X156385000Y-83715000I-100000J0D01*
G01*
X156385000Y-83715000D02*
G75*
G02*
X156585000Y-83715000I100000J0D01*
G01*
D12*
%TO.C,11*%
X170200000Y-126500000D02*
G75*
G02*
X167800000Y-126500000I-1200000J0D01*
G01*
X167800000Y-126500000D02*
G75*
G02*
X170200000Y-126500000I1200000J0D01*
G01*
%TO.C,R20*%
X142962742Y-92377500D02*
X143437258Y-92377500D01*
X142962742Y-93422500D02*
X143437258Y-93422500D01*
%TO.C,R10*%
X142912742Y-62127500D02*
X143387258Y-62127500D01*
X142912742Y-63172500D02*
X143387258Y-63172500D01*
%TO.C,C3*%
X160987500Y-101140580D02*
X160987500Y-100859420D01*
X162007500Y-101140580D02*
X162007500Y-100859420D01*
%TO.C,R8*%
X143437258Y-89477500D02*
X142962742Y-89477500D01*
X143437258Y-90522500D02*
X142962742Y-90522500D01*
%TO.C,J3*%
X163787500Y-83140000D02*
X163787500Y-84160000D01*
X163787500Y-84160000D02*
X165387500Y-84160000D01*
X163787500Y-92240000D02*
X165387500Y-92240000D01*
X163787500Y-93260000D02*
X163787500Y-92240000D01*
X165387500Y-84160000D02*
X165387500Y-85440000D01*
X165387500Y-90960000D02*
X162497500Y-90960000D01*
X165387500Y-92240000D02*
X165387500Y-90960000D01*
X168037500Y-83140000D02*
X163787500Y-83140000D01*
X168037500Y-93260000D02*
X163787500Y-93260000D01*
X171607500Y-91540000D02*
X171607500Y-84860000D01*
%TO.C,J7*%
X135627500Y-80710000D02*
X135627500Y-83590000D01*
X137597500Y-79540000D02*
X140097500Y-79540000D01*
X137597500Y-84760000D02*
X140097500Y-84760000D01*
X140097500Y-79540000D02*
X140097500Y-80590000D01*
X140097500Y-80590000D02*
X141087500Y-80590000D01*
X140097500Y-84760000D02*
X140097500Y-83710000D01*
%TO.C,18*%
X139200000Y-123500000D02*
G75*
G02*
X136800000Y-123500000I-1200000J0D01*
G01*
X136800000Y-123500000D02*
G75*
G02*
X139200000Y-123500000I1200000J0D01*
G01*
%TO.C,SCL*%
X145700000Y-98500000D02*
G75*
G02*
X143300000Y-98500000I-1200000J0D01*
G01*
X143300000Y-98500000D02*
G75*
G02*
X145700000Y-98500000I1200000J0D01*
G01*
%TO.C,C4*%
X149787500Y-101140580D02*
X149787500Y-100859420D01*
X150807500Y-101140580D02*
X150807500Y-100859420D01*
%TO.C,R9*%
X143437258Y-95377500D02*
X142962742Y-95377500D01*
X143437258Y-96422500D02*
X142962742Y-96422500D01*
%TD*%
M02*
