%TF.GenerationSoftware,KiCad,Pcbnew,9.0.4*%
%TF.CreationDate,2025-08-31T21:44:58-07:00*%
%TF.ProjectId,motion-play-v4,6d6f7469-6f6e-42d7-906c-61792d76342e,rev?*%
%TF.SameCoordinates,Original*%
%TF.FileFunction,Copper,L3,Inr*%
%TF.FilePolarity,Positive*%
%FSLAX46Y46*%
G04 Gerber Fmt 4.6, Leading zero omitted, Abs format (unit mm)*
G04 Created by KiCad (PCBNEW 9.0.4) date 2025-08-31 21:44:58*
%MOMM*%
%LPD*%
G01*
G04 APERTURE LIST*
%TA.AperFunction,ComponentPad*%
%ADD10C,2.000000*%
%TD*%
%TA.AperFunction,WasherPad*%
%ADD11C,3.250000*%
%TD*%
%TA.AperFunction,ComponentPad*%
%ADD12C,2.200000*%
%TD*%
%TA.AperFunction,ViaPad*%
%ADD13C,0.600000*%
%TD*%
G04 APERTURE END LIST*
D10*
%TO.N,Net-(3V2-Pad1)*%
%TO.C,U2*%
X164700000Y-112100000D03*
%TO.N,Net-(U2-1)*%
X164700000Y-114640000D03*
%TO.N,Net-(J3-Pin_2)*%
X164700000Y-117180000D03*
%TO.N,Net-(U2-3)*%
X164700000Y-119720000D03*
%TO.N,Net-(U2-10)*%
X164700000Y-122260000D03*
%TO.N,Net-(J4-Pin_3)*%
X164700000Y-124800000D03*
%TO.N,Net-(J6-Pin_3)*%
X164700000Y-127340000D03*
%TO.N,Net-(J8-Pin_3)*%
X164700000Y-129880000D03*
%TO.N,unconnected-(U2-NC-Pad9)*%
X164700000Y-132420000D03*
%TO.N,unconnected-(U2-NC-Pad10)*%
X164700000Y-134960000D03*
%TO.N,/GND*%
X164700000Y-137500000D03*
%TO.N,/+5V*%
X164700000Y-140040000D03*
%TO.N,/GND*%
X141838136Y-112100000D03*
X141838136Y-114640000D03*
%TO.N,/SDA*%
X141838136Y-117180000D03*
%TO.N,/SCL*%
X141838136Y-119720000D03*
%TO.N,Net-(U2-18)*%
X141838136Y-122260000D03*
%TO.N,Net-(U2-17)*%
X141838136Y-124800000D03*
%TO.N,Net-(U2-21)*%
X141838136Y-127340000D03*
%TO.N,Net-(U2-16)*%
X141838136Y-129880000D03*
%TO.N,unconnected-(U2-NC-Pad21)*%
X141838136Y-132420000D03*
%TO.N,/GND*%
X141838136Y-134960000D03*
X141838136Y-137500000D03*
%TO.N,Net-(3V1-Pad1)*%
X141838136Y-140040000D03*
%TD*%
D11*
%TO.N,*%
%TO.C,J2*%
X158997500Y-61887500D03*
D12*
%TO.N,/GND*%
X167497500Y-80887500D03*
%TO.N,/+5V*%
X162497500Y-80887500D03*
%TO.N,N/C*%
X147747500Y-74887500D03*
X147747500Y-68887500D03*
%TD*%
D13*
%TO.N,/+3.3V*%
X144800000Y-83600000D03*
X146750000Y-102000000D03*
X156100000Y-93300000D03*
X144600000Y-90000000D03*
X156075000Y-89922500D03*
X144800000Y-95900000D03*
X144700000Y-71800000D03*
X144800000Y-65700000D03*
X144800000Y-77700000D03*
X141500000Y-99700000D03*
%TO.N,/GND*%
X147197500Y-100200000D03*
X154125001Y-90049173D03*
X152597500Y-100400000D03*
X151097500Y-100200000D03*
X148875000Y-86322500D03*
X161400000Y-86200000D03*
X159500000Y-99250000D03*
X156075000Y-86422500D03*
X155475000Y-87022500D03*
X162597500Y-100200000D03*
X141500000Y-100700000D03*
%TO.N,/+5V*%
X161397500Y-90200000D03*
X160497500Y-94900000D03*
%TO.N,Net-(J4-Pin_3)*%
X157100000Y-121000000D03*
%TO.N,Net-(J6-Pin_3)*%
X157750000Y-123000000D03*
%TO.N,Net-(J8-Pin_3)*%
X159000000Y-128750000D03*
%TO.N,Net-(U2-10)*%
X156250000Y-88250000D03*
X158250000Y-90000000D03*
%TD*%
%TA.AperFunction,Conductor*%
%TO.N,/+5V*%
G36*
X164234075Y-140232993D02*
G01*
X164299901Y-140347007D01*
X164392993Y-140440099D01*
X164507007Y-140505925D01*
X164570590Y-140522962D01*
X163830893Y-141262658D01*
X163848819Y-141275682D01*
X163891484Y-141331012D01*
X163897463Y-141400626D01*
X163864857Y-141462421D01*
X163804018Y-141496778D01*
X163775933Y-141500000D01*
X163224000Y-141500000D01*
X163156961Y-141480315D01*
X163111206Y-141427511D01*
X163100000Y-141376000D01*
X163100000Y-140720353D01*
X163119685Y-140653314D01*
X163172489Y-140607559D01*
X163241647Y-140597615D01*
X163305203Y-140626640D01*
X163334485Y-140664058D01*
X163417087Y-140826175D01*
X163477338Y-140909104D01*
X163477340Y-140909105D01*
X164217037Y-140169408D01*
X164234075Y-140232993D01*
G37*
%TD.AperFunction*%
%TA.AperFunction,Conductor*%
G36*
X157601755Y-60070185D02*
G01*
X157647510Y-60122989D01*
X157657454Y-60192147D01*
X157628429Y-60255703D01*
X157610201Y-60272877D01*
X157593051Y-60286035D01*
X157396039Y-60483047D01*
X157396033Y-60483054D01*
X157226425Y-60704093D01*
X157226414Y-60704109D01*
X157087109Y-60945390D01*
X157087104Y-60945401D01*
X156980484Y-61202804D01*
X156980481Y-61202814D01*
X156908369Y-61471943D01*
X156908366Y-61471956D01*
X156872001Y-61748177D01*
X156872000Y-61748193D01*
X156872000Y-62026806D01*
X156872001Y-62026822D01*
X156908366Y-62303043D01*
X156908367Y-62303048D01*
X156908368Y-62303054D01*
X156908369Y-62303056D01*
X156980481Y-62572185D01*
X156980484Y-62572195D01*
X157087104Y-62829598D01*
X157087109Y-62829609D01*
X157226414Y-63070890D01*
X157226425Y-63070906D01*
X157396033Y-63291945D01*
X157396039Y-63291952D01*
X157593047Y-63488960D01*
X157593053Y-63488965D01*
X157814102Y-63658581D01*
X157814109Y-63658585D01*
X158055390Y-63797890D01*
X158055395Y-63797892D01*
X158055398Y-63797894D01*
X158312814Y-63904519D01*
X158581946Y-63976632D01*
X158858187Y-64013000D01*
X158858194Y-64013000D01*
X159136806Y-64013000D01*
X159136813Y-64013000D01*
X159413054Y-63976632D01*
X159682186Y-63904519D01*
X159939602Y-63797894D01*
X160180898Y-63658581D01*
X160401947Y-63488965D01*
X160598965Y-63291947D01*
X160768581Y-63070898D01*
X160907894Y-62829602D01*
X161014519Y-62572186D01*
X161086632Y-62303054D01*
X161123000Y-62026813D01*
X161123000Y-61748187D01*
X161086632Y-61471946D01*
X161014519Y-61202814D01*
X160907894Y-60945398D01*
X160907892Y-60945395D01*
X160907890Y-60945390D01*
X160768585Y-60704109D01*
X160768581Y-60704102D01*
X160598965Y-60483053D01*
X160598960Y-60483047D01*
X160401948Y-60286035D01*
X160384799Y-60272877D01*
X160343595Y-60216450D01*
X160339440Y-60146704D01*
X160373651Y-60085783D01*
X160435368Y-60053029D01*
X160460284Y-60050500D01*
X170888000Y-60050500D01*
X170955039Y-60070185D01*
X171000794Y-60122989D01*
X171012000Y-60174500D01*
X171012000Y-111745131D01*
X171011999Y-111745598D01*
X170900465Y-141376467D01*
X170880528Y-141443432D01*
X170827553Y-141488987D01*
X170776466Y-141500000D01*
X165624066Y-141500000D01*
X165557027Y-141480315D01*
X165511272Y-141427511D01*
X165501328Y-141358353D01*
X165530353Y-141294797D01*
X165551180Y-141275682D01*
X165569104Y-141262658D01*
X165569105Y-141262658D01*
X164829408Y-140522962D01*
X164892993Y-140505925D01*
X165007007Y-140440099D01*
X165100099Y-140347007D01*
X165165925Y-140232993D01*
X165182962Y-140169408D01*
X165922658Y-140909105D01*
X165922658Y-140909104D01*
X165982914Y-140826169D01*
X165982918Y-140826163D01*
X166090102Y-140615802D01*
X166163065Y-140391247D01*
X166200000Y-140158052D01*
X166200000Y-139921947D01*
X166163065Y-139688752D01*
X166090102Y-139464197D01*
X165982914Y-139253828D01*
X165922658Y-139170894D01*
X165922658Y-139170893D01*
X165182962Y-139910590D01*
X165165925Y-139847007D01*
X165100099Y-139732993D01*
X165007007Y-139639901D01*
X164892993Y-139574075D01*
X164829409Y-139557037D01*
X165569105Y-138817340D01*
X165567551Y-138797594D01*
X165581915Y-138729216D01*
X165618284Y-138687547D01*
X165677510Y-138644517D01*
X165844517Y-138477510D01*
X165859447Y-138456961D01*
X165863695Y-138451115D01*
X165919025Y-138408449D01*
X165964013Y-138400000D01*
X168100000Y-138400000D01*
X168100000Y-98500000D01*
X160024000Y-98500000D01*
X159956961Y-98480315D01*
X159911206Y-98427511D01*
X159900000Y-98376000D01*
X159900000Y-92800000D01*
X158724000Y-92800000D01*
X158656961Y-92780315D01*
X158611206Y-92727511D01*
X158600000Y-92676000D01*
X158600000Y-90795170D01*
X158619685Y-90728131D01*
X158655110Y-90692068D01*
X158720477Y-90648390D01*
X158760289Y-90621789D01*
X158871789Y-90510289D01*
X158959394Y-90379179D01*
X159019737Y-90233497D01*
X159050500Y-90078842D01*
X159050500Y-89921158D01*
X159050500Y-89921155D01*
X159050499Y-89921153D01*
X159019738Y-89766510D01*
X159019737Y-89766503D01*
X158979762Y-89669994D01*
X158959397Y-89620827D01*
X158959390Y-89620814D01*
X158871789Y-89489711D01*
X158871786Y-89489707D01*
X158760292Y-89378213D01*
X158760284Y-89378207D01*
X158655110Y-89307932D01*
X158610304Y-89254320D01*
X158600000Y-89204830D01*
X158600000Y-86121153D01*
X160599500Y-86121153D01*
X160599500Y-86278846D01*
X160630261Y-86433489D01*
X160630264Y-86433501D01*
X160690602Y-86579172D01*
X160690609Y-86579185D01*
X160778210Y-86710288D01*
X160778213Y-86710292D01*
X160889707Y-86821786D01*
X160889711Y-86821789D01*
X161020814Y-86909390D01*
X161020827Y-86909397D01*
X161103542Y-86943658D01*
X161166503Y-86969737D01*
X161321153Y-87000499D01*
X161321156Y-87000500D01*
X161321158Y-87000500D01*
X161478844Y-87000500D01*
X161478845Y-87000499D01*
X161633497Y-86969737D01*
X161779179Y-86909394D01*
X161910289Y-86821789D01*
X162021789Y-86710289D01*
X162109394Y-86579179D01*
X162169737Y-86433497D01*
X162200500Y-86278842D01*
X162200500Y-86121158D01*
X162200500Y-86121155D01*
X162200499Y-86121153D01*
X162169738Y-85966510D01*
X162169737Y-85966503D01*
X162147249Y-85912211D01*
X162109397Y-85820827D01*
X162109390Y-85820814D01*
X162021789Y-85689711D01*
X162021786Y-85689707D01*
X161910292Y-85578213D01*
X161910288Y-85578210D01*
X161779185Y-85490609D01*
X161779172Y-85490602D01*
X161633501Y-85430264D01*
X161633489Y-85430261D01*
X161478845Y-85399500D01*
X161478842Y-85399500D01*
X161321158Y-85399500D01*
X161321155Y-85399500D01*
X161166510Y-85430261D01*
X161166498Y-85430264D01*
X161020827Y-85490602D01*
X161020814Y-85490609D01*
X160889711Y-85578210D01*
X160889707Y-85578213D01*
X160778213Y-85689707D01*
X160778210Y-85689711D01*
X160690609Y-85820814D01*
X160690602Y-85820827D01*
X160630264Y-85966498D01*
X160630261Y-85966510D01*
X160599500Y-86121153D01*
X158600000Y-86121153D01*
X158600000Y-82000000D01*
X150224000Y-82000000D01*
X150156961Y-81980315D01*
X150111206Y-81927511D01*
X150100000Y-81876000D01*
X150100000Y-80761571D01*
X160897500Y-80761571D01*
X160897500Y-81013428D01*
X160936897Y-81262169D01*
X161014719Y-81501684D01*
X161129057Y-81726083D01*
X161203248Y-81828197D01*
X161203248Y-81828198D01*
X161932887Y-81098559D01*
X161938389Y-81119091D01*
X162017381Y-81255908D01*
X162129092Y-81367619D01*
X162265909Y-81446611D01*
X162286440Y-81452112D01*
X161556800Y-82181750D01*
X161658916Y-82255942D01*
X161883315Y-82370280D01*
X162122830Y-82448102D01*
X162371572Y-82487500D01*
X162623428Y-82487500D01*
X162872169Y-82448102D01*
X163111684Y-82370280D01*
X163336075Y-82255946D01*
X163336081Y-82255942D01*
X163438197Y-82181750D01*
X163438198Y-82181750D01*
X162708559Y-81452112D01*
X162729091Y-81446611D01*
X162865908Y-81367619D01*
X162977619Y-81255908D01*
X163056611Y-81119091D01*
X163062112Y-81098560D01*
X163791750Y-81828198D01*
X163791750Y-81828197D01*
X163865942Y-81726081D01*
X163865946Y-81726075D01*
X163980280Y-81501684D01*
X164058102Y-81262169D01*
X164097500Y-81013428D01*
X164097500Y-80761571D01*
X164097495Y-80761538D01*
X165897000Y-80761538D01*
X165897000Y-81013461D01*
X165936410Y-81262285D01*
X166014260Y-81501883D01*
X166092913Y-81656247D01*
X166128495Y-81726081D01*
X166128632Y-81726348D01*
X166276701Y-81930149D01*
X166276705Y-81930154D01*
X166454845Y-82108294D01*
X166454850Y-82108298D01*
X166555949Y-82181750D01*
X166658655Y-82256370D01*
X166801684Y-82329247D01*
X166883116Y-82370739D01*
X166883118Y-82370739D01*
X166883121Y-82370741D01*
X167122715Y-82448590D01*
X167371538Y-82488000D01*
X167371539Y-82488000D01*
X167623461Y-82488000D01*
X167623462Y-82488000D01*
X167872285Y-82448590D01*
X168111879Y-82370741D01*
X168336345Y-82256370D01*
X168540156Y-82108293D01*
X168718293Y-81930156D01*
X168866370Y-81726345D01*
X168980741Y-81501879D01*
X169058590Y-81262285D01*
X169098000Y-81013462D01*
X169098000Y-80761538D01*
X169058590Y-80512715D01*
X168980741Y-80273121D01*
X168980739Y-80273118D01*
X168980739Y-80273116D01*
X168939247Y-80191684D01*
X168866370Y-80048655D01*
X168792368Y-79946800D01*
X168718298Y-79844850D01*
X168718294Y-79844845D01*
X168540154Y-79666705D01*
X168540149Y-79666701D01*
X168336348Y-79518632D01*
X168336347Y-79518631D01*
X168336345Y-79518630D01*
X168266247Y-79482913D01*
X168111883Y-79404260D01*
X167872285Y-79326410D01*
X167623462Y-79287000D01*
X167371538Y-79287000D01*
X167247126Y-79306705D01*
X167122714Y-79326410D01*
X166883116Y-79404260D01*
X166658651Y-79518632D01*
X166454850Y-79666701D01*
X166454845Y-79666705D01*
X166276705Y-79844845D01*
X166276701Y-79844850D01*
X166128632Y-80048651D01*
X166014260Y-80273116D01*
X165936410Y-80512714D01*
X165897000Y-80761538D01*
X164097495Y-80761538D01*
X164058102Y-80512830D01*
X163980280Y-80273315D01*
X163865942Y-80048916D01*
X163791750Y-79946801D01*
X163791750Y-79946800D01*
X163062112Y-80676439D01*
X163056611Y-80655909D01*
X162977619Y-80519092D01*
X162865908Y-80407381D01*
X162729091Y-80328389D01*
X162708558Y-80322887D01*
X163438198Y-79593248D01*
X163336083Y-79519057D01*
X163111684Y-79404719D01*
X162872169Y-79326897D01*
X162623428Y-79287500D01*
X162371572Y-79287500D01*
X162122830Y-79326897D01*
X161883315Y-79404719D01*
X161658913Y-79519059D01*
X161556801Y-79593247D01*
X161556800Y-79593248D01*
X162286440Y-80322887D01*
X162265909Y-80328389D01*
X162129092Y-80407381D01*
X162017381Y-80519092D01*
X161938389Y-80655909D01*
X161932887Y-80676440D01*
X161203248Y-79946800D01*
X161203247Y-79946801D01*
X161129059Y-80048913D01*
X161014719Y-80273315D01*
X160936897Y-80512830D01*
X160897500Y-80761571D01*
X150100000Y-80761571D01*
X150100000Y-60174500D01*
X150119685Y-60107461D01*
X150172489Y-60061706D01*
X150224000Y-60050500D01*
X157534716Y-60050500D01*
X157601755Y-60070185D01*
G37*
%TD.AperFunction*%
%TA.AperFunction,Conductor*%
G36*
X163503026Y-138419685D02*
G01*
X163536305Y-138451115D01*
X163555477Y-138477503D01*
X163555481Y-138477508D01*
X163555483Y-138477510D01*
X163722490Y-138644517D01*
X163781716Y-138687547D01*
X163824381Y-138742875D01*
X163832448Y-138797593D01*
X163830893Y-138817340D01*
X164570591Y-139557037D01*
X164507007Y-139574075D01*
X164392993Y-139639901D01*
X164299901Y-139732993D01*
X164234075Y-139847007D01*
X164217037Y-139910591D01*
X163477340Y-139170894D01*
X163417084Y-139253830D01*
X163334485Y-139415941D01*
X163286510Y-139466737D01*
X163218689Y-139483532D01*
X163152554Y-139460994D01*
X163109103Y-139406279D01*
X163100000Y-139359646D01*
X163100000Y-138524000D01*
X163102550Y-138515314D01*
X163101262Y-138506353D01*
X163112240Y-138482312D01*
X163119685Y-138456961D01*
X163126525Y-138451033D01*
X163130287Y-138442797D01*
X163152521Y-138428507D01*
X163172489Y-138411206D01*
X163183003Y-138408918D01*
X163189065Y-138405023D01*
X163224000Y-138400000D01*
X163435987Y-138400000D01*
X163503026Y-138419685D01*
G37*
%TD.AperFunction*%
%TD*%
%TA.AperFunction,Conductor*%
%TO.N,/+3.3V*%
G36*
X146743039Y-60070185D02*
G01*
X146788794Y-60122989D01*
X146800000Y-60174500D01*
X146800000Y-60276000D01*
X146780315Y-60343039D01*
X146727511Y-60388794D01*
X146676000Y-60400000D01*
X145700000Y-60400000D01*
X145799999Y-83500000D01*
X145799999Y-83499999D01*
X145800000Y-83500000D01*
X156573617Y-83401159D01*
X156640834Y-83420228D01*
X156687071Y-83472610D01*
X156698748Y-83526382D01*
X156677902Y-85631837D01*
X156657555Y-85698678D01*
X156604300Y-85743908D01*
X156535047Y-85753166D01*
X156485017Y-85733711D01*
X156454184Y-85713109D01*
X156454172Y-85713102D01*
X156308501Y-85652764D01*
X156308489Y-85652761D01*
X156153845Y-85622000D01*
X156153842Y-85622000D01*
X155996158Y-85622000D01*
X155996155Y-85622000D01*
X155841510Y-85652761D01*
X155841498Y-85652764D01*
X155695827Y-85713102D01*
X155695814Y-85713109D01*
X155564711Y-85800710D01*
X155564707Y-85800713D01*
X155453213Y-85912207D01*
X155453210Y-85912211D01*
X155365609Y-86043314D01*
X155365604Y-86043324D01*
X155306243Y-86186635D01*
X155262402Y-86241038D01*
X155239135Y-86253743D01*
X155095824Y-86313104D01*
X155095814Y-86313109D01*
X154964711Y-86400710D01*
X154964707Y-86400713D01*
X154853213Y-86512207D01*
X154853210Y-86512211D01*
X154765609Y-86643314D01*
X154765602Y-86643327D01*
X154705264Y-86788998D01*
X154705261Y-86789010D01*
X154674500Y-86943653D01*
X154674500Y-87101346D01*
X154705261Y-87255989D01*
X154705264Y-87256001D01*
X154765602Y-87401672D01*
X154765609Y-87401685D01*
X154853210Y-87532788D01*
X154853213Y-87532792D01*
X154964707Y-87644286D01*
X154964711Y-87644289D01*
X155095814Y-87731890D01*
X155095827Y-87731897D01*
X155241498Y-87792235D01*
X155241503Y-87792237D01*
X155300039Y-87803880D01*
X155399719Y-87823709D01*
X155461630Y-87856094D01*
X155496205Y-87916810D01*
X155492465Y-87986579D01*
X155490090Y-87992775D01*
X155480265Y-88016494D01*
X155480261Y-88016510D01*
X155449500Y-88171153D01*
X155449500Y-88328846D01*
X155480261Y-88483489D01*
X155480264Y-88483501D01*
X155540602Y-88629172D01*
X155540609Y-88629185D01*
X155628210Y-88760288D01*
X155628213Y-88760292D01*
X155739707Y-88871786D01*
X155739711Y-88871789D01*
X155870814Y-88959390D01*
X155870827Y-88959397D01*
X156016498Y-89019735D01*
X156016503Y-89019737D01*
X156171153Y-89050499D01*
X156171156Y-89050500D01*
X156171158Y-89050500D01*
X156328844Y-89050500D01*
X156328845Y-89050499D01*
X156374831Y-89041352D01*
X156489472Y-89018549D01*
X156489716Y-89019776D01*
X156553035Y-89019205D01*
X156612152Y-89056447D01*
X156641749Y-89119738D01*
X156643170Y-89139721D01*
X156599999Y-93499998D01*
X156600000Y-93499999D01*
X156600000Y-93500000D01*
X156906075Y-93576518D01*
X156966338Y-93611875D01*
X156997920Y-93674199D01*
X157000000Y-93696816D01*
X157000000Y-94700000D01*
X158176000Y-94700000D01*
X158243039Y-94719685D01*
X158288794Y-94772489D01*
X158300000Y-94824000D01*
X158300000Y-99400000D01*
X158612970Y-99400000D01*
X158680009Y-99419685D01*
X158725764Y-99472489D01*
X158727816Y-99477917D01*
X158727932Y-99477870D01*
X158790602Y-99629172D01*
X158790609Y-99629185D01*
X158878210Y-99760288D01*
X158878213Y-99760292D01*
X158989707Y-99871786D01*
X158989711Y-99871789D01*
X159120814Y-99959390D01*
X159120827Y-99959397D01*
X159266498Y-100019735D01*
X159266503Y-100019737D01*
X159421153Y-100050499D01*
X159421156Y-100050500D01*
X159421158Y-100050500D01*
X159578844Y-100050500D01*
X159578845Y-100050499D01*
X159733497Y-100019737D01*
X159846166Y-99973067D01*
X159879172Y-99959397D01*
X159879172Y-99959396D01*
X159879179Y-99959394D01*
X160010289Y-99871789D01*
X160121789Y-99760289D01*
X160209394Y-99629179D01*
X160230505Y-99578213D01*
X160272068Y-99477870D01*
X160274383Y-99478829D01*
X160306665Y-99429567D01*
X160370477Y-99401110D01*
X160387030Y-99400000D01*
X161966059Y-99400000D01*
X162033098Y-99419685D01*
X162078853Y-99472489D01*
X162088797Y-99541647D01*
X162059772Y-99605203D01*
X162053740Y-99611681D01*
X161975713Y-99689707D01*
X161975710Y-99689711D01*
X161888109Y-99820814D01*
X161888102Y-99820827D01*
X161827764Y-99966498D01*
X161827761Y-99966510D01*
X161797000Y-100121153D01*
X161797000Y-100278846D01*
X161827761Y-100433489D01*
X161827764Y-100433501D01*
X161888102Y-100579172D01*
X161888109Y-100579185D01*
X161975710Y-100710288D01*
X161975713Y-100710292D01*
X162087207Y-100821786D01*
X162087211Y-100821789D01*
X162218314Y-100909390D01*
X162218327Y-100909397D01*
X162363998Y-100969735D01*
X162364003Y-100969737D01*
X162518653Y-101000499D01*
X162518656Y-101000500D01*
X162518658Y-101000500D01*
X162676344Y-101000500D01*
X162676345Y-101000499D01*
X162830997Y-100969737D01*
X162976679Y-100909394D01*
X163107789Y-100821789D01*
X163219289Y-100710289D01*
X163306894Y-100579179D01*
X163361439Y-100447495D01*
X163405279Y-100393091D01*
X163471573Y-100371026D01*
X163539273Y-100388305D01*
X163586884Y-100439442D01*
X163600000Y-100494947D01*
X163600000Y-103776000D01*
X163580315Y-103843039D01*
X163527511Y-103888794D01*
X163476000Y-103900000D01*
X141500000Y-103900000D01*
X141500000Y-110542056D01*
X141493037Y-110565767D01*
X141490220Y-110590325D01*
X141483364Y-110598708D01*
X141480315Y-110609095D01*
X141461640Y-110625276D01*
X141445992Y-110644414D01*
X141431110Y-110651730D01*
X141427511Y-110654850D01*
X141414319Y-110659987D01*
X141376153Y-110672387D01*
X141309850Y-110693931D01*
X141271533Y-110700000D01*
X136287000Y-110700000D01*
X136219961Y-110680315D01*
X136174206Y-110627511D01*
X136163000Y-110576000D01*
X136163000Y-100621153D01*
X140699500Y-100621153D01*
X140699500Y-100778846D01*
X140730261Y-100933489D01*
X140730264Y-100933501D01*
X140790602Y-101079172D01*
X140790609Y-101079185D01*
X140878210Y-101210288D01*
X140878213Y-101210292D01*
X140989707Y-101321786D01*
X140989711Y-101321789D01*
X141120814Y-101409390D01*
X141120827Y-101409397D01*
X141266498Y-101469735D01*
X141266503Y-101469737D01*
X141421153Y-101500499D01*
X141421156Y-101500500D01*
X141421158Y-101500500D01*
X141578844Y-101500500D01*
X141578845Y-101500499D01*
X141733497Y-101469737D01*
X141879179Y-101409394D01*
X142010289Y-101321789D01*
X142121789Y-101210289D01*
X142209394Y-101079179D01*
X142269737Y-100933497D01*
X142300500Y-100778842D01*
X142300500Y-100621158D01*
X142300500Y-100621155D01*
X142300499Y-100621153D01*
X142292148Y-100579172D01*
X142269737Y-100466503D01*
X142237347Y-100388305D01*
X142209397Y-100320827D01*
X142209390Y-100320814D01*
X142121790Y-100189712D01*
X142121784Y-100189705D01*
X142053232Y-100121153D01*
X146397000Y-100121153D01*
X146397000Y-100278846D01*
X146427761Y-100433489D01*
X146427764Y-100433501D01*
X146488102Y-100579172D01*
X146488109Y-100579185D01*
X146575710Y-100710288D01*
X146575713Y-100710292D01*
X146687207Y-100821786D01*
X146687211Y-100821789D01*
X146818314Y-100909390D01*
X146818327Y-100909397D01*
X146963998Y-100969735D01*
X146964003Y-100969737D01*
X147118653Y-101000499D01*
X147118656Y-101000500D01*
X147118658Y-101000500D01*
X147276344Y-101000500D01*
X147276345Y-101000499D01*
X147430997Y-100969737D01*
X147576679Y-100909394D01*
X147707789Y-100821789D01*
X147819289Y-100710289D01*
X147906894Y-100579179D01*
X147967237Y-100433497D01*
X147998000Y-100278842D01*
X147998000Y-100121158D01*
X147998000Y-100121155D01*
X147997999Y-100121153D01*
X150297000Y-100121153D01*
X150297000Y-100278846D01*
X150327761Y-100433489D01*
X150327764Y-100433501D01*
X150388102Y-100579172D01*
X150388109Y-100579185D01*
X150475710Y-100710288D01*
X150475713Y-100710292D01*
X150587207Y-100821786D01*
X150587211Y-100821789D01*
X150718314Y-100909390D01*
X150718327Y-100909397D01*
X150863998Y-100969735D01*
X150864003Y-100969737D01*
X151018653Y-101000499D01*
X151018656Y-101000500D01*
X151018658Y-101000500D01*
X151176344Y-101000500D01*
X151176345Y-101000499D01*
X151330997Y-100969737D01*
X151476679Y-100909394D01*
X151607789Y-100821789D01*
X151687260Y-100742317D01*
X151748581Y-100708834D01*
X151818273Y-100713818D01*
X151874207Y-100755689D01*
X151884690Y-100774100D01*
X151885236Y-100773809D01*
X151888109Y-100779185D01*
X151975710Y-100910288D01*
X151975713Y-100910292D01*
X152087207Y-101021786D01*
X152087211Y-101021789D01*
X152218314Y-101109390D01*
X152218327Y-101109397D01*
X152363998Y-101169735D01*
X152364003Y-101169737D01*
X152518653Y-101200499D01*
X152518656Y-101200500D01*
X152518658Y-101200500D01*
X152676344Y-101200500D01*
X152676345Y-101200499D01*
X152830997Y-101169737D01*
X152976679Y-101109394D01*
X153107789Y-101021789D01*
X153219289Y-100910289D01*
X153306894Y-100779179D01*
X153367237Y-100633497D01*
X153398000Y-100478842D01*
X153398000Y-100321158D01*
X153398000Y-100321155D01*
X153397999Y-100321153D01*
X153397932Y-100320814D01*
X153367237Y-100166503D01*
X153348455Y-100121158D01*
X153306897Y-100020827D01*
X153306890Y-100020814D01*
X153219289Y-99889711D01*
X153219286Y-99889707D01*
X153107792Y-99778213D01*
X153107788Y-99778210D01*
X152976685Y-99690609D01*
X152976672Y-99690602D01*
X152831001Y-99630264D01*
X152830989Y-99630261D01*
X152676345Y-99599500D01*
X152676342Y-99599500D01*
X152518658Y-99599500D01*
X152518655Y-99599500D01*
X152364010Y-99630261D01*
X152363998Y-99630264D01*
X152218327Y-99690602D01*
X152218314Y-99690609D01*
X152087211Y-99778210D01*
X152007740Y-99857681D01*
X151946416Y-99891165D01*
X151876725Y-99886181D01*
X151820791Y-99844309D01*
X151810310Y-99825898D01*
X151809764Y-99826191D01*
X151806890Y-99820814D01*
X151719289Y-99689711D01*
X151719286Y-99689707D01*
X151607792Y-99578213D01*
X151607788Y-99578210D01*
X151476685Y-99490609D01*
X151476672Y-99490602D01*
X151331001Y-99430264D01*
X151330989Y-99430261D01*
X151176345Y-99399500D01*
X151176342Y-99399500D01*
X151018658Y-99399500D01*
X151018655Y-99399500D01*
X150864010Y-99430261D01*
X150863998Y-99430264D01*
X150718327Y-99490602D01*
X150718314Y-99490609D01*
X150587211Y-99578210D01*
X150587207Y-99578213D01*
X150475713Y-99689707D01*
X150475710Y-99689711D01*
X150388109Y-99820814D01*
X150388102Y-99820827D01*
X150327764Y-99966498D01*
X150327761Y-99966510D01*
X150297000Y-100121153D01*
X147997999Y-100121153D01*
X147983945Y-100050499D01*
X147967237Y-99966503D01*
X147964291Y-99959390D01*
X147906897Y-99820827D01*
X147906890Y-99820814D01*
X147819289Y-99689711D01*
X147819286Y-99689707D01*
X147707792Y-99578213D01*
X147707788Y-99578210D01*
X147576685Y-99490609D01*
X147576672Y-99490602D01*
X147431001Y-99430264D01*
X147430989Y-99430261D01*
X147276345Y-99399500D01*
X147276342Y-99399500D01*
X147118658Y-99399500D01*
X147118655Y-99399500D01*
X146964010Y-99430261D01*
X146963998Y-99430264D01*
X146818327Y-99490602D01*
X146818314Y-99490609D01*
X146687211Y-99578210D01*
X146687207Y-99578213D01*
X146575713Y-99689707D01*
X146575710Y-99689711D01*
X146488109Y-99820814D01*
X146488102Y-99820827D01*
X146427764Y-99966498D01*
X146427761Y-99966510D01*
X146397000Y-100121153D01*
X142053232Y-100121153D01*
X142010292Y-100078213D01*
X142010288Y-100078210D01*
X141879185Y-99990609D01*
X141879172Y-99990602D01*
X141733501Y-99930264D01*
X141733489Y-99930261D01*
X141578845Y-99899500D01*
X141578842Y-99899500D01*
X141421158Y-99899500D01*
X141421155Y-99899500D01*
X141266510Y-99930261D01*
X141266498Y-99930264D01*
X141120827Y-99990602D01*
X141120814Y-99990609D01*
X140989711Y-100078210D01*
X140989707Y-100078213D01*
X140878213Y-100189707D01*
X140878210Y-100189711D01*
X140790609Y-100320814D01*
X140790602Y-100320827D01*
X140730264Y-100466498D01*
X140730261Y-100466510D01*
X140699500Y-100621153D01*
X136163000Y-100621153D01*
X136163000Y-89970326D01*
X153324501Y-89970326D01*
X153324501Y-90128019D01*
X153355262Y-90282662D01*
X153355265Y-90282674D01*
X153415603Y-90428345D01*
X153415610Y-90428358D01*
X153503211Y-90559461D01*
X153503214Y-90559465D01*
X153614708Y-90670959D01*
X153614712Y-90670962D01*
X153745815Y-90758563D01*
X153745828Y-90758570D01*
X153891499Y-90818908D01*
X153891504Y-90818910D01*
X154046154Y-90849672D01*
X154046157Y-90849673D01*
X154046159Y-90849673D01*
X154203845Y-90849673D01*
X154203846Y-90849672D01*
X154358498Y-90818910D01*
X154504180Y-90758567D01*
X154635290Y-90670962D01*
X154746790Y-90559462D01*
X154834395Y-90428352D01*
X154894738Y-90282670D01*
X154925501Y-90128015D01*
X154925501Y-89970331D01*
X154925501Y-89970328D01*
X154925500Y-89970326D01*
X154894739Y-89815683D01*
X154894738Y-89815676D01*
X154842562Y-89689711D01*
X154834398Y-89670000D01*
X154834391Y-89669987D01*
X154746790Y-89538884D01*
X154746787Y-89538880D01*
X154635293Y-89427386D01*
X154635289Y-89427383D01*
X154504186Y-89339782D01*
X154504173Y-89339775D01*
X154358502Y-89279437D01*
X154358490Y-89279434D01*
X154203846Y-89248673D01*
X154203843Y-89248673D01*
X154046159Y-89248673D01*
X154046156Y-89248673D01*
X153891511Y-89279434D01*
X153891499Y-89279437D01*
X153745828Y-89339775D01*
X153745815Y-89339782D01*
X153614712Y-89427383D01*
X153614708Y-89427386D01*
X153503214Y-89538880D01*
X153503211Y-89538884D01*
X153415610Y-89669987D01*
X153415603Y-89670000D01*
X153355265Y-89815671D01*
X153355262Y-89815683D01*
X153324501Y-89970326D01*
X136163000Y-89970326D01*
X136163000Y-86243653D01*
X148074500Y-86243653D01*
X148074500Y-86401346D01*
X148105261Y-86555989D01*
X148105264Y-86556001D01*
X148165602Y-86701672D01*
X148165609Y-86701685D01*
X148253210Y-86832788D01*
X148253213Y-86832792D01*
X148364707Y-86944286D01*
X148364711Y-86944289D01*
X148495814Y-87031890D01*
X148495827Y-87031897D01*
X148641498Y-87092235D01*
X148641503Y-87092237D01*
X148796153Y-87122999D01*
X148796156Y-87123000D01*
X148796158Y-87123000D01*
X148953844Y-87123000D01*
X148953845Y-87122999D01*
X149108497Y-87092237D01*
X149254179Y-87031894D01*
X149385289Y-86944289D01*
X149496789Y-86832789D01*
X149584394Y-86701679D01*
X149644737Y-86555997D01*
X149675500Y-86401342D01*
X149675500Y-86243658D01*
X149675500Y-86243655D01*
X149675499Y-86243653D01*
X149644738Y-86089010D01*
X149644737Y-86089003D01*
X149625812Y-86043314D01*
X149584397Y-85943327D01*
X149584390Y-85943314D01*
X149496789Y-85812211D01*
X149496786Y-85812207D01*
X149385292Y-85700713D01*
X149385288Y-85700710D01*
X149254185Y-85613109D01*
X149254172Y-85613102D01*
X149108501Y-85552764D01*
X149108489Y-85552761D01*
X148953845Y-85522000D01*
X148953842Y-85522000D01*
X148796158Y-85522000D01*
X148796155Y-85522000D01*
X148641510Y-85552761D01*
X148641498Y-85552764D01*
X148495827Y-85613102D01*
X148495814Y-85613109D01*
X148364711Y-85700710D01*
X148364707Y-85700713D01*
X148253213Y-85812207D01*
X148253210Y-85812211D01*
X148165609Y-85943314D01*
X148165602Y-85943327D01*
X148105264Y-86088998D01*
X148105261Y-86089010D01*
X148074500Y-86243653D01*
X136163000Y-86243653D01*
X136163000Y-60174500D01*
X136182685Y-60107461D01*
X136235489Y-60061706D01*
X136287000Y-60050500D01*
X146676000Y-60050500D01*
X146743039Y-60070185D01*
G37*
%TD.AperFunction*%
%TD*%
M02*
