%TF.GenerationSoftware,KiCad,Pcbnew,9.0.4*%
%TF.CreationDate,2025-08-31T21:44:58-07:00*%
%TF.ProjectId,motion-play-v4,6d6f7469-6f6e-42d7-906c-61792d76342e,rev?*%
%TF.SameCoordinates,Original*%
%TF.FileFunction,Copper,L1,Top*%
%TF.FilePolarity,Positive*%
%FSLAX46Y46*%
G04 Gerber Fmt 4.6, Leading zero omitted, Abs format (unit mm)*
G04 Created by KiCad (PCBNEW 9.0.4) date 2025-08-31 21:44:58*
%MOMM*%
%LPD*%
G01*
G04 APERTURE LIST*
G04 Aperture macros list*
%AMRoundRect*
0 Rectangle with rounded corners*
0 $1 Rounding radius*
0 $2 $3 $4 $5 $6 $7 $8 $9 X,Y pos of 4 corners*
0 Add a 4 corners polygon primitive as box body*
4,1,4,$2,$3,$4,$5,$6,$7,$8,$9,$2,$3,0*
0 Add four circle primitives for the rounded corners*
1,1,$1+$1,$2,$3*
1,1,$1+$1,$4,$5*
1,1,$1+$1,$6,$7*
1,1,$1+$1,$8,$9*
0 Add four rect primitives between the rounded corners*
20,1,$1+$1,$2,$3,$4,$5,0*
20,1,$1+$1,$4,$5,$6,$7,0*
20,1,$1+$1,$6,$7,$8,$9,0*
20,1,$1+$1,$8,$9,$2,$3,0*%
G04 Aperture macros list end*
%ADD10C,0.150000*%
%TA.AperFunction,NonConductor*%
%ADD11C,0.150000*%
%TD*%
%TA.AperFunction,SMDPad,CuDef*%
%ADD12RoundRect,0.150000X-0.625000X0.150000X-0.625000X-0.150000X0.625000X-0.150000X0.625000X0.150000X0*%
%TD*%
%TA.AperFunction,SMDPad,CuDef*%
%ADD13RoundRect,0.250000X-0.650000X0.350000X-0.650000X-0.350000X0.650000X-0.350000X0.650000X0.350000X0*%
%TD*%
%TA.AperFunction,SMDPad,CuDef*%
%ADD14RoundRect,0.200000X-0.200000X-0.275000X0.200000X-0.275000X0.200000X0.275000X-0.200000X0.275000X0*%
%TD*%
%TA.AperFunction,SMDPad,CuDef*%
%ADD15C,2.000000*%
%TD*%
%TA.AperFunction,SMDPad,CuDef*%
%ADD16RoundRect,0.225000X0.250000X-0.225000X0.250000X0.225000X-0.250000X0.225000X-0.250000X-0.225000X0*%
%TD*%
%TA.AperFunction,SMDPad,CuDef*%
%ADD17RoundRect,0.200000X0.200000X0.275000X-0.200000X0.275000X-0.200000X-0.275000X0.200000X-0.275000X0*%
%TD*%
%TA.AperFunction,ComponentPad*%
%ADD18C,2.000000*%
%TD*%
%TA.AperFunction,SMDPad,CuDef*%
%ADD19RoundRect,0.250000X1.000000X0.650000X-1.000000X0.650000X-1.000000X-0.650000X1.000000X-0.650000X0*%
%TD*%
%TA.AperFunction,SMDPad,CuDef*%
%ADD20RoundRect,0.069750X0.395250X-0.585250X0.395250X0.585250X-0.395250X0.585250X-0.395250X-0.585250X0*%
%TD*%
%TA.AperFunction,SMDPad,CuDef*%
%ADD21RoundRect,0.098250X1.521750X-0.556750X1.521750X0.556750X-1.521750X0.556750X-1.521750X-0.556750X0*%
%TD*%
%TA.AperFunction,SMDPad,CuDef*%
%ADD22RoundRect,0.200000X0.275000X-0.200000X0.275000X0.200000X-0.275000X0.200000X-0.275000X-0.200000X0*%
%TD*%
%TA.AperFunction,WasherPad*%
%ADD23C,3.250000*%
%TD*%
%TA.AperFunction,ComponentPad*%
%ADD24C,2.200000*%
%TD*%
%TA.AperFunction,SMDPad,CuDef*%
%ADD25RoundRect,0.051250X-0.153750X0.733750X-0.153750X-0.733750X0.153750X-0.733750X0.153750X0.733750X0*%
%TD*%
%TA.AperFunction,SMDPad,CuDef*%
%ADD26RoundRect,0.250000X1.500000X-0.250000X1.500000X0.250000X-1.500000X0.250000X-1.500000X-0.250000X0*%
%TD*%
%TA.AperFunction,SMDPad,CuDef*%
%ADD27RoundRect,0.250001X1.449999X-0.499999X1.449999X0.499999X-1.449999X0.499999X-1.449999X-0.499999X0*%
%TD*%
%TA.AperFunction,ViaPad*%
%ADD28C,0.600000*%
%TD*%
%TA.AperFunction,Conductor*%
%ADD29C,0.300000*%
%TD*%
%TA.AperFunction,Conductor*%
%ADD30C,0.500000*%
%TD*%
%TA.AperFunction,Conductor*%
%ADD31C,0.250000*%
%TD*%
%TA.AperFunction,Conductor*%
%ADD32C,1.500000*%
%TD*%
G04 APERTURE END LIST*
D10*
D11*
X166670485Y-117748935D02*
X166632390Y-117710839D01*
X166632390Y-117710839D02*
X166594295Y-117634649D01*
X166594295Y-117634649D02*
X166594295Y-117444173D01*
X166594295Y-117444173D02*
X166632390Y-117367982D01*
X166632390Y-117367982D02*
X166670485Y-117329887D01*
X166670485Y-117329887D02*
X166746676Y-117291792D01*
X166746676Y-117291792D02*
X166822866Y-117291792D01*
X166822866Y-117291792D02*
X166937152Y-117329887D01*
X166937152Y-117329887D02*
X167394295Y-117787030D01*
X167394295Y-117787030D02*
X167394295Y-117291792D01*
D12*
%TO.P,J10,1,Pin_1*%
%TO.N,/+3.3V*%
X140312500Y-99700000D03*
%TO.P,J10,2,Pin_2*%
%TO.N,/GND*%
X140312500Y-100700000D03*
D13*
%TO.P,J10,MP*%
%TO.N,N/C*%
X136437500Y-98400000D03*
X136437500Y-102000000D03*
%TD*%
D14*
%TO.P,R17,1*%
%TO.N,Net-(J7-Pin_2)*%
X142350000Y-82050000D03*
%TO.P,R17,2*%
%TO.N,Net-(U3-SC3)*%
X144000000Y-82050000D03*
%TD*%
%TO.P,R11,1*%
%TO.N,Net-(J4-Pin_2)*%
X142325000Y-64150000D03*
%TO.P,R11,2*%
%TO.N,Net-(U3-SC0)*%
X143975000Y-64150000D03*
%TD*%
%TO.P,R15,1*%
%TO.N,Net-(J6-Pin_2)*%
X142350000Y-76150000D03*
%TO.P,R15,2*%
%TO.N,Net-(U3-SC2)*%
X144000000Y-76150000D03*
%TD*%
D15*
%TO.P,SDA,1,1*%
%TO.N,Net-(U3-SDA)*%
X144500000Y-101750000D03*
%TD*%
D16*
%TO.P,C2,1*%
%TO.N,/+3.3V*%
X148497500Y-101775000D03*
%TO.P,C2,2*%
%TO.N,/GND*%
X148497500Y-100225000D03*
%TD*%
D12*
%TO.P,J4,1,Pin_1*%
%TO.N,Net-(J4-Pin_1)*%
X140287500Y-63150000D03*
%TO.P,J4,2,Pin_2*%
%TO.N,Net-(J4-Pin_2)*%
X140287500Y-64150000D03*
%TO.P,J4,3,Pin_3*%
%TO.N,Net-(J4-Pin_3)*%
X140287500Y-65150000D03*
D13*
%TO.P,J4,MP*%
%TO.N,N/C*%
X136412500Y-61850000D03*
X136412500Y-66450000D03*
%TD*%
D14*
%TO.P,R19,1*%
%TO.N,Net-(J8-Pin_2)*%
X142375000Y-88500000D03*
%TO.P,R19,2*%
%TO.N,Net-(U3-SC4)*%
X144025000Y-88500000D03*
%TD*%
D17*
%TO.P,R3,1*%
%TO.N,/+3.3V*%
X143975000Y-65650000D03*
%TO.P,R3,2*%
%TO.N,Net-(J4-Pin_3)*%
X142325000Y-65650000D03*
%TD*%
D14*
%TO.P,R12,1*%
%TO.N,Net-(J5-Pin_1)*%
X142350000Y-68750000D03*
%TO.P,R12,2*%
%TO.N,Net-(U3-SD1)*%
X144000000Y-68750000D03*
%TD*%
D15*
%TO.P,2,1,1*%
%TO.N,Net-(J3-Pin_2)*%
X169000000Y-117500000D03*
%TD*%
%TO.P,17,1,1*%
%TO.N,Net-(U2-17)*%
X138000000Y-126750000D03*
%TD*%
D14*
%TO.P,R16,1*%
%TO.N,Net-(J7-Pin_1)*%
X142350000Y-80550000D03*
%TO.P,R16,2*%
%TO.N,Net-(U3-SD3)*%
X144000000Y-80550000D03*
%TD*%
D16*
%TO.P,C1,1*%
%TO.N,Net-(D1-K)*%
X159497500Y-101775000D03*
%TO.P,C1,2*%
%TO.N,/GND*%
X159497500Y-100225000D03*
%TD*%
D15*
%TO.P,12,1,1*%
%TO.N,Net-(J6-Pin_3)*%
X169000000Y-129500000D03*
%TD*%
D17*
%TO.P,R7,1*%
%TO.N,/+3.3V*%
X144000000Y-83550000D03*
%TO.P,R7,2*%
%TO.N,Net-(J6-Pin_3)*%
X142350000Y-83550000D03*
%TD*%
D18*
%TO.P,U2,1,3v*%
%TO.N,Net-(3V2-Pad1)*%
X164700000Y-112100000D03*
%TO.P,U2,2,1*%
%TO.N,Net-(U2-1)*%
X164700000Y-114640000D03*
%TO.P,U2,3,2*%
%TO.N,Net-(J3-Pin_2)*%
X164700000Y-117180000D03*
%TO.P,U2,4,3*%
%TO.N,Net-(U2-3)*%
X164700000Y-119720000D03*
%TO.P,U2,5,10*%
%TO.N,Net-(U2-10)*%
X164700000Y-122260000D03*
%TO.P,U2,6,11*%
%TO.N,Net-(J4-Pin_3)*%
X164700000Y-124800000D03*
%TO.P,U2,7,12*%
%TO.N,Net-(J6-Pin_3)*%
X164700000Y-127340000D03*
%TO.P,U2,8,13*%
%TO.N,Net-(J8-Pin_3)*%
X164700000Y-129880000D03*
%TO.P,U2,9,NC*%
%TO.N,unconnected-(U2-NC-Pad9)*%
X164700000Y-132420000D03*
%TO.P,U2,10,NC*%
%TO.N,unconnected-(U2-NC-Pad10)*%
X164700000Y-134960000D03*
%TO.P,U2,11,GND*%
%TO.N,/GND*%
X164700000Y-137500000D03*
%TO.P,U2,12,5V*%
%TO.N,/+5V*%
X164700000Y-140040000D03*
%TO.P,U2,13,GND*%
%TO.N,/GND*%
X141838136Y-112100000D03*
%TO.P,U2,14,GND*%
X141838136Y-114640000D03*
%TO.P,U2,15,43*%
%TO.N,/SDA*%
X141838136Y-117180000D03*
%TO.P,U2,16,44*%
%TO.N,/SCL*%
X141838136Y-119720000D03*
%TO.P,U2,17,18*%
%TO.N,Net-(U2-18)*%
X141838136Y-122260000D03*
%TO.P,U2,18,17*%
%TO.N,Net-(U2-17)*%
X141838136Y-124800000D03*
%TO.P,U2,19,21*%
%TO.N,Net-(U2-21)*%
X141838136Y-127340000D03*
%TO.P,U2,20,16*%
%TO.N,Net-(U2-16)*%
X141838136Y-129880000D03*
%TO.P,U2,21,NC*%
%TO.N,unconnected-(U2-NC-Pad21)*%
X141838136Y-132420000D03*
%TO.P,U2,22,GND*%
%TO.N,/GND*%
X141838136Y-134960000D03*
%TO.P,U2,23,GND*%
X141838136Y-137500000D03*
%TO.P,U2,24,3v*%
%TO.N,Net-(3V1-Pad1)*%
X141838136Y-140040000D03*
%TD*%
D12*
%TO.P,J6,1,Pin_1*%
%TO.N,Net-(J6-Pin_1)*%
X140287500Y-75150000D03*
%TO.P,J6,2,Pin_2*%
%TO.N,Net-(J6-Pin_2)*%
X140287500Y-76150000D03*
%TO.P,J6,3,Pin_3*%
%TO.N,Net-(J6-Pin_3)*%
X140287500Y-77150000D03*
D13*
%TO.P,J6,MP*%
%TO.N,N/C*%
X136412500Y-73850000D03*
X136412500Y-78450000D03*
%TD*%
D14*
%TO.P,R21,1*%
%TO.N,Net-(J9-Pin_2)*%
X142375000Y-94400000D03*
%TO.P,R21,2*%
%TO.N,Net-(U3-SC5)*%
X144025000Y-94400000D03*
%TD*%
D17*
%TO.P,R4,1*%
%TO.N,/+3.3V*%
X144000000Y-71750000D03*
%TO.P,R4,2*%
%TO.N,Net-(J4-Pin_3)*%
X142350000Y-71750000D03*
%TD*%
%TO.P,R5,1*%
%TO.N,/+3.3V*%
X144000000Y-77650000D03*
%TO.P,R5,2*%
%TO.N,Net-(J6-Pin_3)*%
X142350000Y-77650000D03*
%TD*%
D15*
%TO.P,1,1,1*%
%TO.N,Net-(U2-1)*%
X169000000Y-114500000D03*
%TD*%
D19*
%TO.P,D1,1,K*%
%TO.N,Net-(D1-K)*%
X164497500Y-96600000D03*
%TO.P,D1,2,A*%
%TO.N,/+5V*%
X160497500Y-96600000D03*
%TD*%
D12*
%TO.P,J5,1,Pin_1*%
%TO.N,Net-(J5-Pin_1)*%
X140312500Y-69150000D03*
%TO.P,J5,2,Pin_2*%
%TO.N,Net-(J5-Pin_2)*%
X140312500Y-70150000D03*
%TO.P,J5,3,Pin_3*%
%TO.N,Net-(J4-Pin_3)*%
X140312500Y-71150000D03*
D13*
%TO.P,J5,MP*%
%TO.N,N/C*%
X136437500Y-67850000D03*
X136437500Y-72450000D03*
%TD*%
D15*
%TO.P,13,1,1*%
%TO.N,Net-(J8-Pin_3)*%
X169000000Y-132500000D03*
%TD*%
D14*
%TO.P,R14,1*%
%TO.N,Net-(J6-Pin_1)*%
X142350000Y-74650000D03*
%TO.P,R14,2*%
%TO.N,Net-(U3-SD2)*%
X144000000Y-74650000D03*
%TD*%
%TO.P,R18,1*%
%TO.N,Net-(J8-Pin_1)*%
X142375000Y-87000000D03*
%TO.P,R18,2*%
%TO.N,Net-(U3-SD4)*%
X144025000Y-87000000D03*
%TD*%
D15*
%TO.P,3,1,1*%
%TO.N,Net-(U2-3)*%
X169000000Y-120500000D03*
%TD*%
%TO.P,16,1,1*%
%TO.N,Net-(U2-16)*%
X138000000Y-133250000D03*
%TD*%
D14*
%TO.P,R13,1*%
%TO.N,Net-(J5-Pin_2)*%
X142350000Y-70250000D03*
%TO.P,R13,2*%
%TO.N,Net-(U3-SC1)*%
X144000000Y-70250000D03*
%TD*%
D15*
%TO.P,21,1,1*%
%TO.N,Net-(U2-21)*%
X138000000Y-130000000D03*
%TD*%
%TO.P,10,1,1*%
%TO.N,Net-(U2-10)*%
X169000000Y-123500000D03*
%TD*%
D20*
%TO.P,U4,1,GND/ADJ*%
%TO.N,/GND*%
X152607500Y-101582500D03*
%TO.P,U4,2,VOUT*%
%TO.N,/+3.3V*%
X154897500Y-101582500D03*
%TO.P,U4,3,VIN*%
%TO.N,Net-(D1-K)*%
X157187500Y-101582500D03*
D21*
%TO.P,U4,4*%
%TO.N,N/C*%
X154897500Y-94892500D03*
%TD*%
D22*
%TO.P,R6,1*%
%TO.N,Net-(U2-10)*%
X154800000Y-82825000D03*
%TO.P,R6,2*%
%TO.N,/+3.3V*%
X154800000Y-81175000D03*
%TD*%
D23*
%TO.P,J2,*%
%TO.N,*%
X158997500Y-61887500D03*
D24*
%TO.P,J2,1,GND*%
%TO.N,/GND*%
X167497500Y-80887500D03*
%TO.P,J2,2,5V*%
%TO.N,/+5V*%
X162497500Y-80887500D03*
%TO.P,J2,5V*%
%TO.N,N/C*%
X147747500Y-74887500D03*
%TO.P,J2,GND*%
X147747500Y-68887500D03*
%TD*%
D15*
%TO.P,43,1,1*%
%TO.N,/SDA*%
X138000000Y-117000000D03*
%TD*%
%TO.P,44,1,1*%
%TO.N,/SCL*%
X138000000Y-120250000D03*
%TD*%
D12*
%TO.P,J8,1,Pin_1*%
%TO.N,Net-(J8-Pin_1)*%
X140312500Y-87250000D03*
%TO.P,J8,2,Pin_2*%
%TO.N,Net-(J8-Pin_2)*%
X140312500Y-88250000D03*
%TO.P,J8,3,Pin_3*%
%TO.N,Net-(J8-Pin_3)*%
X140312500Y-89250000D03*
D13*
%TO.P,J8,MP*%
%TO.N,N/C*%
X136437500Y-85950000D03*
X136437500Y-90550000D03*
%TD*%
D12*
%TO.P,J9,1,Pin_1*%
%TO.N,Net-(J9-Pin_1)*%
X140312500Y-93250000D03*
%TO.P,J9,2,Pin_2*%
%TO.N,Net-(J9-Pin_2)*%
X140312500Y-94250000D03*
%TO.P,J9,3,Pin_3*%
%TO.N,Net-(J8-Pin_3)*%
X140312500Y-95250000D03*
D13*
%TO.P,J9,MP*%
%TO.N,N/C*%
X136437500Y-91950000D03*
X136437500Y-96550000D03*
%TD*%
D25*
%TO.P,U3,1,A0*%
%TO.N,/GND*%
X156075000Y-85285000D03*
%TO.P,U3,2,A1*%
X155425000Y-85285000D03*
%TO.P,U3,3,~{RESET}*%
%TO.N,Net-(U2-10)*%
X154775000Y-85285000D03*
%TO.P,U3,4,SD0*%
%TO.N,Net-(U3-SD0)*%
X154125000Y-85285000D03*
%TO.P,U3,5,SC0*%
%TO.N,Net-(U3-SC0)*%
X153475000Y-85285000D03*
%TO.P,U3,6,SD1*%
%TO.N,Net-(U3-SD1)*%
X152825000Y-85285000D03*
%TO.P,U3,7,SC1*%
%TO.N,Net-(U3-SC1)*%
X152175000Y-85285000D03*
%TO.P,U3,8,SD2*%
%TO.N,Net-(U3-SD2)*%
X151525000Y-85285000D03*
%TO.P,U3,9,SC2*%
%TO.N,Net-(U3-SC2)*%
X150875000Y-85285000D03*
%TO.P,U3,10,SD3*%
%TO.N,Net-(U3-SD3)*%
X150225000Y-85285000D03*
%TO.P,U3,11,SC3*%
%TO.N,Net-(U3-SC3)*%
X149575000Y-85285000D03*
%TO.P,U3,12,GND*%
%TO.N,/GND*%
X148925000Y-85285000D03*
%TO.P,U3,13,SD4*%
%TO.N,Net-(U3-SD4)*%
X148925000Y-91025000D03*
%TO.P,U3,14,SC4*%
%TO.N,Net-(U3-SC4)*%
X149575000Y-91025000D03*
%TO.P,U3,15,SD5*%
%TO.N,Net-(U3-SD5)*%
X150225000Y-91025000D03*
%TO.P,U3,16,SC5*%
%TO.N,Net-(U3-SC5)*%
X150875000Y-91025000D03*
%TO.P,U3,17,SD6*%
%TO.N,unconnected-(U3-SD6-Pad17)*%
X151525000Y-91025000D03*
%TO.P,U3,18,SC6*%
%TO.N,unconnected-(U3-SC6-Pad18)*%
X152175000Y-91025000D03*
%TO.P,U3,19,SD7*%
%TO.N,unconnected-(U3-SD7-Pad19)*%
X152825000Y-91025000D03*
%TO.P,U3,20,SC7*%
%TO.N,unconnected-(U3-SC7-Pad20)*%
X153475000Y-91025000D03*
%TO.P,U3,21,A2*%
%TO.N,/GND*%
X154125000Y-91025000D03*
%TO.P,U3,22,SCL*%
%TO.N,Net-(U3-SCL)*%
X154775000Y-91025000D03*
%TO.P,U3,23,SDA*%
%TO.N,Net-(U3-SDA)*%
X155425000Y-91025000D03*
%TO.P,U3,24,VCC*%
%TO.N,/+3.3V*%
X156075000Y-91025000D03*
%TD*%
D15*
%TO.P,11,1,1*%
%TO.N,Net-(J4-Pin_3)*%
X169000000Y-126500000D03*
%TD*%
D14*
%TO.P,R20,1*%
%TO.N,Net-(J9-Pin_1)*%
X142375000Y-92900000D03*
%TO.P,R20,2*%
%TO.N,Net-(U3-SD5)*%
X144025000Y-92900000D03*
%TD*%
%TO.P,R10,1*%
%TO.N,Net-(J4-Pin_1)*%
X142325000Y-62650000D03*
%TO.P,R10,2*%
%TO.N,Net-(U3-SD0)*%
X143975000Y-62650000D03*
%TD*%
D16*
%TO.P,C3,1*%
%TO.N,Net-(D1-K)*%
X161497500Y-101775000D03*
%TO.P,C3,2*%
%TO.N,/GND*%
X161497500Y-100225000D03*
%TD*%
D17*
%TO.P,R8,1*%
%TO.N,/+3.3V*%
X144025000Y-90000000D03*
%TO.P,R8,2*%
%TO.N,Net-(J8-Pin_3)*%
X142375000Y-90000000D03*
%TD*%
D26*
%TO.P,J3,31,Pin_1*%
%TO.N,/+5V*%
X164247500Y-90200000D03*
%TO.P,J3,32,Pin_2*%
%TO.N,Net-(J3-Pin_2)*%
X164247500Y-88200000D03*
%TO.P,J3,33,Pin_3*%
%TO.N,/GND*%
X164247500Y-86200000D03*
D27*
%TO.P,J3,MP*%
%TO.N,N/C*%
X169997500Y-92550000D03*
X169997500Y-83850000D03*
%TD*%
D12*
%TO.P,J7,1,Pin_1*%
%TO.N,Net-(J7-Pin_1)*%
X140312500Y-81150000D03*
%TO.P,J7,2,Pin_2*%
%TO.N,Net-(J7-Pin_2)*%
X140312500Y-82150000D03*
%TO.P,J7,3,Pin_3*%
%TO.N,Net-(J6-Pin_3)*%
X140312500Y-83150000D03*
D13*
%TO.P,J7,MP*%
%TO.N,N/C*%
X136437500Y-79850000D03*
X136437500Y-84450000D03*
%TD*%
D15*
%TO.P,18,1,1*%
%TO.N,Net-(U2-18)*%
X138000000Y-123500000D03*
%TD*%
%TO.P,SCL,1,1*%
%TO.N,Net-(U3-SCL)*%
X144500000Y-98500000D03*
%TD*%
D16*
%TO.P,C4,1*%
%TO.N,/+3.3V*%
X150297500Y-101775000D03*
%TO.P,C4,2*%
%TO.N,/GND*%
X150297500Y-100225000D03*
%TD*%
D17*
%TO.P,R9,1*%
%TO.N,/+3.3V*%
X144025000Y-95900000D03*
%TO.P,R9,2*%
%TO.N,Net-(J8-Pin_3)*%
X142375000Y-95900000D03*
%TD*%
D28*
%TO.N,/+3.3V*%
X144800000Y-83600000D03*
X146750000Y-102000000D03*
X156100000Y-93300000D03*
X144600000Y-90000000D03*
X156075000Y-89922500D03*
X144800000Y-95900000D03*
X144700000Y-71800000D03*
X144800000Y-65700000D03*
X144800000Y-77700000D03*
X141500000Y-99700000D03*
%TO.N,/GND*%
X147197500Y-100200000D03*
X154125001Y-90049173D03*
X152597500Y-100400000D03*
X151097500Y-100200000D03*
X148875000Y-86322500D03*
X161400000Y-86200000D03*
X159500000Y-99250000D03*
X156075000Y-86422500D03*
X155475000Y-87022500D03*
X162597500Y-100200000D03*
X141500000Y-100700000D03*
%TO.N,/+5V*%
X161397500Y-90200000D03*
X160497500Y-94900000D03*
%TO.N,Net-(J4-Pin_3)*%
X157100000Y-121000000D03*
%TO.N,Net-(J6-Pin_3)*%
X157750000Y-123000000D03*
%TO.N,Net-(J8-Pin_3)*%
X159000000Y-128750000D03*
%TO.N,Net-(U2-10)*%
X156250000Y-88250000D03*
X158250000Y-90000000D03*
%TD*%
D29*
%TO.N,Net-(U3-SCL)*%
X154775000Y-92125000D02*
X153900000Y-93000000D01*
X154775000Y-91025000D02*
X154775000Y-92125000D01*
X153900000Y-93000000D02*
X151250000Y-93000000D01*
X146500000Y-96500000D02*
X144500000Y-98500000D01*
X151250000Y-93000000D02*
X147750000Y-96500000D01*
X147750000Y-96500000D02*
X146500000Y-96500000D01*
D30*
%TO.N,Net-(D1-K)*%
X164497500Y-99360661D02*
X164497500Y-96600000D01*
X157380000Y-101775000D02*
X157187500Y-101582500D01*
X159497500Y-101775000D02*
X157380000Y-101775000D01*
X162083161Y-101775000D02*
X164497500Y-99360661D01*
X161497500Y-101775000D02*
X159497500Y-101775000D01*
X161497500Y-101775000D02*
X162083161Y-101775000D01*
D29*
%TO.N,Net-(U3-SDA)*%
X152700000Y-93600000D02*
X147703553Y-98596447D01*
X147653553Y-98596447D02*
X144500000Y-101750000D01*
X147703553Y-98596447D02*
X147653553Y-98596447D01*
X155425000Y-92875000D02*
X155425000Y-91025000D01*
X152700000Y-93600000D02*
X154700000Y-93600000D01*
X154700000Y-93600000D02*
X155425000Y-92875000D01*
D30*
%TO.N,/+3.3V*%
X144000000Y-71750000D02*
X144650000Y-71750000D01*
X154800000Y-81175000D02*
X155775000Y-81175000D01*
D29*
X156075000Y-91025000D02*
X156075000Y-89922500D01*
D30*
X144650000Y-71750000D02*
X144700000Y-71800000D01*
X144025000Y-95900000D02*
X144800000Y-95900000D01*
X144750000Y-83550000D02*
X144800000Y-83600000D01*
X155775000Y-81175000D02*
X157400000Y-82800000D01*
X144750000Y-65650000D02*
X144800000Y-65700000D01*
X157400000Y-82800000D02*
X157400000Y-92000000D01*
X157400000Y-92000000D02*
X156100000Y-93300000D01*
X150297500Y-101775000D02*
X148497500Y-101775000D01*
X146975000Y-101775000D02*
X146750000Y-102000000D01*
X148497500Y-101775000D02*
X146975000Y-101775000D01*
D29*
X140312500Y-99700000D02*
X141500000Y-99700000D01*
D30*
X143975000Y-65650000D02*
X144750000Y-65650000D01*
X151210000Y-102687500D02*
X150297500Y-101775000D01*
X144750000Y-77650000D02*
X144800000Y-77700000D01*
X153792500Y-102687500D02*
X151210000Y-102687500D01*
X144000000Y-77650000D02*
X144750000Y-77650000D01*
X154897500Y-101582500D02*
X153792500Y-102687500D01*
X144025000Y-90000000D02*
X144600000Y-90000000D01*
X144000000Y-83550000D02*
X144750000Y-83550000D01*
%TO.N,/GND*%
X147222500Y-100225000D02*
X147197500Y-100200000D01*
D31*
X159497500Y-99252500D02*
X159500000Y-99250000D01*
D30*
X152607500Y-101582500D02*
X152607500Y-100410000D01*
X150297500Y-100225000D02*
X151072500Y-100225000D01*
D29*
X148925000Y-86272500D02*
X148875000Y-86322500D01*
X155425000Y-85285000D02*
X155425000Y-86972500D01*
X140312500Y-100700000D02*
X141500000Y-100700000D01*
X155425000Y-86972500D02*
X155475000Y-87022500D01*
X148925000Y-85285000D02*
X148925000Y-86272500D01*
D30*
X161497500Y-100225000D02*
X162572500Y-100225000D01*
D32*
X164247500Y-86200000D02*
X161400000Y-86200000D01*
D30*
X162572500Y-100225000D02*
X162597500Y-100200000D01*
D29*
X156075000Y-85285000D02*
X156075000Y-86422500D01*
D31*
X159497500Y-100225000D02*
X159497500Y-99252500D01*
D29*
X154125000Y-91025000D02*
X154125001Y-90049173D01*
D30*
X151072500Y-100225000D02*
X151097500Y-100200000D01*
X148497500Y-100225000D02*
X147222500Y-100225000D01*
X152607500Y-100410000D02*
X152597500Y-100400000D01*
D32*
%TO.N,/+5V*%
X164247500Y-90200000D02*
X161397500Y-90200000D01*
X160497500Y-96600000D02*
X160497500Y-94900000D01*
D29*
%TO.N,Net-(J4-Pin_1)*%
X141825000Y-63150000D02*
X142325000Y-62650000D01*
X140287500Y-63150000D02*
X141825000Y-63150000D01*
%TO.N,Net-(J4-Pin_2)*%
X140287500Y-64150000D02*
X142325000Y-64150000D01*
%TO.N,Net-(J4-Pin_3)*%
X140912500Y-71750000D02*
X140312500Y-71150000D01*
X142350000Y-71750000D02*
X140912500Y-71750000D01*
X140787500Y-65650000D02*
X140287500Y-65150000D01*
X138920654Y-103670654D02*
X140341307Y-103670654D01*
X140341307Y-103670654D02*
X157100000Y-120429346D01*
X139186500Y-66251000D02*
X139186500Y-70936500D01*
X139400000Y-71150000D02*
X140312500Y-71150000D01*
X139186500Y-70936500D02*
X139400000Y-71150000D01*
X140287500Y-65150000D02*
X139186500Y-66251000D01*
X142325000Y-65650000D02*
X140787500Y-65650000D01*
X137750000Y-73712500D02*
X137750000Y-102500000D01*
X140312500Y-71150000D02*
X137750000Y-73712500D01*
X157100000Y-120429346D02*
X157100000Y-121000000D01*
X164700000Y-124800000D02*
X166400000Y-126500000D01*
X137750000Y-102500000D02*
X138920654Y-103670654D01*
X166400000Y-126500000D02*
X169000000Y-126500000D01*
%TO.N,Net-(J5-Pin_1)*%
X140312500Y-69150000D02*
X141950000Y-69150000D01*
X141950000Y-69150000D02*
X142350000Y-68750000D01*
%TO.N,Net-(J5-Pin_2)*%
X140312500Y-70150000D02*
X142250000Y-70150000D01*
X142250000Y-70150000D02*
X142350000Y-70250000D01*
%TO.N,Net-(J6-Pin_2)*%
X140287500Y-76150000D02*
X142350000Y-76150000D01*
%TO.N,Net-(J6-Pin_3)*%
X138685500Y-101306326D02*
X157750000Y-120370825D01*
X139537501Y-83150000D02*
X140312500Y-83150000D01*
X142350000Y-83550000D02*
X140712500Y-83550000D01*
X139186500Y-78251000D02*
X139186500Y-82798999D01*
X140287500Y-77150000D02*
X139186500Y-78251000D01*
X140287500Y-77150000D02*
X141850000Y-77150000D01*
X139186500Y-82798999D02*
X138685500Y-83299999D01*
X140712500Y-83550000D02*
X140312500Y-83150000D01*
X164700000Y-127340000D02*
X166860000Y-129500000D01*
X166860000Y-129500000D02*
X169000000Y-129500000D01*
X141850000Y-77150000D02*
X142350000Y-77650000D01*
X139186500Y-82798999D02*
X139537501Y-83150000D01*
X157750000Y-120370825D02*
X157750000Y-123000000D01*
X138685500Y-83299999D02*
X138685500Y-101306326D01*
%TO.N,Net-(J6-Pin_1)*%
X140287500Y-75150000D02*
X141850000Y-75150000D01*
X141850000Y-75150000D02*
X142350000Y-74650000D01*
%TO.N,Net-(J7-Pin_1)*%
X140312500Y-81150000D02*
X141750000Y-81150000D01*
X141750000Y-81150000D02*
X142350000Y-80550000D01*
%TO.N,Net-(J7-Pin_2)*%
X140312500Y-82150000D02*
X142250000Y-82150000D01*
X142250000Y-82150000D02*
X142350000Y-82050000D01*
%TO.N,Net-(J8-Pin_3)*%
X139186500Y-94898999D02*
X139393751Y-95106249D01*
X139186500Y-90376000D02*
X139186500Y-94898999D01*
X164700000Y-129880000D02*
X167320000Y-132500000D01*
X139537501Y-95250000D02*
X140312500Y-95250000D01*
X139393751Y-95106249D02*
X139537501Y-95250000D01*
X140962500Y-95900000D02*
X140312500Y-95250000D01*
X139186500Y-101061678D02*
X158500000Y-120375178D01*
X142375000Y-90000000D02*
X141062500Y-90000000D01*
X158500000Y-128250000D02*
X159000000Y-128750000D01*
X141062500Y-90000000D02*
X140312500Y-89250000D01*
X139186500Y-95313500D02*
X139186500Y-101061678D01*
X142375000Y-95900000D02*
X140962500Y-95900000D01*
X158500000Y-120375178D02*
X158500000Y-128250000D01*
X139393751Y-95106249D02*
X139186500Y-95313500D01*
X140312500Y-89250000D02*
X139186500Y-90376000D01*
X167320000Y-132500000D02*
X169000000Y-132500000D01*
%TO.N,Net-(J8-Pin_1)*%
X140312500Y-87250000D02*
X142125000Y-87250000D01*
X142125000Y-87250000D02*
X142375000Y-87000000D01*
%TO.N,Net-(J8-Pin_2)*%
X140312500Y-88250000D02*
X142125000Y-88250000D01*
X142125000Y-88250000D02*
X142375000Y-88500000D01*
%TO.N,Net-(J9-Pin_2)*%
X142225000Y-94250000D02*
X142375000Y-94400000D01*
X140312500Y-94250000D02*
X142225000Y-94250000D01*
%TO.N,Net-(J9-Pin_1)*%
X140312500Y-93250000D02*
X142025000Y-93250000D01*
X142025000Y-93250000D02*
X142375000Y-92900000D01*
D31*
%TO.N,/SDA*%
X141838136Y-117180000D02*
X138180000Y-117180000D01*
X138180000Y-117180000D02*
X138000000Y-117000000D01*
%TO.N,/SCL*%
X141838136Y-119720000D02*
X138530000Y-119720000D01*
X138530000Y-119720000D02*
X138000000Y-120250000D01*
D29*
%TO.N,Net-(U2-10)*%
X154775000Y-87275000D02*
X155750000Y-88250000D01*
X154800000Y-85260000D02*
X154775000Y-85285000D01*
X156371500Y-100821036D02*
X156371500Y-113931500D01*
X158250000Y-98942536D02*
X156371500Y-100821036D01*
D31*
X165940000Y-123500000D02*
X169000000Y-123500000D01*
D29*
X155750000Y-88250000D02*
X156250000Y-88250000D01*
X156371500Y-113931500D02*
X164700000Y-122260000D01*
X154800000Y-82825000D02*
X154800000Y-85260000D01*
D31*
X164700000Y-122260000D02*
X165940000Y-123500000D01*
D29*
X158250000Y-90000000D02*
X158250000Y-98942536D01*
X154775000Y-85285000D02*
X154775000Y-87275000D01*
%TO.N,Net-(U3-SD0)*%
X154125000Y-84288626D02*
X154125000Y-85285000D01*
X150350000Y-62650000D02*
X153975000Y-66275000D01*
X153975000Y-84138626D02*
X154125000Y-84288626D01*
X153975000Y-66275000D02*
X153975000Y-84138626D01*
X143975000Y-62650000D02*
X150350000Y-62650000D01*
%TO.N,Net-(U3-SC0)*%
X153475000Y-66875000D02*
X153475000Y-85285000D01*
X150750000Y-64150000D02*
X153475000Y-66875000D01*
X143975000Y-64150000D02*
X150750000Y-64150000D01*
%TO.N,Net-(U3-SD1)*%
X144000000Y-68750000D02*
X145312500Y-67437500D01*
X145312500Y-67437500D02*
X148437500Y-67437500D01*
X148437500Y-67437500D02*
X152825000Y-71825000D01*
X152825000Y-71825000D02*
X152825000Y-85285000D01*
%TO.N,Net-(U3-SC1)*%
X152175000Y-75365610D02*
X152175000Y-85285000D01*
X147059390Y-70250000D02*
X152175000Y-75365610D01*
X144000000Y-70250000D02*
X147059390Y-70250000D01*
%TO.N,Net-(U3-SD2)*%
X151525000Y-82175000D02*
X151525000Y-85285000D01*
X144000000Y-74650000D02*
X151525000Y-82175000D01*
%TO.N,Net-(U3-SC2)*%
X144450000Y-76150000D02*
X150875000Y-82575000D01*
X144000000Y-76150000D02*
X144450000Y-76150000D01*
X150875000Y-82575000D02*
X150875000Y-85285000D01*
%TO.N,Net-(U3-SD3)*%
X144000000Y-80550000D02*
X148142894Y-80550000D01*
X148142894Y-80550000D02*
X150225000Y-82632106D01*
X150225000Y-82632106D02*
X150225000Y-85285000D01*
%TO.N,Net-(U3-SC3)*%
X144000000Y-82050000D02*
X147336374Y-82050000D01*
X147336374Y-82050000D02*
X149575000Y-84288626D01*
X149575000Y-84288626D02*
X149575000Y-85285000D01*
%TO.N,Net-(U3-SD4)*%
X147100000Y-87000000D02*
X148900000Y-88800000D01*
X148925000Y-89125000D02*
X148925000Y-91025000D01*
X148900000Y-88800000D02*
X148900000Y-89100000D01*
X144025000Y-87000000D02*
X147100000Y-87000000D01*
X148900000Y-89100000D02*
X148925000Y-89125000D01*
%TO.N,Net-(U3-SC4)*%
X149575000Y-91925000D02*
X149575000Y-91025000D01*
X149340000Y-92160000D02*
X149575000Y-91925000D01*
X144025000Y-88500000D02*
X147685000Y-92160000D01*
X147685000Y-92160000D02*
X149340000Y-92160000D01*
%TO.N,Net-(U3-SD5)*%
X144025000Y-92900000D02*
X149307107Y-92900000D01*
X150225000Y-91982107D02*
X150225000Y-91025000D01*
X149307107Y-92900000D02*
X150225000Y-91982107D01*
%TO.N,Net-(U3-SC5)*%
X150875000Y-92039213D02*
X150875000Y-91025000D01*
X144025000Y-94400000D02*
X148514213Y-94400000D01*
X148514213Y-94400000D02*
X150875000Y-92039213D01*
D31*
%TO.N,Net-(U2-1)*%
X168860000Y-114640000D02*
X169000000Y-114500000D01*
X164700000Y-114640000D02*
X168860000Y-114640000D01*
%TO.N,Net-(U2-3)*%
X164700000Y-119720000D02*
X168220000Y-119720000D01*
X168220000Y-119720000D02*
X169000000Y-120500000D01*
%TO.N,Net-(U2-18)*%
X140598136Y-123500000D02*
X138000000Y-123500000D01*
X141838136Y-122260000D02*
X140598136Y-123500000D01*
%TO.N,Net-(U2-17)*%
X139888136Y-126750000D02*
X138000000Y-126750000D01*
X141838136Y-124800000D02*
X139888136Y-126750000D01*
%TO.N,Net-(U2-21)*%
X139178136Y-130000000D02*
X138000000Y-130000000D01*
X141838136Y-127340000D02*
X139178136Y-130000000D01*
%TO.N,Net-(U2-16)*%
X138468136Y-133250000D02*
X138000000Y-133250000D01*
X141838136Y-129880000D02*
X138468136Y-133250000D01*
D29*
%TO.N,Net-(J3-Pin_2)*%
X160297500Y-89744365D02*
X160297500Y-90655635D01*
X164700000Y-117180000D02*
X165738030Y-118218030D01*
X164247500Y-88200000D02*
X161841865Y-88200000D01*
X161841865Y-88200000D02*
X160297500Y-89744365D01*
X163300000Y-111590811D02*
X163300000Y-115780000D01*
X164991865Y-95350000D02*
X165752956Y-95350000D01*
X160297500Y-90655635D02*
X164991865Y-95350000D01*
X166100000Y-108790811D02*
X163300000Y-111590811D01*
X166100000Y-95697044D02*
X166100000Y-108790811D01*
X168281970Y-118218030D02*
X169000000Y-117500000D01*
X165738030Y-118218030D02*
X168281970Y-118218030D01*
X163300000Y-115780000D02*
X164700000Y-117180000D01*
X165752956Y-95350000D02*
X166100000Y-95697044D01*
%TD*%
M02*
