<?xml version="1.0" encoding="UTF-8"?>
<svg xmlns="http://www.w3.org/2000/svg" width="223.0150mm" height="147.3928mm" viewBox="0 0 223.0150 147.3928">
  <polygon points="15.6107,94.8204 15.9453,94.8806 16.2831,94.9168 16.6225,94.9290 76.8842,94.9290 77.2235,94.9168 77.5614,94.8806 77.8960,94.8204 78.2259,94.7365 78.5496,94.6293 78.8654,94.4993 79.1721,94.3471 79.4681,94.1735 79.7520,93.9791 80.0226,93.7650 80.2786,93.5321 80.5186,93.2815 80.7418,93.0144 80.9470,92.7321 81.1333,92.4358 81.2997,92.1269 81.4455,91.8069 81.5701,91.4772 81.6728,91.1395 81.7532,90.7952 81.8109,90.4460 81.8457,90.0935 81.8573,89.7394 81.8573,26.8538 81.8457,26.4996 81.8109,26.1471 81.7532,25.7979 81.6728,25.4536 81.5701,25.1158 81.4455,24.7862 81.2997,24.4662 81.1333,24.1573 80.9470,23.8610 80.7418,23.5787 80.5186,23.3116 80.2786,23.0610 80.0226,22.8281 79.7520,22.6140 79.4681,22.4197 79.1721,22.2460 78.8654,22.0938 78.5496,21.9638 78.2259,21.8566 77.8960,21.7727 77.5614,21.7125 77.2235,21.6763 76.8842,21.6642 16.6225,21.6642 16.2831,21.6763 15.9453,21.7125 15.6107,21.7727 15.2808,21.8566 14.9571,21.9638 14.6413,22.0938 14.3346,22.2460 14.0386,22.4197 13.7547,22.6140 13.4841,22.8281 13.2281,23.0610 12.9880,23.3116 12.7649,23.5787 12.5597,23.8610 12.3734,24.1573 12.2070,24.4662 12.0612,24.7862 11.9366,25.1158 11.8339,25.4536 11.7534,25.7979 11.6958,26.1471 11.6610,26.4996 11.6494,26.8538 11.6494,89.7394 11.6610,90.0935 11.6958,90.4460 11.7534,90.7952 11.8339,91.1395 11.9366,91.4772 12.0612,91.8069 12.2070,92.1269 12.3734,92.4358 12.5597,92.7321 12.7649,93.0144 12.9880,93.2815 13.2281,93.5321 13.4841,93.7650 13.7547,93.9791 14.0386,94.1735 14.3346,94.3471 14.6413,94.4993 14.9571,94.6293 15.2808,94.7365" stroke="black" stroke-width="0.1" fill="none"/>
  <polygon points="2.0000,145.3928 2.0000,2.0000 221.0150,2.0000 221.0150,145.3928" stroke="black" stroke-width="0.1" fill="none"/>
  <polygon points="110.4950,71.9586 110.4950,25.2744 110.5034,25.0289 110.5285,24.7845 110.5703,24.5424 110.6284,24.3036 110.7027,24.0694 110.7929,23.8409 110.8984,23.6190 111.0188,23.4048 111.1536,23.1994 111.3020,23.0036 111.4635,22.8184 111.6373,22.6447 111.8225,22.4832 112.0182,22.3347 112.2237,22.2000 112.4378,22.0795 112.6598,21.9740 112.8883,21.8839 113.1225,21.8095 113.3612,21.7514 113.6034,21.7096 113.8477,21.6845 114.0933,21.6761 165.1963,21.6761 165.4419,21.6845 165.6863,21.7096 165.9284,21.7514 166.1671,21.8095 166.4013,21.8839 166.6299,21.9740 166.8518,22.0795 167.0659,22.2000 167.2714,22.3347 167.4672,22.4832 167.6524,22.6447 167.8261,22.8184 167.9876,23.0036 168.1360,23.1994 168.2708,23.4048 168.3912,23.6190 168.4967,23.8409 168.5869,24.0694 168.6612,24.3036 168.7194,24.5424 168.7611,24.7845 168.7862,25.0289 168.7946,25.2744 168.7946,91.4179 168.7862,91.6634 168.7611,91.9078 168.7194,92.1500 168.6612,92.3887 168.5869,92.6229 168.4967,92.8514 168.3912,93.0733 168.2708,93.2875 168.1360,93.4930 167.9876,93.6887 167.8261,93.8739 167.6524,94.0477 167.4672,94.2091 167.2714,94.3576 167.0659,94.4923 166.8518,94.6128 166.6299,94.7183 166.4013,94.8084 166.1671,94.8828 165.9284,94.9410 165.6863,94.9827 165.4419,95.0078 165.1963,95.0162 114.0933,95.0162 113.8477,95.0078 113.6034,94.9827 113.3612,94.9410 113.1225,94.8828 112.8883,94.8084 112.6598,94.7183 112.4378,94.6128 112.2237,94.4923 112.0182,94.3576 111.8225,94.2091 111.6373,94.0477 111.4635,93.8739 111.3020,93.6887 111.1536,93.4930 111.0188,93.2875 110.8984,93.0733 110.7929,92.8514 110.7027,92.6229 110.6284,92.3887 110.5703,92.1500 110.5285,91.9078 110.5034,91.6634 110.4950,91.4179" stroke="black" stroke-width="0.1" fill="none"/>
  <circle cx="209.9624" cy="28.4768" r="4.7625" stroke="black" stroke-width="0.1" fill="none"/>
  <circle cx="178.5885" cy="133.7454" r="4.7624" stroke="black" stroke-width="0.1" fill="none"/>
  <circle cx="209.9624" cy="114.7456" r="4.7625" stroke="black" stroke-width="0.1" fill="none"/>
  <circle cx="100.5745" cy="133.7625" r="4.7625" stroke="black" stroke-width="0.1" fill="none"/>
  <circle cx="51.4066" cy="133.7794" r="4.7624" stroke="black" stroke-width="0.1" fill="none"/>
  <circle cx="209.9624" cy="72.0350" r="4.7625" stroke="black" stroke-width="0.1" fill="none"/>
</svg>