%TF.GenerationSoftware,KiCad,Pcbnew,8.0.7*%
%TF.CreationDate,2025-01-06T14:24:51-08:00*%
%TF.ProjectId,motion-play-power,6d6f7469-6f6e-42d7-906c-61792d706f77,rev?*%
%TF.SameCoordinates,Original*%
%TF.FileFunction,Copper,L4,Bot*%
%TF.FilePolarity,Positive*%
%FSLAX46Y46*%
G04 Gerber Fmt 4.6, Leading zero omitted, Abs format (unit mm)*
G04 Created by KiCad (PCBNEW 8.0.7) date 2025-01-06 14:24:51*
%MOMM*%
%LPD*%
G01*
G04 APERTURE LIST*
%TA.AperFunction,ComponentPad*%
%ADD10C,0.750000*%
%TD*%
%TA.AperFunction,ComponentPad*%
%ADD11O,2.000000X1.200000*%
%TD*%
%TA.AperFunction,ComponentPad*%
%ADD12O,1.800000X1.200000*%
%TD*%
%TA.AperFunction,ComponentPad*%
%ADD13C,0.610000*%
%TD*%
%TA.AperFunction,ViaPad*%
%ADD14C,0.600000*%
%TD*%
%TA.AperFunction,ViaPad*%
%ADD15C,1.000000*%
%TD*%
%TA.AperFunction,ViaPad*%
%ADD16C,0.800000*%
%TD*%
%TA.AperFunction,Conductor*%
%ADD17C,0.200000*%
%TD*%
%TA.AperFunction,Conductor*%
%ADD18C,0.500000*%
%TD*%
%TA.AperFunction,Conductor*%
%ADD19C,1.000000*%
%TD*%
%TA.AperFunction,Conductor*%
%ADD20C,0.250000*%
%TD*%
%TA.AperFunction,Conductor*%
%ADD21C,0.300000*%
%TD*%
%TA.AperFunction,Conductor*%
%ADD22C,0.150000*%
%TD*%
%TA.AperFunction,Conductor*%
%ADD23C,0.800000*%
%TD*%
G04 APERTURE END LIST*
D10*
%TO.P,USBC1,*%
%TO.N,*%
X176422500Y-105650000D03*
X176422500Y-99850000D03*
D11*
%TO.P,USBC1,0,SH*%
%TO.N,GND*%
X175922500Y-107080000D03*
%TO.P,USBC1,1*%
%TO.N,N/C*%
X175922500Y-98420000D03*
D12*
%TO.P,USBC1,2*%
X180102500Y-98420000D03*
%TO.P,USBC1,3*%
X180102500Y-107080000D03*
%TD*%
D13*
%TO.P,U5,*%
%TO.N,*%
X149750000Y-98500000D03*
X148750000Y-98500000D03*
X149750000Y-99500000D03*
X148750000Y-99500000D03*
%TD*%
D14*
%TO.N,Net-(U4-FB)*%
X140750000Y-89750000D03*
X144500000Y-89000000D03*
%TO.N,GND*%
X128250000Y-102250000D03*
X128250000Y-99000000D03*
X168500000Y-81712500D03*
X170250000Y-80250000D03*
X178500000Y-92750000D03*
X181000000Y-92750000D03*
%TO.N,+3.3V*%
X146500000Y-96500000D03*
D15*
%TO.N,/Battery Management/VSYS*%
X157000000Y-97000000D03*
X152000000Y-96250000D03*
D14*
%TO.N,GND*%
X174250000Y-99500000D03*
X174475668Y-98757853D03*
D15*
%TO.N,Protected_VBUS*%
X168750000Y-99250000D03*
X168750000Y-102250000D03*
D14*
%TO.N,GND*%
X174250000Y-106500000D03*
%TO.N,+3.3V*%
X141500000Y-98000000D03*
X141500000Y-96250000D03*
D15*
%TO.N,+5V*%
X135750000Y-93500000D03*
%TO.N,/Battery Management/VSYS*%
X162000000Y-88250000D03*
D14*
%TO.N,/Battery Management/CHRG_PG*%
X155700735Y-100450735D03*
D15*
%TO.N,/Battery Management/VSYS*%
X158000000Y-88750000D03*
X156250000Y-88750000D03*
D14*
%TO.N,GND*%
X144500000Y-85750000D03*
D15*
%TO.N,/Battery Management/VSYS*%
X143250000Y-89750000D03*
X146750000Y-84750000D03*
X149750000Y-87500000D03*
%TO.N,+5V*%
X141500000Y-88500000D03*
X140000000Y-87000000D03*
D14*
%TO.N,GND*%
X154500000Y-83250000D03*
X153000000Y-83250000D03*
X166750000Y-103000000D03*
X155975000Y-94250000D03*
X163250000Y-93750000D03*
X156250000Y-86475000D03*
X161750000Y-92250000D03*
X170175000Y-106000000D03*
X169075000Y-91250000D03*
X141500000Y-86475000D03*
X162500000Y-92250000D03*
X165750000Y-94000000D03*
X163178305Y-105770565D03*
X170175000Y-107500000D03*
X165250000Y-91500000D03*
X175400000Y-83000000D03*
X165750000Y-103000000D03*
X170362500Y-99000000D03*
X161429826Y-96929826D03*
X143000000Y-86475000D03*
X162500000Y-93000000D03*
X144025000Y-98000000D03*
X141580000Y-83250000D03*
X171775000Y-104010000D03*
X161000000Y-90250000D03*
X169075000Y-92750000D03*
X158000000Y-86475000D03*
X135750000Y-98657500D03*
X163250000Y-107250000D03*
X161750000Y-93750000D03*
X155975000Y-92750000D03*
X160500000Y-90500000D03*
X154225000Y-97000000D03*
X161750000Y-93000000D03*
X164250000Y-108000000D03*
X171775000Y-102500000D03*
X146480000Y-100900000D03*
X163250000Y-92250000D03*
X163250000Y-93000000D03*
X162500000Y-93750000D03*
X153700000Y-83250000D03*
X142610000Y-104097500D03*
%TO.N,+3.3V*%
X132750000Y-98657500D03*
%TO.N,Net-(F1-Pad1)*%
X173500000Y-101750000D03*
X176500000Y-104500000D03*
%TO.N,I2C_SDA*%
X162700380Y-104049620D03*
X163817039Y-97325000D03*
X160000000Y-102500000D03*
%TO.N,I2C_SCL*%
X162357818Y-99632818D03*
X163017072Y-97317499D03*
%TO.N,/Battery Management/CHRG_INT*%
X161750000Y-104750000D03*
X165750000Y-96750000D03*
X162000000Y-103399620D03*
X153750000Y-105875000D03*
%TO.N,/Battery Management/CHRG_STAT*%
X152500000Y-103250000D03*
X162506927Y-96701255D03*
%TO.N,/Connectors/USB_ALERT*%
X151804443Y-105875000D03*
X167832087Y-108289729D03*
%TO.N,/Battery Management/CHRG_PG*%
X166500000Y-95250000D03*
D16*
%TO.N,VBAT*%
X162250000Y-80150000D03*
X164250000Y-85750000D03*
%TD*%
D17*
%TO.N,Net-(U4-FB)*%
X142350000Y-88900000D02*
X141500000Y-89750000D01*
X141500000Y-89750000D02*
X140750000Y-89750000D01*
X144400000Y-88900000D02*
X142350000Y-88900000D01*
X144500000Y-89000000D02*
X144400000Y-88900000D01*
D18*
%TO.N,GND*%
X128250000Y-102250000D02*
X128250000Y-99000000D01*
D19*
%TO.N,Protected_VBUS*%
X168750000Y-102250000D02*
X168750000Y-99250000D01*
D20*
%TO.N,/Battery Management/CHRG_PG*%
X160901470Y-95250000D02*
X155700735Y-100450735D01*
X166500000Y-95250000D02*
X160901470Y-95250000D01*
D17*
%TO.N,/Battery Management/CHRG_STAT*%
X162506927Y-96701255D02*
X160458182Y-98750000D01*
X160458182Y-98750000D02*
X158250000Y-98750000D01*
X158250000Y-98750000D02*
X154250000Y-102750000D01*
X153000000Y-102750000D02*
X152500000Y-103250000D01*
X154250000Y-102750000D02*
X153000000Y-102750000D01*
D21*
%TO.N,Net-(F1-Pad1)*%
X176500000Y-104500000D02*
X176500000Y-104000000D01*
X176500000Y-104000000D02*
X174250000Y-101750000D01*
X174250000Y-101750000D02*
X173500000Y-101750000D01*
D22*
%TO.N,I2C_SDA*%
X163817039Y-98986770D02*
X160303809Y-102500000D01*
D21*
X162700380Y-104049620D02*
X161549620Y-104049620D01*
D22*
X163817039Y-97325000D02*
X163817039Y-98986770D01*
D21*
X161549620Y-104049620D02*
X160000000Y-102500000D01*
D22*
X160303809Y-102500000D02*
X160000000Y-102500000D01*
%TO.N,I2C_SCL*%
X163017072Y-97317499D02*
X163017072Y-98973564D01*
X163017072Y-98973564D02*
X162357818Y-99632818D01*
D20*
%TO.N,/Battery Management/CHRG_INT*%
X164250000Y-102000000D02*
X163399620Y-102000000D01*
X165750000Y-96750000D02*
X165750000Y-100500000D01*
X165750000Y-100500000D02*
X164250000Y-102000000D01*
X161750000Y-104750000D02*
X160625000Y-105875000D01*
X163399620Y-102000000D02*
X162000000Y-103399620D01*
X160625000Y-105875000D02*
X153750000Y-105875000D01*
D17*
%TO.N,/Connectors/USB_ALERT*%
X154529443Y-108600000D02*
X151804443Y-105875000D01*
X167521816Y-108600000D02*
X154529443Y-108600000D01*
X167832087Y-108289729D02*
X167521816Y-108600000D01*
D23*
%TO.N,VBAT*%
X164250000Y-85750000D02*
X164250000Y-80250000D01*
X164150000Y-80150000D02*
X162250000Y-80150000D01*
X164250000Y-80250000D02*
X164150000Y-80150000D01*
%TD*%
M02*
