%TF.GenerationSoftware,KiCad,Pcbnew,8.0.7*%
%TF.CreationDate,2025-01-06T14:24:51-08:00*%
%TF.ProjectId,motion-play-power,6d6f7469-6f6e-42d7-906c-61792d706f77,rev?*%
%TF.SameCoordinates,Original*%
%TF.FileFunction,Copper,L1,Top*%
%TF.FilePolarity,Positive*%
%FSLAX46Y46*%
G04 Gerber Fmt 4.6, Leading zero omitted, Abs format (unit mm)*
G04 Created by KiCad (PCBNEW 8.0.7) date 2025-01-06 14:24:51*
%MOMM*%
%LPD*%
G01*
G04 APERTURE LIST*
G04 Aperture macros list*
%AMRoundRect*
0 Rectangle with rounded corners*
0 $1 Rounding radius*
0 $2 $3 $4 $5 $6 $7 $8 $9 X,Y pos of 4 corners*
0 Add a 4 corners polygon primitive as box body*
4,1,4,$2,$3,$4,$5,$6,$7,$8,$9,$2,$3,0*
0 Add four circle primitives for the rounded corners*
1,1,$1+$1,$2,$3*
1,1,$1+$1,$4,$5*
1,1,$1+$1,$6,$7*
1,1,$1+$1,$8,$9*
0 Add four rect primitives between the rounded corners*
20,1,$1+$1,$2,$3,$4,$5,0*
20,1,$1+$1,$4,$5,$6,$7,0*
20,1,$1+$1,$6,$7,$8,$9,0*
20,1,$1+$1,$8,$9,$2,$3,0*%
G04 Aperture macros list end*
%TA.AperFunction,SMDPad,CuDef*%
%ADD10RoundRect,0.200000X0.275000X-0.200000X0.275000X0.200000X-0.275000X0.200000X-0.275000X-0.200000X0*%
%TD*%
%TA.AperFunction,SMDPad,CuDef*%
%ADD11C,1.500000*%
%TD*%
%TA.AperFunction,SMDPad,CuDef*%
%ADD12RoundRect,0.225000X0.250000X-0.225000X0.250000X0.225000X-0.250000X0.225000X-0.250000X-0.225000X0*%
%TD*%
%TA.AperFunction,SMDPad,CuDef*%
%ADD13RoundRect,0.200000X0.200000X0.275000X-0.200000X0.275000X-0.200000X-0.275000X0.200000X-0.275000X0*%
%TD*%
%TA.AperFunction,ComponentPad*%
%ADD14C,0.750000*%
%TD*%
%TA.AperFunction,ComponentPad*%
%ADD15O,2.000000X1.200000*%
%TD*%
%TA.AperFunction,ComponentPad*%
%ADD16O,1.800000X1.200000*%
%TD*%
%TA.AperFunction,SMDPad,CuDef*%
%ADD17R,1.300000X0.300000*%
%TD*%
%TA.AperFunction,SMDPad,CuDef*%
%ADD18RoundRect,0.225000X-0.225000X-0.250000X0.225000X-0.250000X0.225000X0.250000X-0.225000X0.250000X0*%
%TD*%
%TA.AperFunction,SMDPad,CuDef*%
%ADD19RoundRect,0.150000X-0.512500X-0.150000X0.512500X-0.150000X0.512500X0.150000X-0.512500X0.150000X0*%
%TD*%
%TA.AperFunction,SMDPad,CuDef*%
%ADD20RoundRect,0.225000X0.225000X0.250000X-0.225000X0.250000X-0.225000X-0.250000X0.225000X-0.250000X0*%
%TD*%
%TA.AperFunction,SMDPad,CuDef*%
%ADD21RoundRect,0.250000X0.550000X-1.412500X0.550000X1.412500X-0.550000X1.412500X-0.550000X-1.412500X0*%
%TD*%
%TA.AperFunction,SMDPad,CuDef*%
%ADD22R,5.700000X1.700000*%
%TD*%
%TA.AperFunction,SMDPad,CuDef*%
%ADD23RoundRect,0.225000X-0.250000X0.225000X-0.250000X-0.225000X0.250000X-0.225000X0.250000X0.225000X0*%
%TD*%
%TA.AperFunction,SMDPad,CuDef*%
%ADD24RoundRect,0.250000X1.500000X-0.250000X1.500000X0.250000X-1.500000X0.250000X-1.500000X-0.250000X0*%
%TD*%
%TA.AperFunction,SMDPad,CuDef*%
%ADD25RoundRect,0.250001X1.449999X-0.499999X1.449999X0.499999X-1.449999X0.499999X-1.449999X-0.499999X0*%
%TD*%
%TA.AperFunction,SMDPad,CuDef*%
%ADD26RoundRect,0.250000X0.650000X-1.000000X0.650000X1.000000X-0.650000X1.000000X-0.650000X-1.000000X0*%
%TD*%
%TA.AperFunction,SMDPad,CuDef*%
%ADD27RoundRect,0.200000X-0.275000X0.200000X-0.275000X-0.200000X0.275000X-0.200000X0.275000X0.200000X0*%
%TD*%
%TA.AperFunction,SMDPad,CuDef*%
%ADD28RoundRect,0.150000X-0.150000X-0.625000X0.150000X-0.625000X0.150000X0.625000X-0.150000X0.625000X0*%
%TD*%
%TA.AperFunction,SMDPad,CuDef*%
%ADD29RoundRect,0.250000X-0.350000X-0.650000X0.350000X-0.650000X0.350000X0.650000X-0.350000X0.650000X0*%
%TD*%
%TA.AperFunction,SMDPad,CuDef*%
%ADD30RoundRect,0.033750X0.101250X-0.396250X0.101250X0.396250X-0.101250X0.396250X-0.101250X-0.396250X0*%
%TD*%
%TA.AperFunction,SMDPad,CuDef*%
%ADD31RoundRect,0.033750X0.396250X-0.101250X0.396250X0.101250X-0.396250X0.101250X-0.396250X-0.101250X0*%
%TD*%
%TA.AperFunction,SMDPad,CuDef*%
%ADD32R,2.450000X2.450000*%
%TD*%
%TA.AperFunction,SMDPad,CuDef*%
%ADD33R,1.300000X3.000000*%
%TD*%
%TA.AperFunction,SMDPad,CuDef*%
%ADD34R,3.500000X1.700000*%
%TD*%
%TA.AperFunction,SMDPad,CuDef*%
%ADD35RoundRect,0.250000X-1.500000X-0.550000X1.500000X-0.550000X1.500000X0.550000X-1.500000X0.550000X0*%
%TD*%
%TA.AperFunction,SMDPad,CuDef*%
%ADD36RoundRect,0.150000X0.150000X-0.587500X0.150000X0.587500X-0.150000X0.587500X-0.150000X-0.587500X0*%
%TD*%
%TA.AperFunction,SMDPad,CuDef*%
%ADD37R,1.700000X5.700000*%
%TD*%
%TA.AperFunction,SMDPad,CuDef*%
%ADD38RoundRect,0.032500X-0.097500X0.387500X-0.097500X-0.387500X0.097500X-0.387500X0.097500X0.387500X0*%
%TD*%
%TA.AperFunction,SMDPad,CuDef*%
%ADD39RoundRect,0.032500X-0.387500X0.097500X-0.387500X-0.097500X0.387500X-0.097500X0.387500X0.097500X0*%
%TD*%
%TA.AperFunction,SMDPad,CuDef*%
%ADD40R,2.700000X2.700000*%
%TD*%
%TA.AperFunction,ComponentPad*%
%ADD41C,0.610000*%
%TD*%
%TA.AperFunction,SMDPad,CuDef*%
%ADD42O,2.040000X0.570000*%
%TD*%
%TA.AperFunction,SMDPad,CuDef*%
%ADD43R,2.400000X3.200000*%
%TD*%
%TA.AperFunction,SMDPad,CuDef*%
%ADD44RoundRect,0.250000X0.625000X-0.375000X0.625000X0.375000X-0.625000X0.375000X-0.625000X-0.375000X0*%
%TD*%
%TA.AperFunction,SMDPad,CuDef*%
%ADD45RoundRect,0.250000X-1.412500X-0.550000X1.412500X-0.550000X1.412500X0.550000X-1.412500X0.550000X0*%
%TD*%
%TA.AperFunction,SMDPad,CuDef*%
%ADD46RoundRect,0.147500X-0.537500X-0.147500X0.537500X-0.147500X0.537500X0.147500X-0.537500X0.147500X0*%
%TD*%
%TA.AperFunction,ViaPad*%
%ADD47C,0.600000*%
%TD*%
%TA.AperFunction,ViaPad*%
%ADD48C,1.000000*%
%TD*%
%TA.AperFunction,ViaPad*%
%ADD49C,0.800000*%
%TD*%
%TA.AperFunction,Conductor*%
%ADD50C,0.800000*%
%TD*%
%TA.AperFunction,Conductor*%
%ADD51C,0.200000*%
%TD*%
%TA.AperFunction,Conductor*%
%ADD52C,0.500000*%
%TD*%
%TA.AperFunction,Conductor*%
%ADD53C,1.000000*%
%TD*%
%TA.AperFunction,Conductor*%
%ADD54C,0.300000*%
%TD*%
%TA.AperFunction,Conductor*%
%ADD55C,0.250000*%
%TD*%
%TA.AperFunction,Conductor*%
%ADD56C,0.900000*%
%TD*%
%TA.AperFunction,Conductor*%
%ADD57C,0.150000*%
%TD*%
G04 APERTURE END LIST*
D10*
%TO.P,R5,1*%
%TO.N,Net-(U1-RESET)*%
X164750000Y-100075000D03*
%TO.P,R5,2*%
%TO.N,Protected_VBUS*%
X164750000Y-98425000D03*
%TD*%
D11*
%TO.P,GND,1,1*%
%TO.N,GND*%
X180750000Y-90000000D03*
%TD*%
D12*
%TO.P,C9,1*%
%TO.N,/Battery Management/VSYS*%
X143000000Y-88025000D03*
%TO.P,C9,2*%
%TO.N,GND*%
X143000000Y-86475000D03*
%TD*%
D13*
%TO.P,R2,1*%
%TO.N,Net-(USBC1-CC2)*%
X171825000Y-106000000D03*
%TO.P,R2,2*%
%TO.N,GND*%
X170175000Y-106000000D03*
%TD*%
D14*
%TO.P,USBC1,*%
%TO.N,*%
X176422500Y-105650000D03*
X176422500Y-99850000D03*
D15*
%TO.P,USBC1,0,SH*%
%TO.N,GND*%
X175922500Y-107080000D03*
%TO.P,USBC1,1*%
%TO.N,N/C*%
X175922500Y-98420000D03*
D16*
%TO.P,USBC1,2*%
X180102500Y-98420000D03*
%TO.P,USBC1,3*%
X180102500Y-107080000D03*
D17*
%TO.P,USBC1,A1,GND*%
%TO.N,GND*%
X175162500Y-106100000D03*
%TO.P,USBC1,A4,VBUS*%
%TO.N,Net-(F1-Pad1)*%
X175162500Y-105300000D03*
%TO.P,USBC1,A5,CC1*%
%TO.N,Net-(USBC1-CC1)*%
X175162500Y-104000000D03*
%TO.P,USBC1,A6,DP1*%
%TO.N,unconnected-(USBC1-DP1-PadA6)*%
X175162500Y-103000000D03*
%TO.P,USBC1,A7,DN1*%
%TO.N,unconnected-(USBC1-DN1-PadA7)*%
X175162500Y-102500000D03*
%TO.P,USBC1,A8,SBU1*%
%TO.N,unconnected-(USBC1-SBU1-PadA8)*%
X175162500Y-101500000D03*
%TO.P,USBC1,A9,VBUS*%
%TO.N,Net-(F1-Pad1)*%
X175162500Y-100200000D03*
%TO.P,USBC1,A12,GND*%
%TO.N,GND*%
X175162500Y-99400000D03*
%TO.P,USBC1,B1,GND*%
X175162500Y-99700000D03*
%TO.P,USBC1,B4,VBUS*%
%TO.N,Net-(F1-Pad1)*%
X175162500Y-100500000D03*
%TO.P,USBC1,B5,CC2*%
%TO.N,Net-(USBC1-CC2)*%
X175162500Y-101000000D03*
%TO.P,USBC1,B6,DP2*%
%TO.N,unconnected-(USBC1-DP2-PadB6)*%
X175162500Y-102000000D03*
%TO.P,USBC1,B7,DN2*%
%TO.N,unconnected-(USBC1-DN2-PadB7)*%
X175162500Y-103500000D03*
%TO.P,USBC1,B8,SBU2*%
%TO.N,unconnected-(USBC1-SBU2-PadB8)*%
X175162500Y-104500000D03*
%TO.P,USBC1,B9,VBUS*%
%TO.N,Net-(F1-Pad1)*%
X175162500Y-105000000D03*
%TO.P,USBC1,B12,GND*%
%TO.N,GND*%
X175162500Y-105800000D03*
%TD*%
D18*
%TO.P,C12,1*%
%TO.N,+3.3V*%
X142475000Y-98000000D03*
%TO.P,C12,2*%
%TO.N,GND*%
X144025000Y-98000000D03*
%TD*%
D19*
%TO.P,U2,1,I/O1*%
%TO.N,Protected_VBUS*%
X170362500Y-98050000D03*
%TO.P,U2,2,GND*%
%TO.N,GND*%
X170362500Y-99000000D03*
%TO.P,U2,3,I/O2*%
%TO.N,unconnected-(U2-I{slash}O2-Pad3)*%
X170362500Y-99950000D03*
%TO.P,U2,4,I/O2*%
%TO.N,unconnected-(U2-I{slash}O2-Pad4)*%
X172637500Y-99950000D03*
%TO.P,U2,5,VBUS*%
%TO.N,unconnected-(U2-VBUS-Pad5)*%
X172637500Y-99000000D03*
%TO.P,U2,6,I/O1*%
%TO.N,unconnected-(U2-I{slash}O1-Pad6)*%
X172637500Y-98050000D03*
%TD*%
D13*
%TO.P,R11,1*%
%TO.N,Net-(U5-ON{slash}~{OFF})*%
X144075000Y-96250000D03*
%TO.P,R11,2*%
%TO.N,+3.3V*%
X142425000Y-96250000D03*
%TD*%
D20*
%TO.P,C3,1*%
%TO.N,Net-(U3-BTST)*%
X157525000Y-91250000D03*
%TO.P,C3,2*%
%TO.N,Net-(U3-SW1)*%
X155975000Y-91250000D03*
%TD*%
D21*
%TO.P,C13,1*%
%TO.N,Net-(J1-Pin_1)*%
X168500000Y-86787500D03*
%TO.P,C13,2*%
%TO.N,GND*%
X168500000Y-81712500D03*
%TD*%
D22*
%TO.P,L1,1,1*%
%TO.N,Net-(U3-SW1)*%
X149750000Y-93500000D03*
%TO.P,L1,2,2*%
%TO.N,/Battery Management/VSYS*%
X149750000Y-89000000D03*
%TD*%
D23*
%TO.P,C6,1*%
%TO.N,GND*%
X158000000Y-86475000D03*
%TO.P,C6,2*%
%TO.N,/Battery Management/VSYS*%
X158000000Y-88025000D03*
%TD*%
D24*
%TO.P,J1,1,Pin_1*%
%TO.N,Net-(J1-Pin_1)*%
X175400000Y-85000000D03*
%TO.P,J1,2,Pin_2*%
%TO.N,GND*%
X175400000Y-83000000D03*
D25*
%TO.P,J1,MP*%
%TO.N,N/C*%
X181150000Y-87350000D03*
X181150000Y-80650000D03*
%TD*%
D26*
%TO.P,D1,2,A*%
%TO.N,Net-(D1-A)*%
X135750000Y-89500000D03*
%TO.P,D1,1,K*%
%TO.N,+5V*%
X135750000Y-93500000D03*
%TD*%
D27*
%TO.P,R9,1*%
%TO.N,GND*%
X144500000Y-86425000D03*
%TO.P,R9,2*%
%TO.N,Net-(U4-FB)*%
X144500000Y-88075000D03*
%TD*%
D28*
%TO.P,J4,1,Pin_1*%
%TO.N,/Connectors/USB_ATTACH*%
X150500000Y-104750000D03*
%TO.P,J4,2,Pin_2*%
%TO.N,/Connectors/USB_ALERT*%
X151500000Y-104750000D03*
%TO.P,J4,3,Pin_3*%
%TO.N,/Battery Management/CHRG_STAT*%
X152500000Y-104750000D03*
%TO.P,J4,4,Pin_4*%
%TO.N,/Battery Management/CHRG_INT*%
X153500000Y-104750000D03*
%TO.P,J4,5,Pin_5*%
%TO.N,/Battery Management/CHRG_PG*%
X154500000Y-104750000D03*
D29*
%TO.P,J4,MP*%
%TO.N,N/C*%
X149200000Y-108625000D03*
X155800000Y-108625000D03*
%TD*%
D13*
%TO.P,R6,1*%
%TO.N,GND*%
X169075000Y-92750000D03*
%TO.P,R6,2*%
%TO.N,Net-(U3-ILIM)*%
X167425000Y-92750000D03*
%TD*%
D10*
%TO.P,R10,1*%
%TO.N,Net-(U4-FB)*%
X140000000Y-89075000D03*
%TO.P,R10,2*%
%TO.N,+5V*%
X140000000Y-87425000D03*
%TD*%
D13*
%TO.P,TH1,1*%
%TO.N,GND*%
X169075000Y-91250000D03*
%TO.P,TH1,2*%
%TO.N,Net-(U3-TS1)*%
X167425000Y-91250000D03*
%TD*%
D18*
%TO.P,C1,1*%
%TO.N,Protected_VBUS*%
X170225000Y-102500000D03*
%TO.P,C1,2*%
%TO.N,GND*%
X171775000Y-102500000D03*
%TD*%
D30*
%TO.P,U3,1,VBUS1*%
%TO.N,Protected_VBUS*%
X161250000Y-94935000D03*
%TO.P,U3,2,D+*%
%TO.N,GND*%
X161750000Y-94935000D03*
%TO.P,U3,3,D-*%
X162250000Y-94935000D03*
%TO.P,U3,4,STAT*%
%TO.N,/Battery Management/CHRG_STAT*%
X162750000Y-94935000D03*
%TO.P,U3,5,SCL*%
%TO.N,I2C_SCL*%
X163250000Y-94935000D03*
%TO.P,U3,6,SDA*%
%TO.N,I2C_SDA*%
X163750000Y-94935000D03*
D31*
%TO.P,U3,7,INT*%
%TO.N,/Battery Management/CHRG_INT*%
X164435000Y-94250000D03*
%TO.P,U3,8,OTG*%
%TO.N,GND*%
X164435000Y-93750000D03*
%TO.P,U3,9,CE*%
%TO.N,/Battery Management/CHRG_PG*%
X164435000Y-93250000D03*
%TO.P,U3,10,ILIM*%
%TO.N,Net-(U3-ILIM)*%
X164435000Y-92750000D03*
%TO.P,U3,11,TS1*%
%TO.N,Net-(U3-TS1)*%
X164435000Y-92250000D03*
%TO.P,U3,12,TS2*%
%TO.N,GND*%
X164435000Y-91750000D03*
D30*
%TO.P,U3,13,BAT1*%
%TO.N,VBAT*%
X163750000Y-91065000D03*
%TO.P,U3,14,BAT2*%
X163250000Y-91065000D03*
%TO.P,U3,15,SYS1*%
%TO.N,/Battery Management/VSYS*%
X162750000Y-91065000D03*
%TO.P,U3,16,SYS2*%
X162250000Y-91065000D03*
%TO.P,U3,17,PGND1*%
%TO.N,GND*%
X161750000Y-91065000D03*
%TO.P,U3,18,PGND2*%
X161250000Y-91065000D03*
D31*
%TO.P,U3,19,SW1*%
%TO.N,Net-(U3-SW1)*%
X160565000Y-91750000D03*
%TO.P,U3,20,SW2*%
X160565000Y-92250000D03*
%TO.P,U3,21,BTST*%
%TO.N,Net-(U3-BTST)*%
X160565000Y-92750000D03*
%TO.P,U3,22,REGN*%
%TO.N,Net-(U3-REGN)*%
X160565000Y-93250000D03*
%TO.P,U3,23,PMID*%
%TO.N,Net-(U3-PMID)*%
X160565000Y-93750000D03*
%TO.P,U3,24,VBUS2*%
%TO.N,Protected_VBUS*%
X160565000Y-94250000D03*
D32*
%TO.P,U3,25,GND*%
%TO.N,GND*%
X162500000Y-93000000D03*
%TD*%
D20*
%TO.P,C5,1*%
%TO.N,Net-(U3-REGN)*%
X157525000Y-92750000D03*
%TO.P,C5,2*%
%TO.N,GND*%
X155975000Y-92750000D03*
%TD*%
D27*
%TO.P,R8,1*%
%TO.N,Net-(Q1-G)*%
X163000000Y-81175000D03*
%TO.P,R8,2*%
%TO.N,Net-(J1-Pin_1)*%
X163000000Y-82825000D03*
%TD*%
D33*
%TO.P,CN1,1,1*%
%TO.N,+5V*%
X138750000Y-98657500D03*
%TO.P,CN1,2,2*%
%TO.N,GND*%
X135750000Y-98657500D03*
%TO.P,CN1,3,3*%
%TO.N,+3.3V*%
X132750000Y-98657500D03*
D34*
%TO.P,CN1,4,4*%
%TO.N,GND*%
X128890000Y-104097500D03*
%TO.P,CN1,5,5*%
X142610000Y-104097500D03*
%TD*%
D35*
%TO.P,C8,1*%
%TO.N,/Battery Management/VSYS*%
X148300000Y-83250000D03*
%TO.P,C8,2*%
%TO.N,GND*%
X153700000Y-83250000D03*
%TD*%
D11*
%TO.P,TP3,1,1*%
%TO.N,Protected_VBUS*%
X171250000Y-89500000D03*
%TD*%
D13*
%TO.P,R1,1*%
%TO.N,Net-(USBC1-CC1)*%
X171825000Y-107500000D03*
%TO.P,R1,2*%
%TO.N,GND*%
X170175000Y-107500000D03*
%TD*%
D11*
%TO.P,VBAT,1,1*%
%TO.N,VBAT*%
X166250000Y-89250000D03*
%TD*%
%TO.P,3.3V,1,1*%
%TO.N,+3.3V*%
X130750000Y-97000000D03*
%TD*%
D27*
%TO.P,R7,1*%
%TO.N,VBAT*%
X161250000Y-81175000D03*
%TO.P,R7,2*%
%TO.N,Net-(Q1-G)*%
X161250000Y-82825000D03*
%TD*%
D36*
%TO.P,Q1,1,D*%
%TO.N,Net-(J1-Pin_1)*%
X157300000Y-82937500D03*
%TO.P,Q1,2,G*%
%TO.N,Net-(Q1-G)*%
X159200000Y-82937500D03*
%TO.P,Q1,3,S*%
%TO.N,VBAT*%
X158250000Y-81062500D03*
%TD*%
D37*
%TO.P,L2,1,1*%
%TO.N,Net-(U4-SW)*%
X137500000Y-83500000D03*
%TO.P,L2,2,2*%
%TO.N,Net-(D1-A)*%
X133000000Y-83500000D03*
%TD*%
D28*
%TO.P,J3,1,Pin_1*%
%TO.N,I2C_SDA*%
X159750000Y-104750000D03*
%TO.P,J3,2,Pin_2*%
%TO.N,I2C_SCL*%
X160750000Y-104750000D03*
D29*
%TO.P,J3,MP*%
%TO.N,N/C*%
X158450000Y-108625000D03*
X162050000Y-108625000D03*
%TD*%
D38*
%TO.P,U1,1,CC1DB*%
%TO.N,unconnected-(U1-CC1DB-Pad1)*%
X167250000Y-103820000D03*
%TO.P,U1,2,CC1*%
%TO.N,GND*%
X166750000Y-103820000D03*
%TO.P,U1,3,NU*%
%TO.N,unconnected-(U1-NU-Pad3)*%
X166250000Y-103820000D03*
%TO.P,U1,4,CC2*%
%TO.N,GND*%
X165750000Y-103820000D03*
%TO.P,U1,5,CC2DB*%
%TO.N,unconnected-(U1-CC2DB-Pad5)*%
X165250000Y-103820000D03*
%TO.P,U1,6,RESET*%
%TO.N,Net-(U1-RESET)*%
X164750000Y-103820000D03*
D39*
%TO.P,U1,7,SCL*%
%TO.N,I2C_SCL*%
X164070000Y-104500000D03*
%TO.P,U1,8,SDA*%
%TO.N,I2C_SDA*%
X164070000Y-105000000D03*
%TO.P,U1,9,DISCH*%
%TO.N,unconnected-(U1-DISCH-Pad9)*%
X164070000Y-105500000D03*
%TO.P,U1,10,GND*%
%TO.N,GND*%
X164070000Y-106000000D03*
%TO.P,U1,11,ATTACH*%
%TO.N,/Connectors/USB_ATTACH*%
X164070000Y-106500000D03*
%TO.P,U1,12,ADDR0*%
%TO.N,GND*%
X164070000Y-107000000D03*
D38*
%TO.P,U1,13,ADDR1*%
X164750000Y-107680000D03*
%TO.P,U1,14,RP_1A5*%
%TO.N,unconnected-(U1-RP_1A5-Pad14)*%
X165250000Y-107680000D03*
%TO.P,U1,15,GPIO*%
%TO.N,unconnected-(U1-GPIO-Pad15)*%
X165750000Y-107680000D03*
%TO.P,U1,16,VBUS_EN_SNK*%
%TO.N,unconnected-(U1-VBUS_EN_SNK-Pad16)*%
X166250000Y-107680000D03*
%TO.P,U1,17,A_B_SIDE*%
%TO.N,unconnected-(U1-A_B_SIDE-Pad17)*%
X166750000Y-107680000D03*
%TO.P,U1,18,VBUS_VS_DISCH*%
%TO.N,unconnected-(U1-VBUS_VS_DISCH-Pad18)*%
X167250000Y-107680000D03*
D39*
%TO.P,U1,19,ALERT*%
%TO.N,/Connectors/USB_ALERT*%
X167930000Y-107000000D03*
%TO.P,U1,20,RP_3A*%
%TO.N,unconnected-(U1-RP_3A-Pad20)*%
X167930000Y-106500000D03*
%TO.P,U1,21,VREG_1V2*%
%TO.N,unconnected-(U1-VREG_1V2-Pad21)*%
X167930000Y-106000000D03*
%TO.P,U1,22,VSYS*%
%TO.N,Protected_VBUS*%
X167930000Y-105500000D03*
%TO.P,U1,23,VREG_2V7*%
%TO.N,unconnected-(U1-VREG_2V7-Pad23)*%
X167930000Y-105000000D03*
%TO.P,U1,24,VDD*%
%TO.N,Protected_VBUS*%
X167930000Y-104500000D03*
D40*
%TO.P,U1,25,EXP*%
%TO.N,GND*%
X166000000Y-105750000D03*
%TD*%
D41*
%TO.P,U5,*%
%TO.N,*%
X149750000Y-98500000D03*
X148750000Y-98500000D03*
X149750000Y-99500000D03*
X148750000Y-99500000D03*
D42*
%TO.P,U5,1,VOUT*%
%TO.N,+3.3V*%
X146480000Y-97090000D03*
%TO.P,U5,2,ON/~{OFF}*%
%TO.N,Net-(U5-ON{slash}~{OFF})*%
X146480000Y-98370000D03*
%TO.P,U5,3,NC*%
%TO.N,unconnected-(U5-NC-Pad3)*%
X146480000Y-99630000D03*
%TO.P,U5,4,GND*%
%TO.N,GND*%
X146480000Y-100900000D03*
%TO.P,U5,5,NC*%
%TO.N,unconnected-(U5-NC-Pad5)*%
X152020000Y-100900000D03*
%TO.P,U5,6,NC*%
%TO.N,unconnected-(U5-NC-Pad6)*%
X152020000Y-99630000D03*
%TO.P,U5,7,NC*%
%TO.N,unconnected-(U5-NC-Pad7)*%
X152020000Y-98370000D03*
%TO.P,U5,8,VIN*%
%TO.N,/Battery Management/VSYS*%
X152020000Y-97090000D03*
D43*
%TO.P,U5,9,EP*%
%TO.N,GND*%
X149250000Y-99000000D03*
%TD*%
D20*
%TO.P,C4,1*%
%TO.N,Net-(U3-PMID)*%
X157525000Y-94250000D03*
%TO.P,C4,2*%
%TO.N,GND*%
X155975000Y-94250000D03*
%TD*%
D10*
%TO.P,R3,1*%
%TO.N,I2C_SDA*%
X159250000Y-101325000D03*
%TO.P,R3,2*%
%TO.N,Protected_VBUS*%
X159250000Y-99675000D03*
%TD*%
D12*
%TO.P,C10,1*%
%TO.N,+5V*%
X141500000Y-88025000D03*
%TO.P,C10,2*%
%TO.N,GND*%
X141500000Y-86475000D03*
%TD*%
D10*
%TO.P,R4,1*%
%TO.N,I2C_SCL*%
X160760000Y-101325000D03*
%TO.P,R4,2*%
%TO.N,Protected_VBUS*%
X160760000Y-99675000D03*
%TD*%
D44*
%TO.P,F1,1*%
%TO.N,Net-(F1-Pad1)*%
X167000000Y-100650000D03*
%TO.P,F1,2*%
%TO.N,Protected_VBUS*%
X167000000Y-97850000D03*
%TD*%
D45*
%TO.P,C14,1*%
%TO.N,Protected_VBUS*%
X173212500Y-92750000D03*
%TO.P,C14,2*%
%TO.N,GND*%
X178287500Y-92750000D03*
%TD*%
D11*
%TO.P,GND,1,1*%
%TO.N,GND*%
X128250000Y-97000000D03*
%TD*%
D23*
%TO.P,C7,1*%
%TO.N,GND*%
X156250000Y-86475000D03*
%TO.P,C7,2*%
%TO.N,/Battery Management/VSYS*%
X156250000Y-88025000D03*
%TD*%
D18*
%TO.P,C2,1*%
%TO.N,Protected_VBUS*%
X170225000Y-104010000D03*
%TO.P,C2,2*%
%TO.N,GND*%
X171775000Y-104010000D03*
%TD*%
D11*
%TO.P,VSYS,1,1*%
%TO.N,/Battery Management/VSYS*%
X145000000Y-91750000D03*
%TD*%
D46*
%TO.P,U4,1,SW*%
%TO.N,Net-(U4-SW)*%
X141580000Y-82300000D03*
%TO.P,U4,2,GND*%
%TO.N,GND*%
X141580000Y-83250000D03*
%TO.P,U4,3,FB*%
%TO.N,Net-(U4-FB)*%
X141580000Y-84200000D03*
%TO.P,U4,4,EN*%
%TO.N,/Battery Management/VSYS*%
X143920000Y-84200000D03*
%TO.P,U4,5,IN*%
X143920000Y-83250000D03*
%TO.P,U4,6*%
%TO.N,N/C*%
X143920000Y-82300000D03*
%TD*%
D20*
%TO.P,C11,1*%
%TO.N,/Battery Management/VSYS*%
X155775000Y-97000000D03*
%TO.P,C11,2*%
%TO.N,GND*%
X154225000Y-97000000D03*
%TD*%
D47*
%TO.N,Net-(U4-FB)*%
X140750000Y-89750000D03*
X144500000Y-89000000D03*
%TO.N,GND*%
X128250000Y-102250000D03*
X128250000Y-99000000D03*
X168500000Y-81712500D03*
X170250000Y-80250000D03*
X178500000Y-92750000D03*
X181000000Y-92750000D03*
%TO.N,+3.3V*%
X146500000Y-96500000D03*
D48*
%TO.N,/Battery Management/VSYS*%
X157000000Y-97000000D03*
X152000000Y-96250000D03*
D47*
%TO.N,GND*%
X174250000Y-99500000D03*
X174475668Y-98757853D03*
D48*
%TO.N,Protected_VBUS*%
X168750000Y-99250000D03*
X168750000Y-102250000D03*
D47*
%TO.N,GND*%
X174250000Y-106500000D03*
%TO.N,+3.3V*%
X141500000Y-98000000D03*
X141500000Y-96250000D03*
D48*
%TO.N,+5V*%
X135750000Y-93500000D03*
%TO.N,/Battery Management/VSYS*%
X162000000Y-88250000D03*
D47*
%TO.N,/Battery Management/CHRG_PG*%
X155700735Y-100450735D03*
D48*
%TO.N,/Battery Management/VSYS*%
X158000000Y-88750000D03*
X156250000Y-88750000D03*
D47*
%TO.N,GND*%
X144500000Y-85750000D03*
D48*
%TO.N,/Battery Management/VSYS*%
X143250000Y-89750000D03*
X146750000Y-84750000D03*
X149750000Y-87500000D03*
%TO.N,+5V*%
X141500000Y-88500000D03*
X140000000Y-87000000D03*
D47*
%TO.N,GND*%
X154500000Y-83250000D03*
X153000000Y-83250000D03*
X166750000Y-103000000D03*
X155975000Y-94250000D03*
X163250000Y-93750000D03*
X156250000Y-86475000D03*
X161750000Y-92250000D03*
X170175000Y-106000000D03*
X169075000Y-91250000D03*
X141500000Y-86475000D03*
X162500000Y-92250000D03*
X165750000Y-94000000D03*
X163178305Y-105770565D03*
X170175000Y-107500000D03*
X165250000Y-91500000D03*
X175400000Y-83000000D03*
X165750000Y-103000000D03*
X170362500Y-99000000D03*
X161429826Y-96929826D03*
X143000000Y-86475000D03*
X162500000Y-93000000D03*
X144025000Y-98000000D03*
X141580000Y-83250000D03*
X171775000Y-104010000D03*
X161000000Y-90250000D03*
X169075000Y-92750000D03*
X158000000Y-86475000D03*
X135750000Y-98657500D03*
X163250000Y-107250000D03*
X161750000Y-93750000D03*
X155975000Y-92750000D03*
X160500000Y-90500000D03*
X154225000Y-97000000D03*
X161750000Y-93000000D03*
X164250000Y-108000000D03*
X171775000Y-102500000D03*
X146480000Y-100900000D03*
X163250000Y-92250000D03*
X163250000Y-93000000D03*
X162500000Y-93750000D03*
X153700000Y-83250000D03*
X142610000Y-104097500D03*
%TO.N,+3.3V*%
X132750000Y-98657500D03*
%TO.N,Net-(F1-Pad1)*%
X173500000Y-101750000D03*
X176500000Y-104500000D03*
%TO.N,I2C_SDA*%
X162700380Y-104049620D03*
X163817039Y-97325000D03*
X160000000Y-102500000D03*
%TO.N,I2C_SCL*%
X162357818Y-99632818D03*
X163017072Y-97317499D03*
%TO.N,/Battery Management/CHRG_INT*%
X161750000Y-104750000D03*
X165750000Y-96750000D03*
X162000000Y-103399620D03*
X153750000Y-105875000D03*
%TO.N,/Battery Management/CHRG_STAT*%
X152500000Y-103250000D03*
X162506927Y-96701255D03*
%TO.N,/Connectors/USB_ALERT*%
X151804443Y-105875000D03*
X167832087Y-108289729D03*
%TO.N,/Battery Management/CHRG_PG*%
X166500000Y-95250000D03*
D49*
%TO.N,VBAT*%
X162250000Y-80150000D03*
X164250000Y-85750000D03*
%TD*%
D50*
%TO.N,VBAT*%
X166250000Y-89250000D02*
X166250000Y-87750000D01*
X166250000Y-87750000D02*
X164250000Y-85750000D01*
%TO.N,/Battery Management/VSYS*%
X143250000Y-89750000D02*
X143250000Y-90000000D01*
X143250000Y-90000000D02*
X145000000Y-91750000D01*
D51*
%TO.N,Net-(U4-FB)*%
X144500000Y-88075000D02*
X144500000Y-89000000D01*
X140750000Y-89750000D02*
X140675000Y-89750000D01*
X140675000Y-89750000D02*
X140000000Y-89075000D01*
D50*
%TO.N,+3.3V*%
X132750000Y-98657500D02*
X132407500Y-98657500D01*
X132407500Y-98657500D02*
X130750000Y-97000000D01*
D52*
%TO.N,GND*%
X128890000Y-104097500D02*
X128890000Y-102890000D01*
X128250000Y-99000000D02*
X128250000Y-97000000D01*
X128890000Y-102890000D02*
X128250000Y-102250000D01*
D53*
%TO.N,Protected_VBUS*%
X173212500Y-92750000D02*
X173212500Y-95200000D01*
D52*
%TO.N,I2C_SDA*%
X159250000Y-101325000D02*
X159250000Y-101250000D01*
%TO.N,GND*%
X168787500Y-81712500D02*
X170250000Y-80250000D01*
X168500000Y-81712500D02*
X168787500Y-81712500D01*
X178500000Y-92750000D02*
X181000000Y-92750000D01*
X178287500Y-92750000D02*
X178500000Y-92750000D01*
X178287500Y-92750000D02*
X178287500Y-92462500D01*
X178287500Y-92462500D02*
X180750000Y-90000000D01*
D53*
%TO.N,Protected_VBUS*%
X173212500Y-92750000D02*
X173212500Y-91462500D01*
X173212500Y-91462500D02*
X171250000Y-89500000D01*
D51*
%TO.N,Net-(U4-FB)*%
X144500000Y-88075000D02*
X145500000Y-87075000D01*
D53*
%TO.N,+3.3V*%
X146480000Y-96520000D02*
X146500000Y-96500000D01*
X146480000Y-97090000D02*
X146480000Y-96520000D01*
%TO.N,/Battery Management/VSYS*%
X155775000Y-97000000D02*
X157000000Y-97000000D01*
X152020000Y-96270000D02*
X152000000Y-96250000D01*
X152020000Y-97090000D02*
X152020000Y-96270000D01*
D54*
%TO.N,GND*%
X174450000Y-99700000D02*
X174250000Y-99500000D01*
X175162500Y-99700000D02*
X174450000Y-99700000D01*
X175117815Y-99400000D02*
X174475668Y-98757853D01*
X175162500Y-99400000D02*
X175117815Y-99400000D01*
X175162500Y-99700000D02*
X175162500Y-99400000D01*
D52*
%TO.N,Protected_VBUS*%
X168750000Y-105500000D02*
X169250000Y-105000000D01*
X168500000Y-104500000D02*
X169000000Y-104500000D01*
D54*
X167930000Y-104500000D02*
X168500000Y-104500000D01*
D53*
X169000000Y-102500000D02*
X168750000Y-102250000D01*
X170225000Y-102500000D02*
X169000000Y-102500000D01*
X168750000Y-99250000D02*
X168750000Y-98814472D01*
X168750000Y-98814472D02*
X169514472Y-98050000D01*
X169514472Y-98050000D02*
X170362500Y-98050000D01*
X168750000Y-96437500D02*
X167312500Y-96437500D01*
X167312500Y-96437500D02*
X167000000Y-96750000D01*
X170362500Y-98050000D02*
X168750000Y-96437500D01*
X173212500Y-95200000D02*
X170362500Y-98050000D01*
X170225000Y-104010000D02*
X170225000Y-102500000D01*
D52*
%TO.N,/Battery Management/VSYS*%
X162750000Y-90250000D02*
X162500000Y-90250000D01*
X162500000Y-90250000D02*
X162250000Y-90000000D01*
D55*
X162750000Y-91065000D02*
X162750000Y-90250000D01*
D51*
%TO.N,GND*%
X162250000Y-94935000D02*
X162250000Y-96109652D01*
X162250000Y-96109652D02*
X161750000Y-96609652D01*
X161750000Y-94935000D02*
X161750000Y-96609652D01*
X161750000Y-96609652D02*
X161429826Y-96929826D01*
D54*
%TO.N,Net-(U3-SW1)*%
X159500000Y-91750000D02*
X159500000Y-91500000D01*
X159500000Y-91500000D02*
X159500000Y-91250000D01*
D55*
X160565000Y-91750000D02*
X159750000Y-91750000D01*
X159750000Y-91750000D02*
X159500000Y-91500000D01*
X160565000Y-92250000D02*
X160000000Y-92250000D01*
X160000000Y-92250000D02*
X159500000Y-91750000D01*
%TO.N,Net-(U3-PMID)*%
X160565000Y-93750000D02*
X159500000Y-93750000D01*
D52*
%TO.N,GND*%
X174650000Y-106100000D02*
X174250000Y-106500000D01*
X175162500Y-106100000D02*
X174650000Y-106100000D01*
D55*
%TO.N,Protected_VBUS*%
X169000000Y-104500000D02*
X169250000Y-104250000D01*
X167930000Y-105500000D02*
X168750000Y-105500000D01*
D50*
%TO.N,Net-(U3-PMID)*%
X158750000Y-94250000D02*
X157525000Y-94250000D01*
D52*
X159000000Y-94000000D02*
X158750000Y-94250000D01*
D54*
X159250000Y-93750000D02*
X159000000Y-94000000D01*
X159500000Y-93750000D02*
X159250000Y-93750000D01*
D55*
%TO.N,Net-(U3-BTST)*%
X160565000Y-92750000D02*
X159750000Y-92750000D01*
X159750000Y-92750000D02*
X159500000Y-92500000D01*
%TO.N,Net-(U3-REGN)*%
X160565000Y-93250000D02*
X158025000Y-93250000D01*
X158025000Y-93250000D02*
X157525000Y-92750000D01*
D50*
%TO.N,+3.3V*%
X142475000Y-98000000D02*
X141500000Y-98000000D01*
X142425000Y-96250000D02*
X141500000Y-96250000D01*
%TO.N,+5V*%
X138750000Y-96500000D02*
X135750000Y-93500000D01*
D53*
%TO.N,/Battery Management/VSYS*%
X162000000Y-88250000D02*
X162000000Y-88000000D01*
D55*
%TO.N,/Battery Management/CHRG_PG*%
X154500000Y-101651470D02*
X154500000Y-104750000D01*
X155700735Y-100450735D02*
X154500000Y-101651470D01*
D50*
%TO.N,VBAT*%
X164250000Y-85750000D02*
X164250000Y-90398886D01*
X164250000Y-90398886D02*
X163666943Y-90981943D01*
D53*
%TO.N,Protected_VBUS*%
X159750000Y-95500000D02*
X159750000Y-97000000D01*
X159750000Y-97000000D02*
X161592500Y-98842500D01*
X162010000Y-98425000D02*
X161592500Y-98842500D01*
X161592500Y-98842500D02*
X160760000Y-99675000D01*
D50*
X160690000Y-94810000D02*
X160440000Y-94810000D01*
X160440000Y-94810000D02*
X159750000Y-95500000D01*
D51*
%TO.N,/Battery Management/CHRG_STAT*%
X162506927Y-96701255D02*
X162750000Y-96458182D01*
X162750000Y-96458182D02*
X162750000Y-94935000D01*
D52*
%TO.N,Protected_VBUS*%
X160565000Y-94685000D02*
X160690000Y-94810000D01*
X160690000Y-94810000D02*
X160815000Y-94935000D01*
X160815000Y-94935000D02*
X161065000Y-94935000D01*
X160565000Y-94685000D02*
X160565000Y-94435000D01*
%TO.N,/Battery Management/VSYS*%
X158000000Y-88025000D02*
X158000000Y-88750000D01*
X156250000Y-88025000D02*
X156250000Y-88750000D01*
%TO.N,GND*%
X144500000Y-86425000D02*
X144500000Y-85750000D01*
%TO.N,/Battery Management/VSYS*%
X143000000Y-89500000D02*
X143250000Y-89750000D01*
X143000000Y-88025000D02*
X143000000Y-89500000D01*
X143920000Y-83250000D02*
X145250000Y-83250000D01*
X145250000Y-83250000D02*
X146750000Y-84750000D01*
D50*
X143920000Y-84200000D02*
X146200000Y-84200000D01*
X146200000Y-84200000D02*
X146750000Y-84750000D01*
X148250000Y-83250000D02*
X146750000Y-84750000D01*
X148300000Y-83250000D02*
X148250000Y-83250000D01*
X149750000Y-89000000D02*
X149750000Y-87500000D01*
D51*
%TO.N,Net-(U4-FB)*%
X145500000Y-87075000D02*
X145500000Y-85750000D01*
X145500000Y-85750000D02*
X144750000Y-85000000D01*
X144750000Y-85000000D02*
X142380000Y-85000000D01*
X142380000Y-85000000D02*
X141580000Y-84200000D01*
D56*
%TO.N,+5V*%
X141500000Y-88025000D02*
X141500000Y-88500000D01*
X140000000Y-87425000D02*
X140000000Y-87000000D01*
D50*
%TO.N,Protected_VBUS*%
X169250000Y-104250000D02*
X169490000Y-104010000D01*
X169490000Y-104010000D02*
X170225000Y-104010000D01*
D53*
X164750000Y-98425000D02*
X162010000Y-98425000D01*
X160760000Y-99675000D02*
X159250000Y-99675000D01*
X165325000Y-97850000D02*
X164750000Y-98425000D01*
D50*
X169250000Y-105000000D02*
X169250000Y-104250000D01*
D53*
X167000000Y-96750000D02*
X167000000Y-97850000D01*
X167000000Y-97850000D02*
X165325000Y-97850000D01*
D54*
%TO.N,GND*%
X164070000Y-107000000D02*
X163500000Y-107000000D01*
D57*
X161065000Y-91065000D02*
X160500000Y-90500000D01*
X165000000Y-91750000D02*
X165250000Y-91500000D01*
X161750000Y-91000000D02*
X161000000Y-90250000D01*
X161750000Y-91065000D02*
X161750000Y-91000000D01*
D54*
X166750000Y-103820000D02*
X166750000Y-103000000D01*
X164070000Y-106000000D02*
X163407740Y-106000000D01*
D57*
X164435000Y-93750000D02*
X165500000Y-93750000D01*
D54*
X164750000Y-107680000D02*
X164570000Y-107680000D01*
X163500000Y-107000000D02*
X163250000Y-107250000D01*
X165750000Y-103820000D02*
X165750000Y-103000000D01*
D57*
X165500000Y-93750000D02*
X165750000Y-94000000D01*
D54*
X163407740Y-106000000D02*
X163178305Y-105770565D01*
X164570000Y-107680000D02*
X164250000Y-108000000D01*
D57*
X161250000Y-91065000D02*
X161065000Y-91065000D01*
X164435000Y-91750000D02*
X165000000Y-91750000D01*
D50*
%TO.N,Net-(U3-BTST)*%
X158250000Y-91250000D02*
X157525000Y-91250000D01*
D51*
X159500000Y-92500000D02*
X159250000Y-92250000D01*
D50*
X158500000Y-91500000D02*
X158250000Y-91250000D01*
D54*
X159250000Y-92250000D02*
X158750000Y-91750000D01*
D52*
X158750000Y-91750000D02*
X158500000Y-91500000D01*
%TO.N,Net-(U3-SW1)*%
X159250000Y-91000000D02*
X158750000Y-90500000D01*
D50*
X152000000Y-91250000D02*
X155975000Y-91250000D01*
D54*
X159500000Y-91250000D02*
X159250000Y-91000000D01*
D50*
X156750000Y-90000000D02*
X155975000Y-90775000D01*
X158250000Y-90000000D02*
X156750000Y-90000000D01*
D52*
X158750000Y-90500000D02*
X158250000Y-90000000D01*
D50*
X149750000Y-93500000D02*
X152000000Y-91250000D01*
X155975000Y-90775000D02*
X155975000Y-91250000D01*
D54*
%TO.N,/Battery Management/VSYS*%
X162250000Y-91065000D02*
X162250000Y-90250000D01*
D52*
X162250000Y-90000000D02*
X162000000Y-89750000D01*
D50*
X162000000Y-89750000D02*
X162000000Y-89000000D01*
D53*
X162000000Y-89000000D02*
X162000000Y-88250000D01*
D52*
X162250000Y-90250000D02*
X162250000Y-90000000D01*
D53*
%TO.N,+5V*%
X138750000Y-98657500D02*
X138750000Y-96500000D01*
%TO.N,Net-(D1-A)*%
X133000000Y-88000000D02*
X133000000Y-83500000D01*
X134500000Y-89500000D02*
X133000000Y-88000000D01*
X135750000Y-89500000D02*
X134500000Y-89500000D01*
D54*
%TO.N,Net-(F1-Pad1)*%
X176000000Y-105000000D02*
X176500000Y-104500000D01*
X175162500Y-105000000D02*
X176000000Y-105000000D01*
D50*
X167350000Y-101000000D02*
X167000000Y-100650000D01*
D54*
X173500000Y-101750000D02*
X173500000Y-101250000D01*
X175162500Y-100500000D02*
X173750000Y-100500000D01*
X173500000Y-101250000D02*
X173250000Y-101000000D01*
X173750000Y-100500000D02*
X173250000Y-101000000D01*
D50*
X173250000Y-101000000D02*
X167350000Y-101000000D01*
D57*
%TO.N,I2C_SDA*%
X163750000Y-97257961D02*
X163817039Y-97325000D01*
X159750000Y-101825000D02*
X159750000Y-104750000D01*
D54*
X164070000Y-105000000D02*
X163543162Y-105000000D01*
D57*
X160000000Y-102500000D02*
X160000000Y-102075000D01*
D54*
X163543162Y-105000000D02*
X162700380Y-104157218D01*
D57*
X163750000Y-94935000D02*
X163750000Y-97257961D01*
D54*
X162700380Y-104157218D02*
X162700380Y-104049620D01*
D57*
X160000000Y-102075000D02*
X159250000Y-101325000D01*
X159250000Y-101325000D02*
X159750000Y-101825000D01*
%TO.N,I2C_SCL*%
X163250000Y-94935000D02*
X163250000Y-97084571D01*
X163250000Y-97084571D02*
X163017072Y-97317499D01*
X160760000Y-104740000D02*
X160750000Y-104750000D01*
X160760000Y-101325000D02*
X160760000Y-104740000D01*
D54*
X162357818Y-102787818D02*
X162357818Y-99632818D01*
D57*
X162357818Y-99632818D02*
X160760000Y-101230636D01*
D54*
X164070000Y-104500000D02*
X162357818Y-102787818D01*
D57*
X160760000Y-101230636D02*
X160760000Y-101325000D01*
D55*
%TO.N,/Battery Management/CHRG_INT*%
X153750000Y-105875000D02*
X153750000Y-105000000D01*
X165125000Y-94625000D02*
X165750000Y-95250000D01*
X164435000Y-94250000D02*
X164750000Y-94250000D01*
X164750000Y-94250000D02*
X165125000Y-94625000D01*
X153750000Y-105000000D02*
X153500000Y-104750000D01*
X162000000Y-103399620D02*
X162000000Y-104500000D01*
X162000000Y-104500000D02*
X161750000Y-104750000D01*
X165750000Y-95250000D02*
X165750000Y-96750000D01*
%TO.N,/Connectors/USB_ATTACH*%
X150500000Y-105524999D02*
X150500000Y-104750000D01*
X164070000Y-106500000D02*
X151475001Y-106500000D01*
X151475001Y-106500000D02*
X150500000Y-105524999D01*
D51*
%TO.N,/Battery Management/CHRG_STAT*%
X152500000Y-103250000D02*
X152500000Y-104750000D01*
%TO.N,/Connectors/USB_ALERT*%
X151804443Y-105054443D02*
X151500000Y-104750000D01*
X167930000Y-107000000D02*
X167930000Y-108191816D01*
X167930000Y-108191816D02*
X167832087Y-108289729D01*
X151804443Y-105875000D02*
X151804443Y-105054443D01*
D54*
%TO.N,/Battery Management/CHRG_PG*%
X166500000Y-93830761D02*
X166500000Y-95250000D01*
X165919239Y-93250000D02*
X166500000Y-93830761D01*
X164435000Y-93250000D02*
X165919239Y-93250000D01*
D50*
%TO.N,Net-(U4-SW)*%
X140300000Y-82300000D02*
X140250000Y-82250000D01*
D53*
X138750000Y-82250000D02*
X137500000Y-83500000D01*
X140250000Y-82250000D02*
X138750000Y-82250000D01*
D52*
X141580000Y-82300000D02*
X140800000Y-82300000D01*
D50*
X140800000Y-82300000D02*
X140300000Y-82300000D01*
%TO.N,VBAT*%
X161250000Y-81150000D02*
X161250000Y-81175000D01*
X161137500Y-81062500D02*
X161250000Y-81175000D01*
X158250000Y-81062500D02*
X161137500Y-81062500D01*
X162250000Y-80150000D02*
X161250000Y-81150000D01*
%TO.N,Net-(Q1-G)*%
X161250000Y-82825000D02*
X161388088Y-82825000D01*
X163000000Y-81213088D02*
X163000000Y-81175000D01*
X161137500Y-82937500D02*
X161250000Y-82825000D01*
X159200000Y-82937500D02*
X161137500Y-82937500D01*
X161388088Y-82825000D02*
X163000000Y-81213088D01*
D55*
%TO.N,Net-(U1-RESET)*%
X164750000Y-103820000D02*
X164750000Y-100075000D01*
D54*
%TO.N,Net-(U3-ILIM)*%
X164435000Y-92750000D02*
X167425000Y-92750000D01*
D55*
%TO.N,Net-(U5-ON{slash}~{OFF})*%
X144900000Y-97490000D02*
X144900000Y-96900000D01*
X144900000Y-96900000D02*
X144250000Y-96250000D01*
X146480000Y-98370000D02*
X145780000Y-98370000D01*
X145780000Y-98370000D02*
X144900000Y-97490000D01*
X144250000Y-96250000D02*
X144075000Y-96250000D01*
D54*
%TO.N,Net-(U3-TS1)*%
X165419239Y-92250000D02*
X166419239Y-91250000D01*
X166419239Y-91250000D02*
X167425000Y-91250000D01*
X164435000Y-92250000D02*
X165419239Y-92250000D01*
%TO.N,Net-(USBC1-CC1)*%
X174250000Y-104000000D02*
X174162500Y-104087500D01*
X174162500Y-104087500D02*
X174162500Y-105162500D01*
X175162500Y-104000000D02*
X174250000Y-104000000D01*
X174162500Y-105162500D02*
X171825000Y-107500000D01*
%TO.N,Net-(USBC1-CC2)*%
X174250000Y-101000000D02*
X174162500Y-101087500D01*
X175162500Y-101000000D02*
X174250000Y-101000000D01*
X174162500Y-103380393D02*
X171825000Y-105717893D01*
X174162500Y-101087500D02*
X174162500Y-103380393D01*
X171825000Y-105717893D02*
X171825000Y-106000000D01*
D50*
%TO.N,Net-(J1-Pin_1)*%
X161803334Y-84275000D02*
X158637500Y-84275000D01*
X168500000Y-86787500D02*
X166962500Y-86787500D01*
X163000000Y-83078334D02*
X161803334Y-84275000D01*
X175400000Y-85000000D02*
X170287500Y-85000000D01*
X158637500Y-84275000D02*
X157300000Y-82937500D01*
X166962500Y-86787500D02*
X163000000Y-82825000D01*
X163000000Y-82825000D02*
X163000000Y-83078334D01*
X170287500Y-85000000D02*
X168500000Y-86787500D01*
%TD*%
%TA.AperFunction,Conductor*%
%TO.N,GND*%
G36*
X163386652Y-106795185D02*
G01*
X163413238Y-106825867D01*
X163414704Y-106824665D01*
X163451909Y-106870000D01*
X164708638Y-106870000D01*
X164775677Y-106889685D01*
X164796319Y-106906319D01*
X164843681Y-106953681D01*
X164877166Y-107015004D01*
X164880000Y-107041362D01*
X164880000Y-108298087D01*
X164938217Y-108286509D01*
X164938220Y-108286508D01*
X164982061Y-108257214D01*
X165048738Y-108236335D01*
X165075145Y-108238698D01*
X165081096Y-108239881D01*
X165081097Y-108239882D01*
X165134477Y-108250500D01*
X165365522Y-108250499D01*
X165418903Y-108239882D01*
X165431110Y-108231725D01*
X165497786Y-108210848D01*
X165565166Y-108229332D01*
X165568875Y-108231716D01*
X165581097Y-108239882D01*
X165634477Y-108250500D01*
X165865522Y-108250499D01*
X165918903Y-108239882D01*
X165931110Y-108231725D01*
X165997786Y-108210848D01*
X166065166Y-108229332D01*
X166068875Y-108231716D01*
X166081097Y-108239882D01*
X166134477Y-108250500D01*
X166365522Y-108250499D01*
X166418903Y-108239882D01*
X166431110Y-108231725D01*
X166497786Y-108210848D01*
X166565166Y-108229332D01*
X166568875Y-108231716D01*
X166581097Y-108239882D01*
X166634477Y-108250500D01*
X166865522Y-108250499D01*
X166918903Y-108239882D01*
X166931110Y-108231725D01*
X166997786Y-108210848D01*
X167065166Y-108229332D01*
X167068875Y-108231716D01*
X167081097Y-108239882D01*
X167134477Y-108250500D01*
X167263866Y-108250499D01*
X167330905Y-108270183D01*
X167376660Y-108322987D01*
X167386604Y-108356851D01*
X167395389Y-108417954D01*
X167449204Y-108535790D01*
X167449207Y-108535796D01*
X167456574Y-108544297D01*
X167485600Y-108607852D01*
X167475657Y-108677011D01*
X167429902Y-108729815D01*
X167362863Y-108749500D01*
X163124000Y-108749500D01*
X163056961Y-108729815D01*
X163011206Y-108677011D01*
X163000000Y-108625500D01*
X163000000Y-108090395D01*
X164420001Y-108090395D01*
X164433490Y-108158218D01*
X164433491Y-108158220D01*
X164484876Y-108235122D01*
X164561784Y-108286510D01*
X164561785Y-108286511D01*
X164620000Y-108298090D01*
X164620000Y-107810000D01*
X164420001Y-107810000D01*
X164420001Y-108090395D01*
X163000000Y-108090395D01*
X163000000Y-107130000D01*
X163451911Y-107130000D01*
X163463490Y-107188217D01*
X163463491Y-107188220D01*
X163514876Y-107265122D01*
X163591783Y-107316509D01*
X163591787Y-107316511D01*
X163659597Y-107329999D01*
X163939999Y-107329999D01*
X164200000Y-107329999D01*
X164296000Y-107329999D01*
X164363039Y-107349684D01*
X164408794Y-107402488D01*
X164420000Y-107453999D01*
X164420000Y-107550000D01*
X164620000Y-107550000D01*
X164620000Y-107130000D01*
X164200000Y-107130000D01*
X164200000Y-107329999D01*
X163939999Y-107329999D01*
X163940000Y-107329998D01*
X163940000Y-107130000D01*
X163451911Y-107130000D01*
X163000000Y-107130000D01*
X163000000Y-106899500D01*
X163019685Y-106832461D01*
X163072489Y-106786706D01*
X163124000Y-106775500D01*
X163319613Y-106775500D01*
X163386652Y-106795185D01*
G37*
%TD.AperFunction*%
%TA.AperFunction,Conductor*%
G36*
X172943039Y-101570185D02*
G01*
X172988794Y-101622989D01*
X173000000Y-101674500D01*
X173000000Y-104066560D01*
X172980315Y-104133599D01*
X172963681Y-104154241D01*
X172619678Y-104498243D01*
X172558355Y-104531728D01*
X172488663Y-104526744D01*
X172432730Y-104484872D01*
X172408313Y-104419408D01*
X172409524Y-104391163D01*
X172425000Y-104293455D01*
X172425000Y-104160000D01*
X171925000Y-104160000D01*
X171925000Y-104684999D01*
X172033455Y-104684999D01*
X172033455Y-104684998D01*
X172131165Y-104669524D01*
X172200458Y-104678479D01*
X172253910Y-104723475D01*
X172274549Y-104790227D01*
X172255824Y-104857541D01*
X172238243Y-104879678D01*
X171779741Y-105338181D01*
X171718418Y-105371666D01*
X171692060Y-105374500D01*
X171591739Y-105374500D01*
X171523608Y-105384426D01*
X171418514Y-105435803D01*
X171335803Y-105518514D01*
X171284426Y-105623608D01*
X171274500Y-105691739D01*
X171274500Y-106308260D01*
X171284426Y-106376391D01*
X171335803Y-106481485D01*
X171418514Y-106564196D01*
X171418515Y-106564196D01*
X171418517Y-106564198D01*
X171523607Y-106615573D01*
X171557673Y-106620536D01*
X171591739Y-106625500D01*
X171975167Y-106625500D01*
X172042206Y-106645185D01*
X172087961Y-106697989D01*
X172097905Y-106767147D01*
X172068880Y-106830703D01*
X172062848Y-106837181D01*
X172061848Y-106838181D01*
X172000525Y-106871666D01*
X171974167Y-106874500D01*
X171591739Y-106874500D01*
X171523608Y-106884426D01*
X171418514Y-106935803D01*
X171335803Y-107018514D01*
X171284426Y-107123608D01*
X171274500Y-107191739D01*
X171274500Y-107808260D01*
X171284426Y-107876391D01*
X171335803Y-107981485D01*
X171418514Y-108064196D01*
X171418515Y-108064196D01*
X171418517Y-108064198D01*
X171523607Y-108115573D01*
X171557673Y-108120536D01*
X171591739Y-108125500D01*
X171591740Y-108125500D01*
X172058261Y-108125500D01*
X172080971Y-108122191D01*
X172126393Y-108115573D01*
X172231483Y-108064198D01*
X172314198Y-107981483D01*
X172365573Y-107876393D01*
X172375500Y-107808260D01*
X172375500Y-107425833D01*
X172395185Y-107358794D01*
X172411819Y-107338152D01*
X172788319Y-106961652D01*
X172849642Y-106928167D01*
X172919334Y-106933151D01*
X172975267Y-106975023D01*
X172999684Y-107040487D01*
X173000000Y-107049333D01*
X173000000Y-108625500D01*
X172980315Y-108692539D01*
X172927511Y-108738294D01*
X172876000Y-108749500D01*
X168301312Y-108749500D01*
X168234273Y-108729815D01*
X168188518Y-108677011D01*
X168178574Y-108607853D01*
X168207599Y-108544297D01*
X168207600Y-108544297D01*
X168214966Y-108535796D01*
X168214966Y-108535794D01*
X168214969Y-108535792D01*
X168268784Y-108417955D01*
X168287220Y-108289729D01*
X168268784Y-108161503D01*
X168214969Y-108043666D01*
X168214967Y-108043664D01*
X168214966Y-108043661D01*
X168210784Y-108038835D01*
X168181761Y-107975278D01*
X168180500Y-107957636D01*
X168180500Y-107806479D01*
X169575001Y-107806479D01*
X169589835Y-107900149D01*
X169589837Y-107900155D01*
X169647356Y-108013041D01*
X169647363Y-108013050D01*
X169736949Y-108102636D01*
X169736953Y-108102639D01*
X169849855Y-108160166D01*
X169943514Y-108174999D01*
X170325000Y-108174999D01*
X170406479Y-108174999D01*
X170500149Y-108160164D01*
X170500155Y-108160162D01*
X170613041Y-108102643D01*
X170613050Y-108102636D01*
X170702636Y-108013050D01*
X170702639Y-108013046D01*
X170760166Y-107900144D01*
X170775000Y-107806486D01*
X170775000Y-107650000D01*
X170325000Y-107650000D01*
X170325000Y-108174999D01*
X169943514Y-108174999D01*
X170024999Y-108174998D01*
X170025000Y-108174998D01*
X170025000Y-107650000D01*
X169575001Y-107650000D01*
X169575001Y-107806479D01*
X168180500Y-107806479D01*
X168180500Y-107404499D01*
X168200185Y-107337460D01*
X168252989Y-107291705D01*
X168304500Y-107280499D01*
X168335520Y-107280499D01*
X168335522Y-107280499D01*
X168388903Y-107269882D01*
X168449436Y-107229436D01*
X168473438Y-107193513D01*
X169575000Y-107193513D01*
X169575000Y-107350000D01*
X170025000Y-107350000D01*
X170025000Y-106814456D01*
X170004196Y-106776357D01*
X170009180Y-106706665D01*
X170022756Y-106685541D01*
X170325000Y-106685541D01*
X170345804Y-106723641D01*
X170340820Y-106793333D01*
X170325000Y-106817949D01*
X170325000Y-107350000D01*
X170774999Y-107350000D01*
X170774999Y-107193520D01*
X170760164Y-107099850D01*
X170760162Y-107099844D01*
X170702643Y-106986958D01*
X170702636Y-106986949D01*
X170613050Y-106897363D01*
X170613046Y-106897360D01*
X170540674Y-106860485D01*
X170489878Y-106812511D01*
X170473083Y-106744690D01*
X170495620Y-106678555D01*
X170540674Y-106639515D01*
X170613046Y-106602639D01*
X170613050Y-106602636D01*
X170702636Y-106513050D01*
X170702639Y-106513046D01*
X170760166Y-106400144D01*
X170775000Y-106306486D01*
X170775000Y-106150000D01*
X170325000Y-106150000D01*
X170325000Y-106685541D01*
X170022756Y-106685541D01*
X170025000Y-106682049D01*
X170025000Y-106150000D01*
X169575001Y-106150000D01*
X169575001Y-106306479D01*
X169589835Y-106400149D01*
X169589837Y-106400155D01*
X169647356Y-106513041D01*
X169647363Y-106513050D01*
X169736949Y-106602636D01*
X169736956Y-106602641D01*
X169809324Y-106639514D01*
X169860120Y-106687488D01*
X169876916Y-106755309D01*
X169854379Y-106821444D01*
X169809326Y-106860483D01*
X169736956Y-106897358D01*
X169736949Y-106897363D01*
X169647363Y-106986949D01*
X169647360Y-106986953D01*
X169589833Y-107099855D01*
X169575000Y-107193513D01*
X168473438Y-107193513D01*
X168489882Y-107168903D01*
X168500500Y-107115523D01*
X168500499Y-106884478D01*
X168489882Y-106831097D01*
X168481725Y-106818889D01*
X168460848Y-106752214D01*
X168479332Y-106684834D01*
X168481726Y-106681109D01*
X168489882Y-106668903D01*
X168500500Y-106615523D01*
X168500499Y-106384478D01*
X168489882Y-106331097D01*
X168481725Y-106318889D01*
X168460848Y-106252214D01*
X168479332Y-106184834D01*
X168481726Y-106181109D01*
X168489882Y-106168903D01*
X168500500Y-106115523D01*
X168500499Y-106009373D01*
X168520183Y-105942335D01*
X168572987Y-105896580D01*
X168642145Y-105886636D01*
X168656576Y-105889595D01*
X168697273Y-105900500D01*
X168697276Y-105900500D01*
X168802725Y-105900500D01*
X168802727Y-105900500D01*
X168904588Y-105873207D01*
X168995913Y-105820480D01*
X169229574Y-105586819D01*
X169290897Y-105553334D01*
X169317255Y-105550500D01*
X169322473Y-105550500D01*
X169322475Y-105550500D01*
X169425410Y-105522918D01*
X169495258Y-105524580D01*
X169553121Y-105563741D01*
X169580626Y-105627970D01*
X169579977Y-105662087D01*
X169575000Y-105693516D01*
X169575000Y-105850000D01*
X170025000Y-105850000D01*
X170325000Y-105850000D01*
X170774999Y-105850000D01*
X170774999Y-105693520D01*
X170760164Y-105599850D01*
X170760162Y-105599844D01*
X170702643Y-105486958D01*
X170702636Y-105486949D01*
X170613050Y-105397363D01*
X170613046Y-105397360D01*
X170500144Y-105339833D01*
X170406486Y-105325000D01*
X170325000Y-105325000D01*
X170325000Y-105850000D01*
X170025000Y-105850000D01*
X170025000Y-105325000D01*
X170024999Y-105324999D01*
X169943516Y-105325000D01*
X169912085Y-105329978D01*
X169842792Y-105321021D01*
X169789342Y-105276023D01*
X169768705Y-105209270D01*
X169772915Y-105175420D01*
X169800500Y-105072475D01*
X169800500Y-104755000D01*
X169820185Y-104687961D01*
X169872989Y-104642206D01*
X169942143Y-104632262D01*
X169964364Y-104635500D01*
X170023038Y-104635500D01*
X170047230Y-104637883D01*
X170160928Y-104660500D01*
X170160931Y-104660500D01*
X170289071Y-104660500D01*
X170402770Y-104637883D01*
X170426962Y-104635500D01*
X170485630Y-104635500D01*
X170485636Y-104635500D01*
X170558625Y-104624866D01*
X170649502Y-104580439D01*
X170671210Y-104569827D01*
X170759827Y-104481210D01*
X170807116Y-104384477D01*
X170814866Y-104368625D01*
X170825500Y-104295636D01*
X170825500Y-104293449D01*
X171125001Y-104293449D01*
X171140762Y-104392967D01*
X171201883Y-104512923D01*
X171201886Y-104512928D01*
X171297071Y-104608113D01*
X171297076Y-104608116D01*
X171417034Y-104669239D01*
X171417033Y-104669239D01*
X171516543Y-104684999D01*
X171624999Y-104684999D01*
X171625000Y-104684998D01*
X171625000Y-104160000D01*
X171125001Y-104160000D01*
X171125001Y-104293449D01*
X170825500Y-104293449D01*
X170825500Y-104284766D01*
X170834939Y-104237313D01*
X170850501Y-104199744D01*
X170860991Y-104147011D01*
X170875500Y-104074071D01*
X170875500Y-103726543D01*
X171125000Y-103726543D01*
X171125000Y-103860000D01*
X171625000Y-103860000D01*
X171625000Y-103328613D01*
X171599196Y-103281357D01*
X171604180Y-103211665D01*
X171623641Y-103181384D01*
X171925000Y-103181384D01*
X171950804Y-103228641D01*
X171945820Y-103298333D01*
X171925000Y-103330730D01*
X171925000Y-103860000D01*
X172424999Y-103860000D01*
X172424999Y-103726550D01*
X172409237Y-103627032D01*
X172348116Y-103507076D01*
X172348113Y-103507071D01*
X172252928Y-103411886D01*
X172252921Y-103411881D01*
X172161862Y-103365483D01*
X172111067Y-103317508D01*
X172094272Y-103249687D01*
X172116810Y-103183553D01*
X172161864Y-103144514D01*
X172252921Y-103098118D01*
X172252928Y-103098113D01*
X172348113Y-103002928D01*
X172348116Y-103002923D01*
X172409239Y-102882966D01*
X172425000Y-102783456D01*
X172425000Y-102650000D01*
X171925000Y-102650000D01*
X171925000Y-103181384D01*
X171623641Y-103181384D01*
X171625000Y-103179269D01*
X171625000Y-102650000D01*
X171125001Y-102650000D01*
X171125001Y-102783449D01*
X171140762Y-102882967D01*
X171201883Y-103002923D01*
X171201886Y-103002928D01*
X171297071Y-103098113D01*
X171297078Y-103098118D01*
X171388137Y-103144516D01*
X171438932Y-103192490D01*
X171455727Y-103260311D01*
X171433189Y-103326446D01*
X171388137Y-103365484D01*
X171297078Y-103411881D01*
X171297071Y-103411886D01*
X171201886Y-103507071D01*
X171201883Y-103507076D01*
X171140760Y-103627033D01*
X171125000Y-103726543D01*
X170875500Y-103726543D01*
X170875500Y-102435928D01*
X170850502Y-102310261D01*
X170850501Y-102310260D01*
X170850501Y-102310256D01*
X170834939Y-102272685D01*
X170825500Y-102225233D01*
X170825500Y-102216543D01*
X171125000Y-102216543D01*
X171125000Y-102350000D01*
X171625000Y-102350000D01*
X171925000Y-102350000D01*
X172424999Y-102350000D01*
X172424999Y-102216550D01*
X172409237Y-102117032D01*
X172348116Y-101997076D01*
X172348113Y-101997071D01*
X172252928Y-101901886D01*
X172252923Y-101901883D01*
X172132965Y-101840760D01*
X172132966Y-101840760D01*
X172033456Y-101825000D01*
X171925000Y-101825000D01*
X171925000Y-102350000D01*
X171625000Y-102350000D01*
X171625000Y-101825000D01*
X171516550Y-101825000D01*
X171417032Y-101840762D01*
X171297076Y-101901883D01*
X171297071Y-101901886D01*
X171201886Y-101997071D01*
X171201883Y-101997076D01*
X171140760Y-102117033D01*
X171125000Y-102216543D01*
X170825500Y-102216543D01*
X170825500Y-102214369D01*
X170825500Y-102214364D01*
X170814866Y-102141375D01*
X170802966Y-102117033D01*
X170759827Y-102028789D01*
X170671210Y-101940172D01*
X170558628Y-101885135D01*
X170558626Y-101885134D01*
X170558625Y-101885134D01*
X170485636Y-101874500D01*
X170485630Y-101874500D01*
X170426962Y-101874500D01*
X170402770Y-101872117D01*
X170289071Y-101849500D01*
X170289069Y-101849500D01*
X169325922Y-101849500D01*
X169258883Y-101829815D01*
X169243695Y-101818315D01*
X169198865Y-101778599D01*
X169193411Y-101773465D01*
X169182127Y-101762181D01*
X169148642Y-101700858D01*
X169153626Y-101631166D01*
X169195498Y-101575233D01*
X169260962Y-101550816D01*
X169269808Y-101550500D01*
X172876000Y-101550500D01*
X172943039Y-101570185D01*
G37*
%TD.AperFunction*%
%TA.AperFunction,Conductor*%
G36*
X163205203Y-105087458D02*
G01*
X163211681Y-105093490D01*
X163358651Y-105240460D01*
X163420248Y-105276023D01*
X163434213Y-105284086D01*
X163432925Y-105286315D01*
X163477339Y-105322089D01*
X163499420Y-105388378D01*
X163499500Y-105392833D01*
X163499500Y-105615521D01*
X163499501Y-105615522D01*
X163511302Y-105674858D01*
X163505073Y-105744449D01*
X163492787Y-105767935D01*
X163463490Y-105811781D01*
X163463488Y-105811785D01*
X163451910Y-105870000D01*
X163946000Y-105870000D01*
X164013039Y-105889685D01*
X164058794Y-105942489D01*
X164070000Y-105994000D01*
X164070000Y-106006000D01*
X164050315Y-106073039D01*
X163997511Y-106118794D01*
X163946000Y-106130000D01*
X163451911Y-106130000D01*
X163414706Y-106175334D01*
X163413138Y-106174047D01*
X163392141Y-106201078D01*
X163326251Y-106224322D01*
X163319615Y-106224500D01*
X163124000Y-106224500D01*
X163056961Y-106204815D01*
X163011206Y-106152011D01*
X163000000Y-106100500D01*
X163000000Y-105181171D01*
X163019685Y-105114132D01*
X163072489Y-105068377D01*
X163141647Y-105058433D01*
X163205203Y-105087458D01*
G37*
%TD.AperFunction*%
%TA.AperFunction,Conductor*%
G36*
X168345731Y-102769685D02*
G01*
X168366373Y-102786319D01*
X168585324Y-103005271D01*
X168585327Y-103005274D01*
X168666972Y-103059827D01*
X168691873Y-103076465D01*
X168810256Y-103125501D01*
X168810260Y-103125501D01*
X168810261Y-103125502D01*
X168935928Y-103150500D01*
X168935931Y-103150500D01*
X169450500Y-103150500D01*
X169517539Y-103170185D01*
X169563294Y-103222989D01*
X169574500Y-103274500D01*
X169574500Y-103335500D01*
X169554815Y-103402539D01*
X169502011Y-103448294D01*
X169450500Y-103459500D01*
X169417525Y-103459500D01*
X169279884Y-103496381D01*
X169279883Y-103496381D01*
X169277517Y-103497014D01*
X169151986Y-103569489D01*
X169151983Y-103569491D01*
X168809489Y-103911985D01*
X168784848Y-103954666D01*
X168774433Y-103972707D01*
X168756417Y-104003912D01*
X168737024Y-104037501D01*
X168686456Y-104085716D01*
X168629637Y-104099500D01*
X168447273Y-104099500D01*
X168345413Y-104126793D01*
X168345410Y-104126794D01*
X168287897Y-104160000D01*
X168254087Y-104179520D01*
X168254086Y-104179520D01*
X168248256Y-104182887D01*
X168186256Y-104199500D01*
X167890436Y-104199500D01*
X167831563Y-104215275D01*
X167799471Y-104219500D01*
X167654499Y-104219500D01*
X167587460Y-104199815D01*
X167541705Y-104147011D01*
X167530499Y-104095500D01*
X167530499Y-103414480D01*
X167530499Y-103414478D01*
X167519882Y-103361097D01*
X167499592Y-103330730D01*
X167479436Y-103300563D01*
X167418902Y-103260117D01*
X167365525Y-103249500D01*
X167134478Y-103249500D01*
X167134475Y-103249501D01*
X167075139Y-103261302D01*
X167005548Y-103255072D01*
X166982061Y-103242786D01*
X166938218Y-103213491D01*
X166938215Y-103213490D01*
X166880000Y-103201909D01*
X166880000Y-103696000D01*
X166860315Y-103763039D01*
X166807511Y-103808794D01*
X166756000Y-103820000D01*
X166744000Y-103820000D01*
X166676961Y-103800315D01*
X166631206Y-103747511D01*
X166620000Y-103696000D01*
X166620000Y-103201909D01*
X166561785Y-103213488D01*
X166561785Y-103213489D01*
X166517937Y-103242787D01*
X166451259Y-103263664D01*
X166424857Y-103261302D01*
X166393535Y-103255072D01*
X166365523Y-103249500D01*
X166365521Y-103249500D01*
X166134478Y-103249500D01*
X166134475Y-103249501D01*
X166075139Y-103261302D01*
X166005548Y-103255072D01*
X165982061Y-103242786D01*
X165938218Y-103213491D01*
X165938215Y-103213490D01*
X165880000Y-103201909D01*
X165880000Y-103696000D01*
X165860315Y-103763039D01*
X165807511Y-103808794D01*
X165756000Y-103820000D01*
X165744000Y-103820000D01*
X165676961Y-103800315D01*
X165631206Y-103747511D01*
X165620000Y-103696000D01*
X165620000Y-103201909D01*
X165561785Y-103213488D01*
X165561785Y-103213489D01*
X165517937Y-103242787D01*
X165451259Y-103263664D01*
X165424857Y-103261302D01*
X165387807Y-103253932D01*
X165365523Y-103249500D01*
X165365522Y-103249500D01*
X165149500Y-103249500D01*
X165082461Y-103229815D01*
X165036706Y-103177011D01*
X165025500Y-103125500D01*
X165025500Y-102874000D01*
X165045185Y-102806961D01*
X165097989Y-102761206D01*
X165149500Y-102750000D01*
X168278692Y-102750000D01*
X168345731Y-102769685D01*
G37*
%TD.AperFunction*%
%TD*%
%TA.AperFunction,Conductor*%
%TO.N,GND*%
G36*
X140638039Y-83269685D02*
G01*
X140683794Y-83322489D01*
X140695000Y-83374000D01*
X140695000Y-83438222D01*
X140701661Y-83488824D01*
X140701663Y-83488831D01*
X140753453Y-83599893D01*
X140825881Y-83672321D01*
X140859366Y-83733644D01*
X140854382Y-83803336D01*
X140825881Y-83847683D01*
X140792393Y-83881170D01*
X140792390Y-83881175D01*
X140747391Y-83983088D01*
X140747391Y-83983090D01*
X140744500Y-84008007D01*
X140744500Y-84391983D01*
X140744502Y-84392006D01*
X140747389Y-84416903D01*
X140747390Y-84416907D01*
X140747391Y-84416909D01*
X140792392Y-84518828D01*
X140871172Y-84597608D01*
X140973091Y-84642609D01*
X140998009Y-84645500D01*
X141619876Y-84645499D01*
X141686915Y-84665183D01*
X141707557Y-84681818D01*
X142160565Y-85134825D01*
X142160568Y-85134829D01*
X142167636Y-85141897D01*
X142238103Y-85212364D01*
X142330172Y-85250500D01*
X142429828Y-85250500D01*
X144594877Y-85250500D01*
X144661916Y-85270185D01*
X144682558Y-85286819D01*
X145031798Y-85636059D01*
X145065283Y-85697382D01*
X145060299Y-85767074D01*
X145018427Y-85823007D01*
X144952963Y-85847424D01*
X144905799Y-85841671D01*
X144900145Y-85839834D01*
X144806486Y-85825000D01*
X144650000Y-85825000D01*
X144650000Y-86301000D01*
X144630315Y-86368039D01*
X144577511Y-86413794D01*
X144526000Y-86425000D01*
X144500000Y-86425000D01*
X144500000Y-86451000D01*
X144480315Y-86518039D01*
X144427511Y-86563794D01*
X144376000Y-86575000D01*
X143825001Y-86575000D01*
X143811320Y-86588681D01*
X143749997Y-86622166D01*
X143723639Y-86625000D01*
X142314459Y-86625000D01*
X142276356Y-86645805D01*
X142206664Y-86640819D01*
X142182050Y-86625000D01*
X140825001Y-86625000D01*
X140825001Y-86626000D01*
X140805316Y-86693039D01*
X140752512Y-86738794D01*
X140701001Y-86750000D01*
X140682935Y-86750000D01*
X140615896Y-86730315D01*
X140580885Y-86696440D01*
X140542492Y-86640819D01*
X140490483Y-86565470D01*
X140372240Y-86460717D01*
X140372238Y-86460716D01*
X140372237Y-86460715D01*
X140232366Y-86387304D01*
X140094325Y-86353280D01*
X140033944Y-86318124D01*
X140002156Y-86255904D01*
X140000000Y-86232883D01*
X140000000Y-86216543D01*
X140825000Y-86216543D01*
X140825000Y-86325000D01*
X141350000Y-86325000D01*
X141650000Y-86325000D01*
X142185540Y-86325000D01*
X142223638Y-86304195D01*
X142293330Y-86309178D01*
X142317950Y-86325000D01*
X142850000Y-86325000D01*
X143150000Y-86325000D01*
X143674999Y-86325000D01*
X143688680Y-86311319D01*
X143750003Y-86277834D01*
X143776361Y-86275000D01*
X144350000Y-86275000D01*
X144350000Y-85825000D01*
X144193520Y-85825000D01*
X144099849Y-85839835D01*
X144099844Y-85839837D01*
X143986958Y-85897356D01*
X143986949Y-85897363D01*
X143897363Y-85986949D01*
X143897358Y-85986956D01*
X143855643Y-86068825D01*
X143807668Y-86119621D01*
X143739847Y-86136415D01*
X143673712Y-86113877D01*
X143634674Y-86068824D01*
X143598116Y-85997075D01*
X143598113Y-85997071D01*
X143502928Y-85901886D01*
X143502923Y-85901883D01*
X143382965Y-85840760D01*
X143382966Y-85840760D01*
X143283456Y-85825000D01*
X143150000Y-85825000D01*
X143150000Y-86325000D01*
X142850000Y-86325000D01*
X142850000Y-85825000D01*
X142716550Y-85825000D01*
X142617032Y-85840762D01*
X142497076Y-85901883D01*
X142497071Y-85901886D01*
X142401886Y-85997071D01*
X142401882Y-85997076D01*
X142360483Y-86078325D01*
X142312508Y-86129120D01*
X142244687Y-86145914D01*
X142178552Y-86123376D01*
X142139514Y-86078323D01*
X142098116Y-85997075D01*
X142098113Y-85997071D01*
X142002928Y-85901886D01*
X142002923Y-85901883D01*
X141882965Y-85840760D01*
X141882966Y-85840760D01*
X141783456Y-85825000D01*
X141650000Y-85825000D01*
X141650000Y-86325000D01*
X141350000Y-86325000D01*
X141350000Y-85825000D01*
X141216550Y-85825000D01*
X141117032Y-85840762D01*
X140997076Y-85901883D01*
X140997071Y-85901886D01*
X140901886Y-85997071D01*
X140901883Y-85997076D01*
X140840760Y-86117033D01*
X140825000Y-86216543D01*
X140000000Y-86216543D01*
X140000000Y-83374000D01*
X140019685Y-83306961D01*
X140072489Y-83261206D01*
X140124000Y-83250000D01*
X140571000Y-83250000D01*
X140638039Y-83269685D01*
G37*
%TD.AperFunction*%
%TD*%
%TA.AperFunction,Conductor*%
%TO.N,GND*%
G36*
X154693039Y-95519685D02*
G01*
X154738794Y-95572489D01*
X154750000Y-95624000D01*
X154750000Y-96224362D01*
X154730315Y-96291401D01*
X154677511Y-96337156D01*
X154608353Y-96347100D01*
X154587681Y-96342293D01*
X154582965Y-96340760D01*
X154483456Y-96325000D01*
X154375000Y-96325000D01*
X154375000Y-97674999D01*
X154483449Y-97674999D01*
X154582969Y-97659237D01*
X154587676Y-97657708D01*
X154657517Y-97655709D01*
X154717352Y-97691787D01*
X154748183Y-97754486D01*
X154750000Y-97775637D01*
X154750000Y-100889781D01*
X154730315Y-100956820D01*
X154713681Y-100977462D01*
X154239537Y-101451605D01*
X154239533Y-101451611D01*
X154196682Y-101525829D01*
X154193927Y-101536112D01*
X154174500Y-101608617D01*
X154174500Y-101608619D01*
X154174500Y-101876000D01*
X154154815Y-101943039D01*
X154102011Y-101988794D01*
X154050500Y-102000000D01*
X143624000Y-102000000D01*
X143556961Y-101980315D01*
X143511206Y-101927511D01*
X143500000Y-101876000D01*
X143500000Y-101050000D01*
X145283083Y-101050000D01*
X145293050Y-101087201D01*
X145293052Y-101087205D01*
X145356898Y-101197790D01*
X145356904Y-101197798D01*
X145447201Y-101288095D01*
X145447209Y-101288101D01*
X145557790Y-101351944D01*
X145557797Y-101351947D01*
X145681149Y-101384999D01*
X145681151Y-101385000D01*
X146330000Y-101385000D01*
X146630000Y-101385000D01*
X147278849Y-101385000D01*
X147278850Y-101384999D01*
X147402202Y-101351947D01*
X147402209Y-101351944D01*
X147512790Y-101288101D01*
X147512798Y-101288095D01*
X147603095Y-101197798D01*
X147603101Y-101197790D01*
X147666947Y-101087205D01*
X147666949Y-101087201D01*
X147676916Y-101050000D01*
X146630000Y-101050000D01*
X146630000Y-101385000D01*
X146330000Y-101385000D01*
X146330000Y-101050000D01*
X145283083Y-101050000D01*
X143500000Y-101050000D01*
X143500000Y-100749999D01*
X145283083Y-100749999D01*
X145283084Y-100750000D01*
X146330000Y-100750000D01*
X146330000Y-100415000D01*
X145681149Y-100415000D01*
X145557797Y-100448052D01*
X145557790Y-100448055D01*
X145447209Y-100511898D01*
X145447201Y-100511904D01*
X145356904Y-100602201D01*
X145356898Y-100602209D01*
X145293052Y-100712794D01*
X145293050Y-100712798D01*
X145283083Y-100749999D01*
X143500000Y-100749999D01*
X143500000Y-98775637D01*
X143519685Y-98708598D01*
X143572489Y-98662843D01*
X143641647Y-98652899D01*
X143662326Y-98657709D01*
X143667034Y-98659239D01*
X143766543Y-98674999D01*
X143874999Y-98674999D01*
X144175000Y-98674999D01*
X144283449Y-98674999D01*
X144382967Y-98659237D01*
X144502923Y-98598116D01*
X144502928Y-98598113D01*
X144598113Y-98502928D01*
X144598116Y-98502923D01*
X144659239Y-98382966D01*
X144675000Y-98283456D01*
X144675000Y-98150000D01*
X144175000Y-98150000D01*
X144175000Y-98674999D01*
X143874999Y-98674999D01*
X143875000Y-98674998D01*
X143875000Y-97325000D01*
X143766550Y-97325000D01*
X143667028Y-97340762D01*
X143662316Y-97342294D01*
X143592475Y-97344288D01*
X143532643Y-97308206D01*
X143501816Y-97245505D01*
X143500000Y-97224362D01*
X143500000Y-96985768D01*
X143519685Y-96918729D01*
X143572489Y-96872974D01*
X143641647Y-96863030D01*
X143680291Y-96875282D01*
X143733911Y-96902603D01*
X143749696Y-96910646D01*
X143749698Y-96910647D01*
X143825461Y-96922646D01*
X143843468Y-96925498D01*
X143843475Y-96925499D01*
X143843481Y-96925500D01*
X144306518Y-96925499D01*
X144306523Y-96925499D01*
X144306523Y-96925498D01*
X144349266Y-96918729D01*
X144381079Y-96913691D01*
X144450372Y-96922646D01*
X144488157Y-96948483D01*
X144538181Y-96998507D01*
X144571666Y-97059830D01*
X144574500Y-97086188D01*
X144574500Y-97236002D01*
X144554815Y-97303041D01*
X144502011Y-97348796D01*
X144432853Y-97358740D01*
X144394207Y-97346488D01*
X144382967Y-97340761D01*
X144382966Y-97340760D01*
X144283456Y-97325000D01*
X144175000Y-97325000D01*
X144175000Y-97850000D01*
X144696069Y-97850000D01*
X144710978Y-97841859D01*
X144780670Y-97846843D01*
X144825017Y-97875344D01*
X145223181Y-98273508D01*
X145256666Y-98334831D01*
X145259500Y-98361189D01*
X145259500Y-98433917D01*
X145292586Y-98557396D01*
X145356504Y-98668104D01*
X145446896Y-98758496D01*
X145557604Y-98822414D01*
X145681083Y-98855500D01*
X145681085Y-98855500D01*
X147278915Y-98855500D01*
X147278917Y-98855500D01*
X147402396Y-98822414D01*
X147513104Y-98758496D01*
X147603496Y-98668104D01*
X147618614Y-98641918D01*
X147669181Y-98593705D01*
X147737788Y-98580483D01*
X147802652Y-98606451D01*
X147843180Y-98663365D01*
X147850000Y-98703921D01*
X147850000Y-98850000D01*
X148327814Y-98850000D01*
X148394853Y-98869685D01*
X148409016Y-98880286D01*
X148415568Y-98885964D01*
X148430695Y-98895685D01*
X148476450Y-98948489D01*
X148486394Y-99017647D01*
X148457369Y-99081203D01*
X148430695Y-99104315D01*
X148415568Y-99114035D01*
X148409016Y-99119714D01*
X148345460Y-99148738D01*
X148327814Y-99150000D01*
X147850000Y-99150000D01*
X147850000Y-99296078D01*
X147830315Y-99363117D01*
X147777511Y-99408872D01*
X147708353Y-99418816D01*
X147644797Y-99389791D01*
X147618614Y-99358080D01*
X147606230Y-99336632D01*
X147603496Y-99331896D01*
X147513104Y-99241504D01*
X147402396Y-99177586D01*
X147278917Y-99144500D01*
X145681083Y-99144500D01*
X145557603Y-99177586D01*
X145446896Y-99241504D01*
X145446893Y-99241506D01*
X145356506Y-99331893D01*
X145356504Y-99331896D01*
X145292586Y-99442603D01*
X145292586Y-99442604D01*
X145259500Y-99566083D01*
X145259500Y-99693917D01*
X145292586Y-99817396D01*
X145356504Y-99928104D01*
X145446896Y-100018496D01*
X145557604Y-100082414D01*
X145681083Y-100115500D01*
X145681085Y-100115500D01*
X147278915Y-100115500D01*
X147278917Y-100115500D01*
X147402396Y-100082414D01*
X147513104Y-100018496D01*
X147603496Y-99928104D01*
X147618614Y-99901918D01*
X147669181Y-99853705D01*
X147737788Y-99840483D01*
X147802652Y-99866451D01*
X147843180Y-99923365D01*
X147850000Y-99963921D01*
X147850000Y-100567077D01*
X147830315Y-100634116D01*
X147777511Y-100679871D01*
X147708353Y-100689815D01*
X147644797Y-100660790D01*
X147618613Y-100629077D01*
X147603099Y-100602206D01*
X147603095Y-100602201D01*
X147512798Y-100511904D01*
X147512790Y-100511898D01*
X147402209Y-100448055D01*
X147402202Y-100448052D01*
X147278850Y-100415000D01*
X146630000Y-100415000D01*
X146630000Y-100750000D01*
X147676915Y-100750000D01*
X147695998Y-100725130D01*
X147752426Y-100683926D01*
X147822172Y-100679771D01*
X147883092Y-100713982D01*
X147897476Y-100731723D01*
X147905807Y-100744191D01*
X147971965Y-100788396D01*
X147971966Y-100788397D01*
X148030297Y-100799999D01*
X148030301Y-100800000D01*
X149100000Y-100800000D01*
X149100000Y-99914246D01*
X149119685Y-99847207D01*
X149130279Y-99833053D01*
X149156289Y-99803036D01*
X149215066Y-99765264D01*
X149284936Y-99765264D01*
X149343710Y-99803036D01*
X149369713Y-99833045D01*
X149398738Y-99896598D01*
X149400000Y-99914246D01*
X149400000Y-100800000D01*
X150469699Y-100800000D01*
X150469702Y-100799999D01*
X150528033Y-100788397D01*
X150528034Y-100788396D01*
X150604346Y-100737407D01*
X150606369Y-100740435D01*
X150649142Y-100717080D01*
X150718834Y-100722064D01*
X150774767Y-100763936D01*
X150799184Y-100829400D01*
X150799500Y-100838246D01*
X150799500Y-100963917D01*
X150832586Y-101087396D01*
X150896504Y-101198104D01*
X150986896Y-101288496D01*
X151097604Y-101352414D01*
X151221083Y-101385500D01*
X151221085Y-101385500D01*
X152818915Y-101385500D01*
X152818917Y-101385500D01*
X152942396Y-101352414D01*
X153053104Y-101288496D01*
X153143496Y-101198104D01*
X153207414Y-101087396D01*
X153240500Y-100963917D01*
X153240500Y-100836083D01*
X153207414Y-100712604D01*
X153143496Y-100601896D01*
X153053104Y-100511504D01*
X152942396Y-100447586D01*
X152818917Y-100414500D01*
X151221083Y-100414500D01*
X151097603Y-100447586D01*
X150986896Y-100511504D01*
X150986893Y-100511506D01*
X150896506Y-100601893D01*
X150896502Y-100601899D01*
X150881386Y-100628080D01*
X150830818Y-100676295D01*
X150762211Y-100689516D01*
X150697346Y-100663547D01*
X150656819Y-100606632D01*
X150650000Y-100566078D01*
X150650000Y-99963921D01*
X150669685Y-99896882D01*
X150722489Y-99851127D01*
X150791647Y-99841183D01*
X150855203Y-99870208D01*
X150881385Y-99901917D01*
X150896504Y-99928104D01*
X150986896Y-100018496D01*
X151097604Y-100082414D01*
X151221083Y-100115500D01*
X151221085Y-100115500D01*
X152818915Y-100115500D01*
X152818917Y-100115500D01*
X152942396Y-100082414D01*
X153053104Y-100018496D01*
X153143496Y-99928104D01*
X153207414Y-99817396D01*
X153240500Y-99693917D01*
X153240500Y-99566083D01*
X153207414Y-99442604D01*
X153143496Y-99331896D01*
X153053104Y-99241504D01*
X152942396Y-99177586D01*
X152818917Y-99144500D01*
X151221083Y-99144500D01*
X151097603Y-99177586D01*
X150986896Y-99241504D01*
X150986893Y-99241506D01*
X150896506Y-99331893D01*
X150896502Y-99331899D01*
X150881386Y-99358080D01*
X150830818Y-99406295D01*
X150762211Y-99419516D01*
X150697346Y-99393547D01*
X150656819Y-99336632D01*
X150650000Y-99296078D01*
X150650000Y-99150000D01*
X150172186Y-99150000D01*
X150105147Y-99130315D01*
X150090984Y-99119714D01*
X150084435Y-99114039D01*
X150077666Y-99109689D01*
X150069304Y-99104315D01*
X150023550Y-99051514D01*
X150013605Y-98982355D01*
X150042628Y-98918799D01*
X150069304Y-98895684D01*
X150084436Y-98885960D01*
X150084439Y-98885956D01*
X150090984Y-98880286D01*
X150154540Y-98851262D01*
X150172186Y-98850000D01*
X150650000Y-98850000D01*
X150650000Y-98703921D01*
X150669685Y-98636882D01*
X150722489Y-98591127D01*
X150791647Y-98581183D01*
X150855203Y-98610208D01*
X150881385Y-98641917D01*
X150896504Y-98668104D01*
X150986896Y-98758496D01*
X151097604Y-98822414D01*
X151221083Y-98855500D01*
X151221085Y-98855500D01*
X152818915Y-98855500D01*
X152818917Y-98855500D01*
X152942396Y-98822414D01*
X153053104Y-98758496D01*
X153143496Y-98668104D01*
X153207414Y-98557396D01*
X153240500Y-98433917D01*
X153240500Y-98306083D01*
X153207414Y-98182604D01*
X153143496Y-98071896D01*
X153053104Y-97981504D01*
X152942396Y-97917586D01*
X152818917Y-97884500D01*
X152586230Y-97884500D01*
X152519191Y-97864815D01*
X152473436Y-97812011D01*
X152463492Y-97742853D01*
X152492517Y-97679297D01*
X152498549Y-97672819D01*
X152509549Y-97661819D01*
X152570872Y-97628334D01*
X152597230Y-97625500D01*
X152825498Y-97625500D01*
X152825500Y-97625500D01*
X152961695Y-97589007D01*
X153083805Y-97518507D01*
X153183507Y-97418805D01*
X153254007Y-97296695D01*
X153257556Y-97283449D01*
X153575001Y-97283449D01*
X153590762Y-97382967D01*
X153651883Y-97502923D01*
X153651886Y-97502928D01*
X153747071Y-97598113D01*
X153747076Y-97598116D01*
X153867034Y-97659239D01*
X153867033Y-97659239D01*
X153966543Y-97674999D01*
X154074999Y-97674999D01*
X154075000Y-97674998D01*
X154075000Y-97150000D01*
X153575001Y-97150000D01*
X153575001Y-97283449D01*
X153257556Y-97283449D01*
X153290500Y-97160500D01*
X153290500Y-97019500D01*
X153254007Y-96883305D01*
X153201232Y-96791896D01*
X153183509Y-96761198D01*
X153183505Y-96761193D01*
X153138855Y-96716543D01*
X153575000Y-96716543D01*
X153575000Y-96850000D01*
X154075000Y-96850000D01*
X154075000Y-96325000D01*
X153966550Y-96325000D01*
X153867032Y-96340762D01*
X153747076Y-96401883D01*
X153747071Y-96401886D01*
X153651886Y-96497071D01*
X153651883Y-96497076D01*
X153590760Y-96617033D01*
X153575000Y-96716543D01*
X153138855Y-96716543D01*
X153083806Y-96661494D01*
X153083801Y-96661490D01*
X152961697Y-96590994D01*
X152961696Y-96590993D01*
X152879593Y-96568994D01*
X152862405Y-96564388D01*
X152802746Y-96528024D01*
X152772217Y-96465177D01*
X152770500Y-96444614D01*
X152770500Y-96196079D01*
X152741659Y-96051092D01*
X152741658Y-96051091D01*
X152741658Y-96051087D01*
X152741656Y-96051082D01*
X152685087Y-95914511D01*
X152685080Y-95914498D01*
X152602952Y-95791585D01*
X152582951Y-95771584D01*
X152548025Y-95736658D01*
X152548023Y-95736656D01*
X152548022Y-95736654D01*
X152523049Y-95711681D01*
X152489564Y-95650358D01*
X152494548Y-95580666D01*
X152536420Y-95524733D01*
X152601884Y-95500316D01*
X152610730Y-95500000D01*
X154626000Y-95500000D01*
X154693039Y-95519685D01*
G37*
%TD.AperFunction*%
%TA.AperFunction,Conductor*%
G36*
X151456309Y-95519685D02*
G01*
X151502064Y-95572489D01*
X151512008Y-95641647D01*
X151482983Y-95705203D01*
X151476951Y-95711681D01*
X151417045Y-95771586D01*
X151417045Y-95771587D01*
X151409523Y-95779110D01*
X151409522Y-95779111D01*
X151371049Y-95840339D01*
X151369160Y-95843253D01*
X151334917Y-95894503D01*
X151334914Y-95894508D01*
X151334856Y-95894651D01*
X151325296Y-95913154D01*
X151319543Y-95922309D01*
X151299712Y-95978984D01*
X151297233Y-95985478D01*
X151278342Y-96031086D01*
X151278342Y-96031087D01*
X151275905Y-96043336D01*
X151271333Y-96060084D01*
X151263688Y-96081935D01*
X151263685Y-96081946D01*
X151258340Y-96129391D01*
X151256737Y-96139698D01*
X151249500Y-96176079D01*
X151249500Y-96200890D01*
X151248720Y-96214774D01*
X151244751Y-96249997D01*
X151244751Y-96250000D01*
X151248720Y-96285223D01*
X151249500Y-96299108D01*
X151249500Y-96323921D01*
X151256737Y-96360303D01*
X151258340Y-96370610D01*
X151264466Y-96424979D01*
X151263168Y-96425125D01*
X151259344Y-96487507D01*
X151218044Y-96543863D01*
X151174823Y-96565131D01*
X151078305Y-96590993D01*
X151078303Y-96590994D01*
X151078302Y-96590994D01*
X150956198Y-96661490D01*
X150956193Y-96661494D01*
X150856494Y-96761193D01*
X150856490Y-96761198D01*
X150785994Y-96883302D01*
X150785993Y-96883305D01*
X150749500Y-97019500D01*
X150749500Y-97127594D01*
X150729815Y-97194633D01*
X150677011Y-97240388D01*
X150607853Y-97250332D01*
X150556610Y-97230697D01*
X150528033Y-97211603D01*
X150528033Y-97211602D01*
X150469702Y-97200000D01*
X149400000Y-97200000D01*
X149400000Y-98085751D01*
X149380315Y-98152790D01*
X149369713Y-98166953D01*
X149343713Y-98196959D01*
X149284936Y-98234734D01*
X149215066Y-98234734D01*
X149156288Y-98196960D01*
X149156287Y-98196959D01*
X149130287Y-98166953D01*
X149101262Y-98103397D01*
X149100000Y-98085751D01*
X149100000Y-97200000D01*
X148030297Y-97200000D01*
X147971966Y-97211602D01*
X147971965Y-97211603D01*
X147895654Y-97262593D01*
X147893630Y-97259564D01*
X147850858Y-97282920D01*
X147781166Y-97277936D01*
X147725233Y-97236064D01*
X147700816Y-97170600D01*
X147700500Y-97161754D01*
X147700500Y-97026085D01*
X147700500Y-97026083D01*
X147667414Y-96902604D01*
X147603496Y-96791896D01*
X147513104Y-96701504D01*
X147402396Y-96637586D01*
X147292405Y-96608114D01*
X147232745Y-96571748D01*
X147202216Y-96508901D01*
X147200499Y-96488339D01*
X147200499Y-96431005D01*
X147200498Y-96431001D01*
X147194706Y-96401883D01*
X147173580Y-96295672D01*
X147120775Y-96168189D01*
X147044114Y-96053457D01*
X147044112Y-96053454D01*
X146946545Y-95955887D01*
X146908299Y-95930332D01*
X146831811Y-95879225D01*
X146831808Y-95879223D01*
X146831807Y-95879223D01*
X146704331Y-95826421D01*
X146704329Y-95826420D01*
X146704328Y-95826420D01*
X146704323Y-95826419D01*
X146704319Y-95826418D01*
X146568998Y-95799501D01*
X146568994Y-95799501D01*
X146431006Y-95799501D01*
X146431001Y-95799501D01*
X146295678Y-95826418D01*
X146295668Y-95826421D01*
X146168190Y-95879224D01*
X146053454Y-95955887D01*
X145935887Y-96073454D01*
X145884342Y-96150598D01*
X145875515Y-96163810D01*
X145867315Y-96176082D01*
X145867312Y-96176086D01*
X145859227Y-96188184D01*
X145859221Y-96188195D01*
X145806421Y-96315667D01*
X145806418Y-96315677D01*
X145779500Y-96451004D01*
X145779500Y-96482981D01*
X145759815Y-96550020D01*
X145707011Y-96595775D01*
X145687593Y-96602756D01*
X145681084Y-96604500D01*
X145681083Y-96604500D01*
X145634309Y-96617033D01*
X145557603Y-96637586D01*
X145446896Y-96701504D01*
X145380074Y-96768326D01*
X145318750Y-96801810D01*
X145249059Y-96796825D01*
X145193125Y-96754954D01*
X145185005Y-96742643D01*
X145172445Y-96720888D01*
X145172445Y-96720887D01*
X145160467Y-96700141D01*
X145160466Y-96700140D01*
X145160465Y-96700138D01*
X145099862Y-96639535D01*
X145099861Y-96639534D01*
X145095531Y-96635204D01*
X145095520Y-96635194D01*
X144711818Y-96251491D01*
X144678333Y-96190168D01*
X144675499Y-96163810D01*
X144675499Y-95943482D01*
X144672146Y-95922309D01*
X144660646Y-95849696D01*
X144603050Y-95736658D01*
X144603046Y-95736654D01*
X144603045Y-95736652D01*
X144578074Y-95711681D01*
X144544589Y-95650358D01*
X144549573Y-95580666D01*
X144591445Y-95524733D01*
X144656909Y-95500316D01*
X144665755Y-95500000D01*
X151389270Y-95500000D01*
X151456309Y-95519685D01*
G37*
%TD.AperFunction*%
%TD*%
M02*
