%TF.GenerationSoftware,KiCad,Pcbnew,8.0.7*%
%TF.CreationDate,2025-01-06T14:24:51-08:00*%
%TF.ProjectId,motion-play-power,6d6f7469-6f6e-42d7-906c-61792d706f77,rev?*%
%TF.SameCoordinates,Original*%
%TF.FileFunction,Paste,Top*%
%TF.FilePolarity,Positive*%
%FSLAX46Y46*%
G04 Gerber Fmt 4.6, Leading zero omitted, Abs format (unit mm)*
G04 Created by KiCad (PCBNEW 8.0.7) date 2025-01-06 14:24:51*
%MOMM*%
%LPD*%
G01*
G04 APERTURE LIST*
G04 Aperture macros list*
%AMRoundRect*
0 Rectangle with rounded corners*
0 $1 Rounding radius*
0 $2 $3 $4 $5 $6 $7 $8 $9 X,Y pos of 4 corners*
0 Add a 4 corners polygon primitive as box body*
4,1,4,$2,$3,$4,$5,$6,$7,$8,$9,$2,$3,0*
0 Add four circle primitives for the rounded corners*
1,1,$1+$1,$2,$3*
1,1,$1+$1,$4,$5*
1,1,$1+$1,$6,$7*
1,1,$1+$1,$8,$9*
0 Add four rect primitives between the rounded corners*
20,1,$1+$1,$2,$3,$4,$5,0*
20,1,$1+$1,$4,$5,$6,$7,0*
20,1,$1+$1,$6,$7,$8,$9,0*
20,1,$1+$1,$8,$9,$2,$3,0*%
G04 Aperture macros list end*
%ADD10C,0.010000*%
%ADD11RoundRect,0.200000X0.275000X-0.200000X0.275000X0.200000X-0.275000X0.200000X-0.275000X-0.200000X0*%
%ADD12RoundRect,0.225000X0.250000X-0.225000X0.250000X0.225000X-0.250000X0.225000X-0.250000X-0.225000X0*%
%ADD13RoundRect,0.200000X0.200000X0.275000X-0.200000X0.275000X-0.200000X-0.275000X0.200000X-0.275000X0*%
%ADD14R,1.300000X0.300000*%
%ADD15RoundRect,0.225000X-0.225000X-0.250000X0.225000X-0.250000X0.225000X0.250000X-0.225000X0.250000X0*%
%ADD16RoundRect,0.150000X-0.512500X-0.150000X0.512500X-0.150000X0.512500X0.150000X-0.512500X0.150000X0*%
%ADD17RoundRect,0.225000X0.225000X0.250000X-0.225000X0.250000X-0.225000X-0.250000X0.225000X-0.250000X0*%
%ADD18RoundRect,0.250000X0.550000X-1.412500X0.550000X1.412500X-0.550000X1.412500X-0.550000X-1.412500X0*%
%ADD19R,5.700000X1.700000*%
%ADD20RoundRect,0.225000X-0.250000X0.225000X-0.250000X-0.225000X0.250000X-0.225000X0.250000X0.225000X0*%
%ADD21RoundRect,0.250000X1.500000X-0.250000X1.500000X0.250000X-1.500000X0.250000X-1.500000X-0.250000X0*%
%ADD22RoundRect,0.250001X1.449999X-0.499999X1.449999X0.499999X-1.449999X0.499999X-1.449999X-0.499999X0*%
%ADD23RoundRect,0.250000X0.650000X-1.000000X0.650000X1.000000X-0.650000X1.000000X-0.650000X-1.000000X0*%
%ADD24RoundRect,0.200000X-0.275000X0.200000X-0.275000X-0.200000X0.275000X-0.200000X0.275000X0.200000X0*%
%ADD25RoundRect,0.150000X-0.150000X-0.625000X0.150000X-0.625000X0.150000X0.625000X-0.150000X0.625000X0*%
%ADD26RoundRect,0.250000X-0.350000X-0.650000X0.350000X-0.650000X0.350000X0.650000X-0.350000X0.650000X0*%
%ADD27RoundRect,0.033750X0.101250X-0.396250X0.101250X0.396250X-0.101250X0.396250X-0.101250X-0.396250X0*%
%ADD28RoundRect,0.033750X0.396250X-0.101250X0.396250X0.101250X-0.396250X0.101250X-0.396250X-0.101250X0*%
%ADD29R,1.300000X3.000000*%
%ADD30R,3.500000X1.700000*%
%ADD31RoundRect,0.250000X-1.500000X-0.550000X1.500000X-0.550000X1.500000X0.550000X-1.500000X0.550000X0*%
%ADD32RoundRect,0.150000X0.150000X-0.587500X0.150000X0.587500X-0.150000X0.587500X-0.150000X-0.587500X0*%
%ADD33R,1.700000X5.700000*%
%ADD34RoundRect,0.032500X-0.097500X0.387500X-0.097500X-0.387500X0.097500X-0.387500X0.097500X0.387500X0*%
%ADD35RoundRect,0.032500X-0.387500X0.097500X-0.387500X-0.097500X0.387500X-0.097500X0.387500X0.097500X0*%
%ADD36C,0.610000*%
%ADD37O,2.040000X0.570000*%
%ADD38R,2.400000X3.200000*%
%ADD39RoundRect,0.250000X0.625000X-0.375000X0.625000X0.375000X-0.625000X0.375000X-0.625000X-0.375000X0*%
%ADD40RoundRect,0.250000X-1.412500X-0.550000X1.412500X-0.550000X1.412500X0.550000X-1.412500X0.550000X0*%
%ADD41RoundRect,0.147500X-0.537500X-0.147500X0.537500X-0.147500X0.537500X0.147500X-0.537500X0.147500X0*%
G04 APERTURE END LIST*
D10*
%TO.C,U3*%
X163275000Y-93775000D02*
X161725000Y-93775000D01*
X161725000Y-92225000D01*
X163275000Y-92225000D01*
X163275000Y-93775000D01*
G36*
X163275000Y-93775000D02*
G01*
X161725000Y-93775000D01*
X161725000Y-92225000D01*
X163275000Y-92225000D01*
X163275000Y-93775000D01*
G37*
%TO.C,U1*%
X166850000Y-106600000D02*
X165150000Y-106600000D01*
X165150000Y-104900000D01*
X166850000Y-104900000D01*
X166850000Y-106600000D01*
G36*
X166850000Y-106600000D02*
G01*
X165150000Y-106600000D01*
X165150000Y-104900000D01*
X166850000Y-104900000D01*
X166850000Y-106600000D01*
G37*
%TD*%
D11*
%TO.C,R5*%
X164750000Y-100075000D03*
X164750000Y-98425000D03*
%TD*%
D12*
%TO.C,C9*%
X143000000Y-88025000D03*
X143000000Y-86475000D03*
%TD*%
D13*
%TO.C,R2*%
X171825000Y-106000000D03*
X170175000Y-106000000D03*
%TD*%
D14*
%TO.C,USBC1*%
X175162500Y-106100000D03*
X175162500Y-105300000D03*
X175162500Y-104000000D03*
X175162500Y-103000000D03*
X175162500Y-102500000D03*
X175162500Y-101500000D03*
X175162500Y-100200000D03*
X175162500Y-99400000D03*
X175162500Y-99700000D03*
X175162500Y-100500000D03*
X175162500Y-101000000D03*
X175162500Y-102000000D03*
X175162500Y-103500000D03*
X175162500Y-104500000D03*
X175162500Y-105000000D03*
X175162500Y-105800000D03*
%TD*%
D15*
%TO.C,C12*%
X142475000Y-98000000D03*
X144025000Y-98000000D03*
%TD*%
D16*
%TO.C,U2*%
X170362500Y-98050000D03*
X170362500Y-99000000D03*
X170362500Y-99950000D03*
X172637500Y-99950000D03*
X172637500Y-99000000D03*
X172637500Y-98050000D03*
%TD*%
D13*
%TO.C,R11*%
X144075000Y-96250000D03*
X142425000Y-96250000D03*
%TD*%
D17*
%TO.C,C3*%
X157525000Y-91250000D03*
X155975000Y-91250000D03*
%TD*%
D18*
%TO.C,C13*%
X168500000Y-86787500D03*
X168500000Y-81712500D03*
%TD*%
D19*
%TO.C,L1*%
X149750000Y-93500000D03*
X149750000Y-89000000D03*
%TD*%
D20*
%TO.C,C6*%
X158000000Y-86475000D03*
X158000000Y-88025000D03*
%TD*%
D21*
%TO.C,J1*%
X175400000Y-85000000D03*
X175400000Y-83000000D03*
D22*
X181150000Y-87350000D03*
X181150000Y-80650000D03*
%TD*%
D23*
%TO.C,D1*%
X135750000Y-89500000D03*
X135750000Y-93500000D03*
%TD*%
D24*
%TO.C,R9*%
X144500000Y-86425000D03*
X144500000Y-88075000D03*
%TD*%
D25*
%TO.C,J4*%
X150500000Y-104750000D03*
X151500000Y-104750000D03*
X152500000Y-104750000D03*
X153500000Y-104750000D03*
X154500000Y-104750000D03*
D26*
X149200000Y-108625000D03*
X155800000Y-108625000D03*
%TD*%
D13*
%TO.C,R6*%
X169075000Y-92750000D03*
X167425000Y-92750000D03*
%TD*%
D11*
%TO.C,R10*%
X140000000Y-89075000D03*
X140000000Y-87425000D03*
%TD*%
D13*
%TO.C,TH1*%
X169075000Y-91250000D03*
X167425000Y-91250000D03*
%TD*%
D15*
%TO.C,C1*%
X170225000Y-102500000D03*
X171775000Y-102500000D03*
%TD*%
D27*
%TO.C,U3*%
X161250000Y-94935000D03*
X161750000Y-94935000D03*
X162250000Y-94935000D03*
X162750000Y-94935000D03*
X163250000Y-94935000D03*
X163750000Y-94935000D03*
D28*
X164435000Y-94250000D03*
X164435000Y-93750000D03*
X164435000Y-93250000D03*
X164435000Y-92750000D03*
X164435000Y-92250000D03*
X164435000Y-91750000D03*
D27*
X163750000Y-91065000D03*
X163250000Y-91065000D03*
X162750000Y-91065000D03*
X162250000Y-91065000D03*
X161750000Y-91065000D03*
X161250000Y-91065000D03*
D28*
X160565000Y-91750000D03*
X160565000Y-92250000D03*
X160565000Y-92750000D03*
X160565000Y-93250000D03*
X160565000Y-93750000D03*
X160565000Y-94250000D03*
%TD*%
D17*
%TO.C,C5*%
X157525000Y-92750000D03*
X155975000Y-92750000D03*
%TD*%
D24*
%TO.C,R8*%
X163000000Y-81175000D03*
X163000000Y-82825000D03*
%TD*%
D29*
%TO.C,CN1*%
X138750000Y-98657500D03*
X135750000Y-98657500D03*
X132750000Y-98657500D03*
D30*
X128890000Y-104097500D03*
X142610000Y-104097500D03*
%TD*%
D31*
%TO.C,C8*%
X148300000Y-83250000D03*
X153700000Y-83250000D03*
%TD*%
D13*
%TO.C,R1*%
X171825000Y-107500000D03*
X170175000Y-107500000D03*
%TD*%
D24*
%TO.C,R7*%
X161250000Y-81175000D03*
X161250000Y-82825000D03*
%TD*%
D32*
%TO.C,Q1*%
X157300000Y-82937500D03*
X159200000Y-82937500D03*
X158250000Y-81062500D03*
%TD*%
D33*
%TO.C,L2*%
X137500000Y-83500000D03*
X133000000Y-83500000D03*
%TD*%
D25*
%TO.C,J3*%
X159750000Y-104750000D03*
X160750000Y-104750000D03*
D26*
X158450000Y-108625000D03*
X162050000Y-108625000D03*
%TD*%
D34*
%TO.C,U1*%
X167250000Y-103820000D03*
X166750000Y-103820000D03*
X166250000Y-103820000D03*
X165750000Y-103820000D03*
X165250000Y-103820000D03*
X164750000Y-103820000D03*
D35*
X164070000Y-104500000D03*
X164070000Y-105000000D03*
X164070000Y-105500000D03*
X164070000Y-106000000D03*
X164070000Y-106500000D03*
X164070000Y-107000000D03*
D34*
X164750000Y-107680000D03*
X165250000Y-107680000D03*
X165750000Y-107680000D03*
X166250000Y-107680000D03*
X166750000Y-107680000D03*
X167250000Y-107680000D03*
D35*
X167930000Y-107000000D03*
X167930000Y-106500000D03*
X167930000Y-106000000D03*
X167930000Y-105500000D03*
X167930000Y-105000000D03*
X167930000Y-104500000D03*
%TD*%
D36*
%TO.C,U5*%
X149750000Y-98500000D03*
X148750000Y-98500000D03*
X149750000Y-99500000D03*
X148750000Y-99500000D03*
D37*
X146480000Y-97090000D03*
X146480000Y-98370000D03*
X146480000Y-99630000D03*
X146480000Y-100900000D03*
X152020000Y-100900000D03*
X152020000Y-99630000D03*
X152020000Y-98370000D03*
X152020000Y-97090000D03*
D38*
X149250000Y-99000000D03*
%TD*%
D17*
%TO.C,C4*%
X157525000Y-94250000D03*
X155975000Y-94250000D03*
%TD*%
D11*
%TO.C,R3*%
X159250000Y-101325000D03*
X159250000Y-99675000D03*
%TD*%
D12*
%TO.C,C10*%
X141500000Y-88025000D03*
X141500000Y-86475000D03*
%TD*%
D11*
%TO.C,R4*%
X160760000Y-101325000D03*
X160760000Y-99675000D03*
%TD*%
D39*
%TO.C,F1*%
X167000000Y-100650000D03*
X167000000Y-97850000D03*
%TD*%
D40*
%TO.C,C14*%
X173212500Y-92750000D03*
X178287500Y-92750000D03*
%TD*%
D20*
%TO.C,C7*%
X156250000Y-86475000D03*
X156250000Y-88025000D03*
%TD*%
D15*
%TO.C,C2*%
X170225000Y-104010000D03*
X171775000Y-104010000D03*
%TD*%
D41*
%TO.C,U4*%
X141580000Y-82300000D03*
X141580000Y-83250000D03*
X141580000Y-84200000D03*
X143920000Y-84200000D03*
X143920000Y-83250000D03*
X143920000Y-82300000D03*
%TD*%
D17*
%TO.C,C11*%
X155775000Y-97000000D03*
X154225000Y-97000000D03*
%TD*%
M02*
