M48
; DRILL file {KiCad 8.0.7} date 2025-01-06T14:25:01-0800
; FORMAT={-:-/ absolute / metric / decimal}
; #@! TF.CreationDate,2025-01-06T14:25:01-08:00
; #@! TF.GenerationSoftware,Kicad,Pcbnew,8.0.7
; #@! TF.FileFunction,MixedPlating,1,4
FMAT,2
METRIC
; #@! TA.AperFunction,Plated,PTH,ViaDrill
T1C0.300
; #@! TA.AperFunction,Plated,PTH,ComponentDrill
T2C0.300
; #@! TA.AperFunction,Plated,PTH,ViaDrill
T3C0.400
; #@! TA.AperFunction,Plated,PTH,ViaDrill
T4C0.500
; #@! TA.AperFunction,Plated,PTH,ComponentDrill
T5C0.750
; #@! TA.AperFunction,Plated,PTH,ComponentDrill
T6C0.800
%
G90
G05
T1
X128.25Y-99.0
X128.25Y-102.25
X132.75Y-98.657
X135.75Y-98.657
X140.75Y-89.75
X141.5Y-86.475
X141.5Y-96.25
X141.5Y-98.0
X141.58Y-83.25
X142.61Y-104.097
X143.0Y-86.475
X144.025Y-98.0
X144.5Y-85.75
X144.5Y-89.0
X146.48Y-100.9
X146.5Y-96.5
X151.804Y-105.875
X152.5Y-103.25
X153.0Y-83.25
X153.7Y-83.25
X153.75Y-105.875
X154.225Y-97.0
X154.5Y-83.25
X155.701Y-100.451
X155.975Y-92.75
X155.975Y-94.25
X156.25Y-86.475
X158.0Y-86.475
X160.0Y-102.5
X160.5Y-90.5
X161.0Y-90.25
X161.43Y-96.93
X161.75Y-92.25
X161.75Y-93.0
X161.75Y-93.75
X161.75Y-104.75
X162.0Y-103.4
X162.358Y-99.633
X162.5Y-92.25
X162.5Y-93.0
X162.5Y-93.75
X162.507Y-96.701
X162.7Y-104.05
X163.017Y-97.317
X163.178Y-105.771
X163.25Y-92.25
X163.25Y-93.0
X163.25Y-93.75
X163.25Y-107.25
X163.817Y-97.325
X164.25Y-108.0
X165.25Y-91.5
X165.75Y-94.0
X165.75Y-96.75
X165.75Y-103.0
X166.5Y-95.25
X166.75Y-103.0
X167.832Y-108.29
X168.5Y-81.712
X169.075Y-91.25
X169.075Y-92.75
X170.175Y-106.0
X170.175Y-107.5
X170.25Y-80.25
X170.362Y-99.0
X171.775Y-102.5
X171.775Y-104.01
X173.5Y-101.75
X174.25Y-99.5
X174.25Y-106.5
X174.476Y-98.758
X175.4Y-83.0
X176.5Y-104.5
X178.5Y-92.75
X181.0Y-92.75
T2
X148.75Y-98.5
X148.75Y-99.5
X149.75Y-98.5
X149.75Y-99.5
T3
X162.25Y-80.15
X164.25Y-85.75
T4
X135.75Y-93.5
X140.0Y-87.0
X141.5Y-88.5
X143.25Y-89.75
X146.75Y-84.75
X149.75Y-87.5
X152.0Y-96.25
X156.25Y-88.75
X157.0Y-97.0
X158.0Y-88.75
X162.0Y-88.25
X168.75Y-99.25
X168.75Y-102.25
T5
X176.422Y-99.85
X176.422Y-105.65
T6
G00X175.523Y-98.42
M15
G01X176.322Y-98.42
M16
G05
G00X175.522Y-107.08
M15
G01X176.323Y-107.08
M16
G05
G00X179.803Y-98.42
M15
G01X180.402Y-98.42
M16
G05
G00X179.803Y-107.08
M15
G01X180.402Y-107.08
M16
G05
M30
