%TF.GenerationSoftware,KiCad,Pcbnew,8.0.7*%
%TF.CreationDate,2025-01-06T14:24:51-08:00*%
%TF.ProjectId,motion-play-power,6d6f7469-6f6e-42d7-906c-61792d706f77,rev?*%
%TF.SameCoordinates,Original*%
%TF.FileFunction,Copper,L3,Inr*%
%TF.FilePolarity,Positive*%
%FSLAX46Y46*%
G04 Gerber Fmt 4.6, Leading zero omitted, Abs format (unit mm)*
G04 Created by KiCad (PCBNEW 8.0.7) date 2025-01-06 14:24:51*
%MOMM*%
%LPD*%
G01*
G04 APERTURE LIST*
%TA.AperFunction,ComponentPad*%
%ADD10C,0.750000*%
%TD*%
%TA.AperFunction,ComponentPad*%
%ADD11O,2.000000X1.200000*%
%TD*%
%TA.AperFunction,ComponentPad*%
%ADD12O,1.800000X1.200000*%
%TD*%
%TA.AperFunction,ComponentPad*%
%ADD13C,0.610000*%
%TD*%
%TA.AperFunction,ViaPad*%
%ADD14C,0.600000*%
%TD*%
%TA.AperFunction,ViaPad*%
%ADD15C,1.000000*%
%TD*%
%TA.AperFunction,ViaPad*%
%ADD16C,0.800000*%
%TD*%
G04 APERTURE END LIST*
D10*
%TO.N,*%
%TO.C,USBC1*%
X176422500Y-105650000D03*
X176422500Y-99850000D03*
D11*
%TO.N,GND*%
X175922500Y-107080000D03*
%TO.N,N/C*%
X175922500Y-98420000D03*
D12*
X180102500Y-98420000D03*
X180102500Y-107080000D03*
%TD*%
D13*
%TO.N,*%
%TO.C,U5*%
X149750000Y-98500000D03*
X148750000Y-98500000D03*
X149750000Y-99500000D03*
X148750000Y-99500000D03*
%TD*%
D14*
%TO.N,Net-(U4-FB)*%
X140750000Y-89750000D03*
X144500000Y-89000000D03*
%TO.N,GND*%
X128250000Y-102250000D03*
X128250000Y-99000000D03*
X168500000Y-81712500D03*
X170250000Y-80250000D03*
X178500000Y-92750000D03*
X181000000Y-92750000D03*
%TO.N,+3.3V*%
X146500000Y-96500000D03*
D15*
%TO.N,/Battery Management/VSYS*%
X157000000Y-97000000D03*
X152000000Y-96250000D03*
D14*
%TO.N,GND*%
X174250000Y-99500000D03*
X174475668Y-98757853D03*
D15*
%TO.N,Protected_VBUS*%
X168750000Y-99250000D03*
X168750000Y-102250000D03*
D14*
%TO.N,GND*%
X174250000Y-106500000D03*
%TO.N,+3.3V*%
X141500000Y-98000000D03*
X141500000Y-96250000D03*
D15*
%TO.N,+5V*%
X135750000Y-93500000D03*
%TO.N,/Battery Management/VSYS*%
X162000000Y-88250000D03*
D14*
%TO.N,/Battery Management/CHRG_PG*%
X155700735Y-100450735D03*
D15*
%TO.N,/Battery Management/VSYS*%
X158000000Y-88750000D03*
X156250000Y-88750000D03*
D14*
%TO.N,GND*%
X144500000Y-85750000D03*
D15*
%TO.N,/Battery Management/VSYS*%
X143250000Y-89750000D03*
X146750000Y-84750000D03*
X149750000Y-87500000D03*
%TO.N,+5V*%
X141500000Y-88500000D03*
X140000000Y-87000000D03*
D14*
%TO.N,GND*%
X154500000Y-83250000D03*
X153000000Y-83250000D03*
X166750000Y-103000000D03*
X155975000Y-94250000D03*
X163250000Y-93750000D03*
X156250000Y-86475000D03*
X161750000Y-92250000D03*
X170175000Y-106000000D03*
X169075000Y-91250000D03*
X141500000Y-86475000D03*
X162500000Y-92250000D03*
X165750000Y-94000000D03*
X163178305Y-105770565D03*
X170175000Y-107500000D03*
X165250000Y-91500000D03*
X175400000Y-83000000D03*
X165750000Y-103000000D03*
X170362500Y-99000000D03*
X161429826Y-96929826D03*
X143000000Y-86475000D03*
X162500000Y-93000000D03*
X144025000Y-98000000D03*
X141580000Y-83250000D03*
X171775000Y-104010000D03*
X161000000Y-90250000D03*
X169075000Y-92750000D03*
X158000000Y-86475000D03*
X135750000Y-98657500D03*
X163250000Y-107250000D03*
X161750000Y-93750000D03*
X155975000Y-92750000D03*
X160500000Y-90500000D03*
X154225000Y-97000000D03*
X161750000Y-93000000D03*
X164250000Y-108000000D03*
X171775000Y-102500000D03*
X146480000Y-100900000D03*
X163250000Y-92250000D03*
X163250000Y-93000000D03*
X162500000Y-93750000D03*
X153700000Y-83250000D03*
X142610000Y-104097500D03*
%TO.N,+3.3V*%
X132750000Y-98657500D03*
%TO.N,Net-(F1-Pad1)*%
X173500000Y-101750000D03*
X176500000Y-104500000D03*
%TO.N,I2C_SDA*%
X162700380Y-104049620D03*
X163817039Y-97325000D03*
X160000000Y-102500000D03*
%TO.N,I2C_SCL*%
X162357818Y-99632818D03*
X163017072Y-97317499D03*
%TO.N,/Battery Management/CHRG_INT*%
X161750000Y-104750000D03*
X165750000Y-96750000D03*
X162000000Y-103399620D03*
X153750000Y-105875000D03*
%TO.N,/Battery Management/CHRG_STAT*%
X152500000Y-103250000D03*
X162506927Y-96701255D03*
%TO.N,/Connectors/USB_ALERT*%
X151804443Y-105875000D03*
X167832087Y-108289729D03*
%TO.N,/Battery Management/CHRG_PG*%
X166500000Y-95250000D03*
D16*
%TO.N,VBAT*%
X162250000Y-80150000D03*
X164250000Y-85750000D03*
%TD*%
%TA.AperFunction,Conductor*%
%TO.N,+3.3V*%
G36*
X148443039Y-95269685D02*
G01*
X148488794Y-95322489D01*
X148500000Y-95374000D01*
X148500000Y-97992067D01*
X148480315Y-98059106D01*
X148443040Y-98096382D01*
X148415565Y-98114039D01*
X148415558Y-98114045D01*
X148320376Y-98223891D01*
X148320371Y-98223899D01*
X148259989Y-98356120D01*
X148259988Y-98356121D01*
X148239302Y-98500000D01*
X148259988Y-98643878D01*
X148259989Y-98643879D01*
X148320371Y-98776100D01*
X148320374Y-98776104D01*
X148415564Y-98885960D01*
X148415566Y-98885961D01*
X148415568Y-98885963D01*
X148430695Y-98895685D01*
X148476450Y-98948489D01*
X148486394Y-99017647D01*
X148457369Y-99081203D01*
X148430698Y-99104313D01*
X148422157Y-99109802D01*
X148415562Y-99114041D01*
X148415558Y-99114045D01*
X148320376Y-99223891D01*
X148320371Y-99223899D01*
X148259989Y-99356120D01*
X148259988Y-99356121D01*
X148239302Y-99500000D01*
X148259988Y-99643878D01*
X148259989Y-99643879D01*
X148320371Y-99776100D01*
X148320374Y-99776104D01*
X148415564Y-99885960D01*
X148443038Y-99903616D01*
X148488793Y-99956418D01*
X148500000Y-100007932D01*
X148500000Y-103750000D01*
X152126000Y-103750000D01*
X152193039Y-103769685D01*
X152238794Y-103822489D01*
X152250000Y-103874000D01*
X152250000Y-105339307D01*
X152230315Y-105406346D01*
X152177511Y-105452101D01*
X152108353Y-105462045D01*
X152058961Y-105443623D01*
X152014496Y-105415047D01*
X152014494Y-105415046D01*
X152014492Y-105415045D01*
X152014493Y-105415045D01*
X151876406Y-105374500D01*
X151876404Y-105374500D01*
X151732482Y-105374500D01*
X151732479Y-105374500D01*
X151594392Y-105415045D01*
X151473316Y-105492856D01*
X151379066Y-105601626D01*
X151379065Y-105601628D01*
X151319277Y-105732543D01*
X151298796Y-105875000D01*
X151319277Y-106017456D01*
X151379065Y-106148371D01*
X151379066Y-106148373D01*
X151473315Y-106257143D01*
X151594390Y-106334953D01*
X151594393Y-106334954D01*
X151594392Y-106334954D01*
X151732479Y-106375499D01*
X151732481Y-106375500D01*
X151732482Y-106375500D01*
X151876405Y-106375500D01*
X151876405Y-106375499D01*
X152014496Y-106334953D01*
X152058963Y-106306375D01*
X152125999Y-106286692D01*
X152193038Y-106306376D01*
X152238794Y-106359179D01*
X152250000Y-106410692D01*
X152250000Y-108625500D01*
X152230315Y-108692539D01*
X152177511Y-108738294D01*
X152126000Y-108749500D01*
X127124000Y-108749500D01*
X127056961Y-108729815D01*
X127011206Y-108677011D01*
X127000000Y-108625500D01*
X127000000Y-104097500D01*
X142104353Y-104097500D01*
X142124834Y-104239956D01*
X142184622Y-104370871D01*
X142184623Y-104370873D01*
X142278872Y-104479643D01*
X142399947Y-104557453D01*
X142399950Y-104557454D01*
X142399949Y-104557454D01*
X142538036Y-104597999D01*
X142538038Y-104598000D01*
X142538039Y-104598000D01*
X142681962Y-104598000D01*
X142681962Y-104597999D01*
X142820053Y-104557453D01*
X142941128Y-104479643D01*
X143035377Y-104370873D01*
X143095165Y-104239957D01*
X143115647Y-104097500D01*
X143095165Y-103955043D01*
X143035377Y-103824127D01*
X142941128Y-103715357D01*
X142820053Y-103637547D01*
X142820051Y-103637546D01*
X142820049Y-103637545D01*
X142820050Y-103637545D01*
X142681963Y-103597000D01*
X142681961Y-103597000D01*
X142538039Y-103597000D01*
X142538036Y-103597000D01*
X142399949Y-103637545D01*
X142278873Y-103715356D01*
X142184623Y-103824126D01*
X142184622Y-103824128D01*
X142124834Y-103955043D01*
X142104353Y-104097500D01*
X127000000Y-104097500D01*
X127000000Y-102250000D01*
X127744353Y-102250000D01*
X127764834Y-102392456D01*
X127824622Y-102523371D01*
X127824623Y-102523373D01*
X127918872Y-102632143D01*
X128039947Y-102709953D01*
X128039950Y-102709954D01*
X128039949Y-102709954D01*
X128147107Y-102741417D01*
X128174633Y-102749500D01*
X128178036Y-102750499D01*
X128178038Y-102750500D01*
X128178039Y-102750500D01*
X128321962Y-102750500D01*
X128321962Y-102750499D01*
X128460053Y-102709953D01*
X128581128Y-102632143D01*
X128675377Y-102523373D01*
X128735165Y-102392457D01*
X128755647Y-102250000D01*
X128735165Y-102107543D01*
X128675377Y-101976627D01*
X128581128Y-101867857D01*
X128460053Y-101790047D01*
X128460051Y-101790046D01*
X128460049Y-101790045D01*
X128460050Y-101790045D01*
X128321963Y-101749500D01*
X128321961Y-101749500D01*
X128178039Y-101749500D01*
X128178036Y-101749500D01*
X128039949Y-101790045D01*
X127918873Y-101867856D01*
X127824623Y-101976626D01*
X127824622Y-101976628D01*
X127764834Y-102107543D01*
X127744353Y-102250000D01*
X127000000Y-102250000D01*
X127000000Y-100900000D01*
X145974353Y-100900000D01*
X145994834Y-101042456D01*
X146054622Y-101173371D01*
X146054623Y-101173373D01*
X146148872Y-101282143D01*
X146269947Y-101359953D01*
X146269950Y-101359954D01*
X146269949Y-101359954D01*
X146408036Y-101400499D01*
X146408038Y-101400500D01*
X146408039Y-101400500D01*
X146551962Y-101400500D01*
X146551962Y-101400499D01*
X146690053Y-101359953D01*
X146811128Y-101282143D01*
X146905377Y-101173373D01*
X146965165Y-101042457D01*
X146985647Y-100900000D01*
X146965165Y-100757543D01*
X146905377Y-100626627D01*
X146811128Y-100517857D01*
X146690053Y-100440047D01*
X146690051Y-100440046D01*
X146690049Y-100440045D01*
X146690050Y-100440045D01*
X146551963Y-100399500D01*
X146551961Y-100399500D01*
X146408039Y-100399500D01*
X146408036Y-100399500D01*
X146269949Y-100440045D01*
X146148873Y-100517856D01*
X146054623Y-100626626D01*
X146054622Y-100626628D01*
X145994834Y-100757543D01*
X145974353Y-100900000D01*
X127000000Y-100900000D01*
X127000000Y-99000000D01*
X127744353Y-99000000D01*
X127764834Y-99142456D01*
X127824622Y-99273371D01*
X127824623Y-99273373D01*
X127918872Y-99382143D01*
X128039947Y-99459953D01*
X128039950Y-99459954D01*
X128039949Y-99459954D01*
X128147107Y-99491417D01*
X128176336Y-99500000D01*
X128178036Y-99500499D01*
X128178038Y-99500500D01*
X128178039Y-99500500D01*
X128321962Y-99500500D01*
X128321962Y-99500499D01*
X128460053Y-99459953D01*
X128581128Y-99382143D01*
X128675377Y-99273373D01*
X128735165Y-99142457D01*
X128755647Y-99000000D01*
X128735165Y-98857543D01*
X128675377Y-98726627D01*
X128615479Y-98657500D01*
X135244353Y-98657500D01*
X135264834Y-98799956D01*
X135304112Y-98885961D01*
X135324623Y-98930873D01*
X135418872Y-99039643D01*
X135539947Y-99117453D01*
X135539950Y-99117454D01*
X135539949Y-99117454D01*
X135678036Y-99157999D01*
X135678038Y-99158000D01*
X135678039Y-99158000D01*
X135821962Y-99158000D01*
X135821962Y-99157999D01*
X135960053Y-99117453D01*
X136081128Y-99039643D01*
X136175377Y-98930873D01*
X136235165Y-98799957D01*
X136255647Y-98657500D01*
X136235165Y-98515043D01*
X136175377Y-98384127D01*
X136081128Y-98275357D01*
X135960053Y-98197547D01*
X135960051Y-98197546D01*
X135960049Y-98197545D01*
X135960050Y-98197545D01*
X135821963Y-98157000D01*
X135821961Y-98157000D01*
X135678039Y-98157000D01*
X135678036Y-98157000D01*
X135539949Y-98197545D01*
X135418873Y-98275356D01*
X135324623Y-98384126D01*
X135324622Y-98384128D01*
X135264834Y-98515043D01*
X135244353Y-98657500D01*
X128615479Y-98657500D01*
X128581128Y-98617857D01*
X128460053Y-98540047D01*
X128460051Y-98540046D01*
X128460049Y-98540045D01*
X128460050Y-98540045D01*
X128321963Y-98499500D01*
X128321961Y-98499500D01*
X128178039Y-98499500D01*
X128178036Y-98499500D01*
X128039949Y-98540045D01*
X127918873Y-98617856D01*
X127824623Y-98726626D01*
X127824622Y-98726628D01*
X127764834Y-98857543D01*
X127744353Y-99000000D01*
X127000000Y-99000000D01*
X127000000Y-98000000D01*
X143519353Y-98000000D01*
X143539834Y-98142456D01*
X143599622Y-98273371D01*
X143599623Y-98273373D01*
X143693872Y-98382143D01*
X143814947Y-98459953D01*
X143814950Y-98459954D01*
X143814949Y-98459954D01*
X143922107Y-98491417D01*
X143951336Y-98500000D01*
X143953036Y-98500499D01*
X143953038Y-98500500D01*
X143953039Y-98500500D01*
X144096962Y-98500500D01*
X144096962Y-98500499D01*
X144235053Y-98459953D01*
X144356128Y-98382143D01*
X144450377Y-98273373D01*
X144510165Y-98142457D01*
X144530647Y-98000000D01*
X144510165Y-97857543D01*
X144450377Y-97726627D01*
X144356128Y-97617857D01*
X144235053Y-97540047D01*
X144235051Y-97540046D01*
X144235049Y-97540045D01*
X144235050Y-97540045D01*
X144096963Y-97499500D01*
X144096961Y-97499500D01*
X143953039Y-97499500D01*
X143953036Y-97499500D01*
X143814949Y-97540045D01*
X143693873Y-97617856D01*
X143599623Y-97726626D01*
X143599622Y-97726628D01*
X143539834Y-97857543D01*
X143519353Y-98000000D01*
X127000000Y-98000000D01*
X127000000Y-95374000D01*
X127019685Y-95306961D01*
X127072489Y-95261206D01*
X127124000Y-95250000D01*
X148376000Y-95250000D01*
X148443039Y-95269685D01*
G37*
%TD.AperFunction*%
%TD*%
%TA.AperFunction,Conductor*%
%TO.N,/Battery Management/VSYS*%
G36*
X182127539Y-79270185D02*
G01*
X182173294Y-79322989D01*
X182184500Y-79374500D01*
X182184500Y-108625500D01*
X182164815Y-108692539D01*
X182112011Y-108738294D01*
X182060500Y-108749500D01*
X168301312Y-108749500D01*
X168234273Y-108729815D01*
X168188518Y-108677011D01*
X168178574Y-108607853D01*
X168207599Y-108544297D01*
X168207600Y-108544297D01*
X168214966Y-108535796D01*
X168214966Y-108535794D01*
X168214969Y-108535792D01*
X168268784Y-108417955D01*
X168287220Y-108289729D01*
X168268784Y-108161503D01*
X168214969Y-108043666D01*
X168130136Y-107945762D01*
X168021156Y-107875725D01*
X168021152Y-107875723D01*
X168021151Y-107875723D01*
X167896861Y-107839229D01*
X167896859Y-107839229D01*
X167767315Y-107839229D01*
X167767313Y-107839229D01*
X167643022Y-107875723D01*
X167643019Y-107875724D01*
X167643018Y-107875725D01*
X167591764Y-107908663D01*
X167534037Y-107945762D01*
X167449205Y-108043666D01*
X167449204Y-108043667D01*
X167395389Y-108161503D01*
X167376954Y-108289729D01*
X167395389Y-108417954D01*
X167449204Y-108535790D01*
X167449207Y-108535796D01*
X167456574Y-108544297D01*
X167485600Y-108607852D01*
X167475657Y-108677011D01*
X167429902Y-108729815D01*
X167362863Y-108749500D01*
X161374000Y-108749500D01*
X161306961Y-108729815D01*
X161261206Y-108677011D01*
X161250000Y-108625500D01*
X161250000Y-108000000D01*
X163794867Y-108000000D01*
X163813302Y-108128225D01*
X163828500Y-108161503D01*
X163867118Y-108246063D01*
X163951951Y-108343967D01*
X164060931Y-108414004D01*
X164185225Y-108450499D01*
X164185227Y-108450500D01*
X164185228Y-108450500D01*
X164314773Y-108450500D01*
X164314773Y-108450499D01*
X164439069Y-108414004D01*
X164548049Y-108343967D01*
X164632882Y-108246063D01*
X164686697Y-108128226D01*
X164705133Y-108000000D01*
X164686697Y-107871774D01*
X164632882Y-107753937D01*
X164548049Y-107656033D01*
X164439069Y-107585996D01*
X164439065Y-107585994D01*
X164439064Y-107585994D01*
X164314774Y-107549500D01*
X164314772Y-107549500D01*
X164185228Y-107549500D01*
X164185226Y-107549500D01*
X164060935Y-107585994D01*
X164060932Y-107585995D01*
X164060931Y-107585996D01*
X164009677Y-107618934D01*
X163951950Y-107656033D01*
X163867118Y-107753937D01*
X163867117Y-107753938D01*
X163813302Y-107871774D01*
X163794867Y-108000000D01*
X161250000Y-108000000D01*
X161250000Y-107250000D01*
X162794867Y-107250000D01*
X162813302Y-107378225D01*
X162839454Y-107435488D01*
X162867118Y-107496063D01*
X162951951Y-107593967D01*
X163060931Y-107664004D01*
X163185225Y-107700499D01*
X163185227Y-107700500D01*
X163185228Y-107700500D01*
X163314773Y-107700500D01*
X163314773Y-107700499D01*
X163439069Y-107664004D01*
X163548049Y-107593967D01*
X163629471Y-107500000D01*
X169719867Y-107500000D01*
X169738302Y-107628225D01*
X169754642Y-107664004D01*
X169792118Y-107746063D01*
X169865282Y-107830500D01*
X169872845Y-107839229D01*
X169876951Y-107843967D01*
X169985931Y-107914004D01*
X170110225Y-107950499D01*
X170110227Y-107950500D01*
X170110228Y-107950500D01*
X170239773Y-107950500D01*
X170239773Y-107950499D01*
X170364069Y-107914004D01*
X170473049Y-107843967D01*
X170557882Y-107746063D01*
X170611697Y-107628226D01*
X170630133Y-107500000D01*
X170611697Y-107371774D01*
X170557882Y-107253937D01*
X170473049Y-107156033D01*
X170364069Y-107085996D01*
X170364065Y-107085994D01*
X170364064Y-107085994D01*
X170239774Y-107049500D01*
X170239772Y-107049500D01*
X170110228Y-107049500D01*
X170110226Y-107049500D01*
X169985935Y-107085994D01*
X169985932Y-107085995D01*
X169985931Y-107085996D01*
X169934677Y-107118934D01*
X169876950Y-107156033D01*
X169792118Y-107253937D01*
X169792117Y-107253938D01*
X169738302Y-107371774D01*
X169719867Y-107500000D01*
X163629471Y-107500000D01*
X163632882Y-107496063D01*
X163686697Y-107378226D01*
X163705133Y-107250000D01*
X163686697Y-107121774D01*
X163632882Y-107003937D01*
X163548049Y-106906033D01*
X163439069Y-106835996D01*
X163439065Y-106835994D01*
X163439064Y-106835994D01*
X163314774Y-106799500D01*
X163314772Y-106799500D01*
X163185228Y-106799500D01*
X163185226Y-106799500D01*
X163060935Y-106835994D01*
X163060932Y-106835995D01*
X163060931Y-106835996D01*
X163021889Y-106861087D01*
X162951950Y-106906033D01*
X162867118Y-107003937D01*
X162867117Y-107003938D01*
X162813302Y-107121774D01*
X162794867Y-107250000D01*
X161250000Y-107250000D01*
X161250000Y-106500000D01*
X173794867Y-106500000D01*
X173813302Y-106628225D01*
X173821154Y-106645418D01*
X173867118Y-106746063D01*
X173951951Y-106843967D01*
X174060931Y-106914004D01*
X174079806Y-106919546D01*
X174185225Y-106950499D01*
X174185227Y-106950500D01*
X174185228Y-106950500D01*
X174314773Y-106950500D01*
X174314773Y-106950499D01*
X174439069Y-106914004D01*
X174548049Y-106843967D01*
X174573883Y-106814152D01*
X174632656Y-106776379D01*
X174702526Y-106776377D01*
X174761305Y-106814149D01*
X174790332Y-106877704D01*
X174789212Y-106919546D01*
X174772000Y-107006077D01*
X174772000Y-107006082D01*
X174772000Y-107153918D01*
X174772000Y-107153920D01*
X174771999Y-107153920D01*
X174800840Y-107298907D01*
X174800843Y-107298917D01*
X174857412Y-107435488D01*
X174857419Y-107435501D01*
X174939548Y-107558415D01*
X174939551Y-107558419D01*
X175044080Y-107662948D01*
X175044084Y-107662951D01*
X175166998Y-107745080D01*
X175167011Y-107745087D01*
X175303582Y-107801656D01*
X175303587Y-107801658D01*
X175303591Y-107801658D01*
X175303592Y-107801659D01*
X175448579Y-107830500D01*
X175448582Y-107830500D01*
X176396420Y-107830500D01*
X176493962Y-107811096D01*
X176541413Y-107801658D01*
X176656622Y-107753937D01*
X176677988Y-107745087D01*
X176677988Y-107745086D01*
X176677995Y-107745084D01*
X176800916Y-107662951D01*
X176905451Y-107558416D01*
X176987584Y-107435495D01*
X177044158Y-107298913D01*
X177053888Y-107250000D01*
X177073000Y-107153920D01*
X179051999Y-107153920D01*
X179080840Y-107298907D01*
X179080843Y-107298917D01*
X179137412Y-107435488D01*
X179137419Y-107435501D01*
X179219548Y-107558415D01*
X179219551Y-107558419D01*
X179324080Y-107662948D01*
X179324084Y-107662951D01*
X179446998Y-107745080D01*
X179447011Y-107745087D01*
X179583582Y-107801656D01*
X179583587Y-107801658D01*
X179583591Y-107801658D01*
X179583592Y-107801659D01*
X179728579Y-107830500D01*
X179728582Y-107830500D01*
X180476420Y-107830500D01*
X180573962Y-107811096D01*
X180621413Y-107801658D01*
X180736622Y-107753937D01*
X180757988Y-107745087D01*
X180757988Y-107745086D01*
X180757995Y-107745084D01*
X180880916Y-107662951D01*
X180985451Y-107558416D01*
X181067584Y-107435495D01*
X181124158Y-107298913D01*
X181133888Y-107250000D01*
X181153000Y-107153920D01*
X181153000Y-107006079D01*
X181124159Y-106861092D01*
X181124158Y-106861091D01*
X181124158Y-106861087D01*
X181076514Y-106746063D01*
X181067587Y-106724511D01*
X181067580Y-106724498D01*
X180985451Y-106601584D01*
X180985448Y-106601580D01*
X180880919Y-106497051D01*
X180880915Y-106497048D01*
X180758001Y-106414919D01*
X180757988Y-106414912D01*
X180621417Y-106358343D01*
X180621407Y-106358340D01*
X180476420Y-106329500D01*
X180476418Y-106329500D01*
X179728582Y-106329500D01*
X179728580Y-106329500D01*
X179583592Y-106358340D01*
X179583582Y-106358343D01*
X179447011Y-106414912D01*
X179446998Y-106414919D01*
X179324084Y-106497048D01*
X179324080Y-106497051D01*
X179219551Y-106601580D01*
X179219548Y-106601584D01*
X179137419Y-106724498D01*
X179137412Y-106724511D01*
X179080843Y-106861082D01*
X179080840Y-106861092D01*
X179052000Y-107006079D01*
X179052000Y-107006082D01*
X179052000Y-107153918D01*
X179052000Y-107153920D01*
X179051999Y-107153920D01*
X177073000Y-107153920D01*
X177073000Y-107006079D01*
X177044159Y-106861092D01*
X177044158Y-106861091D01*
X177044158Y-106861087D01*
X176996514Y-106746063D01*
X176987587Y-106724511D01*
X176987580Y-106724498D01*
X176905451Y-106601584D01*
X176905448Y-106601580D01*
X176800919Y-106497051D01*
X176800915Y-106497048D01*
X176678001Y-106414919D01*
X176677991Y-106414914D01*
X176660297Y-106407585D01*
X176605894Y-106363744D01*
X176583829Y-106297450D01*
X176601108Y-106229750D01*
X176645750Y-106185637D01*
X176775865Y-106110515D01*
X176883015Y-106003365D01*
X176958781Y-105872135D01*
X176998000Y-105725766D01*
X176998000Y-105574234D01*
X176958781Y-105427865D01*
X176958049Y-105426598D01*
X176917612Y-105356559D01*
X176883015Y-105296635D01*
X176775865Y-105189485D01*
X176773476Y-105188105D01*
X176679419Y-105133800D01*
X176631204Y-105083233D01*
X176617982Y-105014626D01*
X176643950Y-104949761D01*
X176682184Y-104919695D01*
X176681608Y-104918798D01*
X176689066Y-104914004D01*
X176689069Y-104914004D01*
X176798049Y-104843967D01*
X176882882Y-104746063D01*
X176936697Y-104628226D01*
X176955133Y-104500000D01*
X176936697Y-104371774D01*
X176882882Y-104253937D01*
X176798049Y-104156033D01*
X176689069Y-104085996D01*
X176689065Y-104085994D01*
X176689064Y-104085994D01*
X176564774Y-104049500D01*
X176564772Y-104049500D01*
X176435228Y-104049500D01*
X176435226Y-104049500D01*
X176310935Y-104085994D01*
X176310932Y-104085995D01*
X176310931Y-104085996D01*
X176259677Y-104118934D01*
X176201950Y-104156033D01*
X176117118Y-104253937D01*
X176117117Y-104253938D01*
X176063302Y-104371774D01*
X176044867Y-104500000D01*
X176063302Y-104628225D01*
X176117117Y-104746061D01*
X176117118Y-104746063D01*
X176201951Y-104843967D01*
X176261912Y-104882501D01*
X176307666Y-104935304D01*
X176317610Y-105004462D01*
X176288586Y-105068018D01*
X176229808Y-105105793D01*
X176226968Y-105106590D01*
X176200365Y-105113718D01*
X176069135Y-105189485D01*
X176069132Y-105189487D01*
X175961987Y-105296632D01*
X175961985Y-105296635D01*
X175886219Y-105427863D01*
X175847000Y-105574234D01*
X175847000Y-105725765D01*
X175886219Y-105872136D01*
X175887873Y-105875000D01*
X175961985Y-106003365D01*
X175961987Y-106003367D01*
X176074882Y-106116262D01*
X176072863Y-106118280D01*
X176105920Y-106163555D01*
X176110073Y-106233302D01*
X176075859Y-106294221D01*
X176014141Y-106326972D01*
X175989230Y-106329500D01*
X175448580Y-106329500D01*
X175303592Y-106358340D01*
X175303582Y-106358343D01*
X175167011Y-106414912D01*
X175166998Y-106414919D01*
X175044084Y-106497048D01*
X175044080Y-106497051D01*
X174939549Y-106601582D01*
X174925864Y-106622064D01*
X174872251Y-106666868D01*
X174802926Y-106675574D01*
X174739899Y-106645418D01*
X174703181Y-106585974D01*
X174700025Y-106535525D01*
X174705133Y-106500000D01*
X174686697Y-106371774D01*
X174632882Y-106253937D01*
X174548049Y-106156033D01*
X174439069Y-106085996D01*
X174439065Y-106085994D01*
X174439064Y-106085994D01*
X174314774Y-106049500D01*
X174314772Y-106049500D01*
X174185228Y-106049500D01*
X174185226Y-106049500D01*
X174060935Y-106085994D01*
X174060932Y-106085995D01*
X174060931Y-106085996D01*
X174022783Y-106110512D01*
X173951950Y-106156033D01*
X173867118Y-106253937D01*
X173867117Y-106253938D01*
X173813302Y-106371774D01*
X173794867Y-106500000D01*
X161250000Y-106500000D01*
X161250000Y-105770565D01*
X162723172Y-105770565D01*
X162741607Y-105898790D01*
X162787829Y-106000000D01*
X162795423Y-106016628D01*
X162880256Y-106114532D01*
X162989236Y-106184569D01*
X163057263Y-106204543D01*
X163113530Y-106221064D01*
X163113532Y-106221065D01*
X163113533Y-106221065D01*
X163243078Y-106221065D01*
X163243078Y-106221064D01*
X163367374Y-106184569D01*
X163476354Y-106114532D01*
X163561187Y-106016628D01*
X163568781Y-106000000D01*
X169719867Y-106000000D01*
X169738302Y-106128225D01*
X169782727Y-106225500D01*
X169792118Y-106246063D01*
X169876951Y-106343967D01*
X169985931Y-106414004D01*
X170110225Y-106450499D01*
X170110227Y-106450500D01*
X170110228Y-106450500D01*
X170239773Y-106450500D01*
X170239773Y-106450499D01*
X170364069Y-106414004D01*
X170473049Y-106343967D01*
X170557882Y-106246063D01*
X170611697Y-106128226D01*
X170630133Y-106000000D01*
X170611697Y-105871774D01*
X170557882Y-105753937D01*
X170473049Y-105656033D01*
X170364069Y-105585996D01*
X170364065Y-105585994D01*
X170364064Y-105585994D01*
X170239774Y-105549500D01*
X170239772Y-105549500D01*
X170110228Y-105549500D01*
X170110226Y-105549500D01*
X169985935Y-105585994D01*
X169985932Y-105585995D01*
X169985931Y-105585996D01*
X169954776Y-105606018D01*
X169876950Y-105656033D01*
X169792118Y-105753937D01*
X169792117Y-105753938D01*
X169738302Y-105871774D01*
X169719867Y-106000000D01*
X163568781Y-106000000D01*
X163615002Y-105898791D01*
X163633438Y-105770565D01*
X163615002Y-105642339D01*
X163561187Y-105524502D01*
X163476354Y-105426598D01*
X163367374Y-105356561D01*
X163367370Y-105356559D01*
X163367369Y-105356559D01*
X163243079Y-105320065D01*
X163243077Y-105320065D01*
X163113533Y-105320065D01*
X163113531Y-105320065D01*
X162989240Y-105356559D01*
X162989237Y-105356560D01*
X162989236Y-105356561D01*
X162937982Y-105389499D01*
X162880255Y-105426598D01*
X162795423Y-105524502D01*
X162795422Y-105524503D01*
X162741607Y-105642339D01*
X162723172Y-105770565D01*
X161250000Y-105770565D01*
X161250000Y-105190497D01*
X161269685Y-105123458D01*
X161322489Y-105077703D01*
X161391647Y-105067759D01*
X161443138Y-105091274D01*
X161444490Y-105089172D01*
X161451950Y-105093966D01*
X161451951Y-105093967D01*
X161560931Y-105164004D01*
X161685225Y-105200499D01*
X161685227Y-105200500D01*
X161685228Y-105200500D01*
X161814773Y-105200500D01*
X161814773Y-105200499D01*
X161939069Y-105164004D01*
X162048049Y-105093967D01*
X162132882Y-104996063D01*
X162186697Y-104878226D01*
X162205133Y-104750000D01*
X162186697Y-104621774D01*
X162132882Y-104503937D01*
X162048049Y-104406033D01*
X161939069Y-104335996D01*
X161939065Y-104335994D01*
X161939064Y-104335994D01*
X161814774Y-104299500D01*
X161814772Y-104299500D01*
X161685228Y-104299500D01*
X161685226Y-104299500D01*
X161560935Y-104335994D01*
X161560932Y-104335995D01*
X161560931Y-104335996D01*
X161451951Y-104406033D01*
X161444490Y-104410828D01*
X161443138Y-104408725D01*
X161391641Y-104432241D01*
X161322483Y-104422294D01*
X161269681Y-104376536D01*
X161250000Y-104309502D01*
X161250000Y-103399620D01*
X161544867Y-103399620D01*
X161563302Y-103527845D01*
X161617117Y-103645681D01*
X161617118Y-103645683D01*
X161701951Y-103743587D01*
X161810931Y-103813624D01*
X161935225Y-103850119D01*
X161935227Y-103850120D01*
X161935228Y-103850120D01*
X162064771Y-103850120D01*
X162064772Y-103850120D01*
X162098019Y-103840357D01*
X162167885Y-103840357D01*
X162226664Y-103878131D01*
X162255690Y-103941686D01*
X162255690Y-103976981D01*
X162245247Y-104049618D01*
X162245247Y-104049619D01*
X162263682Y-104177845D01*
X162298433Y-104253937D01*
X162317498Y-104295683D01*
X162402331Y-104393587D01*
X162511311Y-104463624D01*
X162635605Y-104500119D01*
X162635607Y-104500120D01*
X162635608Y-104500120D01*
X162765153Y-104500120D01*
X162765153Y-104500119D01*
X162889449Y-104463624D01*
X162998429Y-104393587D01*
X163083262Y-104295683D01*
X163137077Y-104177846D01*
X163155513Y-104049620D01*
X163149817Y-104010000D01*
X171319867Y-104010000D01*
X171338302Y-104138225D01*
X171392117Y-104256061D01*
X171392118Y-104256063D01*
X171476951Y-104353967D01*
X171585931Y-104424004D01*
X171710225Y-104460499D01*
X171710227Y-104460500D01*
X171710228Y-104460500D01*
X171839773Y-104460500D01*
X171839773Y-104460499D01*
X171964069Y-104424004D01*
X172073049Y-104353967D01*
X172157882Y-104256063D01*
X172211697Y-104138226D01*
X172230133Y-104010000D01*
X172211697Y-103881774D01*
X172157882Y-103763937D01*
X172073049Y-103666033D01*
X171964069Y-103595996D01*
X171964065Y-103595994D01*
X171964064Y-103595994D01*
X171839774Y-103559500D01*
X171839772Y-103559500D01*
X171710228Y-103559500D01*
X171710226Y-103559500D01*
X171585935Y-103595994D01*
X171585932Y-103595995D01*
X171585931Y-103595996D01*
X171565880Y-103608882D01*
X171476950Y-103666033D01*
X171392118Y-103763937D01*
X171392117Y-103763938D01*
X171338302Y-103881774D01*
X171319867Y-104010000D01*
X163149817Y-104010000D01*
X163137077Y-103921394D01*
X163083262Y-103803557D01*
X162998429Y-103705653D01*
X162889449Y-103635616D01*
X162889445Y-103635614D01*
X162889444Y-103635614D01*
X162765154Y-103599120D01*
X162765152Y-103599120D01*
X162635608Y-103599120D01*
X162602360Y-103608882D01*
X162532490Y-103608881D01*
X162473713Y-103571105D01*
X162444689Y-103507549D01*
X162444689Y-103472257D01*
X162455133Y-103399620D01*
X162436697Y-103271394D01*
X162382882Y-103153557D01*
X162298049Y-103055653D01*
X162211451Y-103000000D01*
X165294867Y-103000000D01*
X165313302Y-103128225D01*
X165338679Y-103183791D01*
X165367118Y-103246063D01*
X165451951Y-103343967D01*
X165560931Y-103414004D01*
X165685225Y-103450499D01*
X165685227Y-103450500D01*
X165685228Y-103450500D01*
X165814773Y-103450500D01*
X165814773Y-103450499D01*
X165939069Y-103414004D01*
X166048049Y-103343967D01*
X166132882Y-103246063D01*
X166137206Y-103236595D01*
X166182961Y-103183791D01*
X166250000Y-103164107D01*
X166317040Y-103183792D01*
X166362794Y-103236595D01*
X166367118Y-103246063D01*
X166451951Y-103343967D01*
X166560931Y-103414004D01*
X166685225Y-103450499D01*
X166685227Y-103450500D01*
X166685228Y-103450500D01*
X166814773Y-103450500D01*
X166814773Y-103450499D01*
X166939069Y-103414004D01*
X167048049Y-103343967D01*
X167132882Y-103246063D01*
X167186697Y-103128226D01*
X167205133Y-103000000D01*
X167186697Y-102871774D01*
X167132882Y-102753937D01*
X167048049Y-102656033D01*
X166939069Y-102585996D01*
X166939065Y-102585994D01*
X166939064Y-102585994D01*
X166814774Y-102549500D01*
X166814772Y-102549500D01*
X166685228Y-102549500D01*
X166685226Y-102549500D01*
X166560935Y-102585994D01*
X166560932Y-102585995D01*
X166560931Y-102585996D01*
X166526143Y-102608353D01*
X166451950Y-102656033D01*
X166367118Y-102753937D01*
X166367116Y-102753940D01*
X166362793Y-102763406D01*
X166317037Y-102816209D01*
X166249997Y-102835892D01*
X166182958Y-102816206D01*
X166137207Y-102763406D01*
X166132883Y-102753940D01*
X166132882Y-102753938D01*
X166132882Y-102753937D01*
X166048049Y-102656033D01*
X165939069Y-102585996D01*
X165939065Y-102585994D01*
X165939064Y-102585994D01*
X165814774Y-102549500D01*
X165814772Y-102549500D01*
X165685228Y-102549500D01*
X165685226Y-102549500D01*
X165560935Y-102585994D01*
X165560932Y-102585995D01*
X165560931Y-102585996D01*
X165526143Y-102608353D01*
X165451950Y-102656033D01*
X165367118Y-102753937D01*
X165367117Y-102753938D01*
X165313302Y-102871774D01*
X165294867Y-103000000D01*
X162211451Y-103000000D01*
X162189069Y-102985616D01*
X162189065Y-102985614D01*
X162189064Y-102985614D01*
X162064774Y-102949120D01*
X162064772Y-102949120D01*
X161935228Y-102949120D01*
X161935226Y-102949120D01*
X161810935Y-102985614D01*
X161810932Y-102985615D01*
X161810931Y-102985616D01*
X161788549Y-103000000D01*
X161701950Y-103055653D01*
X161617118Y-103153557D01*
X161617117Y-103153558D01*
X161563302Y-103271394D01*
X161544867Y-103399620D01*
X161250000Y-103399620D01*
X161250000Y-102750000D01*
X160562292Y-102750000D01*
X160495253Y-102730315D01*
X160449498Y-102677511D01*
X160439554Y-102608353D01*
X160441874Y-102592217D01*
X160455133Y-102500000D01*
X160436697Y-102371774D01*
X160382882Y-102253937D01*
X160379470Y-102249999D01*
X168094722Y-102249999D01*
X168094722Y-102250000D01*
X168113762Y-102406818D01*
X168149102Y-102500000D01*
X168169780Y-102554523D01*
X168259517Y-102684530D01*
X168377760Y-102789283D01*
X168377762Y-102789284D01*
X168517634Y-102862696D01*
X168671014Y-102900500D01*
X168671015Y-102900500D01*
X168828985Y-102900500D01*
X168982365Y-102862696D01*
X169122240Y-102789283D01*
X169240483Y-102684530D01*
X169330220Y-102554523D01*
X169350898Y-102500000D01*
X171319867Y-102500000D01*
X171338302Y-102628225D01*
X171364016Y-102684530D01*
X171392118Y-102746063D01*
X171476951Y-102843967D01*
X171585931Y-102914004D01*
X171705528Y-102949120D01*
X171710225Y-102950499D01*
X171710227Y-102950500D01*
X171710228Y-102950500D01*
X171839773Y-102950500D01*
X171839773Y-102950499D01*
X171964069Y-102914004D01*
X172073049Y-102843967D01*
X172157882Y-102746063D01*
X172211697Y-102628226D01*
X172230133Y-102500000D01*
X172211697Y-102371774D01*
X172157882Y-102253937D01*
X172073049Y-102156033D01*
X171964069Y-102085996D01*
X171964065Y-102085994D01*
X171964064Y-102085994D01*
X171839774Y-102049500D01*
X171839772Y-102049500D01*
X171710228Y-102049500D01*
X171710226Y-102049500D01*
X171585935Y-102085994D01*
X171585932Y-102085995D01*
X171585931Y-102085996D01*
X171534677Y-102118934D01*
X171476950Y-102156033D01*
X171392118Y-102253937D01*
X171392117Y-102253938D01*
X171338302Y-102371774D01*
X171319867Y-102500000D01*
X169350898Y-102500000D01*
X169386237Y-102406818D01*
X169405278Y-102250000D01*
X169394837Y-102164005D01*
X169386237Y-102093181D01*
X169364992Y-102037164D01*
X169330220Y-101945477D01*
X169240483Y-101815470D01*
X169166582Y-101750000D01*
X173044867Y-101750000D01*
X173063302Y-101878225D01*
X173075530Y-101905000D01*
X173117118Y-101996063D01*
X173201951Y-102093967D01*
X173310931Y-102164004D01*
X173435225Y-102200499D01*
X173435227Y-102200500D01*
X173435228Y-102200500D01*
X173564773Y-102200500D01*
X173564773Y-102200499D01*
X173689069Y-102164004D01*
X173798049Y-102093967D01*
X173882882Y-101996063D01*
X173936697Y-101878226D01*
X173955133Y-101750000D01*
X173936697Y-101621774D01*
X173882882Y-101503937D01*
X173798049Y-101406033D01*
X173689069Y-101335996D01*
X173689065Y-101335994D01*
X173689064Y-101335994D01*
X173564774Y-101299500D01*
X173564772Y-101299500D01*
X173435228Y-101299500D01*
X173435226Y-101299500D01*
X173310935Y-101335994D01*
X173310932Y-101335995D01*
X173310931Y-101335996D01*
X173259677Y-101368934D01*
X173201950Y-101406033D01*
X173117118Y-101503937D01*
X173117117Y-101503938D01*
X173063302Y-101621774D01*
X173044867Y-101750000D01*
X169166582Y-101750000D01*
X169122240Y-101710717D01*
X169122238Y-101710716D01*
X169122237Y-101710715D01*
X168982365Y-101637303D01*
X168828986Y-101599500D01*
X168828985Y-101599500D01*
X168671015Y-101599500D01*
X168671014Y-101599500D01*
X168517634Y-101637303D01*
X168377762Y-101710715D01*
X168259516Y-101815471D01*
X168169781Y-101945475D01*
X168169780Y-101945476D01*
X168113762Y-102093181D01*
X168094722Y-102249999D01*
X160379470Y-102249999D01*
X160298049Y-102156033D01*
X160189069Y-102085996D01*
X160189065Y-102085994D01*
X160189064Y-102085994D01*
X160064774Y-102049500D01*
X160064772Y-102049500D01*
X159935228Y-102049500D01*
X159935226Y-102049500D01*
X159810935Y-102085994D01*
X159810932Y-102085995D01*
X159810931Y-102085996D01*
X159759677Y-102118934D01*
X159701950Y-102156033D01*
X159617118Y-102253937D01*
X159617117Y-102253938D01*
X159563302Y-102371774D01*
X159544867Y-102499999D01*
X159544867Y-102500000D01*
X159558125Y-102592215D01*
X159560446Y-102608353D01*
X159550502Y-102677511D01*
X159504748Y-102730315D01*
X159437708Y-102750000D01*
X149624000Y-102750000D01*
X149556961Y-102730315D01*
X149511206Y-102677511D01*
X149500000Y-102626000D01*
X149500000Y-100450735D01*
X155245602Y-100450735D01*
X155264037Y-100578960D01*
X155317852Y-100696796D01*
X155317853Y-100696798D01*
X155402686Y-100794702D01*
X155511666Y-100864739D01*
X155635960Y-100901234D01*
X155635962Y-100901235D01*
X155635963Y-100901235D01*
X155765508Y-100901235D01*
X155765508Y-100901234D01*
X155889804Y-100864739D01*
X155998784Y-100794702D01*
X156083617Y-100696798D01*
X156137432Y-100578961D01*
X156155868Y-100450735D01*
X156137432Y-100322509D01*
X156083617Y-100204672D01*
X155998784Y-100106768D01*
X155889804Y-100036731D01*
X155889800Y-100036729D01*
X155889799Y-100036729D01*
X155765509Y-100000235D01*
X155765507Y-100000235D01*
X155635963Y-100000235D01*
X155635961Y-100000235D01*
X155511670Y-100036729D01*
X155511667Y-100036730D01*
X155511666Y-100036731D01*
X155464616Y-100066968D01*
X155402685Y-100106768D01*
X155317853Y-100204672D01*
X155317852Y-100204673D01*
X155264037Y-100322509D01*
X155245602Y-100450735D01*
X149500000Y-100450735D01*
X149500000Y-100066968D01*
X149519685Y-99999929D01*
X149572489Y-99954174D01*
X149641647Y-99944230D01*
X149658936Y-99947991D01*
X149684508Y-99955500D01*
X149684509Y-99955500D01*
X149815492Y-99955500D01*
X149841064Y-99947991D01*
X149941167Y-99918598D01*
X150051356Y-99847784D01*
X150137131Y-99748794D01*
X150190096Y-99632818D01*
X161902685Y-99632818D01*
X161921120Y-99761043D01*
X161958991Y-99843967D01*
X161974936Y-99878881D01*
X162059769Y-99976785D01*
X162168749Y-100046822D01*
X162254963Y-100072136D01*
X162293043Y-100083317D01*
X162293045Y-100083318D01*
X162293046Y-100083318D01*
X162422591Y-100083318D01*
X162422591Y-100083317D01*
X162546887Y-100046822D01*
X162655867Y-99976785D01*
X162740700Y-99878881D01*
X162794515Y-99761044D01*
X162812951Y-99632818D01*
X162794515Y-99504592D01*
X162740700Y-99386755D01*
X162655867Y-99288851D01*
X162595412Y-99249999D01*
X168094722Y-99249999D01*
X168094722Y-99250000D01*
X168113762Y-99406818D01*
X168169780Y-99554523D01*
X168259517Y-99684530D01*
X168377760Y-99789283D01*
X168377762Y-99789284D01*
X168517634Y-99862696D01*
X168671014Y-99900500D01*
X168671015Y-99900500D01*
X168828985Y-99900500D01*
X168982365Y-99862696D01*
X169010777Y-99847784D01*
X169122240Y-99789283D01*
X169240483Y-99684530D01*
X169330220Y-99554523D01*
X169350898Y-99500000D01*
X173794867Y-99500000D01*
X173813302Y-99628225D01*
X173839016Y-99684530D01*
X173867118Y-99746063D01*
X173951951Y-99843967D01*
X174060931Y-99914004D01*
X174163874Y-99944230D01*
X174185225Y-99950499D01*
X174185227Y-99950500D01*
X174185228Y-99950500D01*
X174314773Y-99950500D01*
X174314773Y-99950499D01*
X174439069Y-99914004D01*
X174548049Y-99843967D01*
X174632882Y-99746063D01*
X174686697Y-99628226D01*
X174705133Y-99500000D01*
X174686697Y-99371774D01*
X174655766Y-99304045D01*
X174645822Y-99234886D01*
X174674847Y-99171330D01*
X174701519Y-99148218D01*
X174773717Y-99101820D01*
X174857911Y-99004652D01*
X174916689Y-98966878D01*
X174986559Y-98966878D01*
X175039306Y-98998174D01*
X175044080Y-99002948D01*
X175044084Y-99002951D01*
X175166998Y-99085080D01*
X175167011Y-99085087D01*
X175303582Y-99141656D01*
X175303587Y-99141658D01*
X175303591Y-99141658D01*
X175303592Y-99141659D01*
X175448579Y-99170500D01*
X175989230Y-99170500D01*
X176056269Y-99190185D01*
X176102024Y-99242989D01*
X176111968Y-99312147D01*
X176082943Y-99375703D01*
X176074655Y-99383511D01*
X176074882Y-99383738D01*
X175961987Y-99496632D01*
X175961985Y-99496635D01*
X175886219Y-99627863D01*
X175850534Y-99761043D01*
X175847000Y-99774234D01*
X175847000Y-99925766D01*
X175854612Y-99954174D01*
X175886219Y-100072136D01*
X175906214Y-100106768D01*
X175961985Y-100203365D01*
X176069135Y-100310515D01*
X176200365Y-100386281D01*
X176346734Y-100425500D01*
X176346736Y-100425500D01*
X176498264Y-100425500D01*
X176498266Y-100425500D01*
X176644635Y-100386281D01*
X176775865Y-100310515D01*
X176883015Y-100203365D01*
X176958781Y-100072135D01*
X176998000Y-99925766D01*
X176998000Y-99774234D01*
X176958781Y-99627865D01*
X176883015Y-99496635D01*
X176775865Y-99389485D01*
X176675474Y-99331524D01*
X176645749Y-99314362D01*
X176597534Y-99263794D01*
X176584312Y-99195187D01*
X176610280Y-99130323D01*
X176660297Y-99092414D01*
X176677995Y-99085084D01*
X176800916Y-99002951D01*
X176905451Y-98898416D01*
X176987584Y-98775495D01*
X177044158Y-98638913D01*
X177054684Y-98585996D01*
X177073000Y-98493920D01*
X179051999Y-98493920D01*
X179080840Y-98638907D01*
X179080843Y-98638917D01*
X179137412Y-98775488D01*
X179137419Y-98775501D01*
X179219548Y-98898415D01*
X179219551Y-98898419D01*
X179324080Y-99002948D01*
X179324084Y-99002951D01*
X179446998Y-99085080D01*
X179447011Y-99085087D01*
X179583582Y-99141656D01*
X179583587Y-99141658D01*
X179583591Y-99141658D01*
X179583592Y-99141659D01*
X179728579Y-99170500D01*
X179728582Y-99170500D01*
X180476420Y-99170500D01*
X180588439Y-99148217D01*
X180621413Y-99141658D01*
X180757995Y-99085084D01*
X180880916Y-99002951D01*
X180985451Y-98898416D01*
X181067584Y-98775495D01*
X181124158Y-98638913D01*
X181134684Y-98585996D01*
X181153000Y-98493920D01*
X181153000Y-98346079D01*
X181124159Y-98201092D01*
X181124158Y-98201091D01*
X181124158Y-98201087D01*
X181103915Y-98152215D01*
X181067587Y-98064511D01*
X181067580Y-98064498D01*
X180985451Y-97941584D01*
X180985448Y-97941580D01*
X180880919Y-97837051D01*
X180880915Y-97837048D01*
X180758001Y-97754919D01*
X180757988Y-97754912D01*
X180621417Y-97698343D01*
X180621407Y-97698340D01*
X180476420Y-97669500D01*
X180476418Y-97669500D01*
X179728582Y-97669500D01*
X179728580Y-97669500D01*
X179583592Y-97698340D01*
X179583582Y-97698343D01*
X179447011Y-97754912D01*
X179446998Y-97754919D01*
X179324084Y-97837048D01*
X179324080Y-97837051D01*
X179219551Y-97941580D01*
X179219548Y-97941584D01*
X179137419Y-98064498D01*
X179137412Y-98064511D01*
X179080843Y-98201082D01*
X179080840Y-98201092D01*
X179052000Y-98346079D01*
X179052000Y-98346082D01*
X179052000Y-98493918D01*
X179052000Y-98493920D01*
X179051999Y-98493920D01*
X177073000Y-98493920D01*
X177073000Y-98346079D01*
X177044159Y-98201092D01*
X177044158Y-98201091D01*
X177044158Y-98201087D01*
X177023915Y-98152215D01*
X176987587Y-98064511D01*
X176987580Y-98064498D01*
X176905451Y-97941584D01*
X176905448Y-97941580D01*
X176800919Y-97837051D01*
X176800915Y-97837048D01*
X176678001Y-97754919D01*
X176677988Y-97754912D01*
X176541417Y-97698343D01*
X176541407Y-97698340D01*
X176396420Y-97669500D01*
X176396418Y-97669500D01*
X175448582Y-97669500D01*
X175448580Y-97669500D01*
X175303592Y-97698340D01*
X175303582Y-97698343D01*
X175167011Y-97754912D01*
X175166998Y-97754919D01*
X175044084Y-97837048D01*
X175044080Y-97837051D01*
X174939551Y-97941580D01*
X174939548Y-97941584D01*
X174857419Y-98064498D01*
X174857412Y-98064511D01*
X174800843Y-98201082D01*
X174800840Y-98201091D01*
X174792953Y-98240744D01*
X174760567Y-98302654D01*
X174699851Y-98337228D01*
X174636403Y-98335529D01*
X174540440Y-98307353D01*
X174410896Y-98307353D01*
X174410894Y-98307353D01*
X174286603Y-98343847D01*
X174286600Y-98343848D01*
X174286599Y-98343849D01*
X174235345Y-98376787D01*
X174177618Y-98413886D01*
X174092786Y-98511790D01*
X174092785Y-98511791D01*
X174038970Y-98629627D01*
X174020535Y-98757853D01*
X174038970Y-98886078D01*
X174046153Y-98901805D01*
X174066097Y-98945477D01*
X174069902Y-98953807D01*
X174079846Y-99022965D01*
X174050821Y-99086521D01*
X174024148Y-99109634D01*
X173951951Y-99156032D01*
X173867118Y-99253937D01*
X173867117Y-99253938D01*
X173813302Y-99371774D01*
X173794867Y-99500000D01*
X169350898Y-99500000D01*
X169386237Y-99406818D01*
X169405278Y-99250000D01*
X169398717Y-99195960D01*
X169386237Y-99093181D01*
X169350898Y-99000000D01*
X169907367Y-99000000D01*
X169925802Y-99128225D01*
X169978214Y-99242989D01*
X169979618Y-99246063D01*
X170064451Y-99343967D01*
X170173431Y-99414004D01*
X170297725Y-99450499D01*
X170297727Y-99450500D01*
X170297728Y-99450500D01*
X170427273Y-99450500D01*
X170427273Y-99450499D01*
X170551569Y-99414004D01*
X170660549Y-99343967D01*
X170745382Y-99246063D01*
X170799197Y-99128226D01*
X170817633Y-99000000D01*
X170799197Y-98871774D01*
X170745382Y-98753937D01*
X170660549Y-98656033D01*
X170551569Y-98585996D01*
X170551565Y-98585994D01*
X170551564Y-98585994D01*
X170427274Y-98549500D01*
X170427272Y-98549500D01*
X170297728Y-98549500D01*
X170297726Y-98549500D01*
X170173435Y-98585994D01*
X170173432Y-98585995D01*
X170173431Y-98585996D01*
X170122177Y-98618934D01*
X170064450Y-98656033D01*
X169979618Y-98753937D01*
X169979617Y-98753938D01*
X169925802Y-98871774D01*
X169907367Y-99000000D01*
X169350898Y-99000000D01*
X169349197Y-98995516D01*
X169330220Y-98945477D01*
X169240483Y-98815470D01*
X169122240Y-98710717D01*
X169122238Y-98710716D01*
X169122237Y-98710715D01*
X168982365Y-98637303D01*
X168828986Y-98599500D01*
X168828985Y-98599500D01*
X168671015Y-98599500D01*
X168671014Y-98599500D01*
X168517634Y-98637303D01*
X168377762Y-98710715D01*
X168334779Y-98748794D01*
X168263930Y-98811561D01*
X168259516Y-98815471D01*
X168169781Y-98945475D01*
X168169780Y-98945476D01*
X168113762Y-99093181D01*
X168094722Y-99249999D01*
X162595412Y-99249999D01*
X162546887Y-99218814D01*
X162546883Y-99218812D01*
X162546882Y-99218812D01*
X162422592Y-99182318D01*
X162422590Y-99182318D01*
X162293046Y-99182318D01*
X162293044Y-99182318D01*
X162168753Y-99218812D01*
X162168750Y-99218813D01*
X162168749Y-99218814D01*
X162131132Y-99242989D01*
X162059768Y-99288851D01*
X161974936Y-99386755D01*
X161974935Y-99386756D01*
X161921120Y-99504592D01*
X161902685Y-99632818D01*
X150190096Y-99632818D01*
X150191543Y-99629649D01*
X150210184Y-99500000D01*
X150191543Y-99370351D01*
X150138379Y-99253938D01*
X150137133Y-99251209D01*
X150137131Y-99251207D01*
X150137131Y-99251206D01*
X150051356Y-99152216D01*
X149976819Y-99104314D01*
X149931066Y-99051512D01*
X149921122Y-98982354D01*
X149950147Y-98918798D01*
X149976818Y-98895686D01*
X150051356Y-98847784D01*
X150137131Y-98748794D01*
X150191543Y-98629649D01*
X150210184Y-98500000D01*
X150191543Y-98370351D01*
X150158160Y-98297254D01*
X150137133Y-98251209D01*
X150137131Y-98251207D01*
X150137131Y-98251206D01*
X150051356Y-98152216D01*
X149941167Y-98081402D01*
X149841064Y-98052009D01*
X149815492Y-98044500D01*
X149815491Y-98044500D01*
X149684509Y-98044500D01*
X149684508Y-98044500D01*
X149658933Y-98052009D01*
X149589063Y-98052007D01*
X149530286Y-98014232D01*
X149501262Y-97950676D01*
X149500000Y-97933031D01*
X149500000Y-97000000D01*
X153769867Y-97000000D01*
X153788302Y-97128225D01*
X153819608Y-97196774D01*
X153842118Y-97246063D01*
X153926951Y-97343967D01*
X154035931Y-97414004D01*
X154160225Y-97450499D01*
X154160227Y-97450500D01*
X154160228Y-97450500D01*
X154289773Y-97450500D01*
X154289773Y-97450499D01*
X154414069Y-97414004D01*
X154523049Y-97343967D01*
X154607882Y-97246063D01*
X154661697Y-97128226D01*
X154680133Y-97000000D01*
X154670044Y-96929826D01*
X160974693Y-96929826D01*
X160993128Y-97058051D01*
X161037009Y-97154134D01*
X161046944Y-97175889D01*
X161131777Y-97273793D01*
X161240757Y-97343830D01*
X161241224Y-97343967D01*
X161365051Y-97380325D01*
X161365053Y-97380326D01*
X161365054Y-97380326D01*
X161494599Y-97380326D01*
X161494599Y-97380325D01*
X161618895Y-97343830D01*
X161727875Y-97273793D01*
X161812708Y-97175889D01*
X161866523Y-97058052D01*
X161880194Y-96962965D01*
X161909217Y-96899412D01*
X161967995Y-96861637D01*
X162037864Y-96861636D01*
X162096643Y-96899410D01*
X162115724Y-96929099D01*
X162124044Y-96947317D01*
X162190962Y-97024545D01*
X162208878Y-97045222D01*
X162317858Y-97115259D01*
X162362021Y-97128226D01*
X162442152Y-97151754D01*
X162442154Y-97151755D01*
X162442666Y-97151755D01*
X162443157Y-97151899D01*
X162450932Y-97153017D01*
X162450771Y-97154134D01*
X162509705Y-97171440D01*
X162555460Y-97224244D01*
X162565403Y-97293400D01*
X162561939Y-97317499D01*
X162580374Y-97445724D01*
X162618801Y-97529865D01*
X162634190Y-97563562D01*
X162719023Y-97661466D01*
X162828003Y-97731503D01*
X162907753Y-97754919D01*
X162952297Y-97767998D01*
X162952299Y-97767999D01*
X162952300Y-97767999D01*
X163081845Y-97767999D01*
X163081845Y-97767998D01*
X163206141Y-97731503D01*
X163315121Y-97661466D01*
X163320088Y-97655732D01*
X163378863Y-97617956D01*
X163448733Y-97617952D01*
X163507513Y-97655723D01*
X163507518Y-97655728D01*
X163518988Y-97668966D01*
X163518990Y-97668967D01*
X163627970Y-97739004D01*
X163752264Y-97775499D01*
X163752266Y-97775500D01*
X163752267Y-97775500D01*
X163881812Y-97775500D01*
X163881812Y-97775499D01*
X164006108Y-97739004D01*
X164115088Y-97668967D01*
X164199921Y-97571063D01*
X164253736Y-97453226D01*
X164272172Y-97325000D01*
X164253736Y-97196774D01*
X164199921Y-97078937D01*
X164115088Y-96981033D01*
X164006108Y-96910996D01*
X164006104Y-96910994D01*
X164006103Y-96910994D01*
X163881813Y-96874500D01*
X163881811Y-96874500D01*
X163752267Y-96874500D01*
X163752265Y-96874500D01*
X163627974Y-96910994D01*
X163627971Y-96910995D01*
X163627970Y-96910996D01*
X163599801Y-96929099D01*
X163518987Y-96981034D01*
X163514016Y-96986772D01*
X163455237Y-97024545D01*
X163385367Y-97024543D01*
X163326592Y-96986769D01*
X163315123Y-96973534D01*
X163315122Y-96973533D01*
X163315121Y-96973532D01*
X163206141Y-96903495D01*
X163206137Y-96903493D01*
X163206136Y-96903493D01*
X163081846Y-96866999D01*
X163081844Y-96866999D01*
X163081333Y-96866999D01*
X163080841Y-96866854D01*
X163073067Y-96865737D01*
X163073227Y-96864619D01*
X163014294Y-96847314D01*
X162968539Y-96794510D01*
X162962139Y-96750000D01*
X165294867Y-96750000D01*
X165313302Y-96878225D01*
X165362875Y-96986772D01*
X165367118Y-96996063D01*
X165451951Y-97093967D01*
X165560931Y-97164004D01*
X165685225Y-97200499D01*
X165685227Y-97200500D01*
X165685228Y-97200500D01*
X165814773Y-97200500D01*
X165814773Y-97200499D01*
X165939069Y-97164004D01*
X166048049Y-97093967D01*
X166132882Y-96996063D01*
X166186697Y-96878226D01*
X166205133Y-96750000D01*
X166186697Y-96621774D01*
X166132882Y-96503937D01*
X166048049Y-96406033D01*
X165939069Y-96335996D01*
X165939065Y-96335994D01*
X165939064Y-96335994D01*
X165814774Y-96299500D01*
X165814772Y-96299500D01*
X165685228Y-96299500D01*
X165685226Y-96299500D01*
X165560935Y-96335994D01*
X165560932Y-96335995D01*
X165560931Y-96335996D01*
X165527800Y-96357288D01*
X165451950Y-96406033D01*
X165367118Y-96503937D01*
X165367117Y-96503938D01*
X165313302Y-96621774D01*
X165294867Y-96750000D01*
X162962139Y-96750000D01*
X162958595Y-96725352D01*
X162962060Y-96701255D01*
X162943624Y-96573029D01*
X162889809Y-96455192D01*
X162804976Y-96357288D01*
X162695996Y-96287251D01*
X162695992Y-96287249D01*
X162695991Y-96287249D01*
X162571701Y-96250755D01*
X162571699Y-96250755D01*
X162442155Y-96250755D01*
X162442153Y-96250755D01*
X162317862Y-96287249D01*
X162317859Y-96287250D01*
X162317858Y-96287251D01*
X162266604Y-96320189D01*
X162208877Y-96357288D01*
X162124045Y-96455192D01*
X162124044Y-96455193D01*
X162070229Y-96573029D01*
X162056559Y-96668113D01*
X162027534Y-96731669D01*
X161968756Y-96769443D01*
X161898886Y-96769443D01*
X161840108Y-96731669D01*
X161821027Y-96701979D01*
X161812708Y-96683764D01*
X161812708Y-96683763D01*
X161727875Y-96585859D01*
X161618895Y-96515822D01*
X161618891Y-96515820D01*
X161618890Y-96515820D01*
X161494600Y-96479326D01*
X161494598Y-96479326D01*
X161365054Y-96479326D01*
X161365052Y-96479326D01*
X161240761Y-96515820D01*
X161240758Y-96515821D01*
X161240757Y-96515822D01*
X161189503Y-96548760D01*
X161131776Y-96585859D01*
X161046944Y-96683763D01*
X161046943Y-96683764D01*
X160993128Y-96801600D01*
X160974693Y-96929826D01*
X154670044Y-96929826D01*
X154661697Y-96871774D01*
X154607882Y-96753937D01*
X154523049Y-96656033D01*
X154414069Y-96585996D01*
X154414065Y-96585994D01*
X154414064Y-96585994D01*
X154289774Y-96549500D01*
X154289772Y-96549500D01*
X154160228Y-96549500D01*
X154160226Y-96549500D01*
X154035935Y-96585994D01*
X154035932Y-96585995D01*
X154035931Y-96585996D01*
X153984677Y-96618934D01*
X153926950Y-96656033D01*
X153842118Y-96753937D01*
X153842117Y-96753938D01*
X153788302Y-96871774D01*
X153769867Y-97000000D01*
X149500000Y-97000000D01*
X149500000Y-95250000D01*
X166044867Y-95250000D01*
X166063302Y-95378225D01*
X166117117Y-95496061D01*
X166117118Y-95496063D01*
X166201951Y-95593967D01*
X166310931Y-95664004D01*
X166435225Y-95700499D01*
X166435227Y-95700500D01*
X166435228Y-95700500D01*
X166564773Y-95700500D01*
X166564773Y-95700499D01*
X166689069Y-95664004D01*
X166798049Y-95593967D01*
X166882882Y-95496063D01*
X166936697Y-95378226D01*
X166955133Y-95250000D01*
X166936697Y-95121774D01*
X166882882Y-95003937D01*
X166798049Y-94906033D01*
X166689069Y-94835996D01*
X166689065Y-94835994D01*
X166689064Y-94835994D01*
X166564774Y-94799500D01*
X166564772Y-94799500D01*
X166435228Y-94799500D01*
X166435226Y-94799500D01*
X166310935Y-94835994D01*
X166310932Y-94835995D01*
X166310931Y-94835996D01*
X166259677Y-94868934D01*
X166201950Y-94906033D01*
X166117118Y-95003937D01*
X166117117Y-95003938D01*
X166063302Y-95121774D01*
X166044867Y-95250000D01*
X149500000Y-95250000D01*
X149500000Y-94250000D01*
X155519867Y-94250000D01*
X155538302Y-94378225D01*
X155554642Y-94414004D01*
X155592118Y-94496063D01*
X155676951Y-94593967D01*
X155785931Y-94664004D01*
X155910225Y-94700499D01*
X155910227Y-94700500D01*
X155910228Y-94700500D01*
X156039773Y-94700500D01*
X156039773Y-94700499D01*
X156164069Y-94664004D01*
X156273049Y-94593967D01*
X156357882Y-94496063D01*
X156411697Y-94378226D01*
X156430133Y-94250000D01*
X156411697Y-94121774D01*
X156357882Y-94003937D01*
X156273049Y-93906033D01*
X156164069Y-93835996D01*
X156164065Y-93835994D01*
X156164064Y-93835994D01*
X156039774Y-93799500D01*
X156039772Y-93799500D01*
X155910228Y-93799500D01*
X155910226Y-93799500D01*
X155785935Y-93835994D01*
X155785932Y-93835995D01*
X155785931Y-93835996D01*
X155734677Y-93868934D01*
X155676950Y-93906033D01*
X155592118Y-94003937D01*
X155592117Y-94003938D01*
X155538302Y-94121774D01*
X155519867Y-94250000D01*
X149500000Y-94250000D01*
X149500000Y-92750000D01*
X155519867Y-92750000D01*
X155538302Y-92878225D01*
X155592117Y-92996061D01*
X155592118Y-92996063D01*
X155676951Y-93093967D01*
X155785931Y-93164004D01*
X155910225Y-93200499D01*
X155910227Y-93200500D01*
X155910228Y-93200500D01*
X156039773Y-93200500D01*
X156039773Y-93200499D01*
X156164069Y-93164004D01*
X156273049Y-93093967D01*
X156357882Y-92996063D01*
X156411697Y-92878226D01*
X156430133Y-92750000D01*
X156411697Y-92621774D01*
X156357882Y-92503937D01*
X156273049Y-92406033D01*
X156164069Y-92335996D01*
X156164065Y-92335994D01*
X156164064Y-92335994D01*
X156039774Y-92299500D01*
X156039772Y-92299500D01*
X155910228Y-92299500D01*
X155910226Y-92299500D01*
X155785935Y-92335994D01*
X155785932Y-92335995D01*
X155785931Y-92335996D01*
X155734677Y-92368934D01*
X155676950Y-92406033D01*
X155592118Y-92503937D01*
X155592117Y-92503938D01*
X155538302Y-92621774D01*
X155519867Y-92750000D01*
X149500000Y-92750000D01*
X149500000Y-92250000D01*
X161294867Y-92250000D01*
X161313302Y-92378225D01*
X161326002Y-92406033D01*
X161367118Y-92496063D01*
X161373941Y-92503937D01*
X161408480Y-92543798D01*
X161437504Y-92607354D01*
X161427560Y-92676513D01*
X161408480Y-92706202D01*
X161367118Y-92753937D01*
X161367117Y-92753938D01*
X161313302Y-92871774D01*
X161294867Y-93000000D01*
X161313302Y-93128225D01*
X161329642Y-93164004D01*
X161367118Y-93246063D01*
X161375000Y-93255159D01*
X161408480Y-93293798D01*
X161437504Y-93357354D01*
X161427560Y-93426513D01*
X161408480Y-93456202D01*
X161367118Y-93503937D01*
X161367117Y-93503938D01*
X161313302Y-93621774D01*
X161294867Y-93750000D01*
X161313302Y-93878225D01*
X161326002Y-93906033D01*
X161367118Y-93996063D01*
X161451951Y-94093967D01*
X161560931Y-94164004D01*
X161685225Y-94200499D01*
X161685227Y-94200500D01*
X161685228Y-94200500D01*
X161814773Y-94200500D01*
X161814773Y-94200499D01*
X161939069Y-94164004D01*
X162048049Y-94093967D01*
X162048049Y-94093966D01*
X162055510Y-94089172D01*
X162057065Y-94091592D01*
X162107347Y-94068627D01*
X162176506Y-94078567D01*
X162194056Y-94089846D01*
X162194490Y-94089172D01*
X162201950Y-94093966D01*
X162201951Y-94093967D01*
X162310931Y-94164004D01*
X162435225Y-94200499D01*
X162435227Y-94200500D01*
X162435228Y-94200500D01*
X162564773Y-94200500D01*
X162564773Y-94200499D01*
X162689069Y-94164004D01*
X162798049Y-94093967D01*
X162798049Y-94093966D01*
X162805510Y-94089172D01*
X162807065Y-94091592D01*
X162857347Y-94068627D01*
X162926506Y-94078567D01*
X162944056Y-94089846D01*
X162944490Y-94089172D01*
X162951950Y-94093966D01*
X162951951Y-94093967D01*
X163060931Y-94164004D01*
X163185225Y-94200499D01*
X163185227Y-94200500D01*
X163185228Y-94200500D01*
X163314773Y-94200500D01*
X163314773Y-94200499D01*
X163439069Y-94164004D01*
X163548049Y-94093967D01*
X163629471Y-94000000D01*
X165294867Y-94000000D01*
X165313302Y-94128225D01*
X165329642Y-94164004D01*
X165367118Y-94246063D01*
X165451951Y-94343967D01*
X165560931Y-94414004D01*
X165685225Y-94450499D01*
X165685227Y-94450500D01*
X165685228Y-94450500D01*
X165814773Y-94450500D01*
X165814773Y-94450499D01*
X165939069Y-94414004D01*
X166048049Y-94343967D01*
X166132882Y-94246063D01*
X166186697Y-94128226D01*
X166205133Y-94000000D01*
X166186697Y-93871774D01*
X166132882Y-93753937D01*
X166048049Y-93656033D01*
X165939069Y-93585996D01*
X165939065Y-93585994D01*
X165939064Y-93585994D01*
X165814774Y-93549500D01*
X165814772Y-93549500D01*
X165685228Y-93549500D01*
X165685226Y-93549500D01*
X165560935Y-93585994D01*
X165560932Y-93585995D01*
X165560931Y-93585996D01*
X165509677Y-93618934D01*
X165451950Y-93656033D01*
X165367118Y-93753937D01*
X165367117Y-93753938D01*
X165313302Y-93871774D01*
X165294867Y-94000000D01*
X163629471Y-94000000D01*
X163632882Y-93996063D01*
X163686697Y-93878226D01*
X163705133Y-93750000D01*
X163686697Y-93621774D01*
X163632882Y-93503937D01*
X163591519Y-93456200D01*
X163562495Y-93392647D01*
X163572439Y-93323489D01*
X163591517Y-93293800D01*
X163632882Y-93246063D01*
X163686697Y-93128226D01*
X163705133Y-93000000D01*
X163686697Y-92871774D01*
X163632882Y-92753937D01*
X163629471Y-92750000D01*
X168619867Y-92750000D01*
X168638302Y-92878225D01*
X168692117Y-92996061D01*
X168692118Y-92996063D01*
X168776951Y-93093967D01*
X168885931Y-93164004D01*
X169010225Y-93200499D01*
X169010227Y-93200500D01*
X169010228Y-93200500D01*
X169139773Y-93200500D01*
X169139773Y-93200499D01*
X169264069Y-93164004D01*
X169373049Y-93093967D01*
X169457882Y-92996063D01*
X169511697Y-92878226D01*
X169530133Y-92750000D01*
X178044867Y-92750000D01*
X178063302Y-92878225D01*
X178117117Y-92996061D01*
X178117118Y-92996063D01*
X178201951Y-93093967D01*
X178310931Y-93164004D01*
X178435225Y-93200499D01*
X178435227Y-93200500D01*
X178435228Y-93200500D01*
X178564773Y-93200500D01*
X178564773Y-93200499D01*
X178689069Y-93164004D01*
X178798049Y-93093967D01*
X178882882Y-92996063D01*
X178936697Y-92878226D01*
X178955133Y-92750000D01*
X180544867Y-92750000D01*
X180563302Y-92878225D01*
X180617117Y-92996061D01*
X180617118Y-92996063D01*
X180701951Y-93093967D01*
X180810931Y-93164004D01*
X180935225Y-93200499D01*
X180935227Y-93200500D01*
X180935228Y-93200500D01*
X181064773Y-93200500D01*
X181064773Y-93200499D01*
X181189069Y-93164004D01*
X181298049Y-93093967D01*
X181382882Y-92996063D01*
X181436697Y-92878226D01*
X181455133Y-92750000D01*
X181436697Y-92621774D01*
X181382882Y-92503937D01*
X181298049Y-92406033D01*
X181189069Y-92335996D01*
X181189065Y-92335994D01*
X181189064Y-92335994D01*
X181064774Y-92299500D01*
X181064772Y-92299500D01*
X180935228Y-92299500D01*
X180935226Y-92299500D01*
X180810935Y-92335994D01*
X180810932Y-92335995D01*
X180810931Y-92335996D01*
X180759677Y-92368934D01*
X180701950Y-92406033D01*
X180617118Y-92503937D01*
X180617117Y-92503938D01*
X180563302Y-92621774D01*
X180544867Y-92750000D01*
X178955133Y-92750000D01*
X178936697Y-92621774D01*
X178882882Y-92503937D01*
X178798049Y-92406033D01*
X178689069Y-92335996D01*
X178689065Y-92335994D01*
X178689064Y-92335994D01*
X178564774Y-92299500D01*
X178564772Y-92299500D01*
X178435228Y-92299500D01*
X178435226Y-92299500D01*
X178310935Y-92335994D01*
X178310932Y-92335995D01*
X178310931Y-92335996D01*
X178259677Y-92368934D01*
X178201950Y-92406033D01*
X178117118Y-92503937D01*
X178117117Y-92503938D01*
X178063302Y-92621774D01*
X178044867Y-92750000D01*
X169530133Y-92750000D01*
X169511697Y-92621774D01*
X169457882Y-92503937D01*
X169373049Y-92406033D01*
X169264069Y-92335996D01*
X169264065Y-92335994D01*
X169264064Y-92335994D01*
X169139774Y-92299500D01*
X169139772Y-92299500D01*
X169010228Y-92299500D01*
X169010226Y-92299500D01*
X168885935Y-92335994D01*
X168885932Y-92335995D01*
X168885931Y-92335996D01*
X168834677Y-92368934D01*
X168776950Y-92406033D01*
X168692118Y-92503937D01*
X168692117Y-92503938D01*
X168638302Y-92621774D01*
X168619867Y-92750000D01*
X163629471Y-92750000D01*
X163591519Y-92706200D01*
X163562495Y-92642647D01*
X163572439Y-92573489D01*
X163591517Y-92543800D01*
X163632882Y-92496063D01*
X163686697Y-92378226D01*
X163705133Y-92250000D01*
X163686697Y-92121774D01*
X163632882Y-92003937D01*
X163548049Y-91906033D01*
X163439069Y-91835996D01*
X163439065Y-91835994D01*
X163439064Y-91835994D01*
X163314774Y-91799500D01*
X163314772Y-91799500D01*
X163185228Y-91799500D01*
X163185226Y-91799500D01*
X163060935Y-91835994D01*
X163060932Y-91835995D01*
X163060931Y-91835996D01*
X162951951Y-91906033D01*
X162944490Y-91910828D01*
X162942936Y-91908410D01*
X162892624Y-91931376D01*
X162823467Y-91921420D01*
X162805941Y-91910156D01*
X162805510Y-91910828D01*
X162798049Y-91906033D01*
X162689069Y-91835996D01*
X162689065Y-91835994D01*
X162689064Y-91835994D01*
X162564774Y-91799500D01*
X162564772Y-91799500D01*
X162435228Y-91799500D01*
X162435226Y-91799500D01*
X162310935Y-91835994D01*
X162310932Y-91835995D01*
X162310931Y-91835996D01*
X162201951Y-91906033D01*
X162194490Y-91910828D01*
X162192936Y-91908410D01*
X162142624Y-91931376D01*
X162073467Y-91921420D01*
X162055941Y-91910156D01*
X162055510Y-91910828D01*
X162048049Y-91906033D01*
X161939069Y-91835996D01*
X161939065Y-91835994D01*
X161939064Y-91835994D01*
X161814774Y-91799500D01*
X161814772Y-91799500D01*
X161685228Y-91799500D01*
X161685226Y-91799500D01*
X161560935Y-91835994D01*
X161560932Y-91835995D01*
X161560931Y-91835996D01*
X161509677Y-91868934D01*
X161451950Y-91906033D01*
X161367118Y-92003937D01*
X161367117Y-92003938D01*
X161313302Y-92121774D01*
X161294867Y-92250000D01*
X149500000Y-92250000D01*
X149500000Y-92000000D01*
X142874000Y-92000000D01*
X142806961Y-91980315D01*
X142761206Y-91927511D01*
X142750000Y-91876000D01*
X142750000Y-91500000D01*
X164794867Y-91500000D01*
X164813302Y-91628225D01*
X164829642Y-91664004D01*
X164867118Y-91746063D01*
X164951951Y-91843967D01*
X165060931Y-91914004D01*
X165185225Y-91950499D01*
X165185227Y-91950500D01*
X165185228Y-91950500D01*
X165314773Y-91950500D01*
X165314773Y-91950499D01*
X165439069Y-91914004D01*
X165548049Y-91843967D01*
X165632882Y-91746063D01*
X165686697Y-91628226D01*
X165705133Y-91500000D01*
X165686697Y-91371774D01*
X165632882Y-91253937D01*
X165629471Y-91250000D01*
X168619867Y-91250000D01*
X168638302Y-91378225D01*
X168692117Y-91496061D01*
X168692118Y-91496063D01*
X168776951Y-91593967D01*
X168885931Y-91664004D01*
X169010225Y-91700499D01*
X169010227Y-91700500D01*
X169010228Y-91700500D01*
X169139773Y-91700500D01*
X169139773Y-91700499D01*
X169264069Y-91664004D01*
X169373049Y-91593967D01*
X169457882Y-91496063D01*
X169511697Y-91378226D01*
X169530133Y-91250000D01*
X169511697Y-91121774D01*
X169457882Y-91003937D01*
X169373049Y-90906033D01*
X169264069Y-90835996D01*
X169264065Y-90835994D01*
X169264064Y-90835994D01*
X169139774Y-90799500D01*
X169139772Y-90799500D01*
X169010228Y-90799500D01*
X169010226Y-90799500D01*
X168885935Y-90835994D01*
X168885932Y-90835995D01*
X168885931Y-90835996D01*
X168834677Y-90868934D01*
X168776950Y-90906033D01*
X168692118Y-91003937D01*
X168692117Y-91003938D01*
X168638302Y-91121774D01*
X168619867Y-91250000D01*
X165629471Y-91250000D01*
X165548049Y-91156033D01*
X165439069Y-91085996D01*
X165439065Y-91085994D01*
X165439064Y-91085994D01*
X165314774Y-91049500D01*
X165314772Y-91049500D01*
X165185228Y-91049500D01*
X165185226Y-91049500D01*
X165060935Y-91085994D01*
X165060932Y-91085995D01*
X165060931Y-91085996D01*
X165009677Y-91118934D01*
X164951950Y-91156033D01*
X164867118Y-91253937D01*
X164867117Y-91253938D01*
X164813302Y-91371774D01*
X164794867Y-91500000D01*
X142750000Y-91500000D01*
X142750000Y-90500000D01*
X160044867Y-90500000D01*
X160063302Y-90628225D01*
X160079642Y-90664004D01*
X160117118Y-90746063D01*
X160201951Y-90843967D01*
X160310931Y-90914004D01*
X160435225Y-90950499D01*
X160435227Y-90950500D01*
X160435228Y-90950500D01*
X160564773Y-90950500D01*
X160564773Y-90950499D01*
X160689069Y-90914004D01*
X160798049Y-90843967D01*
X160882882Y-90746063D01*
X160882881Y-90746063D01*
X160885278Y-90743298D01*
X160944056Y-90705523D01*
X160978992Y-90700500D01*
X161064773Y-90700500D01*
X161064773Y-90700499D01*
X161189069Y-90664004D01*
X161298049Y-90593967D01*
X161382882Y-90496063D01*
X161436697Y-90378226D01*
X161455133Y-90250000D01*
X161436697Y-90121774D01*
X161382882Y-90003937D01*
X161298049Y-89906033D01*
X161189069Y-89835996D01*
X161189065Y-89835994D01*
X161189064Y-89835994D01*
X161064774Y-89799500D01*
X161064772Y-89799500D01*
X160935228Y-89799500D01*
X160935226Y-89799500D01*
X160810935Y-89835994D01*
X160810932Y-89835995D01*
X160810931Y-89835996D01*
X160759677Y-89868934D01*
X160701950Y-89906033D01*
X160614722Y-90006702D01*
X160555944Y-90044477D01*
X160521008Y-90049500D01*
X160435226Y-90049500D01*
X160310935Y-90085994D01*
X160310932Y-90085995D01*
X160310931Y-90085996D01*
X160259677Y-90118934D01*
X160201950Y-90156033D01*
X160117118Y-90253937D01*
X160117117Y-90253938D01*
X160063302Y-90371774D01*
X160044867Y-90500000D01*
X142750000Y-90500000D01*
X142750000Y-89000000D01*
X144044867Y-89000000D01*
X144063302Y-89128225D01*
X144117117Y-89246061D01*
X144117118Y-89246063D01*
X144201951Y-89343967D01*
X144310931Y-89414004D01*
X144435225Y-89450499D01*
X144435227Y-89450500D01*
X144435228Y-89450500D01*
X144564773Y-89450500D01*
X144564773Y-89450499D01*
X144689069Y-89414004D01*
X144798049Y-89343967D01*
X144882882Y-89246063D01*
X144936697Y-89128226D01*
X144955133Y-89000000D01*
X144936697Y-88871774D01*
X144882882Y-88753937D01*
X144798049Y-88656033D01*
X144689069Y-88585996D01*
X144689065Y-88585994D01*
X144689064Y-88585994D01*
X144564774Y-88549500D01*
X144564772Y-88549500D01*
X144435228Y-88549500D01*
X144435226Y-88549500D01*
X144310935Y-88585994D01*
X144310932Y-88585995D01*
X144310931Y-88585996D01*
X144259677Y-88618934D01*
X144201950Y-88656033D01*
X144117118Y-88753937D01*
X144117117Y-88753938D01*
X144063302Y-88871774D01*
X144044867Y-89000000D01*
X142750000Y-89000000D01*
X142750000Y-87036757D01*
X142769685Y-86969718D01*
X142822489Y-86923963D01*
X142891647Y-86914019D01*
X142908935Y-86917780D01*
X142935227Y-86925500D01*
X142935228Y-86925500D01*
X143064773Y-86925500D01*
X143064773Y-86925499D01*
X143189069Y-86889004D01*
X143298049Y-86818967D01*
X143382882Y-86721063D01*
X143436697Y-86603226D01*
X143455133Y-86475000D01*
X155794867Y-86475000D01*
X155813302Y-86603225D01*
X155867117Y-86721061D01*
X155867118Y-86721063D01*
X155951951Y-86818967D01*
X156060931Y-86889004D01*
X156185225Y-86925499D01*
X156185227Y-86925500D01*
X156185228Y-86925500D01*
X156314773Y-86925500D01*
X156314773Y-86925499D01*
X156439069Y-86889004D01*
X156548049Y-86818967D01*
X156632882Y-86721063D01*
X156686697Y-86603226D01*
X156705133Y-86475000D01*
X157544867Y-86475000D01*
X157563302Y-86603225D01*
X157617117Y-86721061D01*
X157617118Y-86721063D01*
X157701951Y-86818967D01*
X157810931Y-86889004D01*
X157935225Y-86925499D01*
X157935227Y-86925500D01*
X157935228Y-86925500D01*
X158064773Y-86925500D01*
X158064773Y-86925499D01*
X158189069Y-86889004D01*
X158298049Y-86818967D01*
X158382882Y-86721063D01*
X158436697Y-86603226D01*
X158455133Y-86475000D01*
X158436697Y-86346774D01*
X158382882Y-86228937D01*
X158298049Y-86131033D01*
X158189069Y-86060996D01*
X158189065Y-86060994D01*
X158189064Y-86060994D01*
X158064774Y-86024500D01*
X158064772Y-86024500D01*
X157935228Y-86024500D01*
X157935226Y-86024500D01*
X157810935Y-86060994D01*
X157810932Y-86060995D01*
X157810931Y-86060996D01*
X157759677Y-86093934D01*
X157701950Y-86131033D01*
X157617118Y-86228937D01*
X157617117Y-86228938D01*
X157563302Y-86346774D01*
X157544867Y-86475000D01*
X156705133Y-86475000D01*
X156686697Y-86346774D01*
X156632882Y-86228937D01*
X156548049Y-86131033D01*
X156439069Y-86060996D01*
X156439065Y-86060994D01*
X156439064Y-86060994D01*
X156314774Y-86024500D01*
X156314772Y-86024500D01*
X156185228Y-86024500D01*
X156185226Y-86024500D01*
X156060935Y-86060994D01*
X156060932Y-86060995D01*
X156060931Y-86060996D01*
X156009677Y-86093934D01*
X155951950Y-86131033D01*
X155867118Y-86228937D01*
X155867117Y-86228938D01*
X155813302Y-86346774D01*
X155794867Y-86475000D01*
X143455133Y-86475000D01*
X143436697Y-86346774D01*
X143382882Y-86228937D01*
X143298049Y-86131033D01*
X143189069Y-86060996D01*
X143189065Y-86060994D01*
X143189064Y-86060994D01*
X143064774Y-86024500D01*
X143064772Y-86024500D01*
X142935228Y-86024500D01*
X142935226Y-86024500D01*
X142908931Y-86032220D01*
X142839062Y-86032218D01*
X142780285Y-85994442D01*
X142751262Y-85930886D01*
X142750000Y-85913242D01*
X142750000Y-85750000D01*
X144044867Y-85750000D01*
X144063302Y-85878225D01*
X144070375Y-85893712D01*
X144117118Y-85996063D01*
X144201951Y-86093967D01*
X144310931Y-86164004D01*
X144435225Y-86200499D01*
X144435227Y-86200500D01*
X144435228Y-86200500D01*
X144564773Y-86200500D01*
X144564773Y-86200499D01*
X144689069Y-86164004D01*
X144798049Y-86093967D01*
X144882882Y-85996063D01*
X144936697Y-85878226D01*
X144955133Y-85750000D01*
X163694750Y-85750000D01*
X163711631Y-85878225D01*
X163713670Y-85893708D01*
X163713671Y-85893712D01*
X163769137Y-86027622D01*
X163769138Y-86027624D01*
X163769139Y-86027625D01*
X163857379Y-86142621D01*
X163972375Y-86230861D01*
X164106291Y-86286330D01*
X164233280Y-86303048D01*
X164249999Y-86305250D01*
X164250000Y-86305250D01*
X164250001Y-86305250D01*
X164264977Y-86303278D01*
X164393709Y-86286330D01*
X164527625Y-86230861D01*
X164642621Y-86142621D01*
X164730861Y-86027625D01*
X164786330Y-85893709D01*
X164805250Y-85750000D01*
X164786330Y-85606291D01*
X164730861Y-85472375D01*
X164642621Y-85357379D01*
X164527625Y-85269139D01*
X164527624Y-85269138D01*
X164527622Y-85269137D01*
X164393712Y-85213671D01*
X164393710Y-85213670D01*
X164393709Y-85213670D01*
X164321854Y-85204210D01*
X164250001Y-85194750D01*
X164249999Y-85194750D01*
X164106291Y-85213670D01*
X164106287Y-85213671D01*
X163972377Y-85269137D01*
X163857379Y-85357379D01*
X163769137Y-85472377D01*
X163713671Y-85606287D01*
X163713670Y-85606291D01*
X163694750Y-85750000D01*
X144955133Y-85750000D01*
X144936697Y-85621774D01*
X144882882Y-85503937D01*
X144798049Y-85406033D01*
X144689069Y-85335996D01*
X144689065Y-85335994D01*
X144689064Y-85335994D01*
X144564774Y-85299500D01*
X144564772Y-85299500D01*
X144435228Y-85299500D01*
X144435226Y-85299500D01*
X144310935Y-85335994D01*
X144310932Y-85335995D01*
X144310931Y-85335996D01*
X144259677Y-85368934D01*
X144201950Y-85406033D01*
X144117118Y-85503937D01*
X144117117Y-85503938D01*
X144063302Y-85621774D01*
X144044867Y-85750000D01*
X142750000Y-85750000D01*
X142750000Y-83250000D01*
X152544867Y-83250000D01*
X152563302Y-83378225D01*
X152579642Y-83414004D01*
X152617118Y-83496063D01*
X152701951Y-83593967D01*
X152810931Y-83664004D01*
X152935225Y-83700499D01*
X152935227Y-83700500D01*
X152935228Y-83700500D01*
X153064773Y-83700500D01*
X153064773Y-83700499D01*
X153189069Y-83664004D01*
X153282962Y-83603662D01*
X153350001Y-83583979D01*
X153417037Y-83603662D01*
X153510931Y-83664004D01*
X153635225Y-83700499D01*
X153635227Y-83700500D01*
X153635228Y-83700500D01*
X153764773Y-83700500D01*
X153764773Y-83700499D01*
X153889069Y-83664004D01*
X153998049Y-83593967D01*
X154006284Y-83584462D01*
X154065061Y-83546686D01*
X154134930Y-83546684D01*
X154193710Y-83584456D01*
X154193716Y-83584463D01*
X154201949Y-83593966D01*
X154201951Y-83593967D01*
X154310931Y-83664004D01*
X154435225Y-83700499D01*
X154435227Y-83700500D01*
X154435228Y-83700500D01*
X154564773Y-83700500D01*
X154564773Y-83700499D01*
X154689069Y-83664004D01*
X154798049Y-83593967D01*
X154882882Y-83496063D01*
X154936697Y-83378226D01*
X154955133Y-83250000D01*
X154936697Y-83121774D01*
X154882882Y-83003937D01*
X154879471Y-83000000D01*
X174944867Y-83000000D01*
X174963302Y-83128225D01*
X175017117Y-83246061D01*
X175017118Y-83246063D01*
X175101951Y-83343967D01*
X175210931Y-83414004D01*
X175335225Y-83450499D01*
X175335227Y-83450500D01*
X175335228Y-83450500D01*
X175464773Y-83450500D01*
X175464773Y-83450499D01*
X175589069Y-83414004D01*
X175698049Y-83343967D01*
X175782882Y-83246063D01*
X175836697Y-83128226D01*
X175855133Y-83000000D01*
X175836697Y-82871774D01*
X175782882Y-82753937D01*
X175698049Y-82656033D01*
X175589069Y-82585996D01*
X175589065Y-82585994D01*
X175589064Y-82585994D01*
X175464774Y-82549500D01*
X175464772Y-82549500D01*
X175335228Y-82549500D01*
X175335226Y-82549500D01*
X175210935Y-82585994D01*
X175210932Y-82585995D01*
X175210931Y-82585996D01*
X175159677Y-82618934D01*
X175101950Y-82656033D01*
X175017118Y-82753937D01*
X175017117Y-82753938D01*
X174963302Y-82871774D01*
X174944867Y-83000000D01*
X154879471Y-83000000D01*
X154798049Y-82906033D01*
X154689069Y-82835996D01*
X154689065Y-82835994D01*
X154689064Y-82835994D01*
X154564774Y-82799500D01*
X154564772Y-82799500D01*
X154435228Y-82799500D01*
X154435226Y-82799500D01*
X154310935Y-82835994D01*
X154310932Y-82835995D01*
X154310931Y-82835996D01*
X154269435Y-82862663D01*
X154201948Y-82906034D01*
X154193713Y-82915539D01*
X154134936Y-82953314D01*
X154065066Y-82953314D01*
X154006288Y-82915540D01*
X154006287Y-82915539D01*
X153998051Y-82906034D01*
X153977301Y-82892699D01*
X153889069Y-82835996D01*
X153889065Y-82835994D01*
X153889064Y-82835994D01*
X153764774Y-82799500D01*
X153764772Y-82799500D01*
X153635228Y-82799500D01*
X153635226Y-82799500D01*
X153510933Y-82835994D01*
X153510932Y-82835994D01*
X153417038Y-82896336D01*
X153349999Y-82916020D01*
X153282962Y-82896336D01*
X153189066Y-82835994D01*
X153064774Y-82799500D01*
X153064772Y-82799500D01*
X152935228Y-82799500D01*
X152935226Y-82799500D01*
X152810935Y-82835994D01*
X152810932Y-82835995D01*
X152810931Y-82835996D01*
X152759677Y-82868934D01*
X152701950Y-82906033D01*
X152617118Y-83003937D01*
X152617117Y-83003938D01*
X152563302Y-83121774D01*
X152544867Y-83250000D01*
X142750000Y-83250000D01*
X142750000Y-81712500D01*
X168044867Y-81712500D01*
X168063302Y-81840725D01*
X168117117Y-81958561D01*
X168117118Y-81958563D01*
X168201951Y-82056467D01*
X168310931Y-82126504D01*
X168435225Y-82162999D01*
X168435227Y-82163000D01*
X168435228Y-82163000D01*
X168564773Y-82163000D01*
X168564773Y-82162999D01*
X168689069Y-82126504D01*
X168798049Y-82056467D01*
X168882882Y-81958563D01*
X168936697Y-81840726D01*
X168955133Y-81712500D01*
X168936697Y-81584274D01*
X168882882Y-81466437D01*
X168798049Y-81368533D01*
X168689069Y-81298496D01*
X168689065Y-81298494D01*
X168689064Y-81298494D01*
X168564774Y-81262000D01*
X168564772Y-81262000D01*
X168435228Y-81262000D01*
X168435226Y-81262000D01*
X168310935Y-81298494D01*
X168310932Y-81298495D01*
X168310931Y-81298496D01*
X168259677Y-81331434D01*
X168201950Y-81368533D01*
X168117118Y-81466437D01*
X168117117Y-81466438D01*
X168063302Y-81584274D01*
X168044867Y-81712500D01*
X142750000Y-81712500D01*
X142750000Y-80150000D01*
X161694750Y-80150000D01*
X161707915Y-80250000D01*
X161713670Y-80293708D01*
X161713671Y-80293712D01*
X161769137Y-80427622D01*
X161769138Y-80427624D01*
X161769139Y-80427625D01*
X161857379Y-80542621D01*
X161972375Y-80630861D01*
X162106291Y-80686330D01*
X162233280Y-80703048D01*
X162249999Y-80705250D01*
X162250000Y-80705250D01*
X162250001Y-80705250D01*
X162264977Y-80703278D01*
X162393709Y-80686330D01*
X162527625Y-80630861D01*
X162642621Y-80542621D01*
X162730861Y-80427625D01*
X162786330Y-80293709D01*
X162792085Y-80250000D01*
X169794867Y-80250000D01*
X169813302Y-80378225D01*
X169835863Y-80427625D01*
X169867118Y-80496063D01*
X169951951Y-80593967D01*
X170060931Y-80664004D01*
X170185225Y-80700499D01*
X170185227Y-80700500D01*
X170185228Y-80700500D01*
X170314773Y-80700500D01*
X170314773Y-80700499D01*
X170439069Y-80664004D01*
X170548049Y-80593967D01*
X170632882Y-80496063D01*
X170686697Y-80378226D01*
X170705133Y-80250000D01*
X170686697Y-80121774D01*
X170632882Y-80003937D01*
X170548049Y-79906033D01*
X170439069Y-79835996D01*
X170439065Y-79835994D01*
X170439064Y-79835994D01*
X170314774Y-79799500D01*
X170314772Y-79799500D01*
X170185228Y-79799500D01*
X170185226Y-79799500D01*
X170060935Y-79835994D01*
X170060932Y-79835995D01*
X170060931Y-79835996D01*
X170009677Y-79868934D01*
X169951950Y-79906033D01*
X169867118Y-80003937D01*
X169867117Y-80003938D01*
X169813302Y-80121774D01*
X169794867Y-80250000D01*
X162792085Y-80250000D01*
X162805250Y-80150000D01*
X162786330Y-80006291D01*
X162730861Y-79872375D01*
X162642621Y-79757379D01*
X162527625Y-79669139D01*
X162527624Y-79669138D01*
X162527622Y-79669137D01*
X162393712Y-79613671D01*
X162393710Y-79613670D01*
X162393709Y-79613670D01*
X162321854Y-79604210D01*
X162250001Y-79594750D01*
X162249999Y-79594750D01*
X162106291Y-79613670D01*
X162106287Y-79613671D01*
X161972377Y-79669137D01*
X161857379Y-79757379D01*
X161769137Y-79872377D01*
X161713671Y-80006287D01*
X161713670Y-80006291D01*
X161694750Y-80150000D01*
X142750000Y-80150000D01*
X142750000Y-79374500D01*
X142769685Y-79307461D01*
X142822489Y-79261706D01*
X142874000Y-79250500D01*
X182060500Y-79250500D01*
X182127539Y-79270185D01*
G37*
%TD.AperFunction*%
%TD*%
%TA.AperFunction,Conductor*%
%TO.N,+5V*%
G36*
X141878586Y-79270185D02*
G01*
X141924341Y-79322989D01*
X141935546Y-79373954D01*
X141948685Y-82355608D01*
X141929296Y-82422733D01*
X141876694Y-82468720D01*
X141807580Y-82478968D01*
X141783733Y-82473196D01*
X141759261Y-82464633D01*
X141759249Y-82464630D01*
X141580004Y-82444435D01*
X141579996Y-82444435D01*
X141400750Y-82464630D01*
X141400745Y-82464631D01*
X141230476Y-82524211D01*
X141077737Y-82620184D01*
X140950184Y-82747737D01*
X140854211Y-82900476D01*
X140794631Y-83070745D01*
X140794630Y-83070750D01*
X140774435Y-83249996D01*
X140774435Y-83250003D01*
X140794630Y-83429249D01*
X140794631Y-83429254D01*
X140854211Y-83599523D01*
X140950184Y-83752262D01*
X141077738Y-83879816D01*
X141230478Y-83975789D01*
X141368406Y-84024052D01*
X141400745Y-84035368D01*
X141400750Y-84035369D01*
X141579996Y-84055565D01*
X141580000Y-84055565D01*
X141580004Y-84055565D01*
X141759249Y-84035369D01*
X141759251Y-84035368D01*
X141759255Y-84035368D01*
X141791594Y-84024051D01*
X141861371Y-84020488D01*
X141922000Y-84055215D01*
X141954229Y-84117207D01*
X141956550Y-84140546D01*
X141963042Y-85613625D01*
X141943653Y-85680750D01*
X141891051Y-85726737D01*
X141821937Y-85736985D01*
X141798089Y-85731213D01*
X141679257Y-85689632D01*
X141679249Y-85689630D01*
X141500004Y-85669435D01*
X141499996Y-85669435D01*
X141320750Y-85689630D01*
X141320745Y-85689631D01*
X141150476Y-85749211D01*
X140997737Y-85845184D01*
X140870184Y-85972737D01*
X140774211Y-86125476D01*
X140714631Y-86295745D01*
X140714630Y-86295750D01*
X140694435Y-86474996D01*
X140694435Y-86475003D01*
X140714630Y-86654249D01*
X140714631Y-86654254D01*
X140774211Y-86824523D01*
X140870184Y-86977262D01*
X140997738Y-87104816D01*
X141150478Y-87200789D01*
X141283405Y-87247302D01*
X141320745Y-87260368D01*
X141320750Y-87260369D01*
X141499996Y-87280565D01*
X141500000Y-87280565D01*
X141500004Y-87280565D01*
X141679249Y-87260369D01*
X141679251Y-87260368D01*
X141679255Y-87260368D01*
X141679258Y-87260366D01*
X141679262Y-87260366D01*
X141805663Y-87216136D01*
X141875441Y-87212573D01*
X141936069Y-87247302D01*
X141968297Y-87309295D01*
X141970617Y-87332631D01*
X141999451Y-93875454D01*
X141980062Y-93942579D01*
X141927460Y-93988566D01*
X141875452Y-94000000D01*
X127059500Y-94000000D01*
X126992461Y-93980315D01*
X126946706Y-93927511D01*
X126935500Y-93876000D01*
X126935500Y-89749996D01*
X139944435Y-89749996D01*
X139944435Y-89750003D01*
X139964630Y-89929249D01*
X139964631Y-89929254D01*
X140024211Y-90099523D01*
X140120184Y-90252262D01*
X140247738Y-90379816D01*
X140400478Y-90475789D01*
X140570745Y-90535368D01*
X140570750Y-90535369D01*
X140749996Y-90555565D01*
X140750000Y-90555565D01*
X140750004Y-90555565D01*
X140929249Y-90535369D01*
X140929252Y-90535368D01*
X140929255Y-90535368D01*
X141099522Y-90475789D01*
X141252262Y-90379816D01*
X141379816Y-90252262D01*
X141475789Y-90099522D01*
X141535368Y-89929255D01*
X141555565Y-89750000D01*
X141535368Y-89570745D01*
X141475789Y-89400478D01*
X141379816Y-89247738D01*
X141252262Y-89120184D01*
X141099523Y-89024211D01*
X140929254Y-88964631D01*
X140929249Y-88964630D01*
X140750004Y-88944435D01*
X140749996Y-88944435D01*
X140570750Y-88964630D01*
X140570745Y-88964631D01*
X140400476Y-89024211D01*
X140247737Y-89120184D01*
X140120184Y-89247737D01*
X140024211Y-89400476D01*
X139964631Y-89570745D01*
X139964630Y-89570750D01*
X139944435Y-89749996D01*
X126935500Y-89749996D01*
X126935500Y-79374500D01*
X126955185Y-79307461D01*
X127007989Y-79261706D01*
X127059500Y-79250500D01*
X141811547Y-79250500D01*
X141878586Y-79270185D01*
G37*
%TD.AperFunction*%
%TD*%
M02*
