<?xml version="1.0" encoding="UTF-8"?>
<svg xmlns="http://www.w3.org/2000/svg" width="150.00mm" height="130.00mm" viewBox="0 0 150.00 130.00">
<polygon points="13.0000,5.0000 145.0000,5.0000 145.0000,125.0000 5.0000,125.0000 5.0000,13.0000" fill="none" stroke="black" stroke-width="0.1"/>
<circle cx="20.0000" cy="20.0000" r="4.0750" fill="none" stroke="blue" stroke-width="0.1"/>
<circle cx="20.0000" cy="40.0000" r="4.0750" fill="none" stroke="blue" stroke-width="0.1"/>
<circle cx="20.0000" cy="60.0000" r="4.0750" fill="none" stroke="blue" stroke-width="0.1"/>
<circle cx="20.0000" cy="80.0000" r="4.0750" fill="none" stroke="blue" stroke-width="0.1"/>
<circle cx="20.0000" cy="100.0000" r="4.0750" fill="none" stroke="blue" stroke-width="0.1"/>
<circle cx="30.0000" cy="30.0000" r="4.0750" fill="none" stroke="blue" stroke-width="0.1"/>
<circle cx="30.0000" cy="50.0000" r="4.0750" fill="none" stroke="blue" stroke-width="0.1"/>
<circle cx="30.0000" cy="70.0000" r="4.0750" fill="none" stroke="blue" stroke-width="0.1"/>
<circle cx="30.0000" cy="90.0000" r="4.0750" fill="none" stroke="blue" stroke-width="0.1"/>
<circle cx="30.0000" cy="110.0000" r="4.0750" fill="none" stroke="blue" stroke-width="0.1"/>
<circle cx="40.0000" cy="20.0000" r="4.0750" fill="none" stroke="blue" stroke-width="0.1"/>
<circle cx="40.0000" cy="40.0000" r="4.0750" fill="none" stroke="blue" stroke-width="0.1"/>
<circle cx="40.0000" cy="60.0000" r="4.0750" fill="none" stroke="blue" stroke-width="0.1"/>
<circle cx="40.0000" cy="80.0000" r="4.0750" fill="none" stroke="blue" stroke-width="0.1"/>
<circle cx="40.0000" cy="100.0000" r="4.0750" fill="none" stroke="blue" stroke-width="0.1"/>
<circle cx="50.0000" cy="30.0000" r="4.0750" fill="none" stroke="blue" stroke-width="0.1"/>
<circle cx="50.0000" cy="50.0000" r="4.0750" fill="none" stroke="blue" stroke-width="0.1"/>
<circle cx="50.0000" cy="70.0000" r="4.0750" fill="none" stroke="blue" stroke-width="0.1"/>
<circle cx="50.0000" cy="90.0000" r="4.0750" fill="none" stroke="blue" stroke-width="0.1"/>
<circle cx="50.0000" cy="110.0000" r="4.0750" fill="none" stroke="blue" stroke-width="0.1"/>
<circle cx="60.0000" cy="20.0000" r="4.0750" fill="none" stroke="blue" stroke-width="0.1"/>
<circle cx="60.0000" cy="40.0000" r="4.0750" fill="none" stroke="blue" stroke-width="0.1"/>
<circle cx="60.0000" cy="60.0000" r="4.0750" fill="none" stroke="blue" stroke-width="0.1"/>
<circle cx="60.0000" cy="80.0000" r="4.0750" fill="none" stroke="blue" stroke-width="0.1"/>
<circle cx="60.0000" cy="100.0000" r="4.0750" fill="none" stroke="blue" stroke-width="0.1"/>
<circle cx="70.0000" cy="30.0000" r="4.0750" fill="none" stroke="blue" stroke-width="0.1"/>
<circle cx="70.0000" cy="50.0000" r="4.0750" fill="none" stroke="blue" stroke-width="0.1"/>
<circle cx="70.0000" cy="70.0000" r="4.0750" fill="none" stroke="blue" stroke-width="0.1"/>
<circle cx="70.0000" cy="90.0000" r="4.0750" fill="none" stroke="blue" stroke-width="0.1"/>
<circle cx="70.0000" cy="110.0000" r="4.0750" fill="none" stroke="blue" stroke-width="0.1"/>
<circle cx="80.0000" cy="20.0000" r="4.0750" fill="none" stroke="blue" stroke-width="0.1"/>
<circle cx="80.0000" cy="40.0000" r="4.0750" fill="none" stroke="blue" stroke-width="0.1"/>
<circle cx="80.0000" cy="60.0000" r="4.0750" fill="none" stroke="blue" stroke-width="0.1"/>
<circle cx="80.0000" cy="80.0000" r="4.0750" fill="none" stroke="blue" stroke-width="0.1"/>
<circle cx="80.0000" cy="100.0000" r="4.0750" fill="none" stroke="blue" stroke-width="0.1"/>
<circle cx="90.0000" cy="30.0000" r="4.0750" fill="none" stroke="blue" stroke-width="0.1"/>
<circle cx="90.0000" cy="50.0000" r="4.0750" fill="none" stroke="blue" stroke-width="0.1"/>
<circle cx="90.0000" cy="70.0000" r="4.0750" fill="none" stroke="blue" stroke-width="0.1"/>
<circle cx="90.0000" cy="90.0000" r="4.0750" fill="none" stroke="blue" stroke-width="0.1"/>
<circle cx="90.0000" cy="110.0000" r="4.0750" fill="none" stroke="blue" stroke-width="0.1"/>
<circle cx="100.0000" cy="20.0000" r="4.0750" fill="none" stroke="blue" stroke-width="0.1"/>
<circle cx="100.0000" cy="40.0000" r="4.0750" fill="none" stroke="blue" stroke-width="0.1"/>
<circle cx="100.0000" cy="60.0000" r="4.0750" fill="none" stroke="blue" stroke-width="0.1"/>
<circle cx="100.0000" cy="80.0000" r="4.0750" fill="none" stroke="blue" stroke-width="0.1"/>
<circle cx="100.0000" cy="100.0000" r="4.0750" fill="none" stroke="blue" stroke-width="0.1"/>
<circle cx="110.0000" cy="30.0000" r="4.0750" fill="none" stroke="blue" stroke-width="0.1"/>
<circle cx="110.0000" cy="50.0000" r="4.0750" fill="none" stroke="blue" stroke-width="0.1"/>
<circle cx="110.0000" cy="70.0000" r="4.0750" fill="none" stroke="blue" stroke-width="0.1"/>
<circle cx="110.0000" cy="90.0000" r="4.0750" fill="none" stroke="blue" stroke-width="0.1"/>
<circle cx="110.0000" cy="110.0000" r="4.0750" fill="none" stroke="blue" stroke-width="0.1"/>
<circle cx="120.0000" cy="20.0000" r="4.0750" fill="none" stroke="blue" stroke-width="0.1"/>
<circle cx="120.0000" cy="40.0000" r="4.0750" fill="none" stroke="blue" stroke-width="0.1"/>
<circle cx="120.0000" cy="60.0000" r="4.0750" fill="none" stroke="blue" stroke-width="0.1"/>
<circle cx="120.0000" cy="80.0000" r="4.0750" fill="none" stroke="blue" stroke-width="0.1"/>
<circle cx="120.0000" cy="100.0000" r="4.0750" fill="none" stroke="blue" stroke-width="0.1"/>
<circle cx="130.0000" cy="30.0000" r="4.0750" fill="none" stroke="blue" stroke-width="0.1"/>
<circle cx="130.0000" cy="50.0000" r="4.0750" fill="none" stroke="blue" stroke-width="0.1"/>
<circle cx="130.0000" cy="70.0000" r="4.0750" fill="none" stroke="blue" stroke-width="0.1"/>
<circle cx="130.0000" cy="90.0000" r="4.0750" fill="none" stroke="blue" stroke-width="0.1"/>
<circle cx="130.0000" cy="110.0000" r="4.0750" fill="none" stroke="blue" stroke-width="0.1"/>
<circle cx="20.0000" cy="30.0000" r="2.5000" fill="none" stroke="red" stroke-width="0.1"/>
<circle cx="20.0000" cy="50.0000" r="2.5000" fill="none" stroke="red" stroke-width="0.1"/>
<circle cx="20.0000" cy="70.0000" r="2.5000" fill="none" stroke="red" stroke-width="0.1"/>
<circle cx="20.0000" cy="90.0000" r="2.5000" fill="none" stroke="red" stroke-width="0.1"/>
<circle cx="20.0000" cy="110.0000" r="2.5000" fill="none" stroke="red" stroke-width="0.1"/>
<circle cx="30.0000" cy="20.0000" r="2.5000" fill="none" stroke="red" stroke-width="0.1"/>
<circle cx="30.0000" cy="40.0000" r="2.5000" fill="none" stroke="red" stroke-width="0.1"/>
<circle cx="30.0000" cy="60.0000" r="2.5000" fill="none" stroke="red" stroke-width="0.1"/>
<circle cx="30.0000" cy="80.0000" r="2.5000" fill="none" stroke="red" stroke-width="0.1"/>
<circle cx="30.0000" cy="100.0000" r="2.5000" fill="none" stroke="red" stroke-width="0.1"/>
<circle cx="40.0000" cy="30.0000" r="2.5000" fill="none" stroke="red" stroke-width="0.1"/>
<circle cx="40.0000" cy="50.0000" r="2.5000" fill="none" stroke="red" stroke-width="0.1"/>
<circle cx="40.0000" cy="70.0000" r="2.5000" fill="none" stroke="red" stroke-width="0.1"/>
<circle cx="40.0000" cy="90.0000" r="2.5000" fill="none" stroke="red" stroke-width="0.1"/>
<circle cx="40.0000" cy="110.0000" r="2.5000" fill="none" stroke="red" stroke-width="0.1"/>
<circle cx="50.0000" cy="20.0000" r="2.5000" fill="none" stroke="red" stroke-width="0.1"/>
<circle cx="50.0000" cy="40.0000" r="2.5000" fill="none" stroke="red" stroke-width="0.1"/>
<circle cx="50.0000" cy="60.0000" r="2.5000" fill="none" stroke="red" stroke-width="0.1"/>
<circle cx="50.0000" cy="80.0000" r="2.5000" fill="none" stroke="red" stroke-width="0.1"/>
<circle cx="50.0000" cy="100.0000" r="2.5000" fill="none" stroke="red" stroke-width="0.1"/>
<circle cx="60.0000" cy="30.0000" r="2.5000" fill="none" stroke="red" stroke-width="0.1"/>
<circle cx="60.0000" cy="50.0000" r="2.5000" fill="none" stroke="red" stroke-width="0.1"/>
<circle cx="60.0000" cy="70.0000" r="2.5000" fill="none" stroke="red" stroke-width="0.1"/>
<circle cx="60.0000" cy="90.0000" r="2.5000" fill="none" stroke="red" stroke-width="0.1"/>
<circle cx="60.0000" cy="110.0000" r="2.5000" fill="none" stroke="red" stroke-width="0.1"/>
<circle cx="70.0000" cy="20.0000" r="2.5000" fill="none" stroke="red" stroke-width="0.1"/>
<circle cx="70.0000" cy="40.0000" r="2.5000" fill="none" stroke="red" stroke-width="0.1"/>
<circle cx="70.0000" cy="60.0000" r="2.5000" fill="none" stroke="red" stroke-width="0.1"/>
<circle cx="70.0000" cy="80.0000" r="2.5000" fill="none" stroke="red" stroke-width="0.1"/>
<circle cx="70.0000" cy="100.0000" r="2.5000" fill="none" stroke="red" stroke-width="0.1"/>
<circle cx="80.0000" cy="30.0000" r="2.5000" fill="none" stroke="red" stroke-width="0.1"/>
<circle cx="80.0000" cy="50.0000" r="2.5000" fill="none" stroke="red" stroke-width="0.1"/>
<circle cx="80.0000" cy="70.0000" r="2.5000" fill="none" stroke="red" stroke-width="0.1"/>
<circle cx="80.0000" cy="90.0000" r="2.5000" fill="none" stroke="red" stroke-width="0.1"/>
<circle cx="80.0000" cy="110.0000" r="2.5000" fill="none" stroke="red" stroke-width="0.1"/>
<circle cx="90.0000" cy="20.0000" r="2.5000" fill="none" stroke="red" stroke-width="0.1"/>
<circle cx="90.0000" cy="40.0000" r="2.5000" fill="none" stroke="red" stroke-width="0.1"/>
<circle cx="90.0000" cy="60.0000" r="2.5000" fill="none" stroke="red" stroke-width="0.1"/>
<circle cx="90.0000" cy="80.0000" r="2.5000" fill="none" stroke="red" stroke-width="0.1"/>
<circle cx="90.0000" cy="100.0000" r="2.5000" fill="none" stroke="red" stroke-width="0.1"/>
<circle cx="100.0000" cy="30.0000" r="2.5000" fill="none" stroke="red" stroke-width="0.1"/>
<circle cx="100.0000" cy="50.0000" r="2.5000" fill="none" stroke="red" stroke-width="0.1"/>
<circle cx="100.0000" cy="70.0000" r="2.5000" fill="none" stroke="red" stroke-width="0.1"/>
<circle cx="100.0000" cy="90.0000" r="2.5000" fill="none" stroke="red" stroke-width="0.1"/>
<circle cx="100.0000" cy="110.0000" r="2.5000" fill="none" stroke="red" stroke-width="0.1"/>
<circle cx="110.0000" cy="20.0000" r="2.5000" fill="none" stroke="red" stroke-width="0.1"/>
<circle cx="110.0000" cy="40.0000" r="2.5000" fill="none" stroke="red" stroke-width="0.1"/>
<circle cx="110.0000" cy="60.0000" r="2.5000" fill="none" stroke="red" stroke-width="0.1"/>
<circle cx="110.0000" cy="80.0000" r="2.5000" fill="none" stroke="red" stroke-width="0.1"/>
<circle cx="110.0000" cy="100.0000" r="2.5000" fill="none" stroke="red" stroke-width="0.1"/>
<circle cx="120.0000" cy="30.0000" r="2.5000" fill="none" stroke="red" stroke-width="0.1"/>
<circle cx="120.0000" cy="50.0000" r="2.5000" fill="none" stroke="red" stroke-width="0.1"/>
<circle cx="120.0000" cy="70.0000" r="2.5000" fill="none" stroke="red" stroke-width="0.1"/>
<circle cx="120.0000" cy="90.0000" r="2.5000" fill="none" stroke="red" stroke-width="0.1"/>
<circle cx="120.0000" cy="110.0000" r="2.5000" fill="none" stroke="red" stroke-width="0.1"/>
<circle cx="130.0000" cy="20.0000" r="2.5000" fill="none" stroke="red" stroke-width="0.1"/>
<circle cx="130.0000" cy="40.0000" r="2.5000" fill="none" stroke="red" stroke-width="0.1"/>
<circle cx="130.0000" cy="60.0000" r="2.5000" fill="none" stroke="red" stroke-width="0.1"/>
<circle cx="130.0000" cy="80.0000" r="2.5000" fill="none" stroke="red" stroke-width="0.1"/>
<circle cx="130.0000" cy="100.0000" r="2.5000" fill="none" stroke="red" stroke-width="0.1"/>
</svg>