<?xml version="1.0" encoding="UTF-8"?>
<svg xmlns="http://www.w3.org/2000/svg" width="255.82mm" height="197.13mm" viewBox="0 0 255.82 197.13">
<rect x="10.0000" y="10.0000" width="235.8200" height="177.1300" fill="none" stroke="#333333" stroke-width="0.5"/>
<rect x="42.5570" y="94.0770" width="40.3260" height="44.8960" rx="9.5250" ry="9.5250" fill="none" stroke="#cc0000" stroke-width="0.5"/>
<rect x="189.7930" y="37.7495" width="29.2540" height="146.6310" rx="9.5250" ry="9.5250" fill="none" stroke="#0066cc" stroke-width="0.5"/>
<rect x="104.7637" y="41.6247" width="18.6125" height="8.4605" rx="3.9750" ry="3.9750" fill="none" stroke="#009933" stroke-width="0.5"/>
<rect x="104.7637" y="65.6148" width="18.6125" height="8.4605" rx="3.9750" ry="3.9750" fill="none" stroke="#009933" stroke-width="0.5"/>
<rect x="104.7637" y="89.6047" width="18.6125" height="8.4605" rx="3.9750" ry="3.9750" fill="none" stroke="#009933" stroke-width="0.5"/>
<rect x="104.7637" y="113.5947" width="18.6125" height="8.4605" rx="3.9750" ry="3.9750" fill="none" stroke="#009933" stroke-width="0.5"/>
<rect x="104.7637" y="137.5847" width="18.6125" height="8.4605" rx="3.9750" ry="3.9750" fill="none" stroke="#009933" stroke-width="0.5"/>
<rect x="104.7637" y="161.5747" width="18.6125" height="8.4605" rx="3.9750" ry="3.9750" fill="none" stroke="#009933" stroke-width="0.5"/>
<rect x="127.1257" y="53.6197" width="18.6125" height="8.4605" rx="3.9750" ry="3.9750" fill="none" stroke="#009933" stroke-width="0.5"/>
<rect x="127.1257" y="77.6098" width="18.6125" height="8.4605" rx="3.9750" ry="3.9750" fill="none" stroke="#009933" stroke-width="0.5"/>
<rect x="127.1257" y="101.5997" width="18.6125" height="8.4605" rx="3.9750" ry="3.9750" fill="none" stroke="#009933" stroke-width="0.5"/>
<rect x="127.1257" y="125.5897" width="18.6125" height="8.4605" rx="3.9750" ry="3.9750" fill="none" stroke="#009933" stroke-width="0.5"/>
<rect x="127.1257" y="149.5797" width="18.6125" height="8.4605" rx="3.9750" ry="3.9750" fill="none" stroke="#009933" stroke-width="0.5"/>
<rect x="127.1257" y="173.5697" width="18.6125" height="8.4605" rx="3.9750" ry="3.9750" fill="none" stroke="#009933" stroke-width="0.5"/>
<rect x="149.4877" y="41.6247" width="18.6125" height="8.4605" rx="3.9750" ry="3.9750" fill="none" stroke="#009933" stroke-width="0.5"/>
<rect x="149.4877" y="65.6148" width="18.6125" height="8.4605" rx="3.9750" ry="3.9750" fill="none" stroke="#009933" stroke-width="0.5"/>
<rect x="149.4877" y="89.6047" width="18.6125" height="8.4605" rx="3.9750" ry="3.9750" fill="none" stroke="#009933" stroke-width="0.5"/>
<rect x="149.4877" y="113.5947" width="18.6125" height="8.4605" rx="3.9750" ry="3.9750" fill="none" stroke="#009933" stroke-width="0.5"/>
<rect x="149.4877" y="137.5847" width="18.6125" height="8.4605" rx="3.9750" ry="3.9750" fill="none" stroke="#009933" stroke-width="0.5"/>
<rect x="149.4877" y="161.5747" width="18.6125" height="8.4605" rx="3.9750" ry="3.9750" fill="none" stroke="#009933" stroke-width="0.5"/>
<rect x="106.3575" y="55.2135" width="15.4250" height="5.2730" fill="none" stroke="#999999" stroke-width="0.5"/>
<rect x="106.3575" y="79.2035" width="15.4250" height="5.2730" fill="none" stroke="#999999" stroke-width="0.5"/>
<rect x="106.3575" y="103.1935" width="15.4250" height="5.2730" fill="none" stroke="#999999" stroke-width="0.5"/>
<rect x="106.3575" y="127.1835" width="15.4250" height="5.2730" fill="none" stroke="#999999" stroke-width="0.5"/>
<rect x="106.3575" y="151.1735" width="15.4250" height="5.2730" fill="none" stroke="#999999" stroke-width="0.5"/>
<rect x="106.3575" y="175.1635" width="15.4250" height="5.2730" fill="none" stroke="#999999" stroke-width="0.5"/>
<rect x="128.7195" y="43.2185" width="15.4250" height="5.2730" fill="none" stroke="#999999" stroke-width="0.5"/>
<rect x="128.7195" y="67.2085" width="15.4250" height="5.2730" fill="none" stroke="#999999" stroke-width="0.5"/>
<rect x="128.7195" y="91.1985" width="15.4250" height="5.2730" fill="none" stroke="#999999" stroke-width="0.5"/>
<rect x="128.7195" y="115.1885" width="15.4250" height="5.2730" fill="none" stroke="#999999" stroke-width="0.5"/>
<rect x="128.7195" y="139.1785" width="15.4250" height="5.2730" fill="none" stroke="#999999" stroke-width="0.5"/>
<rect x="128.7195" y="163.1685" width="15.4250" height="5.2730" fill="none" stroke="#999999" stroke-width="0.5"/>
<rect x="151.0815" y="55.2135" width="15.4250" height="5.2730" fill="none" stroke="#999999" stroke-width="0.5"/>
<rect x="151.0815" y="79.2035" width="15.4250" height="5.2730" fill="none" stroke="#999999" stroke-width="0.5"/>
<rect x="151.0815" y="103.1935" width="15.4250" height="5.2730" fill="none" stroke="#999999" stroke-width="0.5"/>
<rect x="151.0815" y="127.1835" width="15.4250" height="5.2730" fill="none" stroke="#999999" stroke-width="0.5"/>
<rect x="151.0815" y="151.1735" width="15.4250" height="5.2730" fill="none" stroke="#999999" stroke-width="0.5"/>
<rect x="151.0815" y="175.1635" width="15.4250" height="5.2730" fill="none" stroke="#999999" stroke-width="0.5"/>
<text x="10.0" y="195.13" font-size="4" font-family="monospace" fill="#666">GREEN = cutting (bushing) | GRAY = registration (index) | RED/BLUE = large cutouts (3/4" bushing)</text>
</svg>