  0
SECTION
  2
HEADER
  9
$ACADVER
  1
AC1009
  9
$INSBASE
 10
0.0
 20
0.0
 30
0.0
  9
$EXTMIN
 10
0.0
 20
0.0
 30
0.0
  9
$EXTMAX
 10
0.0
 20
0.0
 30
0.0
  0
ENDSEC
  0
SECTION
  2
TABLES
  0
TABLE
  2
VPORT
 70
1
  0
VPORT
  2
*ACTIVE
 70
0
 10
0.0
 20
0.0
 11
1.0
 21
1.0
 12
-5.0
 22
1.0
 13
0.0
 23
0.0
 14
0.1
 24
0.1
 15
0.1
 25
0.1
 16
0.0
 26
0.0
 36
1.0
 17
0.0
 27
0.0
 37
0.0
 40
10.0
 41
1.0
 42
50.0
 43
0.0
 44
0.0
 50
0.0
 51
0.0
 71
0
 72
100
 73
1
 74
1
 75
0
 76
0
 77
0
 78
0
  0
ENDTAB
  0
TABLE
  2
LTYPE
 70
8
  0
LTYPE
  2
CONTINUOUS
 70
0
  3
Solid line
 72
65
 73
0
 40
0.0
  0
LTYPE
  2
DOT
 70
0
  3
. . . . . . .
 72
65
 73
2
 40
0.25
 49
0.0
 49
-0.25
  0
LTYPE
  2
DASHED
 70
0
  3
__ __ __ __ __
 72
65
 73
2
 40
0.8
 49
0.5
 49
-0.3
  0
LTYPE
  2
DASHDOT
 70
0
  3
__ . __ . __ .
 72
65
 73
4
 40
1.0
 49
0.5
 49
-0.25
 49
0.0
 49
-0.25
  0
LTYPE
  2
DIVIDE
 70
0
  3
____ . . ____ . . 
 72
65
 73
6
 40
1.25
 49
0.5
 49
-0.25
 49
0.0
 49
-0.25
 49
0.0
 49
-0.25
  0
LTYPE
  2
BORDER
 70
0
  3
__ __ . __ __ . 
 72
65
 73
6
 40
1.75
 49
0.5
 49
-0.25
 49
0.5
 49
-0.25
 49
0.0
 49
-0.25
  0
LTYPE
  2
HIDDEN
 70
0
  3
__ __ __ __ __
 72
65
 73
2
 40
0.4
 49
0.25
 49
-0.25
  0
LTYPE
  2
CENTER
 70
0
  3
____ _ ____ _ __
 72
65
 73
4
 40
2.0
 49
1.25
 49
-0.25
 49
0.25
 49
-0.25
  0
ENDTAB
  0
TABLE
  2
LAYER
 70
1
  0
LAYER
  2
PYDXF
 70
64
 62
7
  6
continuous
  0
ENDTAB
  0
TABLE
  2
STYLE
 70
1
  0
STYLE
  2
STANDARD
 70
0
 40
0
 41
1.0
 50
0.0
 71
0
 42
1
 3
ARIAL.TTF
 4

  0
ENDTAB
  0
TABLE
  2
VIEW
 70
1
  0
VIEW
  2
BF_TOPVIEW
 70
0
 40
120.0
 10
0.0
 20
0.0
 41
200.0
 11
0.0
 21
0.0
 31
1.0
 12
0.0
 22
0.0
 32
0.0
 42
50.0
 43
0.0
 44
0.0
 50
0.0
 71
0
  0
ENDTAB
  0
ENDSEC
  0
SECTION
  2
BLOCKS
  0
ENDSEC
  0
SECTION
  2
ENTITIES
  0
3DFACE
  8
0
 10
-1410.7041015625
 20
30.136442184448242
 30
8.151386260986328
 11
-1438.9385986328125
 21
63.27847671508789
 31
8.151386260986328
 12
-1438.9385986328125
 22
28.384605407714844
 32
8.151386260986328
 13
-1438.9385986328125
 23
28.384605407714844
 33
8.151386260986328
  0
3DFACE
  8
0
 10
-1438.9385986328125
 20
28.384605407714844
 30
8.151386260986328
 11
-1410.7041015625
 21
18.141128540039062
 31
8.151386260986328
 12
-1410.7041015625
 22
23.413795471191406
 32
8.151386260986328
 13
-1410.7041015625
 23
23.413795471191406
 33
8.151386260986328
  0
3DFACE
  8
0
 10
-1438.9385986328125
 20
28.384605407714844
 30
8.151386260986328
 11
-1410.7041015625
 21
23.413795471191406
 31
8.151386260986328
 12
-1410.7041015625
 22
30.136442184448242
 32
8.151386260986328
 13
-1410.7041015625
 23
30.136442184448242
 33
8.151386260986328
  0
3DFACE
  8
0
 10
-1507.0577392578125
 20
-16.522850036621094
 30
8.151386260986328
 11
-1507.0577392578125
 21
-24.534515380859375
 31
8.151386260986328
 12
-1488.9688720703125
 22
-16.522850036621094
 32
8.151386260986328
 13
-1488.9688720703125
 23
-16.522850036621094
 33
8.151386260986328
  0
3DFACE
  8
0
 10
-1459.147705078125
 20
-3.3148536682128906
 30
8.151386260986328
 11
-1410.7041015625
 21
18.141128540039062
 31
8.151386260986328
 12
-1438.9385986328125
 22
28.384605407714844
 32
8.151386260986328
 13
-1438.9385986328125
 23
28.384605407714844
 33
8.151386260986328
  0
3DFACE
  8
0
 10
-1459.147705078125
 20
-3.3148536682128906
 30
8.151386260986328
 11
-1438.9385986328125
 21
28.384605407714844
 31
8.151386260986328
 12
-1469.7396240234375
 22
28.384605407714844
 32
8.151386260986328
 13
-1469.7396240234375
 23
28.384605407714844
 33
8.151386260986328
  0
3DFACE
  8
0
 10
-1488.3309326171875
 20
146.14280700683594
 30
8.151386260986328
 11
-1507.0577392578125
 21
152.60000610351562
 31
8.151386260986328
 12
-1507.0577392578125
 22
-3.3148536682128906
 32
8.151386260986328
 13
-1507.0577392578125
 23
-3.3148536682128906
 33
8.151386260986328
  0
3DFACE
  8
0
 10
-1488.3309326171875
 20
71.31736755371094
 30
8.151386260986328
 11
-1488.3309326171875
 21
146.14280700683594
 31
8.151386260986328
 12
-1507.0577392578125
 22
-3.3148536682128906
 32
8.151386260986328
 13
-1507.0577392578125
 23
-3.3148536682128906
 33
8.151386260986328
  0
3DFACE
  8
0
 10
-1507.0577392578125
 20
-3.3148536682128906
 30
8.151386260986328
 11
-1459.147705078125
 21
-3.3148536682128906
 31
8.151386260986328
 12
-1469.7396240234375
 22
28.384605407714844
 32
8.151386260986328
 13
-1469.7396240234375
 23
28.384605407714844
 33
8.151386260986328
  0
3DFACE
  8
0
 10
-1507.0577392578125
 20
-3.3148536682128906
 30
8.151386260986328
 11
-1469.7396240234375
 21
28.384605407714844
 31
8.151386260986328
 12
-1469.7396240234375
 22
63.755855560302734
 32
8.151386260986328
 13
-1469.7396240234375
 23
63.755855560302734
 33
8.151386260986328
  0
3DFACE
  8
0
 10
-1475.1229248046875
 20
71.31736755371094
 30
8.151386260986328
 11
-1488.3309326171875
 21
71.31736755371094
 31
8.151386260986328
 12
-1507.0577392578125
 22
-3.3148536682128906
 32
8.151386260986328
 13
-1507.0577392578125
 23
-3.3148536682128906
 33
8.151386260986328
  0
3DFACE
  8
0
 10
-1410.7041015625
 20
119.3763427734375
 30
8.151386260986328
 11
-1475.1229248046875
 21
141.58856201171875
 31
8.151386260986328
 12
-1475.1229248046875
 22
71.31736755371094
 32
8.151386260986328
 13
-1475.1229248046875
 23
71.31736755371094
 33
8.151386260986328
  0
3DFACE
  8
0
 10
-1410.7041015625
 20
114.10367584228516
 30
8.151386260986328
 11
-1410.7041015625
 21
119.3763427734375
 31
8.151386260986328
 12
-1475.1229248046875
 22
71.31736755371094
 32
8.151386260986328
 13
-1475.1229248046875
 23
71.31736755371094
 33
8.151386260986328
  0
3DFACE
  8
0
 10
-1475.1229248046875
 20
71.31736755371094
 30
8.151386260986328
 11
-1507.0577392578125
 21
-3.3148536682128906
 31
8.151386260986328
 12
-1469.7396240234375
 22
63.755855560302734
 32
8.151386260986328
 13
-1469.7396240234375
 23
63.755855560302734
 33
8.151386260986328
  0
3DFACE
  8
0
 10
-1438.9385986328125
 20
63.755855560302734
 30
8.151386260986328
 11
-1438.9385986328125
 21
63.27847671508789
 31
8.151386260986328
 12
-1410.7041015625
 22
30.136442184448242
 32
8.151386260986328
 13
-1410.7041015625
 23
30.136442184448242
 33
8.151386260986328
  0
3DFACE
  8
0
 10
-1475.1229248046875
 20
71.31736755371094
 30
8.151386260986328
 11
-1469.7396240234375
 21
63.755855560302734
 31
8.151386260986328
 12
-1438.9385986328125
 22
63.755855560302734
 32
8.151386260986328
 13
-1438.9385986328125
 23
63.755855560302734
 33
8.151386260986328
  0
3DFACE
  8
0
 10
-1410.7041015625
 20
107.38102722167969
 30
8.151386260986328
 11
-1410.7041015625
 21
114.10367584228516
 31
8.151386260986328
 12
-1475.1229248046875
 22
71.31736755371094
 32
8.151386260986328
 13
-1475.1229248046875
 23
71.31736755371094
 33
8.151386260986328
  0
3DFACE
  8
0
 10
-1410.7041015625
 20
102.10836029052734
 30
8.151386260986328
 11
-1410.7041015625
 21
107.38102722167969
 31
8.151386260986328
 12
-1475.1229248046875
 22
71.31736755371094
 32
8.151386260986328
 13
-1475.1229248046875
 23
71.31736755371094
 33
8.151386260986328
  0
3DFACE
  8
0
 10
-1438.9385986328125
 20
63.755855560302734
 30
8.151386260986328
 11
-1410.7041015625
 21
30.136442184448242
 31
8.151386260986328
 12
-1410.7041015625
 22
35.40911102294922
 32
8.151386260986328
 13
-1410.7041015625
 23
35.40911102294922
 33
8.151386260986328
  0
3DFACE
  8
0
 10
-1410.7041015625
 20
102.10836029052734
 30
8.151386260986328
 11
-1475.1229248046875
 21
71.31736755371094
 31
8.151386260986328
 12
-1438.9385986328125
 22
63.755855560302734
 32
8.151386260986328
 13
-1438.9385986328125
 23
63.755855560302734
 33
8.151386260986328
  0
3DFACE
  8
0
 10
-1410.7041015625
 20
95.38571166992188
 30
8.151386260986328
 11
-1410.7041015625
 21
102.10836029052734
 31
8.151386260986328
 12
-1438.9385986328125
 22
63.755855560302734
 32
8.151386260986328
 13
-1438.9385986328125
 23
63.755855560302734
 33
8.151386260986328
  0
3DFACE
  8
0
 10
-1438.9385986328125
 20
63.755855560302734
 30
8.151386260986328
 11
-1410.7041015625
 21
35.40911102294922
 31
8.151386260986328
 12
-1410.7041015625
 22
42.13176727294922
 32
8.151386260986328
 13
-1410.7041015625
 23
42.13176727294922
 33
8.151386260986328
  0
3DFACE
  8
0
 10
-1438.9385986328125
 20
63.755855560302734
 30
8.151386260986328
 11
-1410.7041015625
 21
42.13176727294922
 31
8.151386260986328
 12
-1410.7041015625
 22
47.40443420410156
 32
8.151386260986328
 13
-1410.7041015625
 23
47.40443420410156
 33
8.151386260986328
  0
3DFACE
  8
0
 10
-1410.7041015625
 20
90.11304473876953
 30
8.151386260986328
 11
-1410.7041015625
 21
95.38571166992188
 31
8.151386260986328
 12
-1438.9385986328125
 22
63.755855560302734
 32
8.151386260986328
 13
-1438.9385986328125
 23
63.755855560302734
 33
8.151386260986328
  0
3DFACE
  8
0
 10
-1410.7041015625
 20
83.39038848876953
 30
8.151386260986328
 11
-1410.7041015625
 21
90.11304473876953
 31
8.151386260986328
 12
-1438.9385986328125
 22
63.755855560302734
 32
8.151386260986328
 13
-1438.9385986328125
 23
63.755855560302734
 33
8.151386260986328
  0
3DFACE
  8
0
 10
-1438.9385986328125
 20
63.755855560302734
 30
8.151386260986328
 11
-1410.7041015625
 21
47.40443420410156
 31
8.151386260986328
 12
-1410.7041015625
 22
54.127079010009766
 32
8.151386260986328
 13
-1410.7041015625
 23
54.127079010009766
 33
8.151386260986328
  0
3DFACE
  8
0
 10
-1438.9385986328125
 20
63.755855560302734
 30
8.151386260986328
 11
-1410.7041015625
 21
54.127079010009766
 31
8.151386260986328
 12
-1410.7041015625
 22
59.39974594116211
 32
8.151386260986328
 13
-1410.7041015625
 23
59.39974594116211
 33
8.151386260986328
  0
3DFACE
  8
0
 10
-1410.7041015625
 20
78.11772155761719
 30
8.151386260986328
 11
-1410.7041015625
 21
83.39038848876953
 31
8.151386260986328
 12
-1438.9385986328125
 22
63.755855560302734
 32
8.151386260986328
 13
-1438.9385986328125
 23
63.755855560302734
 33
8.151386260986328
  0
3DFACE
  8
0
 10
-1410.7041015625
 20
71.39506530761719
 30
8.151386260986328
 11
-1410.7041015625
 21
78.11772155761719
 31
8.151386260986328
 12
-1438.9385986328125
 22
63.755855560302734
 32
8.151386260986328
 13
-1438.9385986328125
 23
63.755855560302734
 33
8.151386260986328
  0
3DFACE
  8
0
 10
-1438.9385986328125
 20
63.755855560302734
 30
8.151386260986328
 11
-1410.7041015625
 21
59.39974594116211
 31
8.151386260986328
 12
-1410.7041015625
 22
66.12239074707031
 32
8.151386260986328
 13
-1410.7041015625
 23
66.12239074707031
 33
8.151386260986328
  0
3DFACE
  8
0
 10
-1438.9385986328125
 20
63.755855560302734
 30
8.151386260986328
 11
-1410.7041015625
 21
66.12239074707031
 31
8.151386260986328
 12
-1410.7041015625
 22
71.39506530761719
 32
8.151386260986328
 13
-1410.7041015625
 23
71.39506530761719
 33
8.151386260986328
  0
3DFACE
  8
0
 10
-1322.503173828125
 20
-12.810348510742188
 30
8.151386260986328
 11
-1322.503173828125
 21
62.84550857543945
 31
8.151386260986328
 12
-1350.5528564453125
 22
66.12239074707031
 32
8.151386260986328
 13
-1350.5528564453125
 23
66.12239074707031
 33
8.151386260986328
  0
3DFACE
  8
0
 10
-1322.503173828125
 20
-12.810348510742188
 30
8.151386260986328
 11
-1350.5528564453125
 21
66.12239074707031
 31
8.151386260986328
 12
-1350.5528564453125
 22
59.399749755859375
 32
8.151386260986328
 13
-1350.5528564453125
 23
59.399749755859375
 33
8.151386260986328
  0
3DFACE
  8
0
 10
-1350.5528564453125
 20
-5.849514007568359
 30
8.151386260986328
 11
-1350.5528564453125
 21
-12.572174072265625
 31
8.151386260986328
 12
-1322.503173828125
 22
-12.810348510742188
 32
8.151386260986328
 13
-1322.503173828125
 23
-12.810348510742188
 33
8.151386260986328
  0
3DFACE
  8
0
 10
-1350.5528564453125
 20
-0.5768470764160156
 30
8.151386260986328
 11
-1350.5528564453125
 21
-5.849514007568359
 31
8.151386260986328
 12
-1322.503173828125
 22
-12.810348510742188
 32
8.151386260986328
 13
-1322.503173828125
 23
-12.810348510742188
 33
8.151386260986328
  0
3DFACE
  8
0
 10
-1322.503173828125
 20
-12.810348510742188
 30
8.151386260986328
 11
-1350.5528564453125
 21
59.399749755859375
 31
8.151386260986328
 12
-1350.5528564453125
 22
54.12708282470703
 32
8.151386260986328
 13
-1350.5528564453125
 23
54.12708282470703
 33
8.151386260986328
  0
3DFACE
  8
0
 10
-1322.503173828125
 20
-12.810348510742188
 30
8.151386260986328
 11
-1350.5528564453125
 21
54.12708282470703
 31
8.151386260986328
 12
-1350.5528564453125
 22
47.40443420410156
 32
8.151386260986328
 13
-1350.5528564453125
 23
47.40443420410156
 33
8.151386260986328
  0
3DFACE
  8
0
 10
-1350.5528564453125
 20
6.145816802978516
 30
8.151386260986328
 11
-1350.5528564453125
 21
-0.5768470764160156
 31
8.151386260986328
 12
-1322.503173828125
 22
-12.810348510742188
 32
8.151386260986328
 13
-1322.503173828125
 23
-12.810348510742188
 33
8.151386260986328
  0
3DFACE
  8
0
 10
-1350.5528564453125
 20
11.41848373413086
 30
8.151386260986328
 11
-1350.5528564453125
 21
6.145816802978516
 31
8.151386260986328
 12
-1322.503173828125
 22
-12.810348510742188
 32
8.151386260986328
 13
-1322.503173828125
 23
-12.810348510742188
 33
8.151386260986328
  0
3DFACE
  8
0
 10
-1322.503173828125
 20
-12.810348510742188
 30
8.151386260986328
 11
-1350.5528564453125
 21
47.40443420410156
 31
8.151386260986328
 12
-1350.5528564453125
 22
42.13176727294922
 32
8.151386260986328
 13
-1350.5528564453125
 23
42.13176727294922
 33
8.151386260986328
  0
3DFACE
  8
0
 10
-1322.503173828125
 20
-12.810348510742188
 30
8.151386260986328
 11
-1350.5528564453125
 21
42.13176727294922
 31
8.151386260986328
 12
-1350.5528564453125
 22
35.40911102294922
 32
8.151386260986328
 13
-1350.5528564453125
 23
35.40911102294922
 33
8.151386260986328
  0
3DFACE
  8
0
 10
-1350.5528564453125
 20
18.141128540039062
 30
8.151386260986328
 11
-1350.5528564453125
 21
11.41848373413086
 31
8.151386260986328
 12
-1322.503173828125
 22
-12.810348510742188
 32
8.151386260986328
 13
-1322.503173828125
 23
-12.810348510742188
 33
8.151386260986328
  0
3DFACE
  8
0
 10
-1350.5528564453125
 20
23.41379737854004
 30
8.151386260986328
 11
-1350.5528564453125
 21
18.141128540039062
 31
8.151386260986328
 12
-1322.503173828125
 22
-12.810348510742188
 32
8.151386260986328
 13
-1322.503173828125
 23
-12.810348510742188
 33
8.151386260986328
  0
3DFACE
  8
0
 10
-1322.503173828125
 20
-12.810348510742188
 30
8.151386260986328
 11
-1350.5528564453125
 21
35.40911102294922
 31
8.151386260986328
 12
-1350.5528564453125
 22
30.136444091796875
 32
8.151386260986328
 13
-1350.5528564453125
 23
30.136444091796875
 33
8.151386260986328
  0
3DFACE
  8
0
 10
-1350.5528564453125
 20
30.136444091796875
 30
8.151386260986328
 11
-1350.5528564453125
 21
23.41379737854004
 31
8.151386260986328
 12
-1322.503173828125
 22
-12.810348510742188
 32
8.151386260986328
 13
-1322.503173828125
 23
-12.810348510742188
 33
8.151386260986328
  0
3DFACE
  8
0
 10
-1395.279052734375
 20
66.12239074707031
 30
8.151386260986328
 11
-1395.31494140625
 21
59.39974594116211
 31
8.151386260986328
 12
-1395.279052734375
 22
59.39974594116211
 32
8.151386260986328
 13
-1395.279052734375
 23
59.39974594116211
 33
8.151386260986328
  0
3DFACE
  8
0
 10
-1271.236083984375
 20
152.60000610351562
 30
8.151386260986328
 11
-1281.513916015625
 21
149.84718322753906
 31
8.151386260986328
 12
-1281.513916015625
 22
72.90431213378906
 32
8.151386260986328
 13
-1281.513916015625
 23
72.90431213378906
 33
8.151386260986328
  0
3DFACE
  8
0
 10
-1410.7041015625
 20
-17.8448486328125
 30
8.151386260986328
 11
-1507.0577392578125
 21
-24.534515380859375
 31
8.151386260986328
 12
-1271.236083984375
 22
-24.534515380859375
 32
8.151386260986328
 13
-1271.236083984375
 23
-24.534515380859375
 33
8.151386260986328
  0
3DFACE
  8
0
 10
-1372.9169921875
 20
-17.84484100341797
 30
8.151386260986328
 11
-1388.342041015625
 21
-17.84484100341797
 31
8.151386260986328
 12
-1395.279052734375
 22
-17.8448486328125
 32
8.151386260986328
 13
-1395.279052734375
 23
-17.8448486328125
 33
8.151386260986328
  0
3DFACE
  8
0
 10
-1395.279052734375
 20
-17.8448486328125
 30
8.151386260986328
 11
-1410.7041015625
 21
-17.8448486328125
 31
8.151386260986328
 12
-1271.236083984375
 22
-24.534515380859375
 32
8.151386260986328
 13
-1271.236083984375
 23
-24.534515380859375
 33
8.151386260986328
  0
3DFACE
  8
0
 10
-1271.236083984375
 20
-24.534515380859375
 30
8.151386260986328
 11
-1271.236083984375
 21
152.60000610351562
 31
8.151386260986328
 12
-1281.513916015625
 22
72.90431213378906
 32
8.151386260986328
 13
-1281.513916015625
 23
72.90431213378906
 33
8.151386260986328
  0
3DFACE
  8
0
 10
-1271.236083984375
 20
-24.534515380859375
 30
8.151386260986328
 11
-1281.513916015625
 21
72.90431213378906
 31
8.151386260986328
 12
-1294.721923828125
 22
72.90431213378906
 32
8.151386260986328
 13
-1294.721923828125
 23
72.90431213378906
 33
8.151386260986328
  0
3DFACE
  8
0
 10
-1372.9169921875
 20
-17.84484100341797
 30
8.151386260986328
 11
-1395.279052734375
 21
-17.8448486328125
 31
8.151386260986328
 12
-1271.236083984375
 22
-24.534515380859375
 32
8.151386260986328
 13
-1271.236083984375
 23
-24.534515380859375
 33
8.151386260986328
  0
3DFACE
  8
0
 10
-1365.9779052734375
 20
-17.84484100341797
 30
8.151386260986328
 11
-1372.9169921875
 21
-17.84484100341797
 31
8.151386260986328
 12
-1271.236083984375
 22
-24.534515380859375
 32
8.151386260986328
 13
-1271.236083984375
 23
-24.534515380859375
 33
8.151386260986328
  0
3DFACE
  8
0
 10
-1350.5528564453125
 20
-17.84484100341797
 30
8.151386260986328
 11
-1365.9779052734375
 21
-17.84484100341797
 31
8.151386260986328
 12
-1271.236083984375
 22
-24.534515380859375
 32
8.151386260986328
 13
-1271.236083984375
 23
-24.534515380859375
 33
8.151386260986328
  0
3DFACE
  8
0
 10
-1322.503173828125
 20
-12.810348510742188
 30
8.151386260986328
 11
-1350.5528564453125
 21
-12.572174072265625
 31
8.151386260986328
 12
-1350.5528564453125
 22
-17.84484100341797
 32
8.151386260986328
 13
-1350.5528564453125
 23
-17.84484100341797
 33
8.151386260986328
  0
3DFACE
  8
0
 10
-1322.503173828125
 20
-17.01891326904297
 30
8.151386260986328
 11
-1322.503173828125
 21
-12.810348510742188
 31
8.151386260986328
 12
-1350.5528564453125
 22
-17.84484100341797
 32
8.151386260986328
 13
-1350.5528564453125
 23
-17.84484100341797
 33
8.151386260986328
  0
3DFACE
  8
0
 10
-1395.279052734375
 20
30.136442184448242
 30
8.151386260986328
 11
-1410.7041015625
 21
30.136442184448242
 31
8.151386260986328
 12
-1410.7041015625
 22
23.413795471191406
 32
8.151386260986328
 13
-1410.7041015625
 23
23.413795471191406
 33
8.151386260986328
  0
3DFACE
  8
0
 10
-1395.279052734375
 20
30.136442184448242
 30
8.151386260986328
 11
-1410.7041015625
 21
23.413795471191406
 31
8.151386260986328
 12
-1395.279052734375
 22
23.413795471191406
 32
8.151386260986328
 13
-1395.279052734375
 23
23.413795471191406
 33
8.151386260986328
  0
3DFACE
  8
0
 10
-1395.279052734375
 20
-5.849517822265625
 30
8.151386260986328
 11
-1395.279052734375
 21
-12.572181701660156
 31
8.151386260986328
 12
-1388.342041015625
 22
-12.572174072265625
 32
8.151386260986328
 13
-1388.342041015625
 23
-12.572174072265625
 33
8.151386260986328
  0
3DFACE
  8
0
 10
-1395.279052734375
 20
-5.849517822265625
 30
8.151386260986328
 11
-1388.342041015625
 21
-12.572174072265625
 31
8.151386260986328
 12
-1388.342041015625
 22
-5.849514007568359
 32
8.151386260986328
 13
-1388.342041015625
 23
-5.849514007568359
 33
8.151386260986328
  0
3DFACE
  8
0
 10
-1395.279052734375
 20
-0.5768508911132812
 30
8.151386260986328
 11
-1395.279052734375
 21
-5.849517822265625
 31
8.151386260986328
 12
-1388.342041015625
 22
-5.849514007568359
 32
8.151386260986328
 13
-1388.342041015625
 23
-5.849514007568359
 33
8.151386260986328
  0
3DFACE
  8
0
 10
-1395.279052734375
 20
-0.5768508911132812
 30
8.151386260986328
 11
-1388.342041015625
 21
-5.849514007568359
 31
8.151386260986328
 12
-1388.342041015625
 22
-0.5768470764160156
 32
8.151386260986328
 13
-1388.342041015625
 23
-0.5768470764160156
 33
8.151386260986328
  0
3DFACE
  8
0
 10
-1395.279052734375
 20
6.14581298828125
 30
8.151386260986328
 11
-1395.279052734375
 21
-0.5768508911132812
 31
8.151386260986328
 12
-1388.342041015625
 22
-0.5768470764160156
 32
8.151386260986328
 13
-1388.342041015625
 23
-0.5768470764160156
 33
8.151386260986328
  0
3DFACE
  8
0
 10
-1395.279052734375
 20
6.14581298828125
 30
8.151386260986328
 11
-1388.342041015625
 21
-0.5768470764160156
 31
8.151386260986328
 12
-1388.342041015625
 22
6.145816802978516
 32
8.151386260986328
 13
-1388.342041015625
 23
6.145816802978516
 33
8.151386260986328
  0
3DFACE
  8
0
 10
-1395.279052734375
 20
11.418479919433594
 30
8.151386260986328
 11
-1395.279052734375
 21
6.14581298828125
 31
8.151386260986328
 12
-1388.342041015625
 22
6.145816802978516
 32
8.151386260986328
 13
-1388.342041015625
 23
6.145816802978516
 33
8.151386260986328
  0
3DFACE
  8
0
 10
-1395.279052734375
 20
11.418479919433594
 30
8.151386260986328
 11
-1388.342041015625
 21
6.145816802978516
 31
8.151386260986328
 12
-1388.342041015625
 22
11.41848373413086
 32
8.151386260986328
 13
-1388.342041015625
 23
11.41848373413086
 33
8.151386260986328
  0
3DFACE
  8
0
 10
-1395.279052734375
 20
18.141128540039062
 30
8.151386260986328
 11
-1395.279052734375
 21
11.418479919433594
 31
8.151386260986328
 12
-1388.342041015625
 22
11.41848373413086
 32
8.151386260986328
 13
-1388.342041015625
 23
11.41848373413086
 33
8.151386260986328
  0
3DFACE
  8
0
 10
-1395.279052734375
 20
18.141128540039062
 30
8.151386260986328
 11
-1388.342041015625
 21
11.41848373413086
 31
8.151386260986328
 12
-1388.342041015625
 22
18.141128540039062
 32
8.151386260986328
 13
-1388.342041015625
 23
18.141128540039062
 33
8.151386260986328
  0
3DFACE
  8
0
 10
-1395.279052734375
 20
23.413795471191406
 30
8.151386260986328
 11
-1395.279052734375
 21
18.141128540039062
 31
8.151386260986328
 12
-1388.342041015625
 22
18.141128540039062
 32
8.151386260986328
 13
-1388.342041015625
 23
18.141128540039062
 33
8.151386260986328
  0
3DFACE
  8
0
 10
-1395.279052734375
 20
23.413795471191406
 30
8.151386260986328
 11
-1388.342041015625
 21
18.141128540039062
 31
8.151386260986328
 12
-1388.342041015625
 22
23.41379737854004
 32
8.151386260986328
 13
-1388.342041015625
 23
23.41379737854004
 33
8.151386260986328
  0
3DFACE
  8
0
 10
-1395.279052734375
 20
30.136442184448242
 30
8.151386260986328
 11
-1395.279052734375
 21
23.413795471191406
 31
8.151386260986328
 12
-1388.342041015625
 22
23.41379737854004
 32
8.151386260986328
 13
-1388.342041015625
 23
23.41379737854004
 33
8.151386260986328
  0
3DFACE
  8
0
 10
-1395.279052734375
 20
30.136442184448242
 30
8.151386260986328
 11
-1388.342041015625
 21
23.41379737854004
 31
8.151386260986328
 12
-1388.342041015625
 22
30.136444091796875
 32
8.151386260986328
 13
-1388.342041015625
 23
30.136444091796875
 33
8.151386260986328
  0
3DFACE
  8
0
 10
-1395.279052734375
 20
35.40911102294922
 30
8.151386260986328
 11
-1395.279052734375
 21
30.136442184448242
 31
8.151386260986328
 12
-1388.342041015625
 22
30.136444091796875
 32
8.151386260986328
 13
-1388.342041015625
 23
30.136444091796875
 33
8.151386260986328
  0
3DFACE
  8
0
 10
-1395.279052734375
 20
35.40911102294922
 30
8.151386260986328
 11
-1388.342041015625
 21
30.136444091796875
 31
8.151386260986328
 12
-1388.342041015625
 22
35.40911102294922
 32
8.151386260986328
 13
-1388.342041015625
 23
35.40911102294922
 33
8.151386260986328
  0
3DFACE
  8
0
 10
-1395.279052734375
 20
42.13176727294922
 30
8.151386260986328
 11
-1395.279052734375
 21
35.40911102294922
 31
8.151386260986328
 12
-1388.342041015625
 22
35.40911102294922
 32
8.151386260986328
 13
-1388.342041015625
 23
35.40911102294922
 33
8.151386260986328
  0
3DFACE
  8
0
 10
-1395.279052734375
 20
42.13176727294922
 30
8.151386260986328
 11
-1388.342041015625
 21
35.40911102294922
 31
8.151386260986328
 12
-1388.342041015625
 22
42.13176727294922
 32
8.151386260986328
 13
-1388.342041015625
 23
42.13176727294922
 33
8.151386260986328
  0
3DFACE
  8
0
 10
-1395.279052734375
 20
47.40443420410156
 30
8.151386260986328
 11
-1395.279052734375
 21
42.13176727294922
 31
8.151386260986328
 12
-1388.342041015625
 22
42.13176727294922
 32
8.151386260986328
 13
-1388.342041015625
 23
42.13176727294922
 33
8.151386260986328
  0
3DFACE
  8
0
 10
-1395.279052734375
 20
47.40443420410156
 30
8.151386260986328
 11
-1388.342041015625
 21
42.13176727294922
 31
8.151386260986328
 12
-1388.342041015625
 22
47.40443420410156
 32
8.151386260986328
 13
-1388.342041015625
 23
47.40443420410156
 33
8.151386260986328
  0
3DFACE
  8
0
 10
-1395.279052734375
 20
54.127079010009766
 30
8.151386260986328
 11
-1395.279052734375
 21
47.40443420410156
 31
8.151386260986328
 12
-1388.342041015625
 22
47.40443420410156
 32
8.151386260986328
 13
-1388.342041015625
 23
47.40443420410156
 33
8.151386260986328
  0
3DFACE
  8
0
 10
-1395.279052734375
 20
54.127079010009766
 30
8.151386260986328
 11
-1388.342041015625
 21
47.40443420410156
 31
8.151386260986328
 12
-1388.342041015625
 22
54.12708282470703
 32
8.151386260986328
 13
-1388.342041015625
 23
54.12708282470703
 33
8.151386260986328
  0
3DFACE
  8
0
 10
-1395.279052734375
 20
59.39974594116211
 30
8.151386260986328
 11
-1395.279052734375
 21
54.127079010009766
 31
8.151386260986328
 12
-1388.342041015625
 22
54.12708282470703
 32
8.151386260986328
 13
-1388.342041015625
 23
54.12708282470703
 33
8.151386260986328
  0
3DFACE
  8
0
 10
-1395.279052734375
 20
59.39974594116211
 30
8.151386260986328
 11
-1388.342041015625
 21
54.12708282470703
 31
8.151386260986328
 12
-1388.342041015625
 22
59.399749755859375
 32
8.151386260986328
 13
-1388.342041015625
 23
59.399749755859375
 33
8.151386260986328
  0
3DFACE
  8
0
 10
-1395.279052734375
 20
66.12239074707031
 30
8.151386260986328
 11
-1395.279052734375
 21
59.39974594116211
 31
8.151386260986328
 12
-1388.342041015625
 22
59.399749755859375
 32
8.151386260986328
 13
-1388.342041015625
 23
59.399749755859375
 33
8.151386260986328
  0
3DFACE
  8
0
 10
-1395.279052734375
 20
66.12239074707031
 30
8.151386260986328
 11
-1388.342041015625
 21
59.399749755859375
 31
8.151386260986328
 12
-1388.342041015625
 22
66.12239074707031
 32
8.151386260986328
 13
-1388.342041015625
 23
66.12239074707031
 33
8.151386260986328
  0
3DFACE
  8
0
 10
-1395.279052734375
 20
71.39506530761719
 30
8.151386260986328
 11
-1395.279052734375
 21
66.12239074707031
 31
8.151386260986328
 12
-1388.342041015625
 22
66.12239074707031
 32
8.151386260986328
 13
-1388.342041015625
 23
66.12239074707031
 33
8.151386260986328
  0
3DFACE
  8
0
 10
-1395.279052734375
 20
71.39506530761719
 30
8.151386260986328
 11
-1388.342041015625
 21
66.12239074707031
 31
8.151386260986328
 12
-1388.342041015625
 22
71.39506530761719
 32
8.151386260986328
 13
-1388.342041015625
 23
71.39506530761719
 33
8.151386260986328
  0
3DFACE
  8
0
 10
-1395.279052734375
 20
78.11772155761719
 30
8.151386260986328
 11
-1395.279052734375
 21
71.39506530761719
 31
8.151386260986328
 12
-1388.342041015625
 22
71.39506530761719
 32
8.151386260986328
 13
-1388.342041015625
 23
71.39506530761719
 33
8.151386260986328
  0
3DFACE
  8
0
 10
-1395.279052734375
 20
78.11772155761719
 30
8.151386260986328
 11
-1388.342041015625
 21
71.39506530761719
 31
8.151386260986328
 12
-1388.342041015625
 22
78.11772155761719
 32
8.151386260986328
 13
-1388.342041015625
 23
78.11772155761719
 33
8.151386260986328
  0
3DFACE
  8
0
 10
-1395.279052734375
 20
83.39038848876953
 30
8.151386260986328
 11
-1395.279052734375
 21
78.11772155761719
 31
8.151386260986328
 12
-1388.342041015625
 22
78.11772155761719
 32
8.151386260986328
 13
-1388.342041015625
 23
78.11772155761719
 33
8.151386260986328
  0
3DFACE
  8
0
 10
-1395.279052734375
 20
83.39038848876953
 30
8.151386260986328
 11
-1388.342041015625
 21
78.11772155761719
 31
8.151386260986328
 12
-1388.342041015625
 22
83.39039611816406
 32
8.151386260986328
 13
-1388.342041015625
 23
83.39039611816406
 33
8.151386260986328
  0
3DFACE
  8
0
 10
-1395.279052734375
 20
90.11304473876953
 30
8.151386260986328
 11
-1395.279052734375
 21
83.39038848876953
 31
8.151386260986328
 12
-1388.342041015625
 22
83.39039611816406
 32
8.151386260986328
 13
-1388.342041015625
 23
83.39039611816406
 33
8.151386260986328
  0
3DFACE
  8
0
 10
-1395.279052734375
 20
90.11304473876953
 30
8.151386260986328
 11
-1388.342041015625
 21
83.39039611816406
 31
8.151386260986328
 12
-1388.342041015625
 22
90.11305236816406
 32
8.151386260986328
 13
-1388.342041015625
 23
90.11305236816406
 33
8.151386260986328
  0
3DFACE
  8
0
 10
-1395.279052734375
 20
95.38571166992188
 30
8.151386260986328
 11
-1395.279052734375
 21
90.11304473876953
 31
8.151386260986328
 12
-1388.342041015625
 22
90.11305236816406
 32
8.151386260986328
 13
-1388.342041015625
 23
90.11305236816406
 33
8.151386260986328
  0
3DFACE
  8
0
 10
-1395.279052734375
 20
95.38571166992188
 30
8.151386260986328
 11
-1388.342041015625
 21
90.11305236816406
 31
8.151386260986328
 12
-1388.342041015625
 22
95.38571166992188
 32
8.151386260986328
 13
-1388.342041015625
 23
95.38571166992188
 33
8.151386260986328
  0
3DFACE
  8
0
 10
-1395.279052734375
 20
102.10836029052734
 30
8.151386260986328
 11
-1395.279052734375
 21
95.38571166992188
 31
8.151386260986328
 12
-1388.342041015625
 22
95.38571166992188
 32
8.151386260986328
 13
-1388.342041015625
 23
95.38571166992188
 33
8.151386260986328
  0
3DFACE
  8
0
 10
-1395.279052734375
 20
102.10836029052734
 30
8.151386260986328
 11
-1388.342041015625
 21
95.38571166992188
 31
8.151386260986328
 12
-1388.342041015625
 22
102.10836791992188
 32
8.151386260986328
 13
-1388.342041015625
 23
102.10836791992188
 33
8.151386260986328
  0
3DFACE
  8
0
 10
-1395.279052734375
 20
107.38102722167969
 30
8.151386260986328
 11
-1395.279052734375
 21
102.10836029052734
 31
8.151386260986328
 12
-1388.342041015625
 22
102.10836791992188
 32
8.151386260986328
 13
-1388.342041015625
 23
102.10836791992188
 33
8.151386260986328
  0
3DFACE
  8
0
 10
-1395.279052734375
 20
107.38102722167969
 30
8.151386260986328
 11
-1388.342041015625
 21
102.10836791992188
 31
8.151386260986328
 12
-1388.342041015625
 22
107.38102722167969
 32
8.151386260986328
 13
-1388.342041015625
 23
107.38102722167969
 33
8.151386260986328
  0
3DFACE
  8
0
 10
-1395.279052734375
 20
114.10367584228516
 30
8.151386260986328
 11
-1395.279052734375
 21
107.38102722167969
 31
8.151386260986328
 12
-1388.342041015625
 22
107.38102722167969
 32
8.151386260986328
 13
-1388.342041015625
 23
107.38102722167969
 33
8.151386260986328
  0
3DFACE
  8
0
 10
-1395.279052734375
 20
114.10367584228516
 30
8.151386260986328
 11
-1388.342041015625
 21
107.38102722167969
 31
8.151386260986328
 12
-1388.342041015625
 22
114.10368347167969
 32
8.151386260986328
 13
-1388.342041015625
 23
114.10368347167969
 33
8.151386260986328
  0
3DFACE
  8
0
 10
-1322.503173828125
 20
-17.01891326904297
 30
8.151386260986328
 11
-1350.5528564453125
 21
-17.84484100341797
 31
8.151386260986328
 12
-1271.236083984375
 22
-24.534515380859375
 32
8.151386260986328
 13
-1271.236083984375
 23
-24.534515380859375
 33
8.151386260986328
  0
3DFACE
  8
0
 10
-1302.7733154296875
 20
-17.01891326904297
 30
8.151386260986328
 11
-1322.503173828125
 21
-17.01891326904297
 31
8.151386260986328
 12
-1271.236083984375
 22
-24.534515380859375
 32
8.151386260986328
 13
-1271.236083984375
 23
-24.534515380859375
 33
8.151386260986328
  0
3DFACE
  8
0
 10
-1302.7733154296875
 20
-17.01891326904297
 30
8.151386260986328
 11
-1271.236083984375
 21
-24.534515380859375
 31
8.151386260986328
 12
-1294.721923828125
 22
72.90431213378906
 32
8.151386260986328
 13
-1294.721923828125
 23
72.90431213378906
 33
8.151386260986328
  0
3DFACE
  8
0
 10
-1302.7733154296875
 20
120.08738708496094
 30
8.151386260986328
 11
-1302.7733154296875
 21
-17.01891326904297
 31
8.151386260986328
 12
-1294.721923828125
 22
72.90431213378906
 32
8.151386260986328
 13
-1294.721923828125
 23
72.90431213378906
 33
8.151386260986328
  0
3DFACE
  8
0
 10
-1395.279052734375
 20
119.3763427734375
 30
8.151386260986328
 11
-1395.279052734375
 21
114.10367584228516
 31
8.151386260986328
 12
-1388.342041015625
 22
114.10368347167969
 32
8.151386260986328
 13
-1388.342041015625
 23
114.10368347167969
 33
8.151386260986328
  0
3DFACE
  8
0
 10
-1395.279052734375
 20
119.3763427734375
 30
8.151386260986328
 11
-1388.342041015625
 21
114.10368347167969
 31
8.151386260986328
 12
-1388.342041015625
 22
119.3763427734375
 32
8.151386260986328
 13
-1388.342041015625
 23
119.3763427734375
 33
8.151386260986328
  0
3DFACE
  8
0
 10
-1302.7733154296875
 20
120.08738708496094
 30
8.151386260986328
 11
-1294.721923828125
 21
72.90431213378906
 31
8.151386260986328
 12
-1294.721923828125
 22
146.30955505371094
 32
8.151386260986328
 13
-1294.721923828125
 23
146.30955505371094
 33
8.151386260986328
  0
3DFACE
  8
0
 10
-1350.5528564453125
 20
66.12239074707031
 30
8.151386260986328
 11
-1322.503173828125
 21
62.84550857543945
 31
8.151386260986328
 12
-1322.503173828125
 22
120.08738708496094
 32
8.151386260986328
 13
-1322.503173828125
 23
120.08738708496094
 33
8.151386260986328
  0
3DFACE
  8
0
 10
-1322.503173828125
 20
120.08738708496094
 30
8.151386260986328
 11
-1302.7733154296875
 21
120.08738708496094
 31
8.151386260986328
 12
-1294.721923828125
 22
146.30955505371094
 32
8.151386260986328
 13
-1294.721923828125
 23
146.30955505371094
 33
8.151386260986328
  0
3DFACE
  8
0
 10
-1294.721923828125
 20
146.30955505371094
 30
8.151386260986328
 11
-1395.279052734375
 21
119.3763427734375
 31
8.151386260986328
 12
-1388.342041015625
 22
119.3763427734375
 32
8.151386260986328
 13
-1388.342041015625
 23
119.3763427734375
 33
8.151386260986328
  0
3DFACE
  8
0
 10
-1294.721923828125
 20
146.30955505371094
 30
8.151386260986328
 11
-1388.342041015625
 21
119.3763427734375
 31
8.151386260986328
 12
-1372.9169921875
 22
119.3763427734375
 32
8.151386260986328
 13
-1372.9169921875
 23
119.3763427734375
 33
8.151386260986328
  0
3DFACE
  8
0
 10
-1350.5528564453125
 20
71.39506530761719
 30
8.151386260986328
 11
-1350.5528564453125
 21
66.12239074707031
 31
8.151386260986328
 12
-1322.503173828125
 22
120.08738708496094
 32
8.151386260986328
 13
-1322.503173828125
 23
120.08738708496094
 33
8.151386260986328
  0
3DFACE
  8
0
 10
-1322.503173828125
 20
120.08738708496094
 30
8.151386260986328
 11
-1294.721923828125
 21
146.30955505371094
 31
8.151386260986328
 12
-1372.9169921875
 22
119.3763427734375
 32
8.151386260986328
 13
-1372.9169921875
 23
119.3763427734375
 33
8.151386260986328
  0
3DFACE
  8
0
 10
-1350.5528564453125
 20
78.11772155761719
 30
8.151386260986328
 11
-1350.5528564453125
 21
71.39506530761719
 31
8.151386260986328
 12
-1322.503173828125
 22
120.08738708496094
 32
8.151386260986328
 13
-1322.503173828125
 23
120.08738708496094
 33
8.151386260986328
  0
3DFACE
  8
0
 10
-1350.5528564453125
 20
83.39039611816406
 30
8.151386260986328
 11
-1350.5528564453125
 21
78.11772155761719
 31
8.151386260986328
 12
-1322.503173828125
 22
120.08738708496094
 32
8.151386260986328
 13
-1322.503173828125
 23
120.08738708496094
 33
8.151386260986328
  0
3DFACE
  8
0
 10
-1372.9169921875
 20
-5.849514007568359
 30
8.151386260986328
 11
-1372.9169921875
 21
-12.572174072265625
 31
8.151386260986328
 12
-1365.9779052734375
 22
-12.572174072265625
 32
8.151386260986328
 13
-1365.9779052734375
 23
-12.572174072265625
 33
8.151386260986328
  0
3DFACE
  8
0
 10
-1372.9169921875
 20
-5.849514007568359
 30
8.151386260986328
 11
-1365.9779052734375
 21
-12.572174072265625
 31
8.151386260986328
 12
-1365.9779052734375
 22
-5.849514007568359
 32
8.151386260986328
 13
-1365.9779052734375
 23
-5.849514007568359
 33
8.151386260986328
  0
3DFACE
  8
0
 10
-1372.9169921875
 20
-0.5768470764160156
 30
8.151386260986328
 11
-1372.9169921875
 21
-5.849514007568359
 31
8.151386260986328
 12
-1365.9779052734375
 22
-5.849514007568359
 32
8.151386260986328
 13
-1365.9779052734375
 23
-5.849514007568359
 33
8.151386260986328
  0
3DFACE
  8
0
 10
-1372.9169921875
 20
-0.5768470764160156
 30
8.151386260986328
 11
-1365.9779052734375
 21
-5.849514007568359
 31
8.151386260986328
 12
-1365.9779052734375
 22
-0.5768470764160156
 32
8.151386260986328
 13
-1365.9779052734375
 23
-0.5768470764160156
 33
8.151386260986328
  0
3DFACE
  8
0
 10
-1372.9169921875
 20
6.145816802978516
 30
8.151386260986328
 11
-1372.9169921875
 21
-0.5768470764160156
 31
8.151386260986328
 12
-1365.9779052734375
 22
-0.5768470764160156
 32
8.151386260986328
 13
-1365.9779052734375
 23
-0.5768470764160156
 33
8.151386260986328
  0
3DFACE
  8
0
 10
-1372.9169921875
 20
6.145816802978516
 30
8.151386260986328
 11
-1365.9779052734375
 21
-0.5768470764160156
 31
8.151386260986328
 12
-1365.9779052734375
 22
6.145816802978516
 32
8.151386260986328
 13
-1365.9779052734375
 23
6.145816802978516
 33
8.151386260986328
  0
3DFACE
  8
0
 10
-1372.9169921875
 20
11.41848373413086
 30
8.151386260986328
 11
-1372.9169921875
 21
6.145816802978516
 31
8.151386260986328
 12
-1365.9779052734375
 22
6.145816802978516
 32
8.151386260986328
 13
-1365.9779052734375
 23
6.145816802978516
 33
8.151386260986328
  0
3DFACE
  8
0
 10
-1372.9169921875
 20
11.41848373413086
 30
8.151386260986328
 11
-1365.9779052734375
 21
6.145816802978516
 31
8.151386260986328
 12
-1365.9779052734375
 22
11.41848373413086
 32
8.151386260986328
 13
-1365.9779052734375
 23
11.41848373413086
 33
8.151386260986328
  0
3DFACE
  8
0
 10
-1372.9169921875
 20
18.141128540039062
 30
8.151386260986328
 11
-1372.9169921875
 21
11.41848373413086
 31
8.151386260986328
 12
-1365.9779052734375
 22
11.41848373413086
 32
8.151386260986328
 13
-1365.9779052734375
 23
11.41848373413086
 33
8.151386260986328
  0
3DFACE
  8
0
 10
-1372.9169921875
 20
18.141128540039062
 30
8.151386260986328
 11
-1365.9779052734375
 21
11.41848373413086
 31
8.151386260986328
 12
-1365.9779052734375
 22
18.141128540039062
 32
8.151386260986328
 13
-1365.9779052734375
 23
18.141128540039062
 33
8.151386260986328
  0
3DFACE
  8
0
 10
-1372.9169921875
 20
23.41379737854004
 30
8.151386260986328
 11
-1372.9169921875
 21
18.141128540039062
 31
8.151386260986328
 12
-1365.9779052734375
 22
18.141128540039062
 32
8.151386260986328
 13
-1365.9779052734375
 23
18.141128540039062
 33
8.151386260986328
  0
3DFACE
  8
0
 10
-1372.9169921875
 20
23.41379737854004
 30
8.151386260986328
 11
-1365.9779052734375
 21
18.141128540039062
 31
8.151386260986328
 12
-1365.9779052734375
 22
23.41379737854004
 32
8.151386260986328
 13
-1365.9779052734375
 23
23.41379737854004
 33
8.151386260986328
  0
3DFACE
  8
0
 10
-1372.9169921875
 20
30.136444091796875
 30
8.151386260986328
 11
-1372.9169921875
 21
23.41379737854004
 31
8.151386260986328
 12
-1365.9779052734375
 22
23.41379737854004
 32
8.151386260986328
 13
-1365.9779052734375
 23
23.41379737854004
 33
8.151386260986328
  0
3DFACE
  8
0
 10
-1372.9169921875
 20
30.136444091796875
 30
8.151386260986328
 11
-1365.9779052734375
 21
23.41379737854004
 31
8.151386260986328
 12
-1365.9779052734375
 22
30.136444091796875
 32
8.151386260986328
 13
-1365.9779052734375
 23
30.136444091796875
 33
8.151386260986328
  0
3DFACE
  8
0
 10
-1372.9169921875
 20
35.40911102294922
 30
8.151386260986328
 11
-1372.9169921875
 21
30.136444091796875
 31
8.151386260986328
 12
-1365.9779052734375
 22
30.136444091796875
 32
8.151386260986328
 13
-1365.9779052734375
 23
30.136444091796875
 33
8.151386260986328
  0
3DFACE
  8
0
 10
-1372.9169921875
 20
35.40911102294922
 30
8.151386260986328
 11
-1365.9779052734375
 21
30.136444091796875
 31
8.151386260986328
 12
-1365.9779052734375
 22
35.40911102294922
 32
8.151386260986328
 13
-1365.9779052734375
 23
35.40911102294922
 33
8.151386260986328
  0
3DFACE
  8
0
 10
-1372.9169921875
 20
42.13176727294922
 30
8.151386260986328
 11
-1372.9169921875
 21
35.40911102294922
 31
8.151386260986328
 12
-1365.9779052734375
 22
35.40911102294922
 32
8.151386260986328
 13
-1365.9779052734375
 23
35.40911102294922
 33
8.151386260986328
  0
3DFACE
  8
0
 10
-1372.9169921875
 20
42.13176727294922
 30
8.151386260986328
 11
-1365.9779052734375
 21
35.40911102294922
 31
8.151386260986328
 12
-1365.9779052734375
 22
42.13176727294922
 32
8.151386260986328
 13
-1365.9779052734375
 23
42.13176727294922
 33
8.151386260986328
  0
3DFACE
  8
0
 10
-1372.9169921875
 20
47.40443420410156
 30
8.151386260986328
 11
-1372.9169921875
 21
42.13176727294922
 31
8.151386260986328
 12
-1365.9779052734375
 22
42.13176727294922
 32
8.151386260986328
 13
-1365.9779052734375
 23
42.13176727294922
 33
8.151386260986328
  0
3DFACE
  8
0
 10
-1372.9169921875
 20
47.40443420410156
 30
8.151386260986328
 11
-1365.9779052734375
 21
42.13176727294922
 31
8.151386260986328
 12
-1365.9779052734375
 22
47.40443420410156
 32
8.151386260986328
 13
-1365.9779052734375
 23
47.40443420410156
 33
8.151386260986328
  0
3DFACE
  8
0
 10
-1372.9169921875
 20
54.12708282470703
 30
8.151386260986328
 11
-1372.9169921875
 21
47.40443420410156
 31
8.151386260986328
 12
-1365.9779052734375
 22
47.40443420410156
 32
8.151386260986328
 13
-1365.9779052734375
 23
47.40443420410156
 33
8.151386260986328
  0
3DFACE
  8
0
 10
-1372.9169921875
 20
54.12708282470703
 30
8.151386260986328
 11
-1365.9779052734375
 21
47.40443420410156
 31
8.151386260986328
 12
-1365.9779052734375
 22
54.12708282470703
 32
8.151386260986328
 13
-1365.9779052734375
 23
54.12708282470703
 33
8.151386260986328
  0
3DFACE
  8
0
 10
-1372.9169921875
 20
59.399749755859375
 30
8.151386260986328
 11
-1372.9169921875
 21
54.12708282470703
 31
8.151386260986328
 12
-1365.9779052734375
 22
54.12708282470703
 32
8.151386260986328
 13
-1365.9779052734375
 23
54.12708282470703
 33
8.151386260986328
  0
3DFACE
  8
0
 10
-1372.9169921875
 20
59.399749755859375
 30
8.151386260986328
 11
-1365.9779052734375
 21
54.12708282470703
 31
8.151386260986328
 12
-1365.9779052734375
 22
59.399749755859375
 32
8.151386260986328
 13
-1365.9779052734375
 23
59.399749755859375
 33
8.151386260986328
  0
3DFACE
  8
0
 10
-1372.9169921875
 20
66.12239074707031
 30
8.151386260986328
 11
-1372.9169921875
 21
59.399749755859375
 31
8.151386260986328
 12
-1365.9779052734375
 22
59.399749755859375
 32
8.151386260986328
 13
-1365.9779052734375
 23
59.399749755859375
 33
8.151386260986328
  0
3DFACE
  8
0
 10
-1372.9169921875
 20
66.12239074707031
 30
8.151386260986328
 11
-1365.9779052734375
 21
59.399749755859375
 31
8.151386260986328
 12
-1365.9779052734375
 22
66.12239074707031
 32
8.151386260986328
 13
-1365.9779052734375
 23
66.12239074707031
 33
8.151386260986328
  0
3DFACE
  8
0
 10
-1372.9169921875
 20
71.39506530761719
 30
8.151386260986328
 11
-1372.9169921875
 21
66.12239074707031
 31
8.151386260986328
 12
-1365.9779052734375
 22
66.12239074707031
 32
8.151386260986328
 13
-1365.9779052734375
 23
66.12239074707031
 33
8.151386260986328
  0
3DFACE
  8
0
 10
-1372.9169921875
 20
71.39506530761719
 30
8.151386260986328
 11
-1365.9779052734375
 21
66.12239074707031
 31
8.151386260986328
 12
-1365.9779052734375
 22
71.39506530761719
 32
8.151386260986328
 13
-1365.9779052734375
 23
71.39506530761719
 33
8.151386260986328
  0
3DFACE
  8
0
 10
-1372.9169921875
 20
78.11772155761719
 30
8.151386260986328
 11
-1372.9169921875
 21
71.39506530761719
 31
8.151386260986328
 12
-1365.9779052734375
 22
71.39506530761719
 32
8.151386260986328
 13
-1365.9779052734375
 23
71.39506530761719
 33
8.151386260986328
  0
3DFACE
  8
0
 10
-1372.9169921875
 20
78.11772155761719
 30
8.151386260986328
 11
-1365.9779052734375
 21
71.39506530761719
 31
8.151386260986328
 12
-1365.9779052734375
 22
78.11772155761719
 32
8.151386260986328
 13
-1365.9779052734375
 23
78.11772155761719
 33
8.151386260986328
  0
3DFACE
  8
0
 10
-1372.9169921875
 20
83.39039611816406
 30
8.151386260986328
 11
-1372.9169921875
 21
78.11772155761719
 31
8.151386260986328
 12
-1365.9779052734375
 22
78.11772155761719
 32
8.151386260986328
 13
-1365.9779052734375
 23
78.11772155761719
 33
8.151386260986328
  0
3DFACE
  8
0
 10
-1372.9169921875
 20
83.39039611816406
 30
8.151386260986328
 11
-1365.9779052734375
 21
78.11772155761719
 31
8.151386260986328
 12
-1365.9779052734375
 22
83.39039611816406
 32
8.151386260986328
 13
-1365.9779052734375
 23
83.39039611816406
 33
8.151386260986328
  0
3DFACE
  8
0
 10
-1372.9169921875
 20
90.11305236816406
 30
8.151386260986328
 11
-1372.9169921875
 21
83.39039611816406
 31
8.151386260986328
 12
-1365.9779052734375
 22
83.39039611816406
 32
8.151386260986328
 13
-1365.9779052734375
 23
83.39039611816406
 33
8.151386260986328
  0
3DFACE
  8
0
 10
-1372.9169921875
 20
90.11305236816406
 30
8.151386260986328
 11
-1365.9779052734375
 21
83.39039611816406
 31
8.151386260986328
 12
-1365.9779052734375
 22
90.11305236816406
 32
8.151386260986328
 13
-1365.9779052734375
 23
90.11305236816406
 33
8.151386260986328
  0
3DFACE
  8
0
 10
-1372.9169921875
 20
95.38571166992188
 30
8.151386260986328
 11
-1372.9169921875
 21
90.11305236816406
 31
8.151386260986328
 12
-1365.9779052734375
 22
90.11305236816406
 32
8.151386260986328
 13
-1365.9779052734375
 23
90.11305236816406
 33
8.151386260986328
  0
3DFACE
  8
0
 10
-1372.9169921875
 20
95.38571166992188
 30
8.151386260986328
 11
-1365.9779052734375
 21
90.11305236816406
 31
8.151386260986328
 12
-1365.9779052734375
 22
95.38571166992188
 32
8.151386260986328
 13
-1365.9779052734375
 23
95.38571166992188
 33
8.151386260986328
  0
3DFACE
  8
0
 10
-1372.9169921875
 20
102.10836791992188
 30
8.151386260986328
 11
-1372.9169921875
 21
95.38571166992188
 31
8.151386260986328
 12
-1365.9779052734375
 22
95.38571166992188
 32
8.151386260986328
 13
-1365.9779052734375
 23
95.38571166992188
 33
8.151386260986328
  0
3DFACE
  8
0
 10
-1372.9169921875
 20
102.10836791992188
 30
8.151386260986328
 11
-1365.9779052734375
 21
95.38571166992188
 31
8.151386260986328
 12
-1365.9779052734375
 22
102.10836791992188
 32
8.151386260986328
 13
-1365.9779052734375
 23
102.10836791992188
 33
8.151386260986328
  0
3DFACE
  8
0
 10
-1372.9169921875
 20
107.38102722167969
 30
8.151386260986328
 11
-1372.9169921875
 21
102.10836791992188
 31
8.151386260986328
 12
-1365.9779052734375
 22
102.10836791992188
 32
8.151386260986328
 13
-1365.9779052734375
 23
102.10836791992188
 33
8.151386260986328
  0
3DFACE
  8
0
 10
-1372.9169921875
 20
107.38102722167969
 30
8.151386260986328
 11
-1365.9779052734375
 21
102.10836791992188
 31
8.151386260986328
 12
-1365.9779052734375
 22
107.38102722167969
 32
8.151386260986328
 13
-1365.9779052734375
 23
107.38102722167969
 33
8.151386260986328
  0
3DFACE
  8
0
 10
-1372.9169921875
 20
114.10368347167969
 30
8.151386260986328
 11
-1372.9169921875
 21
107.38102722167969
 31
8.151386260986328
 12
-1365.9779052734375
 22
107.38102722167969
 32
8.151386260986328
 13
-1365.9779052734375
 23
107.38102722167969
 33
8.151386260986328
  0
3DFACE
  8
0
 10
-1372.9169921875
 20
114.10368347167969
 30
8.151386260986328
 11
-1365.9779052734375
 21
107.38102722167969
 31
8.151386260986328
 12
-1365.9779052734375
 22
114.10368347167969
 32
8.151386260986328
 13
-1365.9779052734375
 23
114.10368347167969
 33
8.151386260986328
  0
3DFACE
  8
0
 10
-1350.5528564453125
 20
90.11305236816406
 30
8.151386260986328
 11
-1350.5528564453125
 21
83.39039611816406
 31
8.151386260986328
 12
-1322.503173828125
 22
120.08738708496094
 32
8.151386260986328
 13
-1322.503173828125
 23
120.08738708496094
 33
8.151386260986328
  0
3DFACE
  8
0
 10
-1350.5528564453125
 20
95.38571166992188
 30
8.151386260986328
 11
-1350.5528564453125
 21
90.11305236816406
 31
8.151386260986328
 12
-1322.503173828125
 22
120.08738708496094
 32
8.151386260986328
 13
-1322.503173828125
 23
120.08738708496094
 33
8.151386260986328
  0
3DFACE
  8
0
 10
-1372.9169921875
 20
119.3763427734375
 30
8.151386260986328
 11
-1372.9169921875
 21
114.10368347167969
 31
8.151386260986328
 12
-1365.9779052734375
 22
114.10368347167969
 32
8.151386260986328
 13
-1365.9779052734375
 23
114.10368347167969
 33
8.151386260986328
  0
3DFACE
  8
0
 10
-1372.9169921875
 20
119.3763427734375
 30
8.151386260986328
 11
-1365.9779052734375
 21
114.10368347167969
 31
8.151386260986328
 12
-1365.9779052734375
 22
119.3763427734375
 32
8.151386260986328
 13
-1365.9779052734375
 23
119.3763427734375
 33
8.151386260986328
  0
3DFACE
  8
0
 10
-1350.5528564453125
 20
102.10836791992188
 30
8.151386260986328
 11
-1350.5528564453125
 21
95.38571166992188
 31
8.151386260986328
 12
-1322.503173828125
 22
120.08738708496094
 32
8.151386260986328
 13
-1322.503173828125
 23
120.08738708496094
 33
8.151386260986328
  0
3DFACE
  8
0
 10
-1350.5528564453125
 20
107.38102722167969
 30
8.151386260986328
 11
-1350.5528564453125
 21
102.10836791992188
 31
8.151386260986328
 12
-1322.503173828125
 22
120.08738708496094
 32
8.151386260986328
 13
-1322.503173828125
 23
120.08738708496094
 33
8.151386260986328
  0
3DFACE
  8
0
 10
-1322.503173828125
 20
120.08738708496094
 30
8.151386260986328
 11
-1372.9169921875
 21
119.3763427734375
 31
8.151386260986328
 12
-1365.9779052734375
 22
119.3763427734375
 32
8.151386260986328
 13
-1365.9779052734375
 23
119.3763427734375
 33
8.151386260986328
  0
3DFACE
  8
0
 10
-1322.503173828125
 20
120.08738708496094
 30
8.151386260986328
 11
-1365.9779052734375
 21
119.3763427734375
 31
8.151386260986328
 12
-1350.5528564453125
 22
119.3763427734375
 32
8.151386260986328
 13
-1350.5528564453125
 23
119.3763427734375
 33
8.151386260986328
  0
3DFACE
  8
0
 10
-1350.5528564453125
 20
114.10368347167969
 30
8.151386260986328
 11
-1350.5528564453125
 21
107.38102722167969
 31
8.151386260986328
 12
-1322.503173828125
 22
120.08738708496094
 32
8.151386260986328
 13
-1322.503173828125
 23
120.08738708496094
 33
8.151386260986328
  0
3DFACE
  8
0
 10
-1350.5528564453125
 20
119.3763427734375
 30
8.151386260986328
 11
-1350.5528564453125
 21
114.10368347167969
 31
8.151386260986328
 12
-1322.503173828125
 22
120.08738708496094
 32
8.151386260986328
 13
-1322.503173828125
 23
120.08738708496094
 33
8.151386260986328
  0
3DFACE
  8
0
 10
-1365.9779052734375
 20
114.10368347167969
 30
8.151386260986328
 11
-1365.9779052734375
 21
107.38102722167969
 31
8.151386260986328
 12
-1350.5528564453125
 22
107.38102722167969
 32
8.151386260986328
 13
-1350.5528564453125
 23
107.38102722167969
 33
8.151386260986328
  0
3DFACE
  8
0
 10
-1365.9779052734375
 20
114.10368347167969
 30
8.151386260986328
 11
-1350.5528564453125
 21
107.38102722167969
 31
8.151386260986328
 12
-1350.5528564453125
 22
114.10368347167969
 32
8.151386260986328
 13
-1350.5528564453125
 23
114.10368347167969
 33
8.151386260986328
  0
3DFACE
  8
0
 10
-1365.9779052734375
 20
102.10836791992188
 30
8.151386260986328
 11
-1365.9779052734375
 21
95.38571166992188
 31
8.151386260986328
 12
-1350.5528564453125
 22
95.38571166992188
 32
8.151386260986328
 13
-1350.5528564453125
 23
95.38571166992188
 33
8.151386260986328
  0
3DFACE
  8
0
 10
-1365.9779052734375
 20
102.10836791992188
 30
8.151386260986328
 11
-1350.5528564453125
 21
95.38571166992188
 31
8.151386260986328
 12
-1350.5528564453125
 22
102.10836791992188
 32
8.151386260986328
 13
-1350.5528564453125
 23
102.10836791992188
 33
8.151386260986328
  0
3DFACE
  8
0
 10
-1365.9779052734375
 20
90.11305236816406
 30
8.151386260986328
 11
-1365.9779052734375
 21
83.39039611816406
 31
8.151386260986328
 12
-1350.5528564453125
 22
83.39039611816406
 32
8.151386260986328
 13
-1350.5528564453125
 23
83.39039611816406
 33
8.151386260986328
  0
3DFACE
  8
0
 10
-1365.9779052734375
 20
90.11305236816406
 30
8.151386260986328
 11
-1350.5528564453125
 21
83.39039611816406
 31
8.151386260986328
 12
-1350.5528564453125
 22
90.11305236816406
 32
8.151386260986328
 13
-1350.5528564453125
 23
90.11305236816406
 33
8.151386260986328
  0
3DFACE
  8
0
 10
-1365.9779052734375
 20
78.11772155761719
 30
8.151386260986328
 11
-1365.9779052734375
 21
71.39506530761719
 31
8.151386260986328
 12
-1350.5528564453125
 22
71.39506530761719
 32
8.151386260986328
 13
-1350.5528564453125
 23
71.39506530761719
 33
8.151386260986328
  0
3DFACE
  8
0
 10
-1365.9779052734375
 20
78.11772155761719
 30
8.151386260986328
 11
-1350.5528564453125
 21
71.39506530761719
 31
8.151386260986328
 12
-1350.5528564453125
 22
78.11772155761719
 32
8.151386260986328
 13
-1350.5528564453125
 23
78.11772155761719
 33
8.151386260986328
  0
3DFACE
  8
0
 10
-1365.9779052734375
 20
66.12239074707031
 30
8.151386260986328
 11
-1365.9779052734375
 21
59.399749755859375
 31
8.151386260986328
 12
-1350.5528564453125
 22
59.399749755859375
 32
8.151386260986328
 13
-1350.5528564453125
 23
59.399749755859375
 33
8.151386260986328
  0
3DFACE
  8
0
 10
-1365.9779052734375
 20
66.12239074707031
 30
8.151386260986328
 11
-1350.5528564453125
 21
59.399749755859375
 31
8.151386260986328
 12
-1350.5528564453125
 22
66.12239074707031
 32
8.151386260986328
 13
-1350.5528564453125
 23
66.12239074707031
 33
8.151386260986328
  0
3DFACE
  8
0
 10
-1365.9779052734375
 20
54.12708282470703
 30
8.151386260986328
 11
-1365.9779052734375
 21
47.40443420410156
 31
8.151386260986328
 12
-1350.5528564453125
 22
47.40443420410156
 32
8.151386260986328
 13
-1350.5528564453125
 23
47.40443420410156
 33
8.151386260986328
  0
3DFACE
  8
0
 10
-1365.9779052734375
 20
54.12708282470703
 30
8.151386260986328
 11
-1350.5528564453125
 21
47.40443420410156
 31
8.151386260986328
 12
-1350.5528564453125
 22
54.12708282470703
 32
8.151386260986328
 13
-1350.5528564453125
 23
54.12708282470703
 33
8.151386260986328
  0
3DFACE
  8
0
 10
-1365.9779052734375
 20
42.13176727294922
 30
8.151386260986328
 11
-1365.9779052734375
 21
35.40911102294922
 31
8.151386260986328
 12
-1350.5528564453125
 22
35.40911102294922
 32
8.151386260986328
 13
-1350.5528564453125
 23
35.40911102294922
 33
8.151386260986328
  0
3DFACE
  8
0
 10
-1365.9779052734375
 20
42.13176727294922
 30
8.151386260986328
 11
-1350.5528564453125
 21
35.40911102294922
 31
8.151386260986328
 12
-1350.5528564453125
 22
42.13176727294922
 32
8.151386260986328
 13
-1350.5528564453125
 23
42.13176727294922
 33
8.151386260986328
  0
3DFACE
  8
0
 10
-1365.9779052734375
 20
30.136444091796875
 30
8.151386260986328
 11
-1365.9779052734375
 21
23.41379737854004
 31
8.151386260986328
 12
-1350.5528564453125
 22
23.41379737854004
 32
8.151386260986328
 13
-1350.5528564453125
 23
23.41379737854004
 33
8.151386260986328
  0
3DFACE
  8
0
 10
-1365.9779052734375
 20
30.136444091796875
 30
8.151386260986328
 11
-1350.5528564453125
 21
23.41379737854004
 31
8.151386260986328
 12
-1350.5528564453125
 22
30.136444091796875
 32
8.151386260986328
 13
-1350.5528564453125
 23
30.136444091796875
 33
8.151386260986328
  0
3DFACE
  8
0
 10
-1365.9779052734375
 20
18.141128540039062
 30
8.151386260986328
 11
-1365.9779052734375
 21
11.41848373413086
 31
8.151386260986328
 12
-1350.5528564453125
 22
11.41848373413086
 32
8.151386260986328
 13
-1350.5528564453125
 23
11.41848373413086
 33
8.151386260986328
  0
3DFACE
  8
0
 10
-1365.9779052734375
 20
18.141128540039062
 30
8.151386260986328
 11
-1350.5528564453125
 21
11.41848373413086
 31
8.151386260986328
 12
-1350.5528564453125
 22
18.141128540039062
 32
8.151386260986328
 13
-1350.5528564453125
 23
18.141128540039062
 33
8.151386260986328
  0
3DFACE
  8
0
 10
-1365.9779052734375
 20
6.145816802978516
 30
8.151386260986328
 11
-1365.9779052734375
 21
-0.5768470764160156
 31
8.151386260986328
 12
-1350.5528564453125
 22
-0.5768470764160156
 32
8.151386260986328
 13
-1350.5528564453125
 23
-0.5768470764160156
 33
8.151386260986328
  0
3DFACE
  8
0
 10
-1365.9779052734375
 20
6.145816802978516
 30
8.151386260986328
 11
-1350.5528564453125
 21
-0.5768470764160156
 31
8.151386260986328
 12
-1350.5528564453125
 22
6.145816802978516
 32
8.151386260986328
 13
-1350.5528564453125
 23
6.145816802978516
 33
8.151386260986328
  0
3DFACE
  8
0
 10
-1365.9779052734375
 20
-5.849514007568359
 30
8.151386260986328
 11
-1365.9779052734375
 21
-12.572174072265625
 31
8.151386260986328
 12
-1350.5528564453125
 22
-12.572174072265625
 32
8.151386260986328
 13
-1350.5528564453125
 23
-12.572174072265625
 33
8.151386260986328
  0
3DFACE
  8
0
 10
-1365.9779052734375
 20
-5.849514007568359
 30
8.151386260986328
 11
-1350.5528564453125
 21
-12.572174072265625
 31
8.151386260986328
 12
-1350.5528564453125
 22
-5.849514007568359
 32
8.151386260986328
 13
-1350.5528564453125
 23
-5.849514007568359
 33
8.151386260986328
  0
3DFACE
  8
0
 10
-1365.9779052734375
 20
-12.572174072265625
 30
8.151386260986328
 11
-1372.9169921875
 21
-12.572174072265625
 31
8.151386260986328
 12
-1372.9169921875
 22
-17.84484100341797
 32
8.151386260986328
 13
-1372.9169921875
 23
-17.84484100341797
 33
8.151386260986328
  0
3DFACE
  8
0
 10
-1365.9779052734375
 20
-12.572174072265625
 30
8.151386260986328
 11
-1372.9169921875
 21
-17.84484100341797
 31
8.151386260986328
 12
-1365.9779052734375
 22
-17.84484100341797
 32
8.151386260986328
 13
-1365.9779052734375
 23
-17.84484100341797
 33
8.151386260986328
  0
3DFACE
  8
0
 10
-1388.342041015625
 20
114.10368347167969
 30
8.151386260986328
 11
-1388.342041015625
 21
107.38102722167969
 31
8.151386260986328
 12
-1372.9169921875
 22
107.38102722167969
 32
8.151386260986328
 13
-1372.9169921875
 23
107.38102722167969
 33
8.151386260986328
  0
3DFACE
  8
0
 10
-1388.342041015625
 20
114.10368347167969
 30
8.151386260986328
 11
-1372.9169921875
 21
107.38102722167969
 31
8.151386260986328
 12
-1372.9169921875
 22
114.10368347167969
 32
8.151386260986328
 13
-1372.9169921875
 23
114.10368347167969
 33
8.151386260986328
  0
3DFACE
  8
0
 10
-1388.342041015625
 20
102.10836791992188
 30
8.151386260986328
 11
-1388.342041015625
 21
95.38571166992188
 31
8.151386260986328
 12
-1372.9169921875
 22
95.38571166992188
 32
8.151386260986328
 13
-1372.9169921875
 23
95.38571166992188
 33
8.151386260986328
  0
3DFACE
  8
0
 10
-1388.342041015625
 20
102.10836791992188
 30
8.151386260986328
 11
-1372.9169921875
 21
95.38571166992188
 31
8.151386260986328
 12
-1372.9169921875
 22
102.10836791992188
 32
8.151386260986328
 13
-1372.9169921875
 23
102.10836791992188
 33
8.151386260986328
  0
3DFACE
  8
0
 10
-1388.342041015625
 20
90.11305236816406
 30
8.151386260986328
 11
-1388.342041015625
 21
83.39039611816406
 31
8.151386260986328
 12
-1372.9169921875
 22
83.39039611816406
 32
8.151386260986328
 13
-1372.9169921875
 23
83.39039611816406
 33
8.151386260986328
  0
3DFACE
  8
0
 10
-1388.342041015625
 20
90.11305236816406
 30
8.151386260986328
 11
-1372.9169921875
 21
83.39039611816406
 31
8.151386260986328
 12
-1372.9169921875
 22
90.11305236816406
 32
8.151386260986328
 13
-1372.9169921875
 23
90.11305236816406
 33
8.151386260986328
  0
3DFACE
  8
0
 10
-1388.342041015625
 20
78.11772155761719
 30
8.151386260986328
 11
-1388.342041015625
 21
71.39506530761719
 31
8.151386260986328
 12
-1372.9169921875
 22
71.39506530761719
 32
8.151386260986328
 13
-1372.9169921875
 23
71.39506530761719
 33
8.151386260986328
  0
3DFACE
  8
0
 10
-1388.342041015625
 20
78.11772155761719
 30
8.151386260986328
 11
-1372.9169921875
 21
71.39506530761719
 31
8.151386260986328
 12
-1372.9169921875
 22
78.11772155761719
 32
8.151386260986328
 13
-1372.9169921875
 23
78.11772155761719
 33
8.151386260986328
  0
3DFACE
  8
0
 10
-1388.342041015625
 20
66.12239074707031
 30
8.151386260986328
 11
-1388.342041015625
 21
59.399749755859375
 31
8.151386260986328
 12
-1372.9169921875
 22
59.399749755859375
 32
8.151386260986328
 13
-1372.9169921875
 23
59.399749755859375
 33
8.151386260986328
  0
3DFACE
  8
0
 10
-1388.342041015625
 20
66.12239074707031
 30
8.151386260986328
 11
-1372.9169921875
 21
59.399749755859375
 31
8.151386260986328
 12
-1372.9169921875
 22
66.12239074707031
 32
8.151386260986328
 13
-1372.9169921875
 23
66.12239074707031
 33
8.151386260986328
  0
3DFACE
  8
0
 10
-1388.342041015625
 20
54.12708282470703
 30
8.151386260986328
 11
-1388.342041015625
 21
47.40443420410156
 31
8.151386260986328
 12
-1372.9169921875
 22
47.40443420410156
 32
8.151386260986328
 13
-1372.9169921875
 23
47.40443420410156
 33
8.151386260986328
  0
3DFACE
  8
0
 10
-1388.342041015625
 20
54.12708282470703
 30
8.151386260986328
 11
-1372.9169921875
 21
47.40443420410156
 31
8.151386260986328
 12
-1372.9169921875
 22
54.12708282470703
 32
8.151386260986328
 13
-1372.9169921875
 23
54.12708282470703
 33
8.151386260986328
  0
3DFACE
  8
0
 10
-1388.342041015625
 20
42.13176727294922
 30
8.151386260986328
 11
-1388.342041015625
 21
35.40911102294922
 31
8.151386260986328
 12
-1372.9169921875
 22
35.40911102294922
 32
8.151386260986328
 13
-1372.9169921875
 23
35.40911102294922
 33
8.151386260986328
  0
3DFACE
  8
0
 10
-1388.342041015625
 20
42.13176727294922
 30
8.151386260986328
 11
-1372.9169921875
 21
35.40911102294922
 31
8.151386260986328
 12
-1372.9169921875
 22
42.13176727294922
 32
8.151386260986328
 13
-1372.9169921875
 23
42.13176727294922
 33
8.151386260986328
  0
3DFACE
  8
0
 10
-1388.342041015625
 20
30.136444091796875
 30
8.151386260986328
 11
-1388.342041015625
 21
23.41379737854004
 31
8.151386260986328
 12
-1372.9169921875
 22
23.41379737854004
 32
8.151386260986328
 13
-1372.9169921875
 23
23.41379737854004
 33
8.151386260986328
  0
3DFACE
  8
0
 10
-1388.342041015625
 20
30.136444091796875
 30
8.151386260986328
 11
-1372.9169921875
 21
23.41379737854004
 31
8.151386260986328
 12
-1372.9169921875
 22
30.136444091796875
 32
8.151386260986328
 13
-1372.9169921875
 23
30.136444091796875
 33
8.151386260986328
  0
3DFACE
  8
0
 10
-1388.342041015625
 20
18.141128540039062
 30
8.151386260986328
 11
-1388.342041015625
 21
11.41848373413086
 31
8.151386260986328
 12
-1372.9169921875
 22
11.41848373413086
 32
8.151386260986328
 13
-1372.9169921875
 23
11.41848373413086
 33
8.151386260986328
  0
3DFACE
  8
0
 10
-1388.342041015625
 20
18.141128540039062
 30
8.151386260986328
 11
-1372.9169921875
 21
11.41848373413086
 31
8.151386260986328
 12
-1372.9169921875
 22
18.141128540039062
 32
8.151386260986328
 13
-1372.9169921875
 23
18.141128540039062
 33
8.151386260986328
  0
3DFACE
  8
0
 10
-1388.342041015625
 20
6.145816802978516
 30
8.151386260986328
 11
-1388.342041015625
 21
-0.5768470764160156
 31
8.151386260986328
 12
-1372.9169921875
 22
-0.5768470764160156
 32
8.151386260986328
 13
-1372.9169921875
 23
-0.5768470764160156
 33
8.151386260986328
  0
3DFACE
  8
0
 10
-1388.342041015625
 20
6.145816802978516
 30
8.151386260986328
 11
-1372.9169921875
 21
-0.5768470764160156
 31
8.151386260986328
 12
-1372.9169921875
 22
6.145816802978516
 32
8.151386260986328
 13
-1372.9169921875
 23
6.145816802978516
 33
8.151386260986328
  0
3DFACE
  8
0
 10
-1388.342041015625
 20
-5.849514007568359
 30
8.151386260986328
 11
-1388.342041015625
 21
-12.572174072265625
 31
8.151386260986328
 12
-1372.9169921875
 22
-12.572174072265625
 32
8.151386260986328
 13
-1372.9169921875
 23
-12.572174072265625
 33
8.151386260986328
  0
3DFACE
  8
0
 10
-1388.342041015625
 20
-5.849514007568359
 30
8.151386260986328
 11
-1372.9169921875
 21
-12.572174072265625
 31
8.151386260986328
 12
-1372.9169921875
 22
-5.849514007568359
 32
8.151386260986328
 13
-1372.9169921875
 23
-5.849514007568359
 33
8.151386260986328
  0
3DFACE
  8
0
 10
-1388.342041015625
 20
-12.572174072265625
 30
8.151386260986328
 11
-1395.279052734375
 21
-12.572181701660156
 31
8.151386260986328
 12
-1395.279052734375
 22
-17.8448486328125
 32
8.151386260986328
 13
-1395.279052734375
 23
-17.8448486328125
 33
8.151386260986328
  0
3DFACE
  8
0
 10
-1388.342041015625
 20
-12.572174072265625
 30
8.151386260986328
 11
-1395.279052734375
 21
-17.8448486328125
 31
8.151386260986328
 12
-1388.342041015625
 22
-17.84484100341797
 32
8.151386260986328
 13
-1388.342041015625
 23
-17.84484100341797
 33
8.151386260986328
  0
3DFACE
  8
0
 10
-1427.1195068359375
 20
-16.522850036621094
 30
8.151386260986328
 11
-1465.74365234375
 21
-16.522850036621094
 31
8.151386260986328
 12
-1507.0577392578125
 22
-24.534515380859375
 32
8.151386260986328
 13
-1507.0577392578125
 23
-24.534515380859375
 33
8.151386260986328
  0
3DFACE
  8
0
 10
-1410.7041015625
 20
-12.572181701660156
 30
8.151386260986328
 11
-1395.279052734375
 21
-12.572181701660156
 31
8.151386260986328
 12
-1395.279052734375
 22
-5.849517822265625
 32
8.151386260986328
 13
-1395.279052734375
 23
-5.849517822265625
 33
8.151386260986328
  0
3DFACE
  8
0
 10
-1395.279052734375
 20
-5.849517822265625
 30
8.151386260986328
 11
-1410.7041015625
 21
-5.849517822265625
 31
8.151386260986328
 12
-1427.1195068359375
 22
-9.032814025878906
 32
8.151386260986328
 13
-1427.1195068359375
 23
-9.032814025878906
 33
8.151386260986328
  0
3DFACE
  8
0
 10
-1427.1195068359375
 20
-16.522850036621094
 30
8.151386260986328
 11
-1507.0577392578125
 21
-24.534515380859375
 31
8.151386260986328
 12
-1410.7041015625
 22
-17.8448486328125
 32
8.151386260986328
 13
-1410.7041015625
 23
-17.8448486328125
 33
8.151386260986328
  0
3DFACE
  8
0
 10
-1395.279052734375
 20
-5.849517822265625
 30
8.151386260986328
 11
-1427.1195068359375
 21
-9.032814025878906
 31
8.151386260986328
 12
-1427.1195068359375
 22
-16.522850036621094
 32
8.151386260986328
 13
-1427.1195068359375
 23
-16.522850036621094
 33
8.151386260986328
  0
3DFACE
  8
0
 10
-1427.1195068359375
 20
-16.522850036621094
 30
8.151386260986328
 11
-1410.7041015625
 21
-17.8448486328125
 31
8.151386260986328
 12
-1410.7041015625
 22
-12.572181701660156
 32
8.151386260986328
 13
-1410.7041015625
 23
-12.572181701660156
 33
8.151386260986328
  0
3DFACE
  8
0
 10
-1410.7041015625
 20
-12.572181701660156
 30
8.151386260986328
 11
-1395.279052734375
 21
-5.849517822265625
 31
8.151386260986328
 12
-1427.1195068359375
 22
-16.522850036621094
 32
8.151386260986328
 13
-1427.1195068359375
 23
-16.522850036621094
 33
8.151386260986328
  0
3DFACE
  8
0
 10
-1481.8966064453125
 20
-16.522850036621094
 30
8.151386260986328
 11
-1507.0577392578125
 21
-24.534515380859375
 31
8.151386260986328
 12
-1465.74365234375
 22
-16.522850036621094
 32
8.151386260986328
 13
-1465.74365234375
 23
-16.522850036621094
 33
8.151386260986328
  0
3DFACE
  8
0
 10
-1427.1195068359375
 20
-3.3148536682128906
 30
8.151386260986328
 11
-1427.1195068359375
 21
-9.032814025878906
 31
8.151386260986328
 12
-1410.7041015625
 22
-5.849517822265625
 32
8.151386260986328
 13
-1410.7041015625
 23
-5.849517822265625
 33
8.151386260986328
  0
3DFACE
  8
0
 10
-1410.7041015625
 20
-0.5768508911132812
 30
8.151386260986328
 11
-1395.279052734375
 21
-0.5768508911132812
 31
8.151386260986328
 12
-1395.279052734375
 22
6.14581298828125
 32
8.151386260986328
 13
-1395.279052734375
 23
6.14581298828125
 33
8.151386260986328
  0
3DFACE
  8
0
 10
-1427.1195068359375
 20
-3.3148536682128906
 30
8.151386260986328
 11
-1410.7041015625
 21
-5.849517822265625
 31
8.151386260986328
 12
-1410.7041015625
 22
-0.5768508911132812
 32
8.151386260986328
 13
-1410.7041015625
 23
-0.5768508911132812
 33
8.151386260986328
  0
3DFACE
  8
0
 10
-1410.7041015625
 20
6.14581298828125
 30
8.151386260986328
 11
-1440.416015625
 21
-3.3148536682128906
 31
8.151386260986328
 12
-1427.1195068359375
 22
-3.3148536682128906
 32
8.151386260986328
 13
-1427.1195068359375
 23
-3.3148536682128906
 33
8.151386260986328
  0
3DFACE
  8
0
 10
-1410.7041015625
 20
-0.5768508911132812
 30
8.151386260986328
 11
-1395.279052734375
 21
6.14581298828125
 31
8.151386260986328
 12
-1410.7041015625
 22
6.14581298828125
 32
8.151386260986328
 13
-1410.7041015625
 23
6.14581298828125
 33
8.151386260986328
  0
3DFACE
  8
0
 10
-1410.7041015625
 20
-0.5768508911132812
 30
8.151386260986328
 11
-1410.7041015625
 21
6.14581298828125
 31
8.151386260986328
 12
-1427.1195068359375
 22
-3.3148536682128906
 32
8.151386260986328
 13
-1427.1195068359375
 23
-3.3148536682128906
 33
8.151386260986328
  0
3DFACE
  8
0
 10
-1410.7041015625
 20
11.418479919433594
 30
8.151386260986328
 11
-1395.279052734375
 21
11.418479919433594
 31
8.151386260986328
 12
-1395.279052734375
 22
18.141128540039062
 32
8.151386260986328
 13
-1395.279052734375
 23
18.141128540039062
 33
8.151386260986328
  0
3DFACE
  8
0
 10
-1395.279052734375
 20
18.141128540039062
 30
8.151386260986328
 11
-1410.7041015625
 21
18.141128540039062
 31
8.151386260986328
 12
-1459.147705078125
 22
-3.3148536682128906
 32
8.151386260986328
 13
-1459.147705078125
 23
-3.3148536682128906
 33
8.151386260986328
  0
3DFACE
  8
0
 10
-1459.147705078125
 20
-3.3148536682128906
 30
8.151386260986328
 11
-1440.416015625
 21
-3.3148536682128906
 31
8.151386260986328
 12
-1410.7041015625
 22
6.14581298828125
 32
8.151386260986328
 13
-1410.7041015625
 23
6.14581298828125
 33
8.151386260986328
  0
3DFACE
  8
0
 10
-1410.7041015625
 20
11.418479919433594
 30
8.151386260986328
 11
-1395.279052734375
 21
18.141128540039062
 31
8.151386260986328
 12
-1459.147705078125
 22
-3.3148536682128906
 32
8.151386260986328
 13
-1459.147705078125
 23
-3.3148536682128906
 33
8.151386260986328
  0
3DFACE
  8
0
 10
-1410.7041015625
 20
11.418479919433594
 30
8.151386260986328
 11
-1459.147705078125
 21
-3.3148536682128906
 31
8.151386260986328
 12
-1410.7041015625
 22
6.14581298828125
 32
8.151386260986328
 13
-1410.7041015625
 23
6.14581298828125
 33
8.151386260986328
  0
3DFACE
  8
0
 10
-1488.9688720703125
 20
-16.522850036621094
 30
8.151386260986328
 11
-1507.0577392578125
 21
-24.534515380859375
 31
8.151386260986328
 12
-1481.8966064453125
 22
-16.522850036621094
 32
8.151386260986328
 13
-1481.8966064453125
 23
-16.522850036621094
 33
8.151386260986328
  0
3DFACE
  8
0
 10
-1395.279052734375
 20
35.40911102294922
 30
8.151386260986328
 11
-1395.279052734375
 21
42.13176727294922
 31
8.151386260986328
 12
-1410.7041015625
 22
42.13176727294922
 32
8.151386260986328
 13
-1410.7041015625
 23
42.13176727294922
 33
8.151386260986328
  0
3DFACE
  8
0
 10
-1395.279052734375
 20
35.40911102294922
 30
8.151386260986328
 11
-1410.7041015625
 21
42.13176727294922
 31
8.151386260986328
 12
-1410.7041015625
 22
35.40911102294922
 32
8.151386260986328
 13
-1410.7041015625
 23
35.40911102294922
 33
8.151386260986328
  0
3DFACE
  8
0
 10
-1395.279052734375
 20
47.40443420410156
 30
8.151386260986328
 11
-1395.279052734375
 21
54.127079010009766
 31
8.151386260986328
 12
-1410.7041015625
 22
54.127079010009766
 32
8.151386260986328
 13
-1410.7041015625
 23
54.127079010009766
 33
8.151386260986328
  0
3DFACE
  8
0
 10
-1395.279052734375
 20
47.40443420410156
 30
8.151386260986328
 11
-1410.7041015625
 21
54.127079010009766
 31
8.151386260986328
 12
-1410.7041015625
 22
47.40443420410156
 32
8.151386260986328
 13
-1410.7041015625
 23
47.40443420410156
 33
8.151386260986328
  0
3DFACE
  8
0
 10
-1395.31494140625
 20
59.39974594116211
 30
8.151386260986328
 11
-1395.279052734375
 21
66.12239074707031
 31
8.151386260986328
 12
-1410.7041015625
 22
66.12239074707031
 32
8.151386260986328
 13
-1410.7041015625
 23
66.12239074707031
 33
8.151386260986328
  0
3DFACE
  8
0
 10
-1395.31494140625
 20
59.39974594116211
 30
8.151386260986328
 11
-1410.7041015625
 21
66.12239074707031
 31
8.151386260986328
 12
-1410.7041015625
 22
59.39974594116211
 32
8.151386260986328
 13
-1410.7041015625
 23
59.39974594116211
 33
8.151386260986328
  0
3DFACE
  8
0
 10
-1395.279052734375
 20
71.39506530761719
 30
8.151386260986328
 11
-1395.279052734375
 21
78.11772155761719
 31
8.151386260986328
 12
-1410.7041015625
 22
78.11772155761719
 32
8.151386260986328
 13
-1410.7041015625
 23
78.11772155761719
 33
8.151386260986328
  0
3DFACE
  8
0
 10
-1395.279052734375
 20
71.39506530761719
 30
8.151386260986328
 11
-1410.7041015625
 21
78.11772155761719
 31
8.151386260986328
 12
-1410.7041015625
 22
71.39506530761719
 32
8.151386260986328
 13
-1410.7041015625
 23
71.39506530761719
 33
8.151386260986328
  0
3DFACE
  8
0
 10
-1395.279052734375
 20
83.39038848876953
 30
8.151386260986328
 11
-1395.279052734375
 21
90.11304473876953
 31
8.151386260986328
 12
-1410.7041015625
 22
90.11304473876953
 32
8.151386260986328
 13
-1410.7041015625
 23
90.11304473876953
 33
8.151386260986328
  0
3DFACE
  8
0
 10
-1395.279052734375
 20
83.39038848876953
 30
8.151386260986328
 11
-1410.7041015625
 21
90.11304473876953
 31
8.151386260986328
 12
-1410.7041015625
 22
83.39038848876953
 32
8.151386260986328
 13
-1410.7041015625
 23
83.39038848876953
 33
8.151386260986328
  0
3DFACE
  8
0
 10
-1395.279052734375
 20
95.38571166992188
 30
8.151386260986328
 11
-1395.279052734375
 21
102.10836029052734
 31
8.151386260986328
 12
-1410.7041015625
 22
102.10836029052734
 32
8.151386260986328
 13
-1410.7041015625
 23
102.10836029052734
 33
8.151386260986328
  0
3DFACE
  8
0
 10
-1395.279052734375
 20
95.38571166992188
 30
8.151386260986328
 11
-1410.7041015625
 21
102.10836029052734
 31
8.151386260986328
 12
-1410.7041015625
 22
95.38571166992188
 32
8.151386260986328
 13
-1410.7041015625
 23
95.38571166992188
 33
8.151386260986328
  0
3DFACE
  8
0
 10
-1395.279052734375
 20
107.38102722167969
 30
8.151386260986328
 11
-1395.279052734375
 21
114.10367584228516
 31
8.151386260986328
 12
-1410.7041015625
 22
114.10367584228516
 32
8.151386260986328
 13
-1410.7041015625
 23
114.10367584228516
 33
8.151386260986328
  0
3DFACE
  8
0
 10
-1395.279052734375
 20
107.38102722167969
 30
8.151386260986328
 11
-1410.7041015625
 21
114.10367584228516
 31
8.151386260986328
 12
-1410.7041015625
 22
107.38102722167969
 32
8.151386260986328
 13
-1410.7041015625
 23
107.38102722167969
 33
8.151386260986328
  0
3DFACE
  8
0
 10
-1271.236083984375
 20
152.60000610351562
 30
8.151386260986328
 11
-1281.513916015625
 21
152.60000610351562
 31
8.151386260986328
 12
-1281.513916015625
 22
149.84718322753906
 32
8.151386260986328
 13
-1281.513916015625
 23
149.84718322753906
 33
8.151386260986328
  0
3DFACE
  8
0
 10
-1488.3309326171875
 20
152.60000610351562
 30
8.151386260986328
 11
-1507.0577392578125
 21
152.60000610351562
 31
8.151386260986328
 12
-1488.3309326171875
 22
146.14280700683594
 32
8.151386260986328
 13
-1488.3309326171875
 23
146.14280700683594
 33
8.151386260986328
  0
3DFACE
  8
0
 10
-1475.1229248046875
 20
152.60000610351562
 30
8.151386260986328
 11
-1475.1229248046875
 21
141.58856201171875
 31
8.151386260986328
 12
-1410.7041015625
 22
119.3763427734375
 32
8.151386260986328
 13
-1410.7041015625
 23
119.3763427734375
 33
8.151386260986328
  0
3DFACE
  8
0
 10
-1410.7041015625
 20
119.3763427734375
 30
8.151386260986328
 11
-1395.279052734375
 21
119.3763427734375
 31
8.151386260986328
 12
-1294.721923828125
 22
146.30955505371094
 32
8.151386260986328
 13
-1294.721923828125
 23
146.30955505371094
 33
8.151386260986328
  0
3DFACE
  8
0
 10
-1294.721923828125
 20
146.30955505371094
 30
8.151386260986328
 11
-1294.721923828125
 21
152.60000610351562
 31
8.151386260986328
 12
-1475.1229248046875
 22
152.60000610351562
 32
8.151386260986328
 13
-1475.1229248046875
 23
152.60000610351562
 33
8.151386260986328
  0
3DFACE
  8
0
 10
-1410.7041015625
 20
119.3763427734375
 30
8.151386260986328
 11
-1294.721923828125
 21
146.30955505371094
 31
8.151386260986328
 12
-1475.1229248046875
 22
152.60000610351562
 32
8.151386260986328
 13
-1475.1229248046875
 23
152.60000610351562
 33
8.151386260986328
  0
3DFACE
  8
0
 10
-1294.721923828125
 20
152.60000610351562
 30
8.151386260986328
 11
-1294.721923828125
 21
72.90431213378906
 31
8.151386260986328
 12
-1281.513916015625
 22
72.90431213378906
 32
8.151386260986328
 13
-1281.513916015625
 23
72.90431213378906
 33
8.151386260986328
  0
3DFACE
  8
0
 10
-1294.721923828125
 20
152.60000610351562
 30
8.151386260986328
 11
-1281.513916015625
 21
72.90431213378906
 31
8.151386260986328
 12
-1281.513916015625
 22
152.60000610351562
 32
8.151386260986328
 13
-1281.513916015625
 23
152.60000610351562
 33
8.151386260986328
  0
3DFACE
  8
0
 10
-1488.3309326171875
 20
152.60000610351562
 30
8.151386260986328
 11
-1488.3309326171875
 21
71.31736755371094
 31
8.151386260986328
 12
-1475.1229248046875
 22
71.31736755371094
 32
8.151386260986328
 13
-1475.1229248046875
 23
71.31736755371094
 33
8.151386260986328
  0
3DFACE
  8
0
 10
-1488.3309326171875
 20
152.60000610351562
 30
8.151386260986328
 11
-1475.1229248046875
 21
71.31736755371094
 31
8.151386260986328
 12
-1475.1229248046875
 22
152.60000610351562
 32
8.151386260986328
 13
-1475.1229248046875
 23
152.60000610351562
 33
8.151386260986328
  0
3DFACE
  8
0
 10
-1427.1195068359375
 20
-16.522850036621094
 30
8.151386260986328
 11
-1427.1195068359375
 21
-3.3148536682128906
 31
8.151386260986328
 12
-1507.0577392578125
 22
-3.3148536682128906
 32
8.151386260986328
 13
-1507.0577392578125
 23
-3.3148536682128906
 33
8.151386260986328
  0
3DFACE
  8
0
 10
-1427.1195068359375
 20
-16.522850036621094
 30
8.151386260986328
 11
-1507.0577392578125
 21
-3.3148536682128906
 31
8.151386260986328
 12
-1507.0577392578125
 22
-16.522850036621094
 32
8.151386260986328
 13
-1507.0577392578125
 23
-16.522850036621094
 33
8.151386260986328
  0
ENDSEC
  0
EOF
