<?xml version="1.0" encoding="UTF-8"?>
<svg xmlns="http://www.w3.org/2000/svg" 
     width="255.82mm" height="197.13mm" 
     viewBox="0 0 255.82 197.13">
  <path d="M 10.0000,187.1345 L 245.8216,187.1345 L 245.8216,10.0000 L 10.0000,10.0000 Z" fill="none" stroke="#333333" stroke-width="0.5"/>
  <path d="M 78.1191,99.3215 L 78.1191,134.2154 L 47.3181,134.2154 L 47.3181,98.8441 L 78.1191,98.8441 L 78.1191,99.3215 Z" fill="none" stroke="#cc0000" stroke-width="0.5"/>
  <path d="M 106.3536,144.4589 L 106.3536,139.1862 L 121.7786,139.1862 L 121.7786,144.4589 L 106.3536,144.4589 Z" fill="none" stroke="#009933" stroke-width="0.5"/>
  <path d="M 106.3536,48.4963 L 106.3536,43.2237 L 121.7786,43.2237 L 121.7786,48.4963 L 106.3536,48.4963 Z" fill="none" stroke="#009933" stroke-width="0.5"/>
  <path d="M 106.3536,60.4916 L 106.3536,55.2190 L 121.7786,55.2190 L 121.7786,60.4916 L 106.3536,60.4916 Z" fill="none" stroke="#009933" stroke-width="0.5"/>
  <path d="M 106.3536,132.4636 L 106.3536,127.1909 L 121.7786,127.1909 L 121.7786,132.4636 L 106.3536,132.4636 Z" fill="none" stroke="#009933" stroke-width="0.5"/>
  <path d="M 106.3536,120.4682 L 106.3536,115.1956 L 121.7786,115.1956 L 121.7786,120.4682 L 106.3536,120.4682 Z" fill="none" stroke="#009933" stroke-width="0.5"/>
  <path d="M 106.3536,72.4870 L 106.3536,67.2143 L 121.7786,67.2143 L 121.7786,72.4870 L 106.3536,72.4870 Z" fill="none" stroke="#009933" stroke-width="0.5"/>
  <path d="M 106.3536,108.4729 L 106.3536,103.2003 L 121.7428,103.2003 L 121.7786,103.2003 L 121.7786,108.4729 L 106.3536,108.4729 Z" fill="none" stroke="#009933" stroke-width="0.5"/>
  <path d="M 106.3536,84.4823 L 106.3536,79.2096 L 121.7786,79.2096 L 121.7786,84.4823 L 106.3536,84.4823 Z" fill="none" stroke="#009933" stroke-width="0.5"/>
  <path d="M 106.3536,96.4776 L 106.3536,91.2049 L 121.7786,91.2049 L 121.7786,96.4776 L 106.3536,96.4776 Z" fill="none" stroke="#009933" stroke-width="0.5"/>
  <path d="M 194.5545,175.4103 L 194.5545,99.7545 L 194.5545,42.5126 L 214.2844,42.5126 L 214.2844,179.6189 L 194.5545,179.6189 L 194.5545,175.4103 Z" fill="none" stroke="#0066cc" stroke-width="0.5"/>
  <path d="M 166.5048,163.1768 L 166.5048,168.4495 L 151.0798,168.4495 L 151.0798,163.1768 L 166.5048,163.1768 Z" fill="none" stroke="#009933" stroke-width="0.5"/>
  <path d="M 166.5048,103.2003 L 166.5048,108.4729 L 151.0798,108.4729 L 151.0798,103.2003 L 166.5048,103.2003 Z" fill="none" stroke="#009933" stroke-width="0.5"/>
  <path d="M 166.5048,151.1815 L 166.5048,156.4542 L 151.0798,156.4542 L 151.0798,151.1815 L 166.5048,151.1815 Z" fill="none" stroke="#009933" stroke-width="0.5"/>
  <path d="M 166.5048,115.1956 L 166.5048,120.4682 L 151.0798,120.4682 L 151.0798,115.1956 L 166.5048,115.1956 Z" fill="none" stroke="#009933" stroke-width="0.5"/>
  <path d="M 166.5048,139.1862 L 166.5048,144.4589 L 151.0798,144.4589 L 151.0798,139.1862 L 166.5048,139.1862 Z" fill="none" stroke="#009933" stroke-width="0.5"/>
  <path d="M 166.5048,127.1909 L 166.5048,132.4636 L 151.0798,132.4636 L 151.0798,127.1909 L 166.5048,127.1909 Z" fill="none" stroke="#009933" stroke-width="0.5"/>
  <path d="M 144.1407,180.4448 L 128.7157,180.4448 L 128.7157,175.1722 L 144.1407,175.1722 L 144.1407,180.4448 Z" fill="none" stroke="#009933" stroke-width="0.5"/>
  <path d="M 121.7786,180.4448 L 106.3536,180.4448 L 106.3536,175.1722 L 121.7786,175.1722 L 121.7786,180.4448 Z" fill="none" stroke="#009933" stroke-width="0.5"/>
  <path d="M 166.5048,180.4448 L 151.0798,180.4448 L 151.0798,175.1722 L 166.5048,175.1722 L 166.5048,180.4448 Z" fill="none" stroke="#009933" stroke-width="0.5"/>
  <path d="M 121.7786,163.1769 L 121.7786,168.4495 L 106.3536,168.4495 L 106.3536,163.1769 L 121.7786,163.1769 Z" fill="none" stroke="#009933" stroke-width="0.5"/>
  <path d="M 128.7157,168.4495 L 128.7157,163.1768 L 144.1407,163.1768 L 144.1407,168.4495 L 128.7157,168.4495 Z" fill="none" stroke="#009933" stroke-width="0.5"/>
  <path d="M 121.7786,151.1815 L 121.7786,156.4542 L 106.3536,156.4542 L 106.3536,151.1815 L 121.7786,151.1815 Z" fill="none" stroke="#009933" stroke-width="0.5"/>
  <path d="M 128.7157,156.4542 L 128.7157,151.1815 L 144.1407,151.1815 L 144.1407,156.4542 L 128.7157,156.4542 Z" fill="none" stroke="#009933" stroke-width="0.5"/>
  <path d="M 128.7157,144.4589 L 128.7157,139.1862 L 144.1407,139.1862 L 144.1407,144.4589 L 128.7157,144.4589 Z" fill="none" stroke="#009933" stroke-width="0.5"/>
  <path d="M 128.7157,132.4636 L 128.7157,127.1909 L 144.1407,127.1909 L 144.1407,132.4636 L 128.7157,132.4636 Z" fill="none" stroke="#009933" stroke-width="0.5"/>
  <path d="M 128.7157,120.4682 L 128.7157,115.1956 L 144.1407,115.1956 L 144.1407,120.4682 L 128.7157,120.4682 Z" fill="none" stroke="#009933" stroke-width="0.5"/>
  <path d="M 128.7157,108.4729 L 128.7157,103.2003 L 144.1407,103.2003 L 144.1407,108.4729 L 128.7157,108.4729 Z" fill="none" stroke="#009933" stroke-width="0.5"/>
  <path d="M 128.7157,96.4776 L 128.7157,91.2049 L 144.1407,91.2049 L 144.1407,96.4776 L 128.7157,96.4776 Z" fill="none" stroke="#009933" stroke-width="0.5"/>
  <path d="M 128.7157,84.4823 L 128.7157,79.2096 L 144.1407,79.2096 L 144.1407,84.4823 L 128.7157,84.4823 Z" fill="none" stroke="#009933" stroke-width="0.5"/>
  <path d="M 128.7157,72.4869 L 128.7157,67.2143 L 144.1407,67.2143 L 144.1407,72.4869 L 128.7157,72.4869 Z" fill="none" stroke="#009933" stroke-width="0.5"/>
  <path d="M 128.7157,60.4916 L 128.7157,55.2190 L 144.1407,55.2190 L 144.1407,60.4916 L 128.7157,60.4916 Z" fill="none" stroke="#009933" stroke-width="0.5"/>
  <path d="M 128.7157,48.4963 L 128.7157,43.2237 L 144.1407,43.2237 L 144.1407,48.4963 L 128.7157,48.4963 Z" fill="none" stroke="#009933" stroke-width="0.5"/>
  <path d="M 166.5048,91.2049 L 166.5048,96.4776 L 151.0798,96.4776 L 151.0798,91.2049 L 166.5048,91.2049 Z" fill="none" stroke="#009933" stroke-width="0.5"/>
  <path d="M 166.5048,79.2096 L 166.5048,84.4823 L 151.0798,84.4823 L 151.0798,79.2096 L 166.5048,79.2096 Z" fill="none" stroke="#009933" stroke-width="0.5"/>
  <path d="M 151.0798,72.4869 L 151.0798,67.2143 L 166.5048,67.2143 L 166.5048,72.4869 L 151.0798,72.4869 Z" fill="none" stroke="#009933" stroke-width="0.5"/>
  <path d="M 151.0798,60.4916 L 151.0798,55.2190 L 166.5048,55.2190 L 166.5048,60.4916 L 151.0798,60.4916 Z" fill="none" stroke="#009933" stroke-width="0.5"/>
  <path d="M 151.0798,48.4963 L 151.0798,43.2237 L 166.5048,43.2237 L 166.5048,48.4963 L 151.0798,48.4963 Z" fill="none" stroke="#009933" stroke-width="0.5"/>
</svg>
